<svg xmlns="http://www.w3.org/2000/svg" xmlns:xlink="http://www.w3.org/1999/xlink" width="500" zoomAndPan="magnify" viewBox="0 0 375 374.999991" height="500" preserveAspectRatio="xMidYMid meet" version="1.0"><defs><clipPath id="7373141511"><path d="M 139 87 L 273.847656 87 L 273.847656 184 L 139 184 Z M 139 87 " clip-rule="nonzero"/></clipPath><clipPath id="83df2a3332"><path d="M 108 75.085938 L 134 75.085938 L 134 300.085938 L 108 300.085938 Z M 108 75.085938 " clip-rule="nonzero"/></clipPath><clipPath id="c729b4f6bb"><path d="M 144 168 L 241 168 L 241 300.085938 L 144 300.085938 Z M 144 168 " clip-rule="nonzero"/></clipPath><clipPath id="4eb2681af0"><path d="M 93.097656 293 L 271 293 L 271 300.085938 L 93.097656 300.085938 Z M 93.097656 293 " clip-rule="nonzero"/></clipPath></defs><g clip-path="url(#7373141511)"><path fill="#000000" d="M 269.953125 183.769531 L 235.816406 183.769531 C 225.972656 170.707031 210.332031 162.25 192.742188 162.25 C 175.148438 162.25 159.507812 170.707031 149.664062 183.769531 L 139.789062 183.769531 L 139.789062 87.707031 L 269.953125 87.707031 C 271.234375 87.707031 272.332031 88.441406 272.882812 89.722656 C 273.429688 90.820312 273.066406 92.28125 272.332031 93.199219 L 230.800781 136.746094 L 272.332031 178.277344 C 273.25 179.195312 273.613281 180.65625 273.066406 181.753906 C 272.515625 182.851562 271.417969 183.769531 269.953125 183.769531 Z M 269.953125 183.769531 " fill-opacity="1" fill-rule="evenodd"/></g><g clip-path="url(#83df2a3332)"><path fill="#38b6ff" d="M 130.347656 300.136719 C 128.65625 300.136719 127.277344 298.886719 127.078125 297.253906 L 114.769531 297.253906 C 114.570312 298.886719 113.191406 300.136719 111.503906 300.136719 C 109.671875 300.136719 108.207031 298.671875 108.207031 296.84375 L 108.207031 78.375 C 108.207031 76.546875 109.671875 75.082031 111.503906 75.082031 L 130.347656 75.082031 C 132.175781 75.082031 133.640625 76.546875 133.640625 78.375 L 133.640625 297.027344 C 133.640625 298.671875 132.175781 300.136719 130.347656 300.136719 Z M 130.347656 300.136719 " fill-opacity="1" fill-rule="evenodd"/></g><g clip-path="url(#c729b4f6bb)"><path fill="#38b6ff" d="M 192.742188 300.136719 C 191.644531 300.136719 190.546875 299.589844 189.996094 298.671875 C 187.25 294.28125 183.59375 288.976562 179.382812 282.570312 C 164.015625 260.25 144.984375 232.253906 144.984375 216.152344 C 144.984375 189.804688 166.394531 168.398438 192.742188 168.398438 C 219.089844 168.398438 240.496094 189.804688 240.496094 216.152344 C 240.496094 232.253906 221.46875 260.066406 206.28125 282.570312 C 201.890625 288.792969 198.230469 294.28125 195.484375 298.671875 C 194.9375 299.589844 193.839844 300.136719 192.742188 300.136719 Z M 192.742188 245.246094 C 176.820312 245.246094 163.832031 232.253906 163.832031 216.152344 C 163.832031 200.234375 176.820312 187.246094 192.742188 187.246094 C 208.660156 187.246094 221.652344 200.234375 221.652344 216.152344 C 221.652344 232.253906 208.660156 245.246094 192.742188 245.246094 Z M 192.742188 193.648438 C 180.300781 193.648438 170.234375 203.710938 170.234375 216.152344 C 170.234375 228.59375 180.300781 238.839844 192.742188 238.839844 C 205.183594 238.839844 215.246094 228.597656 215.246094 216.152344 C 215.246094 203.710938 205.183594 193.648438 192.742188 193.648438 Z M 192.742188 193.648438 " fill-opacity="1" fill-rule="evenodd"/></g><g clip-path="url(#4eb2681af0)"><path fill="#38b6ff" d="M 267.394531 300.136719 L 96.5 300.136719 C 94.667969 300.136719 93.203125 298.671875 93.203125 296.84375 C 93.203125 295.015625 94.667969 293.550781 96.5 293.550781 L 267.394531 293.550781 C 269.222656 293.550781 270.6875 295.015625 270.6875 296.84375 C 270.6875 298.671875 269.222656 300.136719 267.394531 300.136719 Z M 267.394531 300.136719 " fill-opacity="1" fill-rule="evenodd"/></g></svg>