<svg xmlns="http://www.w3.org/2000/svg" xmlns:xlink="http://www.w3.org/1999/xlink" width="500" zoomAndPan="magnify" viewBox="0 0 375 374.999991" height="500" preserveAspectRatio="xMidYMid meet" version="1.0"><defs><g/><clipPath id="010a9f8908"><path d="M 90.144531 18.960938 L 294.136719 18.960938 L 294.136719 270.03125 L 90.144531 270.03125 Z M 90.144531 18.960938 " clip-rule="nonzero"/></clipPath><clipPath id="887ff1a567"><path d="M 158.179688 24.851562 C 168.601562 21.292969 180.527344 18.960938 192.195312 18.960938 C 203.863281 18.960938 215.09375 20.960938 225.441406 24.515625 C 225.664062 24.628906 225.882812 24.628906 226.101562 24.738281 C 264.964844 38.964844 293.585938 76.53125 294.136719 120.433594 L 294.136719 270.03125 L 90.144531 270.03125 L 90.144531 120.542969 C 90.691406 76.308594 118.875 38.742188 158.179688 24.851562 Z M 158.179688 24.851562 " clip-rule="nonzero"/></clipPath><clipPath id="cd70bb89ca"><path d="M 90.144531 152.84375 L 295.3125 152.84375 L 295.3125 270.03125 L 90.144531 270.03125 Z M 90.144531 152.84375 " clip-rule="nonzero"/></clipPath><clipPath id="30d673093d"><path d="M 153.382812 69.234375 L 229.882812 69.234375 L 229.882812 145.734375 L 153.382812 145.734375 Z M 153.382812 69.234375 " clip-rule="nonzero"/></clipPath></defs><rect x="-37.5" width="450" fill="#ffffff" y="-37.499999" height="449.999989" fill-opacity="1"/><rect x="-37.5" width="450" fill="#ffffff" y="-37.499999" height="449.999989" fill-opacity="1"/><g clip-path="url(#010a9f8908)"><g clip-path="url(#887ff1a567)"><path fill="#000000" d="M 90.144531 18.960938 L 294.136719 18.960938 L 294.136719 270.03125 L 90.144531 270.03125 Z M 90.144531 18.960938 " fill-opacity="1" fill-rule="nonzero"/></g></g><g clip-path="url(#cd70bb89ca)"><path fill="#38b6ff" d="M 90.144531 152.84375 L 295.3125 152.84375 L 295.3125 270.03125 L 90.144531 270.03125 Z M 90.144531 152.84375 " fill-opacity="1" fill-rule="nonzero"/></g><g clip-path="url(#30d673093d)"><path stroke-linecap="butt" transform="matrix(0.200052, 0, 0, 0.200052, 153.383505, 69.234802)" fill-opacity="1" fill="#00d300" fill-rule="nonzero" stroke-linejoin="miter" d="M 191.216056 381.948747 C 85.892042 381.948747 0.504219 296.560924 0.504219 191.217383 C 0.504219 85.893369 85.892042 0.505546 191.216056 0.505546 C 296.559597 0.505546 381.94742 85.893369 381.94742 191.217383 C 381.94742 296.560924 296.559597 381.948747 191.216056 381.948747 Z M 191.216056 381.948747 " stroke="#3fb24f" stroke-width="1" stroke-opacity="1" stroke-miterlimit="10"/></g><path fill="#ffffff" d="M 183.832031 131.292969 L 167.382812 109.929688 L 173.722656 105.046875 L 184.054688 118.46875 L 209.640625 87.546875 L 215.804688 92.648438 Z M 183.832031 131.292969 " fill-opacity="1" fill-rule="nonzero"/><path fill="#000000" d="M 105.207031 229.0625 L 279.136719 229.0625 L 279.136719 232.8125 L 105.207031 232.8125 Z M 105.207031 229.0625 " fill-opacity="1" fill-rule="nonzero"/><g fill="#000000" fill-opacity="1"><g transform="translate(105.20611, 226.812276)"><g><path d="M 19.085938 -27.160156 C 19.085938 -31.050781 17.015625 -33.121094 13.125 -33.121094 L 2.730469 -33.121094 C 2.320312 -33.121094 2.070312 -32.871094 2.070312 -32.457031 L 2.070312 -0.664062 C 2.070312 -0.25 2.320312 0 2.730469 0 L 7.039062 0 C 7.453125 0 7.699219 -0.25 7.699219 -0.664062 L 7.699219 -11.09375 L 10.558594 -11.09375 L 13.332031 -0.578125 C 13.414062 -0.207031 13.621094 0 14.035156 0 L 18.339844 0 C 18.796875 0 19.042969 -0.25 18.917969 -0.746094 L 16.0625 -11.59375 C 18.050781 -12.460938 19.085938 -14.28125 19.085938 -17.058594 Z M 7.699219 -16.558594 L 7.699219 -27.65625 L 11.800781 -27.65625 C 12.875 -27.65625 13.453125 -27.074219 13.453125 -26 L 13.453125 -18.214844 C 13.453125 -17.140625 12.875 -16.558594 11.800781 -16.558594 Z M 7.699219 -16.558594 "/></g></g></g><g fill="#000000" fill-opacity="1"><g transform="translate(127.184702, 226.812276)"><g><path d="M 18.589844 -32.457031 C 18.589844 -32.871094 18.421875 -33.121094 17.925781 -33.121094 L 2.691406 -33.121094 C 2.320312 -33.121094 2.070312 -32.871094 2.070312 -32.457031 L 2.070312 -0.664062 C 2.070312 -0.25 2.320312 0 2.691406 0 L 17.925781 0 C 18.421875 0 18.589844 -0.25 18.589844 -0.664062 L 18.589844 -4.800781 C 18.589844 -5.257812 18.421875 -5.464844 17.925781 -5.464844 L 7.578125 -5.464844 L 7.578125 -13.828125 L 15.484375 -13.828125 C 15.898438 -13.828125 16.144531 -14.074219 16.144531 -14.53125 L 16.144531 -18.628906 C 16.144531 -19.085938 15.898438 -19.332031 15.484375 -19.332031 L 7.578125 -19.332031 L 7.578125 -27.613281 L 17.925781 -27.613281 C 18.421875 -27.613281 18.589844 -27.902344 18.589844 -28.316406 Z M 18.589844 -32.457031 "/></g></g></g><g fill="#000000" fill-opacity="1"><g transform="translate(148.66661, 226.812276)"><g><path d="M 8.03125 -33.121094 C 4.179688 -33.121094 2.070312 -31.050781 2.070312 -27.160156 L 2.070312 -17.386719 C 2.070312 -16.601562 2.441406 -16.105469 3.1875 -15.855469 L 13 -12.628906 L 13 -7.121094 C 13 -6.003906 12.421875 -5.464844 11.34375 -5.464844 L 9.355469 -5.464844 C 8.320312 -5.464844 7.699219 -6.003906 7.699219 -7.121094 L 7.699219 -10.308594 C 7.699219 -10.765625 7.492188 -10.972656 7.039062 -10.972656 L 2.730469 -10.972656 C 2.320312 -10.972656 2.070312 -10.765625 2.070312 -10.308594 L 2.070312 -5.960938 C 2.070312 -2.070312 4.179688 0 8.03125 0 L 12.667969 0 C 16.558594 0 18.628906 -2.070312 18.628906 -5.960938 L 18.628906 -15.523438 C 18.628906 -16.3125 18.257812 -16.765625 17.554688 -17.058594 L 7.699219 -20.285156 L 7.699219 -26 C 7.699219 -27.074219 8.320312 -27.65625 9.355469 -27.65625 L 11.34375 -27.65625 C 12.460938 -27.65625 13 -27.074219 13 -26 L 13 -22.769531 C 13 -22.355469 13.246094 -22.109375 13.660156 -22.109375 L 17.96875 -22.109375 C 18.421875 -22.109375 18.628906 -22.355469 18.628906 -22.769531 L 18.628906 -27.160156 C 18.628906 -31.050781 16.558594 -33.121094 12.667969 -33.121094 Z M 8.03125 -33.121094 "/></g></g></g><g fill="#000000" fill-opacity="1"><g transform="translate(170.18991, 226.812276)"><g><path d="M 2.070312 -5.960938 C 2.070312 -2.070312 4.140625 0 8.03125 0 L 12.667969 0 C 16.558594 0 18.628906 -2.070312 18.628906 -5.960938 L 18.628906 -27.160156 C 18.628906 -31.050781 16.558594 -33.121094 12.667969 -33.121094 L 8.03125 -33.121094 C 4.140625 -33.121094 2.070312 -31.050781 2.070312 -27.160156 Z M 9.230469 -5.339844 C 8.15625 -5.339844 7.578125 -5.878906 7.578125 -6.996094 L 7.578125 -26.125 C 7.578125 -27.199219 8.15625 -27.78125 9.230469 -27.78125 L 11.632812 -27.78125 C 12.710938 -27.78125 13.289062 -27.199219 13.289062 -26.125 L 13.289062 -6.996094 C 13.289062 -5.878906 12.710938 -5.339844 11.632812 -5.339844 Z M 9.230469 -5.339844 "/></g></g></g><g fill="#000000" fill-opacity="1"><g transform="translate(191.713213, 226.812276)"><g><path d="M 7.699219 -5.464844 L 17.554688 -5.464844 C 18.007812 -5.464844 18.214844 -5.214844 18.214844 -4.800781 L 18.214844 -0.664062 C 18.214844 -0.207031 18.007812 0 17.554688 0 L 2.730469 0 C 2.320312 0 2.070312 -0.207031 2.070312 -0.664062 L 2.070312 -32.457031 C 2.070312 -32.871094 2.320312 -33.121094 2.730469 -33.121094 L 7.039062 -33.121094 C 7.492188 -33.121094 7.699219 -32.871094 7.699219 -32.457031 Z M 7.699219 -5.464844 "/></g></g></g><g fill="#000000" fill-opacity="1"><g transform="translate(212.8226, 226.812276)"><g><path d="M 16.519531 -33.121094 C 16.023438 -33.121094 15.730469 -32.871094 15.609375 -32.375 L 11.21875 -10.183594 L 6.871094 -32.375 C 6.75 -32.871094 6.457031 -33.121094 5.960938 -33.121094 L 2.027344 -33.121094 C 1.40625 -33.121094 1.160156 -32.789062 1.285156 -32.210938 L 8.238281 -0.746094 C 8.363281 -0.25 8.652344 0 9.148438 0 L 13.289062 0 C 13.785156 0 14.074219 -0.25 14.199219 -0.746094 L 21.195312 -32.210938 C 21.320312 -32.789062 21.074219 -33.121094 20.453125 -33.121094 Z M 16.519531 -33.121094 "/></g></g></g><g fill="#000000" fill-opacity="1"><g transform="translate(236.125699, 226.812276)"><g><path d="M 18.589844 -32.457031 C 18.589844 -32.871094 18.421875 -33.121094 17.925781 -33.121094 L 2.691406 -33.121094 C 2.320312 -33.121094 2.070312 -32.871094 2.070312 -32.457031 L 2.070312 -0.664062 C 2.070312 -0.25 2.320312 0 2.691406 0 L 17.925781 0 C 18.421875 0 18.589844 -0.25 18.589844 -0.664062 L 18.589844 -4.800781 C 18.589844 -5.257812 18.421875 -5.464844 17.925781 -5.464844 L 7.578125 -5.464844 L 7.578125 -13.828125 L 15.484375 -13.828125 C 15.898438 -13.828125 16.144531 -14.074219 16.144531 -14.53125 L 16.144531 -18.628906 C 16.144531 -19.085938 15.898438 -19.332031 15.484375 -19.332031 L 7.578125 -19.332031 L 7.578125 -27.613281 L 17.925781 -27.613281 C 18.421875 -27.613281 18.589844 -27.902344 18.589844 -28.316406 Z M 18.589844 -32.457031 "/></g></g></g><g fill="#000000" fill-opacity="1"><g transform="translate(257.607609, 226.812276)"><g><path d="M 2.070312 -0.664062 C 2.070312 -0.207031 2.277344 0 2.730469 0 L 12.667969 0 C 16.558594 0 18.628906 -2.070312 18.628906 -5.960938 L 18.628906 -27.117188 C 18.628906 -31.007812 16.558594 -33.121094 12.667969 -33.121094 L 2.730469 -33.121094 C 2.277344 -33.121094 2.070312 -32.871094 2.070312 -32.457031 Z M 7.699219 -5.464844 L 7.699219 -27.65625 L 11.507812 -27.65625 C 12.585938 -27.65625 13.164062 -27.074219 13.164062 -25.957031 L 13.164062 -7.121094 C 13.164062 -6.003906 12.585938 -5.464844 11.507812 -5.464844 Z M 7.699219 -5.464844 "/></g></g></g></svg>