<svg xmlns="http://www.w3.org/2000/svg" xmlns:xlink="http://www.w3.org/1999/xlink" width="500" zoomAndPan="magnify" viewBox="0 0 375 374.999991" height="500" preserveAspectRatio="xMidYMid meet" version="1.0"><defs><g/><clipPath id="76a1c2e36d"><path d="M 105.207031 10.085938 L 316.410156 10.085938 L 316.410156 270.03125 L 105.207031 270.03125 Z M 105.207031 10.085938 " clip-rule="nonzero"/></clipPath><clipPath id="294ce12066"><path d="M 175.644531 16.1875 C 186.4375 12.503906 198.785156 10.085938 210.867188 10.085938 C 222.949219 10.085938 234.574219 12.160156 245.289062 15.839844 C 245.515625 15.957031 245.742188 15.957031 245.972656 16.070312 C 286.207031 30.800781 315.839844 69.695312 316.410156 115.148438 L 316.410156 270.03125 L 105.207031 270.03125 L 105.207031 115.261719 C 105.777344 69.464844 134.953125 30.570312 175.644531 16.1875 Z M 175.644531 16.1875 " clip-rule="nonzero"/></clipPath><clipPath id="d20ce1ec24"><path d="M 105.207031 152.84375 L 316.410156 152.84375 L 316.410156 270.03125 L 105.207031 270.03125 Z M 105.207031 152.84375 " clip-rule="nonzero"/></clipPath><clipPath id="4256a57ef3"><path d="M 166.410156 37.5 L 281 37.5 L 281 152 L 166.410156 152 Z M 166.410156 37.5 " clip-rule="nonzero"/></clipPath></defs><rect x="-37.5" width="450" fill="#ffffff" y="-37.499999" height="449.999989" fill-opacity="1"/><rect x="-37.5" width="450" fill="#ffffff" y="-37.499999" height="449.999989" fill-opacity="1"/><g clip-path="url(#76a1c2e36d)"><g clip-path="url(#294ce12066)"><path fill="#000000" d="M 105.207031 10.085938 L 316.410156 10.085938 L 316.410156 270.03125 L 105.207031 270.03125 Z M 105.207031 10.085938 " fill-opacity="1" fill-rule="nonzero"/></g></g><g clip-path="url(#d20ce1ec24)"><path fill="#38b6ff" d="M 105.207031 152.84375 L 316.410156 152.84375 L 316.410156 270.03125 L 105.207031 270.03125 Z M 105.207031 152.84375 " fill-opacity="1" fill-rule="nonzero"/></g><path fill="#ffffff" d="M 272.730469 117.074219 C 270.617188 96.503906 244.859375 87.746094 230.789062 103.4375 C 216.890625 118.9375 227.921875 143.664062 248.699219 143.664062 C 263.027344 143.664062 274.191406 131.273438 272.730469 117.074219 Z M 248.699219 140.292969 C 238.214844 140.292969 229.191406 132.34375 228.09375 121.664062 C 226.132812 102.5625 248.683594 91.621094 262.597656 104.101562 C 276.582031 116.652344 267.9375 140.292969 248.699219 140.292969 Z M 248.699219 140.292969 " fill-opacity="1" fill-rule="nonzero"/><path fill="#ffffff" d="M 263.855469 110.222656 C 263.195312 109.566406 262.128906 109.566406 261.46875 110.222656 L 242.503906 129.191406 L 234.511719 121.195312 C 233.851562 120.539062 232.785156 120.539062 232.125 121.195312 C 231.46875 121.855469 231.46875 122.925781 232.125 123.582031 L 240.308594 131.761719 C 241.519531 132.980469 243.488281 132.980469 244.703125 131.765625 L 263.855469 112.609375 C 264.515625 111.949219 264.515625 110.882812 263.855469 110.222656 Z M 263.855469 110.222656 " fill-opacity="1" fill-rule="nonzero"/><path fill="#ffffff" d="M 227.8125 48.460938 L 180.359375 48.460938 C 177.792969 48.460938 175.703125 50.550781 175.703125 53.117188 L 175.703125 69.65625 C 175.703125 72.226562 177.792969 74.3125 180.359375 74.3125 L 227.8125 74.3125 C 230.378906 74.3125 232.46875 72.226562 232.46875 69.65625 L 232.46875 53.117188 C 232.46875 50.550781 230.378906 48.460938 227.8125 48.460938 Z M 229.09375 69.65625 C 229.09375 70.363281 228.519531 70.941406 227.8125 70.941406 L 180.359375 70.941406 C 179.652344 70.941406 179.078125 70.363281 179.078125 69.65625 L 179.078125 53.117188 C 179.078125 52.410156 179.652344 51.835938 180.359375 51.835938 L 227.8125 51.835938 C 228.519531 51.835938 229.09375 52.410156 229.09375 53.117188 Z M 229.09375 69.65625 " fill-opacity="1" fill-rule="nonzero"/><path fill="#ffffff" d="M 223.503906 55.488281 L 184.667969 55.488281 C 183.734375 55.488281 182.980469 56.242188 182.980469 57.175781 C 182.980469 58.105469 183.734375 58.863281 184.667969 58.863281 L 223.503906 58.863281 C 224.4375 58.863281 225.191406 58.105469 225.191406 57.175781 C 225.191406 56.242188 224.4375 55.488281 223.503906 55.488281 Z M 223.503906 55.488281 " fill-opacity="1" fill-rule="nonzero"/><path fill="#ffffff" d="M 213.027344 63.914062 L 206.710938 63.914062 C 205.78125 63.914062 205.023438 64.667969 205.023438 65.601562 C 205.023438 66.535156 205.78125 67.289062 206.710938 67.289062 L 213.027344 67.289062 C 213.957031 67.289062 214.714844 66.535156 214.714844 65.601562 C 214.714844 64.667969 213.957031 63.914062 213.027344 63.914062 Z M 213.027344 63.914062 " fill-opacity="1" fill-rule="nonzero"/><path fill="#ffffff" d="M 199.964844 63.914062 L 184.667969 63.914062 C 183.738281 63.914062 182.980469 64.667969 182.980469 65.601562 C 182.980469 66.535156 183.738281 67.289062 184.667969 67.289062 L 199.964844 67.289062 C 200.894531 67.289062 201.648438 66.535156 201.648438 65.601562 C 201.648438 64.667969 200.894531 63.914062 199.964844 63.914062 Z M 199.964844 63.914062 " fill-opacity="1" fill-rule="nonzero"/><path fill="#ffffff" d="M 223.503906 88.617188 L 184.667969 88.617188 C 183.734375 88.617188 182.980469 89.375 182.980469 90.304688 C 182.980469 91.238281 183.734375 91.992188 184.667969 91.992188 L 223.503906 91.992188 C 224.4375 91.992188 225.191406 91.238281 225.191406 90.304688 C 225.191406 89.375 224.4375 88.617188 223.503906 88.617188 Z M 223.503906 88.617188 " fill-opacity="1" fill-rule="nonzero"/><path fill="#ffffff" d="M 195.738281 97.046875 L 184.667969 97.046875 C 183.734375 97.046875 182.980469 97.800781 182.980469 98.730469 C 182.980469 99.664062 183.734375 100.417969 184.667969 100.417969 L 195.738281 100.417969 C 196.667969 100.417969 197.425781 99.664062 197.425781 98.730469 C 197.425781 97.800781 196.667969 97.046875 195.738281 97.046875 Z M 195.738281 97.046875 " fill-opacity="1" fill-rule="nonzero"/><path fill="#ffffff" d="M 184.667969 125.125 L 212.464844 125.125 C 213.394531 125.125 214.152344 124.367188 214.152344 123.4375 C 214.152344 122.503906 213.394531 121.75 212.464844 121.75 L 184.667969 121.75 C 183.734375 121.75 182.980469 122.503906 182.980469 123.4375 C 182.980469 124.367188 183.734375 125.125 184.667969 125.125 Z M 184.667969 125.125 " fill-opacity="1" fill-rule="nonzero"/><path fill="#ffffff" d="M 198.164062 130.175781 L 184.667969 130.175781 C 183.738281 130.175781 182.980469 130.933594 182.980469 131.863281 C 182.980469 132.792969 183.738281 133.550781 184.667969 133.550781 L 198.164062 133.550781 C 199.09375 133.550781 199.851562 132.792969 199.851562 131.863281 C 199.851562 130.933594 199.09375 130.175781 198.164062 130.175781 Z M 198.164062 130.175781 " fill-opacity="1" fill-rule="nonzero"/><path fill="#ffffff" d="M 215.269531 130.175781 L 204.910156 130.175781 C 203.980469 130.175781 203.222656 130.933594 203.222656 131.863281 C 203.222656 132.792969 203.980469 133.550781 204.910156 133.550781 L 215.269531 133.550781 C 216.203125 133.550781 216.957031 132.792969 216.957031 131.863281 C 216.957031 130.933594 216.203125 130.175781 215.269531 130.175781 Z M 215.269531 130.175781 " fill-opacity="1" fill-rule="nonzero"/><g clip-path="url(#4256a57ef3)"><path fill="#ffffff" d="M 270.105469 95.730469 C 262.171875 88.613281 251.566406 86.117188 241.761719 88.316406 L 241.761719 42.925781 C 241.761719 39.933594 239.328125 37.5 236.332031 37.5 L 171.839844 37.5 C 168.84375 37.5 166.410156 39.933594 166.410156 42.925781 L 166.410156 146.113281 C 166.410156 149.105469 168.84375 151.539062 171.839844 151.539062 L 236.332031 151.539062 C 237.660156 151.539062 238.875 151.0625 239.816406 150.273438 C 246.582031 152.242188 253.714844 151.859375 260.027344 149.484375 C 260.898438 149.15625 261.339844 148.179688 261.011719 147.3125 C 260.683594 146.4375 259.710938 145.996094 258.839844 146.328125 C 248.886719 150.066406 237.265625 148.105469 229.089844 140.398438 C 210.382812 122.773438 222.691406 90.917969 248.773438 90.917969 C 263.476562 90.917969 275.699219 101.964844 277.203125 116.613281 C 278.3125 127.378906 273.335938 137.589844 264.5 143.4375 C 263.722656 143.949219 263.507812 144.996094 264.023438 145.773438 C 264.535156 146.550781 265.585938 146.761719 266.363281 146.25 C 283.941406 134.625 285.613281 109.640625 270.105469 95.730469 Z M 222.054688 137.203125 L 180.359375 137.203125 C 179.652344 137.203125 179.078125 136.628906 179.078125 135.921875 L 179.078125 119.378906 C 179.078125 118.671875 179.652344 118.097656 180.359375 118.097656 L 216.769531 118.097656 C 216.484375 124.65625 218.191406 131.375 222.054688 137.203125 Z M 229.09375 94.28125 C 225.671875 96.945312 222.8125 100.292969 220.722656 104.070312 L 180.359375 104.070312 C 179.652344 104.070312 179.078125 103.496094 179.078125 102.789062 L 179.078125 86.25 C 179.078125 85.542969 179.652344 84.964844 180.359375 84.964844 L 227.8125 84.964844 C 228.519531 84.964844 229.09375 85.542969 229.09375 86.25 Z M 238.386719 89.265625 C 236.320312 89.964844 234.339844 90.878906 232.46875 91.988281 L 232.46875 86.25 C 232.46875 83.683594 230.378906 81.59375 227.8125 81.59375 L 180.359375 81.59375 C 177.792969 81.59375 175.703125 83.683594 175.703125 86.25 L 175.703125 102.789062 C 175.703125 105.355469 177.792969 107.445312 180.359375 107.445312 L 219.109375 107.445312 C 218.15625 109.777344 217.480469 112.21875 217.101562 114.722656 L 180.359375 114.722656 C 177.792969 114.722656 175.703125 116.8125 175.703125 119.378906 L 175.703125 135.921875 C 175.703125 138.488281 177.792969 140.578125 180.359375 140.578125 L 224.628906 140.578125 C 227.328125 143.675781 230.683594 146.292969 234.433594 148.164062 L 171.839844 148.164062 C 170.703125 148.164062 169.785156 147.242188 169.785156 146.113281 L 169.785156 42.925781 C 169.785156 41.792969 170.703125 40.875 171.839844 40.875 L 236.332031 40.875 C 237.46875 40.875 238.386719 41.792969 238.386719 42.925781 Z M 238.386719 89.265625 " fill-opacity="1" fill-rule="nonzero"/></g><path fill="#000000" d="M 105.207031 229.0625 L 309.476562 229.0625 L 309.476562 232.8125 L 105.207031 232.8125 Z M 105.207031 229.0625 " fill-opacity="1" fill-rule="nonzero"/><g fill="#000000" fill-opacity="1"><g transform="translate(105.20611, 226.81229)"><g><path d="M 19.085938 -27.160156 C 19.085938 -31.050781 17.015625 -33.121094 13.125 -33.121094 L 2.730469 -33.121094 C 2.320312 -33.121094 2.070312 -32.871094 2.070312 -32.457031 L 2.070312 -0.664062 C 2.070312 -0.25 2.320312 0 2.730469 0 L 7.039062 0 C 7.453125 0 7.699219 -0.25 7.699219 -0.664062 L 7.699219 -11.09375 L 10.558594 -11.09375 L 13.332031 -0.578125 C 13.414062 -0.207031 13.621094 0 14.035156 0 L 18.339844 0 C 18.796875 0 19.042969 -0.25 18.917969 -0.746094 L 16.0625 -11.59375 C 18.050781 -12.460938 19.085938 -14.28125 19.085938 -17.058594 Z M 7.699219 -16.558594 L 7.699219 -27.65625 L 11.800781 -27.65625 C 12.875 -27.65625 13.453125 -27.074219 13.453125 -26 L 13.453125 -18.214844 C 13.453125 -17.140625 12.875 -16.558594 11.800781 -16.558594 Z M 7.699219 -16.558594 "/></g></g></g><g fill="#000000" fill-opacity="1"><g transform="translate(127.184702, 226.81229)"><g><path d="M 18.589844 -32.457031 C 18.589844 -32.871094 18.421875 -33.121094 17.925781 -33.121094 L 2.691406 -33.121094 C 2.320312 -33.121094 2.070312 -32.871094 2.070312 -32.457031 L 2.070312 -0.664062 C 2.070312 -0.25 2.320312 0 2.691406 0 L 17.925781 0 C 18.421875 0 18.589844 -0.25 18.589844 -0.664062 L 18.589844 -4.800781 C 18.589844 -5.257812 18.421875 -5.464844 17.925781 -5.464844 L 7.578125 -5.464844 L 7.578125 -13.828125 L 15.484375 -13.828125 C 15.898438 -13.828125 16.144531 -14.074219 16.144531 -14.53125 L 16.144531 -18.628906 C 16.144531 -19.085938 15.898438 -19.332031 15.484375 -19.332031 L 7.578125 -19.332031 L 7.578125 -27.613281 L 17.925781 -27.613281 C 18.421875 -27.613281 18.589844 -27.902344 18.589844 -28.316406 Z M 18.589844 -32.457031 "/></g></g></g><g fill="#000000" fill-opacity="1"><g transform="translate(148.66661, 226.81229)"><g><path d="M 2.070312 -5.960938 C 2.070312 -2.070312 4.140625 0 8.03125 0 L 13.496094 0 C 17.347656 0 19.457031 -2.070312 19.457031 -5.960938 L 19.457031 -17.472656 C 19.457031 -17.925781 19.210938 -18.132812 18.796875 -18.132812 L 11.839844 -18.132812 C 11.386719 -18.132812 11.179688 -17.925781 11.179688 -17.472656 L 11.179688 -13.332031 C 11.179688 -12.917969 11.386719 -12.667969 11.839844 -12.667969 L 13.992188 -12.667969 L 13.992188 -7.121094 C 13.992188 -6.003906 13.414062 -5.464844 12.335938 -5.464844 L 9.355469 -5.464844 C 8.28125 -5.464844 7.699219 -6.003906 7.699219 -7.121094 L 7.699219 -26 C 7.699219 -27.074219 8.238281 -27.65625 9.355469 -27.65625 L 12.335938 -27.65625 C 13.414062 -27.65625 13.992188 -27.074219 13.992188 -26 L 13.992188 -22.851562 C 13.992188 -22.4375 14.199219 -22.191406 14.65625 -22.191406 L 18.796875 -22.191406 C 19.210938 -22.191406 19.457031 -22.4375 19.457031 -22.851562 L 19.457031 -27.160156 C 19.457031 -31.050781 17.347656 -33.121094 13.496094 -33.121094 L 8.03125 -33.121094 C 4.140625 -33.121094 2.070312 -31.050781 2.070312 -27.160156 Z M 2.070312 -5.960938 "/></g></g></g><g fill="#000000" fill-opacity="1"><g transform="translate(171.017718, 226.81229)"><g><path d="M 2.730469 -33.121094 C 2.277344 -33.121094 2.070312 -32.871094 2.070312 -32.457031 L 2.070312 -0.664062 C 2.070312 -0.25 2.277344 0 2.730469 0 L 7.039062 0 C 7.453125 0 7.699219 -0.25 7.699219 -0.664062 L 7.699219 -32.457031 C 7.699219 -32.871094 7.453125 -33.121094 7.039062 -33.121094 Z M 2.730469 -33.121094 "/></g></g></g><g fill="#000000" fill-opacity="1"><g transform="translate(181.613905, 226.81229)"><g><path d="M 8.03125 -33.121094 C 4.179688 -33.121094 2.070312 -31.050781 2.070312 -27.160156 L 2.070312 -17.386719 C 2.070312 -16.601562 2.441406 -16.105469 3.1875 -15.855469 L 13 -12.628906 L 13 -7.121094 C 13 -6.003906 12.421875 -5.464844 11.34375 -5.464844 L 9.355469 -5.464844 C 8.320312 -5.464844 7.699219 -6.003906 7.699219 -7.121094 L 7.699219 -10.308594 C 7.699219 -10.765625 7.492188 -10.972656 7.039062 -10.972656 L 2.730469 -10.972656 C 2.320312 -10.972656 2.070312 -10.765625 2.070312 -10.308594 L 2.070312 -5.960938 C 2.070312 -2.070312 4.179688 0 8.03125 0 L 12.667969 0 C 16.558594 0 18.628906 -2.070312 18.628906 -5.960938 L 18.628906 -15.523438 C 18.628906 -16.3125 18.257812 -16.765625 17.554688 -17.058594 L 7.699219 -20.285156 L 7.699219 -26 C 7.699219 -27.074219 8.320312 -27.65625 9.355469 -27.65625 L 11.34375 -27.65625 C 12.460938 -27.65625 13 -27.074219 13 -26 L 13 -22.769531 C 13 -22.355469 13.246094 -22.109375 13.660156 -22.109375 L 17.96875 -22.109375 C 18.421875 -22.109375 18.628906 -22.355469 18.628906 -22.769531 L 18.628906 -27.160156 C 18.628906 -31.050781 16.558594 -33.121094 12.667969 -33.121094 Z M 8.03125 -33.121094 "/></g></g></g><g fill="#000000" fill-opacity="1"><g transform="translate(203.137202, 226.81229)"><g><path d="M 1.90625 -33.121094 C 1.492188 -33.121094 1.242188 -32.871094 1.242188 -32.457031 L 1.242188 -28.316406 C 1.242188 -27.902344 1.492188 -27.65625 1.90625 -27.65625 L 6.707031 -27.65625 L 6.707031 -0.664062 C 6.707031 -0.207031 6.957031 0 7.371094 0 L 11.675781 0 C 12.128906 0 12.335938 -0.207031 12.335938 -0.664062 L 12.335938 -27.65625 L 17.140625 -27.65625 C 17.59375 -27.65625 17.800781 -27.902344 17.800781 -28.316406 L 17.800781 -32.457031 C 17.800781 -32.871094 17.59375 -33.121094 17.140625 -33.121094 Z M 1.90625 -33.121094 "/></g></g></g><g fill="#000000" fill-opacity="1"><g transform="translate(223.004876, 226.81229)"><g><path d="M 18.589844 -32.457031 C 18.589844 -32.871094 18.421875 -33.121094 17.925781 -33.121094 L 2.691406 -33.121094 C 2.320312 -33.121094 2.070312 -32.871094 2.070312 -32.457031 L 2.070312 -0.664062 C 2.070312 -0.25 2.320312 0 2.691406 0 L 17.925781 0 C 18.421875 0 18.589844 -0.25 18.589844 -0.664062 L 18.589844 -4.800781 C 18.589844 -5.257812 18.421875 -5.464844 17.925781 -5.464844 L 7.578125 -5.464844 L 7.578125 -13.828125 L 15.484375 -13.828125 C 15.898438 -13.828125 16.144531 -14.074219 16.144531 -14.53125 L 16.144531 -18.628906 C 16.144531 -19.085938 15.898438 -19.332031 15.484375 -19.332031 L 7.578125 -19.332031 L 7.578125 -27.613281 L 17.925781 -27.613281 C 18.421875 -27.613281 18.589844 -27.902344 18.589844 -28.316406 Z M 18.589844 -32.457031 "/></g></g></g><g fill="#000000" fill-opacity="1"><g transform="translate(244.486786, 226.81229)"><g><path d="M 19.085938 -27.160156 C 19.085938 -31.050781 17.015625 -33.121094 13.125 -33.121094 L 2.730469 -33.121094 C 2.320312 -33.121094 2.070312 -32.871094 2.070312 -32.457031 L 2.070312 -0.664062 C 2.070312 -0.25 2.320312 0 2.730469 0 L 7.039062 0 C 7.453125 0 7.699219 -0.25 7.699219 -0.664062 L 7.699219 -11.09375 L 10.558594 -11.09375 L 13.332031 -0.578125 C 13.414062 -0.207031 13.621094 0 14.035156 0 L 18.339844 0 C 18.796875 0 19.042969 -0.25 18.917969 -0.746094 L 16.0625 -11.59375 C 18.050781 -12.460938 19.085938 -14.28125 19.085938 -17.058594 Z M 7.699219 -16.558594 L 7.699219 -27.65625 L 11.800781 -27.65625 C 12.875 -27.65625 13.453125 -27.074219 13.453125 -26 L 13.453125 -18.214844 C 13.453125 -17.140625 12.875 -16.558594 11.800781 -16.558594 Z M 7.699219 -16.558594 "/></g></g></g><g fill="#000000" fill-opacity="1"><g transform="translate(266.46538, 226.81229)"><g><path d="M 18.589844 -32.457031 C 18.589844 -32.871094 18.421875 -33.121094 17.925781 -33.121094 L 2.691406 -33.121094 C 2.320312 -33.121094 2.070312 -32.871094 2.070312 -32.457031 L 2.070312 -0.664062 C 2.070312 -0.25 2.320312 0 2.691406 0 L 17.925781 0 C 18.421875 0 18.589844 -0.25 18.589844 -0.664062 L 18.589844 -4.800781 C 18.589844 -5.257812 18.421875 -5.464844 17.925781 -5.464844 L 7.578125 -5.464844 L 7.578125 -13.828125 L 15.484375 -13.828125 C 15.898438 -13.828125 16.144531 -14.074219 16.144531 -14.53125 L 16.144531 -18.628906 C 16.144531 -19.085938 15.898438 -19.332031 15.484375 -19.332031 L 7.578125 -19.332031 L 7.578125 -27.613281 L 17.925781 -27.613281 C 18.421875 -27.613281 18.589844 -27.902344 18.589844 -28.316406 Z M 18.589844 -32.457031 "/></g></g></g><g fill="#000000" fill-opacity="1"><g transform="translate(287.947289, 226.81229)"><g><path d="M 2.070312 -0.664062 C 2.070312 -0.207031 2.277344 0 2.730469 0 L 12.667969 0 C 16.558594 0 18.628906 -2.070312 18.628906 -5.960938 L 18.628906 -27.117188 C 18.628906 -31.007812 16.558594 -33.121094 12.667969 -33.121094 L 2.730469 -33.121094 C 2.277344 -33.121094 2.070312 -32.871094 2.070312 -32.457031 Z M 7.699219 -5.464844 L 7.699219 -27.65625 L 11.507812 -27.65625 C 12.585938 -27.65625 13.164062 -27.074219 13.164062 -25.957031 L 13.164062 -7.121094 C 13.164062 -6.003906 12.585938 -5.464844 11.507812 -5.464844 Z M 7.699219 -5.464844 "/></g></g></g></svg>