<svg xmlns="http://www.w3.org/2000/svg" xmlns:xlink="http://www.w3.org/1999/xlink" width="500" zoomAndPan="magnify" viewBox="0 0 375 374.999991" height="500" preserveAspectRatio="xMidYMid meet" version="1.0"><defs><g/><clipPath id="46f0e9eec6"><path d="M 105.207031 10.085938 L 316.410156 10.085938 L 316.410156 270.03125 L 105.207031 270.03125 Z M 105.207031 10.085938 " clip-rule="nonzero"/></clipPath><clipPath id="1b6eab4e2c"><path d="M 175.644531 16.1875 C 186.4375 12.503906 198.785156 10.085938 210.867188 10.085938 C 222.949219 10.085938 234.574219 12.160156 245.289062 15.839844 C 245.515625 15.957031 245.742188 15.957031 245.972656 16.070312 C 286.207031 30.800781 315.839844 69.695312 316.410156 115.148438 L 316.410156 270.03125 L 105.207031 270.03125 L 105.207031 115.261719 C 105.777344 69.464844 134.953125 30.570312 175.644531 16.1875 Z M 175.644531 16.1875 " clip-rule="nonzero"/></clipPath><clipPath id="76fa738d00"><path d="M 105.207031 152.84375 L 316.410156 152.84375 L 316.410156 270.03125 L 105.207031 270.03125 Z M 105.207031 152.84375 " clip-rule="nonzero"/></clipPath><clipPath id="8a42039a53"><path d="M 167.628906 53.699219 L 253.878906 53.699219 L 253.878906 139.949219 L 167.628906 139.949219 Z M 167.628906 53.699219 " clip-rule="nonzero"/></clipPath></defs><rect x="-37.5" width="450" fill="#ffffff" y="-37.499999" height="449.999989" fill-opacity="1"/><rect x="-37.5" width="450" fill="#ffffff" y="-37.499999" height="449.999989" fill-opacity="1"/><g clip-path="url(#46f0e9eec6)"><g clip-path="url(#1b6eab4e2c)"><path fill="#000000" d="M 105.207031 10.085938 L 316.410156 10.085938 L 316.410156 270.03125 L 105.207031 270.03125 Z M 105.207031 10.085938 " fill-opacity="1" fill-rule="nonzero"/></g></g><g clip-path="url(#76fa738d00)"><path fill="#38b6ff" d="M 105.207031 152.84375 L 316.410156 152.84375 L 316.410156 270.03125 L 105.207031 270.03125 Z M 105.207031 152.84375 " fill-opacity="1" fill-rule="nonzero"/></g><path fill="#d50000" d="M 179.769531 121.757812 L 235.878906 65.648438 L 241.976562 71.746094 L 185.867188 127.855469 Z M 179.769531 121.757812 " fill-opacity="1" fill-rule="nonzero"/><g clip-path="url(#8a42039a53)"><path fill="#d50000" d="M 210.753906 53.699219 C 187.035156 53.699219 167.628906 73.105469 167.628906 96.824219 C 167.628906 120.542969 187.035156 139.949219 210.753906 139.949219 C 234.472656 139.949219 253.878906 120.542969 253.878906 96.824219 C 253.878906 73.105469 234.472656 53.699219 210.753906 53.699219 Z M 210.753906 131.324219 C 191.777344 131.324219 176.253906 115.800781 176.253906 96.824219 C 176.253906 77.851562 191.777344 62.324219 210.753906 62.324219 C 229.730469 62.324219 245.253906 77.851562 245.253906 96.824219 C 245.253906 115.800781 229.730469 131.324219 210.753906 131.324219 Z M 210.753906 131.324219 " fill-opacity="1" fill-rule="nonzero"/></g><path fill="#000000" d="M 111.316406 221.433594 L 308.882812 221.433594 L 308.882812 225.183594 L 111.316406 225.183594 Z M 111.316406 221.433594 " fill-opacity="1" fill-rule="nonzero"/><g fill="#000000" fill-opacity="1"><g transform="translate(111.315672, 219.185258)"><g><path d="M 18.671875 -27.160156 C 18.671875 -31.050781 16.558594 -33.121094 12.710938 -33.121094 L 8.074219 -33.121094 C 4.179688 -33.121094 2.070312 -31.050781 2.070312 -27.160156 L 2.070312 -5.960938 C 2.070312 -2.070312 4.179688 0 8.074219 0 L 12.710938 0 C 16.558594 0 18.671875 -2.070312 18.671875 -5.960938 L 18.671875 -10.433594 C 18.671875 -10.847656 18.421875 -11.09375 18.007812 -11.09375 L 13.867188 -11.09375 C 13.414062 -11.09375 13.207031 -10.847656 13.207031 -10.433594 L 13.207031 -7.121094 C 13.207031 -6.003906 12.628906 -5.464844 11.550781 -5.464844 L 9.398438 -5.464844 C 8.320312 -5.464844 7.742188 -6.003906 7.742188 -7.121094 L 7.742188 -26 C 7.742188 -27.074219 8.28125 -27.65625 9.398438 -27.65625 L 11.550781 -27.65625 C 12.628906 -27.65625 13.207031 -27.074219 13.207031 -26 L 13.207031 -22.6875 C 13.207031 -22.273438 13.414062 -22.023438 13.867188 -22.023438 L 18.007812 -22.023438 C 18.421875 -22.023438 18.671875 -22.273438 18.671875 -22.6875 Z M 18.671875 -27.160156 "/></g></g></g><g fill="#000000" fill-opacity="1"><g transform="translate(132.880366, 219.185258)"><g><path d="M 22.023438 0 C 22.523438 0 22.6875 -0.25 22.605469 -0.703125 L 15.730469 -32.539062 C 15.648438 -32.953125 15.402344 -33.121094 15.027344 -33.121094 L 9.273438 -33.121094 C 8.902344 -33.121094 8.652344 -32.953125 8.570312 -32.539062 L 1.699219 -0.703125 C 1.574219 -0.25 1.78125 0 2.234375 0 L 6.664062 0 C 7.039062 0 7.246094 -0.207031 7.328125 -0.578125 L 8.445312 -6.625 L 15.816406 -6.625 L 16.972656 -0.578125 C 17.058594 -0.207031 17.265625 0 17.636719 0 Z M 14.78125 -11.425781 L 9.480469 -11.425781 L 12.128906 -25.875 Z M 14.78125 -11.425781 "/></g></g></g><g fill="#000000" fill-opacity="1"><g transform="translate(157.963262, 219.185258)"><g><path d="M 14.78125 -33.121094 C 14.324219 -33.121094 14.117188 -32.871094 14.117188 -32.457031 L 14.117188 -14.988281 L 13.867188 -14.988281 L 7.578125 -32.582031 C 7.453125 -32.953125 7.203125 -33.121094 6.832031 -33.121094 L 2.730469 -33.121094 C 2.320312 -33.121094 2.070312 -32.871094 2.070312 -32.457031 L 2.070312 -0.664062 C 2.070312 -0.25 2.320312 0 2.730469 0 L 7.039062 0 C 7.492188 0 7.699219 -0.25 7.699219 -0.664062 L 7.699219 -18.214844 L 7.90625 -18.214844 L 14.242188 -0.539062 C 14.367188 -0.164062 14.613281 0 14.988281 0 L 19.085938 0 C 19.5 0 19.746094 -0.25 19.746094 -0.664062 L 19.746094 -32.457031 C 19.746094 -32.871094 19.5 -33.121094 19.085938 -33.121094 Z M 14.78125 -33.121094 "/></g></g></g><g fill="#000000" fill-opacity="1"><g transform="translate(180.604103, 219.185258)"><g><path d="M 18.671875 -27.160156 C 18.671875 -31.050781 16.558594 -33.121094 12.710938 -33.121094 L 8.074219 -33.121094 C 4.179688 -33.121094 2.070312 -31.050781 2.070312 -27.160156 L 2.070312 -5.960938 C 2.070312 -2.070312 4.179688 0 8.074219 0 L 12.710938 0 C 16.558594 0 18.671875 -2.070312 18.671875 -5.960938 L 18.671875 -10.433594 C 18.671875 -10.847656 18.421875 -11.09375 18.007812 -11.09375 L 13.867188 -11.09375 C 13.414062 -11.09375 13.207031 -10.847656 13.207031 -10.433594 L 13.207031 -7.121094 C 13.207031 -6.003906 12.628906 -5.464844 11.550781 -5.464844 L 9.398438 -5.464844 C 8.320312 -5.464844 7.742188 -6.003906 7.742188 -7.121094 L 7.742188 -26 C 7.742188 -27.074219 8.28125 -27.65625 9.398438 -27.65625 L 11.550781 -27.65625 C 12.628906 -27.65625 13.207031 -27.074219 13.207031 -26 L 13.207031 -22.6875 C 13.207031 -22.273438 13.414062 -22.023438 13.867188 -22.023438 L 18.007812 -22.023438 C 18.421875 -22.023438 18.671875 -22.273438 18.671875 -22.6875 Z M 18.671875 -27.160156 "/></g></g></g><g fill="#000000" fill-opacity="1"><g transform="translate(202.168799, 219.185258)"><g><path d="M 18.589844 -32.457031 C 18.589844 -32.871094 18.421875 -33.121094 17.925781 -33.121094 L 2.691406 -33.121094 C 2.320312 -33.121094 2.070312 -32.871094 2.070312 -32.457031 L 2.070312 -0.664062 C 2.070312 -0.25 2.320312 0 2.691406 0 L 17.925781 0 C 18.421875 0 18.589844 -0.25 18.589844 -0.664062 L 18.589844 -4.800781 C 18.589844 -5.257812 18.421875 -5.464844 17.925781 -5.464844 L 7.578125 -5.464844 L 7.578125 -13.828125 L 15.484375 -13.828125 C 15.898438 -13.828125 16.144531 -14.074219 16.144531 -14.53125 L 16.144531 -18.628906 C 16.144531 -19.085938 15.898438 -19.332031 15.484375 -19.332031 L 7.578125 -19.332031 L 7.578125 -27.613281 L 17.925781 -27.613281 C 18.421875 -27.613281 18.589844 -27.902344 18.589844 -28.316406 Z M 18.589844 -32.457031 "/></g></g></g><g fill="#000000" fill-opacity="1"><g transform="translate(223.650708, 219.185258)"><g><path d="M 7.699219 -5.464844 L 17.554688 -5.464844 C 18.007812 -5.464844 18.214844 -5.214844 18.214844 -4.800781 L 18.214844 -0.664062 C 18.214844 -0.207031 18.007812 0 17.554688 0 L 2.730469 0 C 2.320312 0 2.070312 -0.207031 2.070312 -0.664062 L 2.070312 -32.457031 C 2.070312 -32.871094 2.320312 -33.121094 2.730469 -33.121094 L 7.039062 -33.121094 C 7.492188 -33.121094 7.699219 -32.871094 7.699219 -32.457031 Z M 7.699219 -5.464844 "/></g></g></g><g fill="#000000" fill-opacity="1"><g transform="translate(244.760101, 219.185258)"><g><path d="M 7.699219 -5.464844 L 17.554688 -5.464844 C 18.007812 -5.464844 18.214844 -5.214844 18.214844 -4.800781 L 18.214844 -0.664062 C 18.214844 -0.207031 18.007812 0 17.554688 0 L 2.730469 0 C 2.320312 0 2.070312 -0.207031 2.070312 -0.664062 L 2.070312 -32.457031 C 2.070312 -32.871094 2.320312 -33.121094 2.730469 -33.121094 L 7.039062 -33.121094 C 7.492188 -33.121094 7.699219 -32.871094 7.699219 -32.457031 Z M 7.699219 -5.464844 "/></g></g></g><g fill="#000000" fill-opacity="1"><g transform="translate(265.869494, 219.185258)"><g><path d="M 18.589844 -32.457031 C 18.589844 -32.871094 18.421875 -33.121094 17.925781 -33.121094 L 2.691406 -33.121094 C 2.320312 -33.121094 2.070312 -32.871094 2.070312 -32.457031 L 2.070312 -0.664062 C 2.070312 -0.25 2.320312 0 2.691406 0 L 17.925781 0 C 18.421875 0 18.589844 -0.25 18.589844 -0.664062 L 18.589844 -4.800781 C 18.589844 -5.257812 18.421875 -5.464844 17.925781 -5.464844 L 7.578125 -5.464844 L 7.578125 -13.828125 L 15.484375 -13.828125 C 15.898438 -13.828125 16.144531 -14.074219 16.144531 -14.53125 L 16.144531 -18.628906 C 16.144531 -19.085938 15.898438 -19.332031 15.484375 -19.332031 L 7.578125 -19.332031 L 7.578125 -27.613281 L 17.925781 -27.613281 C 18.421875 -27.613281 18.589844 -27.902344 18.589844 -28.316406 Z M 18.589844 -32.457031 "/></g></g></g><g fill="#000000" fill-opacity="1"><g transform="translate(287.351404, 219.185258)"><g><path d="M 2.070312 -0.664062 C 2.070312 -0.207031 2.277344 0 2.730469 0 L 12.667969 0 C 16.558594 0 18.628906 -2.070312 18.628906 -5.960938 L 18.628906 -27.117188 C 18.628906 -31.007812 16.558594 -33.121094 12.667969 -33.121094 L 2.730469 -33.121094 C 2.277344 -33.121094 2.070312 -32.871094 2.070312 -32.457031 Z M 7.699219 -5.464844 L 7.699219 -27.65625 L 11.507812 -27.65625 C 12.585938 -27.65625 13.164062 -27.074219 13.164062 -25.957031 L 13.164062 -7.121094 C 13.164062 -6.003906 12.585938 -5.464844 11.507812 -5.464844 Z M 7.699219 -5.464844 "/></g></g></g></svg>