<svg xmlns="http://www.w3.org/2000/svg" xmlns:xlink="http://www.w3.org/1999/xlink" width="500" zoomAndPan="magnify" viewBox="0 0 375 374.999991" height="500" preserveAspectRatio="xMidYMid meet" version="1.0"><defs><g/><clipPath id="1f25d9802e"><path d="M 105.207031 10.085938 L 316.410156 10.085938 L 316.410156 270.03125 L 105.207031 270.03125 Z M 105.207031 10.085938 " clip-rule="nonzero"/></clipPath><clipPath id="9ca73f3994"><path d="M 175.644531 16.1875 C 186.4375 12.503906 198.785156 10.085938 210.867188 10.085938 C 222.949219 10.085938 234.574219 12.160156 245.289062 15.839844 C 245.515625 15.957031 245.742188 15.957031 245.972656 16.070312 C 286.207031 30.800781 315.839844 69.695312 316.410156 115.148438 L 316.410156 270.03125 L 105.207031 270.03125 L 105.207031 115.261719 C 105.777344 69.464844 134.953125 30.570312 175.644531 16.1875 Z M 175.644531 16.1875 " clip-rule="nonzero"/></clipPath><clipPath id="6b1de75d8d"><path d="M 105.207031 152.84375 L 316.410156 152.84375 L 316.410156 270.03125 L 105.207031 270.03125 Z M 105.207031 152.84375 " clip-rule="nonzero"/></clipPath><clipPath id="c0b5bd9387"><path d="M 204 139 L 212 139 L 212 151.101562 L 204 151.101562 Z M 204 139 " clip-rule="nonzero"/></clipPath><clipPath id="0821fa6aa6"><path d="M 157.191406 79 L 171 79 L 171 93 L 157.191406 93 Z M 157.191406 79 " clip-rule="nonzero"/></clipPath><clipPath id="30ea813647"><path d="M 157.191406 101 L 171 101 L 171 115 L 157.191406 115 Z M 157.191406 101 " clip-rule="nonzero"/></clipPath><clipPath id="d680c0a920"><path d="M 165 43.101562 L 265.191406 43.101562 L 265.191406 151.101562 L 165 151.101562 Z M 165 43.101562 " clip-rule="nonzero"/></clipPath></defs><rect x="-37.5" width="450" fill="#ffffff" y="-37.499999" height="449.999989" fill-opacity="1"/><rect x="-37.5" width="450" fill="#ffffff" y="-37.499999" height="449.999989" fill-opacity="1"/><g clip-path="url(#1f25d9802e)"><g clip-path="url(#9ca73f3994)"><path fill="#000000" d="M 105.207031 10.085938 L 316.410156 10.085938 L 316.410156 270.03125 L 105.207031 270.03125 Z M 105.207031 10.085938 " fill-opacity="1" fill-rule="nonzero"/></g></g><g clip-path="url(#6b1de75d8d)"><path fill="#38b6ff" d="M 105.207031 152.84375 L 316.410156 152.84375 L 316.410156 270.03125 L 105.207031 270.03125 Z M 105.207031 152.84375 " fill-opacity="1" fill-rule="nonzero"/></g><path fill="#43a047" d="M 184.171875 97.449219 L 191.808594 89.8125 L 212.859375 110.863281 L 205.214844 118.5 Z M 184.171875 97.449219 " fill-opacity="1" fill-rule="nonzero"/><path fill="#43a047" d="M 197.378906 110.632812 L 229.882812 78.128906 L 237.941406 86.183594 L 205.4375 118.699219 Z M 197.378906 110.632812 " fill-opacity="1" fill-rule="nonzero"/><g clip-path="url(#c0b5bd9387)"><path fill="#8bc34a" d="M 205.976562 139.976562 L 204.710938 150.734375 C 206.785156 150.980469 208.917969 151.101562 211.050781 151.101562 L 211.050781 140.300781 C 209.332031 140.300781 207.644531 140.171875 205.976562 139.976562 Z M 205.976562 139.976562 " fill-opacity="1" fill-rule="nonzero"/></g><path fill="#dcedc8" d="M 196.550781 56.449219 L 192.917969 46.234375 C 189.132812 47.5625 185.5 49.351562 182.082031 51.515625 L 187.925781 60.660156 C 190.617188 58.945312 193.503906 57.539062 196.550781 56.449219 Z M 196.550781 56.449219 " fill-opacity="1" fill-rule="nonzero"/><path fill="#c5e1a5" d="M 180.398438 66.675781 L 172.714844 59.078125 C 169.894531 61.917969 167.363281 65.09375 165.234375 68.511719 L 174.441406 74.261719 C 176.152344 71.519531 178.128906 68.960938 180.398438 66.675781 Z M 180.398438 66.675781 " fill-opacity="1" fill-rule="nonzero"/><g clip-path="url(#0821fa6aa6)"><path fill="#aed581" d="M 170.289062 82.921875 L 160.035156 79.371094 C 158.726562 83.148438 157.816406 87.101562 157.390625 91.105469 L 168.140625 92.292969 C 168.5 89.039062 169.246094 85.914062 170.289062 82.921875 Z M 170.289062 82.921875 " fill-opacity="1" fill-rule="nonzero"/></g><g clip-path="url(#30ea813647)"><path fill="#9ccc65" d="M 168.144531 101.933594 L 157.390625 103.152344 C 157.8125 107.136719 158.722656 111.089844 160.058594 114.894531 L 170.296875 111.3125 C 169.253906 108.316406 168.503906 105.1875 168.144531 101.933594 Z M 168.144531 101.933594 " fill-opacity="1" fill-rule="nonzero"/></g><g clip-path="url(#d680c0a920)"><path fill="#8bc34a" d="M 174.46875 119.992188 L 165.261719 125.742188 C 167.394531 129.160156 169.925781 132.3125 172.769531 135.179688 L 180.421875 127.546875 C 178.160156 125.273438 176.183594 122.726562 174.46875 119.992188 Z M 187.945312 133.554688 L 182.140625 142.71875 C 185.527344 144.875 189.167969 146.636719 192.976562 148.003906 L 196.613281 137.773438 C 193.546875 136.683594 190.644531 135.269531 187.945312 133.554688 Z M 211.050781 53.902344 L 211.050781 43.101562 C 208.941406 43.101562 206.808594 43.222656 204.710938 43.46875 L 205.96875 54.226562 C 207.636719 54.03125 209.328125 53.902344 211.050781 53.902344 Z M 211.050781 43.101562 L 211.050781 53.902344 C 211.050781 53.902344 211.054688 53.902344 211.058594 53.902344 C 234.917969 53.902344 254.257812 73.242188 254.257812 97.101562 C 254.257812 120.960938 234.917969 140.300781 211.058594 140.300781 C 211.054688 140.300781 211.050781 140.300781 211.050781 140.300781 L 211.050781 151.101562 C 240.824219 151.101562 265.050781 126.875 265.050781 97.101562 C 265.050781 67.324219 240.824219 43.101562 211.050781 43.101562 Z M 211.050781 43.101562 " fill-opacity="1" fill-rule="nonzero"/></g><path fill="#000000" d="M 111.316406 221.433594 L 144.5625 221.433594 L 144.5625 225.183594 L 111.316406 225.183594 Z M 111.316406 221.433594 " fill-opacity="1" fill-rule="nonzero"/><g fill="#000000" fill-opacity="1"><g transform="translate(111.315672, 219.185258)"><g><path d="M 2.730469 -33.121094 C 2.277344 -33.121094 2.070312 -32.871094 2.070312 -32.457031 L 2.070312 -0.664062 C 2.070312 -0.25 2.277344 0 2.730469 0 L 7.039062 0 C 7.453125 0 7.699219 -0.25 7.699219 -0.664062 L 7.699219 -32.457031 C 7.699219 -32.871094 7.453125 -33.121094 7.039062 -33.121094 Z M 2.730469 -33.121094 "/></g></g></g><g fill="#000000" fill-opacity="1"><g transform="translate(121.911857, 219.185258)"><g><path d="M 14.78125 -33.121094 C 14.324219 -33.121094 14.117188 -32.871094 14.117188 -32.457031 L 14.117188 -14.988281 L 13.867188 -14.988281 L 7.578125 -32.582031 C 7.453125 -32.953125 7.203125 -33.121094 6.832031 -33.121094 L 2.730469 -33.121094 C 2.320312 -33.121094 2.070312 -32.871094 2.070312 -32.457031 L 2.070312 -0.664062 C 2.070312 -0.25 2.320312 0 2.730469 0 L 7.039062 0 C 7.492188 0 7.699219 -0.25 7.699219 -0.664062 L 7.699219 -18.214844 L 7.90625 -18.214844 L 14.242188 -0.539062 C 14.367188 -0.164062 14.613281 0 14.988281 0 L 19.085938 0 C 19.5 0 19.746094 -0.25 19.746094 -0.664062 L 19.746094 -32.457031 C 19.746094 -32.871094 19.5 -33.121094 19.085938 -33.121094 Z M 14.78125 -33.121094 "/></g></g></g><path fill="#000000" d="M 111.316406 264.183594 L 316.371094 264.183594 L 316.371094 267.933594 L 111.316406 267.933594 Z M 111.316406 264.183594 " fill-opacity="1" fill-rule="nonzero"/><g fill="#000000" fill-opacity="1"><g transform="translate(111.315672, 261.935256)"><g><path d="M 2.070312 -0.664062 C 2.070312 -0.25 2.320312 0 2.730469 0 L 7.039062 0 C 7.492188 0 7.699219 -0.25 7.699219 -0.664062 L 7.699219 -11.09375 L 12.667969 -11.09375 C 16.558594 -11.09375 18.628906 -13.207031 18.628906 -17.058594 L 18.628906 -27.160156 C 18.628906 -31.050781 16.558594 -33.121094 12.667969 -33.121094 L 2.730469 -33.121094 C 2.320312 -33.121094 2.070312 -32.871094 2.070312 -32.457031 Z M 7.699219 -16.558594 L 7.699219 -27.65625 L 11.34375 -27.65625 C 12.460938 -27.65625 13 -27.074219 13 -26 L 13 -18.214844 C 13 -17.179688 12.460938 -16.558594 11.34375 -16.558594 Z M 7.699219 -16.558594 "/></g></g></g><g fill="#000000" fill-opacity="1"><g transform="translate(132.838973, 261.935256)"><g><path d="M 19.085938 -27.160156 C 19.085938 -31.050781 17.015625 -33.121094 13.125 -33.121094 L 2.730469 -33.121094 C 2.320312 -33.121094 2.070312 -32.871094 2.070312 -32.457031 L 2.070312 -0.664062 C 2.070312 -0.25 2.320312 0 2.730469 0 L 7.039062 0 C 7.453125 0 7.699219 -0.25 7.699219 -0.664062 L 7.699219 -11.09375 L 10.558594 -11.09375 L 13.332031 -0.578125 C 13.414062 -0.207031 13.621094 0 14.035156 0 L 18.339844 0 C 18.796875 0 19.042969 -0.25 18.917969 -0.746094 L 16.0625 -11.59375 C 18.050781 -12.460938 19.085938 -14.28125 19.085938 -17.058594 Z M 7.699219 -16.558594 L 7.699219 -27.65625 L 11.800781 -27.65625 C 12.875 -27.65625 13.453125 -27.074219 13.453125 -26 L 13.453125 -18.214844 C 13.453125 -17.140625 12.875 -16.558594 11.800781 -16.558594 Z M 7.699219 -16.558594 "/></g></g></g><g fill="#000000" fill-opacity="1"><g transform="translate(154.817565, 261.935256)"><g><path d="M 2.070312 -5.960938 C 2.070312 -2.070312 4.140625 0 8.03125 0 L 12.667969 0 C 16.558594 0 18.628906 -2.070312 18.628906 -5.960938 L 18.628906 -27.160156 C 18.628906 -31.050781 16.558594 -33.121094 12.667969 -33.121094 L 8.03125 -33.121094 C 4.140625 -33.121094 2.070312 -31.050781 2.070312 -27.160156 Z M 9.230469 -5.339844 C 8.15625 -5.339844 7.578125 -5.878906 7.578125 -6.996094 L 7.578125 -26.125 C 7.578125 -27.199219 8.15625 -27.78125 9.230469 -27.78125 L 11.632812 -27.78125 C 12.710938 -27.78125 13.289062 -27.199219 13.289062 -26.125 L 13.289062 -6.996094 C 13.289062 -5.878906 12.710938 -5.339844 11.632812 -5.339844 Z M 9.230469 -5.339844 "/></g></g></g><g fill="#000000" fill-opacity="1"><g transform="translate(176.340865, 261.935256)"><g><path d="M 2.070312 -5.960938 C 2.070312 -2.070312 4.140625 0 8.03125 0 L 13.496094 0 C 17.347656 0 19.457031 -2.070312 19.457031 -5.960938 L 19.457031 -17.472656 C 19.457031 -17.925781 19.210938 -18.132812 18.796875 -18.132812 L 11.839844 -18.132812 C 11.386719 -18.132812 11.179688 -17.925781 11.179688 -17.472656 L 11.179688 -13.332031 C 11.179688 -12.917969 11.386719 -12.667969 11.839844 -12.667969 L 13.992188 -12.667969 L 13.992188 -7.121094 C 13.992188 -6.003906 13.414062 -5.464844 12.335938 -5.464844 L 9.355469 -5.464844 C 8.28125 -5.464844 7.699219 -6.003906 7.699219 -7.121094 L 7.699219 -26 C 7.699219 -27.074219 8.238281 -27.65625 9.355469 -27.65625 L 12.335938 -27.65625 C 13.414062 -27.65625 13.992188 -27.074219 13.992188 -26 L 13.992188 -22.851562 C 13.992188 -22.4375 14.199219 -22.191406 14.65625 -22.191406 L 18.796875 -22.191406 C 19.210938 -22.191406 19.457031 -22.4375 19.457031 -22.851562 L 19.457031 -27.160156 C 19.457031 -31.050781 17.347656 -33.121094 13.496094 -33.121094 L 8.03125 -33.121094 C 4.140625 -33.121094 2.070312 -31.050781 2.070312 -27.160156 Z M 2.070312 -5.960938 "/></g></g></g><g fill="#000000" fill-opacity="1"><g transform="translate(198.691976, 261.935256)"><g><path d="M 19.085938 -27.160156 C 19.085938 -31.050781 17.015625 -33.121094 13.125 -33.121094 L 2.730469 -33.121094 C 2.320312 -33.121094 2.070312 -32.871094 2.070312 -32.457031 L 2.070312 -0.664062 C 2.070312 -0.25 2.320312 0 2.730469 0 L 7.039062 0 C 7.453125 0 7.699219 -0.25 7.699219 -0.664062 L 7.699219 -11.09375 L 10.558594 -11.09375 L 13.332031 -0.578125 C 13.414062 -0.207031 13.621094 0 14.035156 0 L 18.339844 0 C 18.796875 0 19.042969 -0.25 18.917969 -0.746094 L 16.0625 -11.59375 C 18.050781 -12.460938 19.085938 -14.28125 19.085938 -17.058594 Z M 7.699219 -16.558594 L 7.699219 -27.65625 L 11.800781 -27.65625 C 12.875 -27.65625 13.453125 -27.074219 13.453125 -26 L 13.453125 -18.214844 C 13.453125 -17.140625 12.875 -16.558594 11.800781 -16.558594 Z M 7.699219 -16.558594 "/></g></g></g><g fill="#000000" fill-opacity="1"><g transform="translate(220.670565, 261.935256)"><g><path d="M 18.589844 -32.457031 C 18.589844 -32.871094 18.421875 -33.121094 17.925781 -33.121094 L 2.691406 -33.121094 C 2.320312 -33.121094 2.070312 -32.871094 2.070312 -32.457031 L 2.070312 -0.664062 C 2.070312 -0.25 2.320312 0 2.691406 0 L 17.925781 0 C 18.421875 0 18.589844 -0.25 18.589844 -0.664062 L 18.589844 -4.800781 C 18.589844 -5.257812 18.421875 -5.464844 17.925781 -5.464844 L 7.578125 -5.464844 L 7.578125 -13.828125 L 15.484375 -13.828125 C 15.898438 -13.828125 16.144531 -14.074219 16.144531 -14.53125 L 16.144531 -18.628906 C 16.144531 -19.085938 15.898438 -19.332031 15.484375 -19.332031 L 7.578125 -19.332031 L 7.578125 -27.613281 L 17.925781 -27.613281 C 18.421875 -27.613281 18.589844 -27.902344 18.589844 -28.316406 Z M 18.589844 -32.457031 "/></g></g></g><g fill="#000000" fill-opacity="1"><g transform="translate(242.152474, 261.935256)"><g><path d="M 8.03125 -33.121094 C 4.179688 -33.121094 2.070312 -31.050781 2.070312 -27.160156 L 2.070312 -17.386719 C 2.070312 -16.601562 2.441406 -16.105469 3.1875 -15.855469 L 13 -12.628906 L 13 -7.121094 C 13 -6.003906 12.421875 -5.464844 11.34375 -5.464844 L 9.355469 -5.464844 C 8.320312 -5.464844 7.699219 -6.003906 7.699219 -7.121094 L 7.699219 -10.308594 C 7.699219 -10.765625 7.492188 -10.972656 7.039062 -10.972656 L 2.730469 -10.972656 C 2.320312 -10.972656 2.070312 -10.765625 2.070312 -10.308594 L 2.070312 -5.960938 C 2.070312 -2.070312 4.179688 0 8.03125 0 L 12.667969 0 C 16.558594 0 18.628906 -2.070312 18.628906 -5.960938 L 18.628906 -15.523438 C 18.628906 -16.3125 18.257812 -16.765625 17.554688 -17.058594 L 7.699219 -20.285156 L 7.699219 -26 C 7.699219 -27.074219 8.320312 -27.65625 9.355469 -27.65625 L 11.34375 -27.65625 C 12.460938 -27.65625 13 -27.074219 13 -26 L 13 -22.769531 C 13 -22.355469 13.246094 -22.109375 13.660156 -22.109375 L 17.96875 -22.109375 C 18.421875 -22.109375 18.628906 -22.355469 18.628906 -22.769531 L 18.628906 -27.160156 C 18.628906 -31.050781 16.558594 -33.121094 12.667969 -33.121094 Z M 8.03125 -33.121094 "/></g></g></g><g fill="#000000" fill-opacity="1"><g transform="translate(263.675777, 261.935256)"><g><path d="M 8.03125 -33.121094 C 4.179688 -33.121094 2.070312 -31.050781 2.070312 -27.160156 L 2.070312 -17.386719 C 2.070312 -16.601562 2.441406 -16.105469 3.1875 -15.855469 L 13 -12.628906 L 13 -7.121094 C 13 -6.003906 12.421875 -5.464844 11.34375 -5.464844 L 9.355469 -5.464844 C 8.320312 -5.464844 7.699219 -6.003906 7.699219 -7.121094 L 7.699219 -10.308594 C 7.699219 -10.765625 7.492188 -10.972656 7.039062 -10.972656 L 2.730469 -10.972656 C 2.320312 -10.972656 2.070312 -10.765625 2.070312 -10.308594 L 2.070312 -5.960938 C 2.070312 -2.070312 4.179688 0 8.03125 0 L 12.667969 0 C 16.558594 0 18.628906 -2.070312 18.628906 -5.960938 L 18.628906 -15.523438 C 18.628906 -16.3125 18.257812 -16.765625 17.554688 -17.058594 L 7.699219 -20.285156 L 7.699219 -26 C 7.699219 -27.074219 8.320312 -27.65625 9.355469 -27.65625 L 11.34375 -27.65625 C 12.460938 -27.65625 13 -27.074219 13 -26 L 13 -22.769531 C 13 -22.355469 13.246094 -22.109375 13.660156 -22.109375 L 17.96875 -22.109375 C 18.421875 -22.109375 18.628906 -22.355469 18.628906 -22.769531 L 18.628906 -27.160156 C 18.628906 -31.050781 16.558594 -33.121094 12.667969 -33.121094 Z M 8.03125 -33.121094 "/></g></g></g><g fill="#000000" fill-opacity="1"><g transform="translate(285.19908, 261.935256)"><g><path d="M 2.070312 -0.828125 C 2.070312 -0.289062 2.359375 0 2.898438 0 L 6.664062 0 C 7.203125 0 7.492188 -0.289062 7.492188 -0.828125 L 7.492188 -4.636719 C 7.492188 -5.175781 7.203125 -5.464844 6.664062 -5.464844 L 2.898438 -5.464844 C 2.359375 -5.464844 2.070312 -5.175781 2.070312 -4.636719 Z M 2.070312 -0.828125 "/></g></g></g><g fill="#000000" fill-opacity="1"><g transform="translate(295.588312, 261.935256)"><g><path d="M 2.070312 -0.828125 C 2.070312 -0.289062 2.359375 0 2.898438 0 L 6.664062 0 C 7.203125 0 7.492188 -0.289062 7.492188 -0.828125 L 7.492188 -4.636719 C 7.492188 -5.175781 7.203125 -5.464844 6.664062 -5.464844 L 2.898438 -5.464844 C 2.359375 -5.464844 2.070312 -5.175781 2.070312 -4.636719 Z M 2.070312 -0.828125 "/></g></g></g><g fill="#000000" fill-opacity="1"><g transform="translate(305.977533, 261.935256)"><g><path d="M 2.070312 -0.828125 C 2.070312 -0.289062 2.359375 0 2.898438 0 L 6.664062 0 C 7.203125 0 7.492188 -0.289062 7.492188 -0.828125 L 7.492188 -4.636719 C 7.492188 -5.175781 7.203125 -5.464844 6.664062 -5.464844 L 2.898438 -5.464844 C 2.359375 -5.464844 2.070312 -5.175781 2.070312 -4.636719 Z M 2.070312 -0.828125 "/></g></g></g></svg>