<svg xmlns="http://www.w3.org/2000/svg" xmlns:xlink="http://www.w3.org/1999/xlink" width="500" zoomAndPan="magnify" viewBox="0 0 375 374.999991" height="500" preserveAspectRatio="xMidYMid meet" version="1.0"><defs><g/><clipPath id="3ae96d0c8c"><path d="M 49.203125 10.085938 L 316.410156 10.085938 L 316.410156 270.03125 L 49.203125 270.03125 Z M 49.203125 10.085938 " clip-rule="nonzero"/></clipPath><clipPath id="9483274625"><path d="M 138.320312 16.1875 C 151.972656 12.503906 167.59375 10.085938 182.878906 10.085938 C 198.164062 10.085938 212.875 12.160156 226.429688 15.839844 C 226.714844 15.957031 227.003906 15.957031 227.292969 16.070312 C 278.195312 30.800781 315.691406 69.695312 316.410156 115.148438 L 316.410156 270.03125 L 49.203125 270.03125 L 49.203125 115.261719 C 49.921875 69.464844 86.839844 30.570312 138.320312 16.1875 Z M 138.320312 16.1875 " clip-rule="nonzero"/></clipPath><clipPath id="a363d97a27"><path d="M 49.203125 152.84375 L 316.410156 152.84375 L 316.410156 306.6875 L 49.203125 306.6875 Z M 49.203125 152.84375 " clip-rule="nonzero"/></clipPath><clipPath id="17f2eea177"><path d="M 138.917969 38.101562 L 254 38.101562 L 254 152.851562 L 138.917969 152.851562 Z M 138.917969 38.101562 " clip-rule="nonzero"/></clipPath></defs><g clip-path="url(#3ae96d0c8c)"><g clip-path="url(#9483274625)"><path fill="#000000" d="M 49.203125 10.085938 L 316.410156 10.085938 L 316.410156 270.03125 L 49.203125 270.03125 Z M 49.203125 10.085938 " fill-opacity="1" fill-rule="nonzero"/></g></g><g clip-path="url(#a363d97a27)"><path fill="#38b6ff" d="M 49.203125 152.84375 L 316.410156 152.84375 L 316.410156 306.6875 L 49.203125 306.6875 Z M 49.203125 152.84375 " fill-opacity="1" fill-rule="nonzero"/></g><path fill="#ffffff" d="M 245.238281 117.675781 C 243.121094 97.105469 217.367188 88.351562 203.296875 104.039062 C 189.398438 119.539062 200.429688 144.265625 221.207031 144.265625 C 235.535156 144.269531 246.699219 131.875 245.238281 117.675781 Z M 221.207031 140.894531 C 210.722656 140.894531 201.699219 132.945312 200.601562 122.265625 C 198.640625 103.164062 221.1875 92.222656 235.105469 104.707031 C 249.089844 117.253906 240.445312 140.894531 221.207031 140.894531 Z M 221.207031 140.894531 " fill-opacity="1" fill-rule="nonzero"/><path fill="#ffffff" d="M 236.363281 110.828125 C 235.703125 110.167969 234.636719 110.167969 233.976562 110.828125 L 215.011719 129.792969 L 207.019531 121.800781 C 206.359375 121.140625 205.292969 121.140625 204.632812 121.800781 C 203.972656 122.457031 203.972656 123.527344 204.632812 124.1875 L 212.8125 132.367188 C 214.027344 133.582031 215.992188 133.582031 217.207031 132.367188 L 236.363281 113.210938 C 237.023438 112.554688 237.023438 111.484375 236.363281 110.828125 Z M 236.363281 110.828125 " fill-opacity="1" fill-rule="nonzero"/><path fill="#ffffff" d="M 200.320312 49.0625 L 152.867188 49.0625 C 150.300781 49.0625 148.210938 51.152344 148.210938 53.71875 L 148.210938 70.261719 C 148.210938 72.828125 150.300781 74.917969 152.867188 74.917969 L 200.320312 74.917969 C 202.886719 74.917969 204.972656 72.828125 204.972656 70.261719 L 204.972656 53.71875 C 204.972656 51.152344 202.886719 49.0625 200.320312 49.0625 Z M 201.601562 70.261719 C 201.601562 70.96875 201.027344 71.542969 200.320312 71.542969 L 152.867188 71.542969 C 152.160156 71.542969 151.585938 70.96875 151.585938 70.261719 L 151.585938 53.71875 C 151.585938 53.011719 152.160156 52.4375 152.867188 52.4375 L 200.320312 52.4375 C 201.027344 52.4375 201.601562 53.011719 201.601562 53.71875 Z M 201.601562 70.261719 " fill-opacity="1" fill-rule="nonzero"/><path fill="#ffffff" d="M 196.011719 56.089844 L 157.175781 56.089844 C 156.242188 56.089844 155.488281 56.84375 155.488281 57.777344 C 155.488281 58.710938 156.242188 59.464844 157.175781 59.464844 L 196.011719 59.464844 C 196.941406 59.464844 197.699219 58.710938 197.699219 57.777344 C 197.699219 56.84375 196.941406 56.089844 196.011719 56.089844 Z M 196.011719 56.089844 " fill-opacity="1" fill-rule="nonzero"/><path fill="#ffffff" d="M 185.535156 64.515625 L 179.21875 64.515625 C 178.285156 64.515625 177.53125 65.273438 177.53125 66.203125 C 177.53125 67.136719 178.285156 67.890625 179.21875 67.890625 L 185.535156 67.890625 C 186.464844 67.890625 187.222656 67.136719 187.222656 66.203125 C 187.222656 65.273438 186.464844 64.515625 185.535156 64.515625 Z M 185.535156 64.515625 " fill-opacity="1" fill-rule="nonzero"/><path fill="#ffffff" d="M 172.46875 64.515625 L 157.175781 64.515625 C 156.242188 64.515625 155.488281 65.273438 155.488281 66.203125 C 155.488281 67.136719 156.242188 67.890625 157.175781 67.890625 L 172.46875 67.890625 C 173.402344 67.890625 174.15625 67.136719 174.15625 66.203125 C 174.15625 65.273438 173.402344 64.515625 172.46875 64.515625 Z M 172.46875 64.515625 " fill-opacity="1" fill-rule="nonzero"/><path fill="#ffffff" d="M 196.011719 89.222656 L 157.175781 89.222656 C 156.242188 89.222656 155.488281 89.976562 155.488281 90.910156 C 155.488281 91.839844 156.242188 92.59375 157.175781 92.59375 L 196.011719 92.59375 C 196.941406 92.59375 197.699219 91.839844 197.699219 90.910156 C 197.699219 89.976562 196.941406 89.222656 196.011719 89.222656 Z M 196.011719 89.222656 " fill-opacity="1" fill-rule="nonzero"/><path fill="#ffffff" d="M 168.246094 97.648438 L 157.175781 97.648438 C 156.242188 97.648438 155.488281 98.402344 155.488281 99.335938 C 155.488281 100.265625 156.242188 101.023438 157.175781 101.023438 L 168.246094 101.023438 C 169.175781 101.023438 169.929688 100.265625 169.929688 99.335938 C 169.929688 98.402344 169.175781 97.648438 168.246094 97.648438 Z M 168.246094 97.648438 " fill-opacity="1" fill-rule="nonzero"/><path fill="#ffffff" d="M 157.175781 125.726562 L 184.972656 125.726562 C 185.902344 125.726562 186.660156 124.972656 186.660156 124.039062 C 186.660156 123.109375 185.902344 122.351562 184.972656 122.351562 L 157.175781 122.351562 C 156.242188 122.351562 155.488281 123.109375 155.488281 124.039062 C 155.488281 124.972656 156.242188 125.726562 157.175781 125.726562 Z M 157.175781 125.726562 " fill-opacity="1" fill-rule="nonzero"/><path fill="#ffffff" d="M 170.671875 130.777344 L 157.175781 130.777344 C 156.242188 130.777344 155.488281 131.535156 155.488281 132.464844 C 155.488281 133.398438 156.242188 134.152344 157.175781 134.152344 L 170.671875 134.152344 C 171.601562 134.152344 172.359375 133.398438 172.359375 132.464844 C 172.359375 131.535156 171.601562 130.777344 170.671875 130.777344 Z M 170.671875 130.777344 " fill-opacity="1" fill-rule="nonzero"/><path fill="#ffffff" d="M 187.777344 130.777344 L 177.417969 130.777344 C 176.488281 130.777344 175.730469 131.535156 175.730469 132.464844 C 175.730469 133.398438 176.488281 134.152344 177.417969 134.152344 L 187.777344 134.152344 C 188.710938 134.152344 189.464844 133.398438 189.464844 132.464844 C 189.464844 131.535156 188.710938 130.777344 187.777344 130.777344 Z M 187.777344 130.777344 " fill-opacity="1" fill-rule="nonzero"/><g clip-path="url(#17f2eea177)"><path fill="#ffffff" d="M 242.613281 96.335938 C 234.679688 89.214844 224.074219 86.722656 214.269531 88.917969 L 214.269531 43.527344 C 214.269531 40.539062 211.835938 38.101562 208.839844 38.101562 L 144.34375 38.101562 C 141.351562 38.101562 138.917969 40.539062 138.917969 43.527344 L 138.917969 146.714844 C 138.917969 149.707031 141.351562 152.140625 144.34375 152.140625 L 208.839844 152.140625 C 210.164062 152.140625 211.378906 151.664062 212.320312 150.875 C 219.089844 152.84375 226.21875 152.464844 232.535156 150.085938 C 233.40625 149.757812 233.847656 148.785156 233.519531 147.914062 C 233.191406 147.042969 232.21875 146.601562 231.347656 146.929688 C 221.394531 150.667969 209.773438 148.710938 201.59375 141.003906 C 182.890625 123.378906 195.199219 91.519531 221.277344 91.519531 C 235.980469 91.519531 248.207031 102.566406 249.710938 117.214844 C 250.816406 127.980469 245.84375 138.195312 237.007812 144.039062 C 236.230469 144.550781 236.015625 145.597656 236.53125 146.375 C 237.042969 147.152344 238.09375 147.367188 238.867188 146.851562 C 256.449219 135.230469 258.121094 110.246094 242.613281 96.335938 Z M 194.558594 137.804688 L 152.867188 137.804688 C 152.160156 137.804688 151.585938 137.230469 151.585938 136.523438 L 151.585938 119.984375 C 151.585938 119.277344 152.160156 118.699219 152.867188 118.699219 L 189.277344 118.699219 C 188.992188 125.261719 190.695312 131.976562 194.558594 137.804688 Z M 201.601562 94.886719 C 198.179688 97.546875 195.320312 100.894531 193.230469 104.675781 L 152.867188 104.675781 C 152.160156 104.675781 151.585938 104.097656 151.585938 103.394531 L 151.585938 86.851562 C 151.585938 86.144531 152.160156 85.570312 152.867188 85.570312 L 200.320312 85.570312 C 201.027344 85.570312 201.601562 86.144531 201.601562 86.851562 Z M 210.894531 89.867188 C 208.828125 90.570312 206.847656 91.484375 204.972656 92.589844 L 204.972656 86.851562 C 204.972656 84.285156 202.886719 82.195312 200.320312 82.195312 L 152.867188 82.195312 C 150.300781 82.195312 148.210938 84.285156 148.210938 86.851562 L 148.210938 103.394531 C 148.210938 105.957031 150.300781 108.046875 152.867188 108.046875 L 191.617188 108.046875 C 190.664062 110.378906 189.984375 112.824219 189.605469 115.328125 L 152.867188 115.328125 C 150.300781 115.328125 148.210938 117.417969 148.210938 119.984375 L 148.210938 136.523438 C 148.210938 139.089844 150.300781 141.179688 152.867188 141.179688 L 197.136719 141.179688 C 199.832031 144.277344 203.191406 146.894531 206.941406 148.765625 L 144.34375 148.765625 C 143.210938 148.765625 142.292969 147.847656 142.292969 146.714844 L 142.292969 43.527344 C 142.292969 42.398438 143.210938 41.476562 144.34375 41.476562 L 208.839844 41.476562 C 209.972656 41.476562 210.894531 42.398438 210.894531 43.527344 Z M 210.894531 89.867188 " fill-opacity="1" fill-rule="nonzero"/></g><path fill="#000000" d="M 74.613281 248.792969 L 295.15625 248.792969 L 295.15625 252.84375 L 74.613281 252.84375 Z M 74.613281 248.792969 " fill-opacity="1" fill-rule="nonzero"/><g fill="#000000" fill-opacity="1"><g transform="translate(74.614416, 246.365682)"><g><path d="M 20.605469 -29.320312 C 20.605469 -33.523438 18.371094 -35.757812 14.167969 -35.757812 L 2.949219 -35.757812 C 2.503906 -35.757812 2.234375 -35.488281 2.234375 -35.042969 L 2.234375 -0.714844 C 2.234375 -0.269531 2.503906 0 2.949219 0 L 7.597656 0 C 8.046875 0 8.3125 -0.269531 8.3125 -0.714844 L 8.3125 -11.980469 L 11.398438 -11.980469 L 14.394531 -0.625 C 14.480469 -0.222656 14.707031 0 15.152344 0 L 19.800781 0 C 20.292969 0 20.5625 -0.269531 20.425781 -0.804688 L 17.34375 -12.515625 C 19.488281 -13.453125 20.605469 -15.421875 20.605469 -18.414062 Z M 8.3125 -17.878906 L 8.3125 -29.859375 L 12.738281 -29.859375 C 13.902344 -29.859375 14.527344 -29.230469 14.527344 -28.070312 L 14.527344 -19.667969 C 14.527344 -18.503906 13.902344 -17.878906 12.738281 -17.878906 Z M 8.3125 -17.878906 "/></g></g></g><g fill="#000000" fill-opacity="1"><g transform="translate(98.343745, 246.365682)"><g><path d="M 20.070312 -35.042969 C 20.070312 -35.488281 19.890625 -35.757812 19.355469 -35.757812 L 2.90625 -35.757812 C 2.503906 -35.757812 2.234375 -35.488281 2.234375 -35.042969 L 2.234375 -0.714844 C 2.234375 -0.269531 2.503906 0 2.90625 0 L 19.355469 0 C 19.890625 0 20.070312 -0.269531 20.070312 -0.714844 L 20.070312 -5.183594 C 20.070312 -5.675781 19.890625 -5.898438 19.355469 -5.898438 L 8.179688 -5.898438 L 8.179688 -14.929688 L 16.71875 -14.929688 C 17.164062 -14.929688 17.433594 -15.195312 17.433594 -15.6875 L 17.433594 -20.113281 C 17.433594 -20.605469 17.164062 -20.875 16.71875 -20.875 L 8.179688 -20.875 L 8.179688 -29.8125 L 19.355469 -29.8125 C 19.890625 -29.8125 20.070312 -30.125 20.070312 -30.574219 Z M 20.070312 -35.042969 "/></g></g></g><g fill="#000000" fill-opacity="1"><g transform="translate(121.536825, 246.365682)"><g><path d="M 2.234375 -6.4375 C 2.234375 -2.234375 4.46875 0 8.671875 0 L 14.570312 0 C 18.726562 0 21.007812 -2.234375 21.007812 -6.4375 L 21.007812 -18.863281 C 21.007812 -19.355469 20.738281 -19.578125 20.292969 -19.578125 L 12.785156 -19.578125 C 12.292969 -19.578125 12.070312 -19.355469 12.070312 -18.863281 L 12.070312 -14.394531 C 12.070312 -13.945312 12.292969 -13.675781 12.785156 -13.675781 L 15.109375 -13.675781 L 15.109375 -7.6875 C 15.109375 -6.480469 14.480469 -5.898438 13.320312 -5.898438 L 10.101562 -5.898438 C 8.941406 -5.898438 8.3125 -6.480469 8.3125 -7.6875 L 8.3125 -28.070312 C 8.3125 -29.230469 8.894531 -29.859375 10.101562 -29.859375 L 13.320312 -29.859375 C 14.480469 -29.859375 15.109375 -29.230469 15.109375 -28.070312 L 15.109375 -24.671875 C 15.109375 -24.226562 15.332031 -23.957031 15.824219 -23.957031 L 20.292969 -23.957031 C 20.738281 -23.957031 21.007812 -24.226562 21.007812 -24.671875 L 21.007812 -29.320312 C 21.007812 -33.523438 18.726562 -35.757812 14.570312 -35.757812 L 8.671875 -35.757812 C 4.46875 -35.757812 2.234375 -33.523438 2.234375 -29.320312 Z M 2.234375 -6.4375 "/></g></g></g><g fill="#000000" fill-opacity="1"><g transform="translate(145.668343, 246.365682)"><g><path d="M 2.949219 -35.757812 C 2.457031 -35.757812 2.234375 -35.488281 2.234375 -35.042969 L 2.234375 -0.714844 C 2.234375 -0.269531 2.457031 0 2.949219 0 L 7.597656 0 C 8.046875 0 8.3125 -0.269531 8.3125 -0.714844 L 8.3125 -35.042969 C 8.3125 -35.488281 8.046875 -35.757812 7.597656 -35.757812 Z M 2.949219 -35.757812 "/></g></g></g><g fill="#000000" fill-opacity="1"><g transform="translate(157.108584, 246.365682)"><g><path d="M 8.671875 -35.757812 C 4.515625 -35.757812 2.234375 -33.523438 2.234375 -29.320312 L 2.234375 -18.773438 C 2.234375 -17.921875 2.636719 -17.386719 3.441406 -17.121094 L 14.035156 -13.632812 L 14.035156 -7.6875 C 14.035156 -6.480469 13.410156 -5.898438 12.246094 -5.898438 L 10.101562 -5.898438 C 8.984375 -5.898438 8.3125 -6.480469 8.3125 -7.6875 L 8.3125 -11.128906 C 8.3125 -11.621094 8.089844 -11.84375 7.597656 -11.84375 L 2.949219 -11.84375 C 2.503906 -11.84375 2.234375 -11.621094 2.234375 -11.128906 L 2.234375 -6.4375 C 2.234375 -2.234375 4.515625 0 8.671875 0 L 13.675781 0 C 17.878906 0 20.113281 -2.234375 20.113281 -6.4375 L 20.113281 -16.761719 C 20.113281 -17.609375 19.710938 -18.101562 18.953125 -18.414062 L 8.3125 -21.902344 L 8.3125 -28.070312 C 8.3125 -29.230469 8.984375 -29.859375 10.101562 -29.859375 L 12.246094 -29.859375 C 13.453125 -29.859375 14.035156 -29.230469 14.035156 -28.070312 L 14.035156 -24.582031 C 14.035156 -24.136719 14.304688 -23.867188 14.75 -23.867188 L 19.398438 -23.867188 C 19.890625 -23.867188 20.113281 -24.136719 20.113281 -24.582031 L 20.113281 -29.320312 C 20.113281 -33.523438 17.878906 -35.757812 13.675781 -35.757812 Z M 8.671875 -35.757812 "/></g></g></g><g fill="#000000" fill-opacity="1"><g transform="translate(180.346351, 246.365682)"><g><path d="M 2.054688 -35.757812 C 1.609375 -35.757812 1.339844 -35.488281 1.339844 -35.042969 L 1.339844 -30.574219 C 1.339844 -30.125 1.609375 -29.859375 2.054688 -29.859375 L 7.242188 -29.859375 L 7.242188 -0.714844 C 7.242188 -0.222656 7.507812 0 7.957031 0 L 12.605469 0 C 13.097656 0 13.320312 -0.222656 13.320312 -0.714844 L 13.320312 -29.859375 L 18.503906 -29.859375 C 18.996094 -29.859375 19.21875 -30.125 19.21875 -30.574219 L 19.21875 -35.042969 C 19.21875 -35.488281 18.996094 -35.757812 18.503906 -35.757812 Z M 2.054688 -35.757812 "/></g></g></g><g fill="#000000" fill-opacity="1"><g transform="translate(201.796613, 246.365682)"><g><path d="M 20.070312 -35.042969 C 20.070312 -35.488281 19.890625 -35.757812 19.355469 -35.757812 L 2.90625 -35.757812 C 2.503906 -35.757812 2.234375 -35.488281 2.234375 -35.042969 L 2.234375 -0.714844 C 2.234375 -0.269531 2.503906 0 2.90625 0 L 19.355469 0 C 19.890625 0 20.070312 -0.269531 20.070312 -0.714844 L 20.070312 -5.183594 C 20.070312 -5.675781 19.890625 -5.898438 19.355469 -5.898438 L 8.179688 -5.898438 L 8.179688 -14.929688 L 16.71875 -14.929688 C 17.164062 -14.929688 17.433594 -15.195312 17.433594 -15.6875 L 17.433594 -20.113281 C 17.433594 -20.605469 17.164062 -20.875 16.71875 -20.875 L 8.179688 -20.875 L 8.179688 -29.8125 L 19.355469 -29.8125 C 19.890625 -29.8125 20.070312 -30.125 20.070312 -30.574219 Z M 20.070312 -35.042969 "/></g></g></g><g fill="#000000" fill-opacity="1"><g transform="translate(224.989695, 246.365682)"><g><path d="M 20.605469 -29.320312 C 20.605469 -33.523438 18.371094 -35.757812 14.167969 -35.757812 L 2.949219 -35.757812 C 2.503906 -35.757812 2.234375 -35.488281 2.234375 -35.042969 L 2.234375 -0.714844 C 2.234375 -0.269531 2.503906 0 2.949219 0 L 7.597656 0 C 8.046875 0 8.3125 -0.269531 8.3125 -0.714844 L 8.3125 -11.980469 L 11.398438 -11.980469 L 14.394531 -0.625 C 14.480469 -0.222656 14.707031 0 15.152344 0 L 19.800781 0 C 20.292969 0 20.5625 -0.269531 20.425781 -0.804688 L 17.34375 -12.515625 C 19.488281 -13.453125 20.605469 -15.421875 20.605469 -18.414062 Z M 8.3125 -17.878906 L 8.3125 -29.859375 L 12.738281 -29.859375 C 13.902344 -29.859375 14.527344 -29.230469 14.527344 -28.070312 L 14.527344 -19.667969 C 14.527344 -18.503906 13.902344 -17.878906 12.738281 -17.878906 Z M 8.3125 -17.878906 "/></g></g></g><g fill="#000000" fill-opacity="1"><g transform="translate(248.719026, 246.365682)"><g><path d="M 20.070312 -35.042969 C 20.070312 -35.488281 19.890625 -35.757812 19.355469 -35.757812 L 2.90625 -35.757812 C 2.503906 -35.757812 2.234375 -35.488281 2.234375 -35.042969 L 2.234375 -0.714844 C 2.234375 -0.269531 2.503906 0 2.90625 0 L 19.355469 0 C 19.890625 0 20.070312 -0.269531 20.070312 -0.714844 L 20.070312 -5.183594 C 20.070312 -5.675781 19.890625 -5.898438 19.355469 -5.898438 L 8.179688 -5.898438 L 8.179688 -14.929688 L 16.71875 -14.929688 C 17.164062 -14.929688 17.433594 -15.195312 17.433594 -15.6875 L 17.433594 -20.113281 C 17.433594 -20.605469 17.164062 -20.875 16.71875 -20.875 L 8.179688 -20.875 L 8.179688 -29.8125 L 19.355469 -29.8125 C 19.890625 -29.8125 20.070312 -30.125 20.070312 -30.574219 Z M 20.070312 -35.042969 "/></g></g></g><g fill="#000000" fill-opacity="1"><g transform="translate(271.912108, 246.365682)"><g><path d="M 2.234375 -0.714844 C 2.234375 -0.222656 2.457031 0 2.949219 0 L 13.675781 0 C 17.878906 0 20.113281 -2.234375 20.113281 -6.4375 L 20.113281 -29.277344 C 20.113281 -33.480469 17.878906 -35.757812 13.675781 -35.757812 L 2.949219 -35.757812 C 2.457031 -35.757812 2.234375 -35.488281 2.234375 -35.042969 Z M 8.3125 -5.898438 L 8.3125 -29.859375 L 12.425781 -29.859375 C 13.589844 -29.859375 14.214844 -29.230469 14.214844 -28.027344 L 14.214844 -7.6875 C 14.214844 -6.480469 13.589844 -5.898438 12.425781 -5.898438 Z M 8.3125 -5.898438 "/></g></g></g></svg>