<svg xmlns="http://www.w3.org/2000/svg" xmlns:xlink="http://www.w3.org/1999/xlink" width="500" zoomAndPan="magnify" viewBox="0 0 375 374.999991" height="500" preserveAspectRatio="xMidYMid meet" version="1.0"><defs><g/><clipPath id="ca1ea8cf93"><path d="M 56.199219 48.910156 L 318.800781 48.910156 L 318.800781 326.089844 L 56.199219 326.089844 Z M 56.199219 48.910156 " clip-rule="nonzero"/></clipPath><clipPath id="4c7ed85953"><path d="M 143.78125 55.414062 C 157.199219 51.488281 172.546875 48.910156 187.570312 48.910156 C 202.59375 48.910156 217.046875 51.121094 230.371094 55.046875 C 230.652344 55.167969 230.9375 55.167969 231.21875 55.292969 C 281.246094 70.996094 318.09375 112.46875 318.800781 160.9375 L 318.800781 326.089844 L 56.199219 326.089844 L 56.199219 161.058594 C 56.90625 112.222656 93.1875 70.75 143.78125 55.414062 Z M 143.78125 55.414062 " clip-rule="nonzero"/></clipPath><clipPath id="b88da2cbf1"><path d="M 56.199219 177.269531 L 318.800781 177.269531 L 318.800781 350.511719 L 56.199219 350.511719 Z M 56.199219 177.269531 " clip-rule="nonzero"/></clipPath><clipPath id="952694dbc5"><path d="M 153.382812 69.234375 L 229.882812 69.234375 L 229.882812 145.734375 L 153.382812 145.734375 Z M 153.382812 69.234375 " clip-rule="nonzero"/></clipPath></defs><g clip-path="url(#ca1ea8cf93)"><g clip-path="url(#4c7ed85953)"><path fill="#000000" d="M 56.199219 48.910156 L 318.800781 48.910156 L 318.800781 326.089844 L 56.199219 326.089844 Z M 56.199219 48.910156 " fill-opacity="1" fill-rule="nonzero"/></g></g><g clip-path="url(#b88da2cbf1)"><path fill="#38b6ff" d="M 56.199219 177.269531 L 318.800781 177.269531 L 318.800781 350.511719 L 56.199219 350.511719 Z M 56.199219 177.269531 " fill-opacity="1" fill-rule="nonzero"/></g><g clip-path="url(#952694dbc5)"><path stroke-linecap="butt" transform="matrix(0.200052, 0, 0, 0.200052, 153.383505, 69.23484)" fill-opacity="1" fill="#00d300" fill-rule="nonzero" stroke-linejoin="miter" d="M 191.216056 381.948555 C 85.892042 381.948555 0.504219 296.560732 0.504219 191.217191 C 0.504219 85.893177 85.892042 0.505354 191.216056 0.505354 C 296.559597 0.505354 381.94742 85.893177 381.94742 191.217191 C 381.94742 296.560732 296.559597 381.948555 191.216056 381.948555 Z M 191.216056 381.948555 " stroke="#3fb24f" stroke-width="1" stroke-opacity="1" stroke-miterlimit="10"/></g><path fill="#ffffff" d="M 183.832031 131.292969 L 167.382812 109.929688 L 173.722656 105.046875 L 184.054688 118.46875 L 209.640625 87.546875 L 215.804688 92.648438 Z M 183.832031 131.292969 " fill-opacity="1" fill-rule="nonzero"/><path fill="#000000" d="M 81.257812 284.804688 L 287.652344 284.804688 L 287.652344 289.253906 L 81.257812 289.253906 Z M 81.257812 284.804688 " fill-opacity="1" fill-rule="nonzero"/><g fill="#000000" fill-opacity="1"><g transform="translate(81.259012, 282.135469)"><g><path d="M 22.648438 -32.226562 C 22.648438 -36.84375 20.191406 -39.300781 15.574219 -39.300781 L 3.242188 -39.300781 C 2.75 -39.300781 2.457031 -39.007812 2.457031 -38.515625 L 2.457031 -0.785156 C 2.457031 -0.292969 2.75 0 3.242188 0 L 8.351562 0 C 8.84375 0 9.136719 -0.292969 9.136719 -0.785156 L 9.136719 -13.167969 L 12.527344 -13.167969 L 15.820312 -0.6875 C 15.917969 -0.246094 16.164062 0 16.652344 0 L 21.761719 0 C 22.304688 0 22.597656 -0.292969 22.449219 -0.882812 L 19.0625 -13.753906 C 21.417969 -14.789062 22.648438 -16.949219 22.648438 -20.242188 Z M 9.136719 -19.652344 L 9.136719 -32.816406 L 14 -32.816406 C 15.277344 -32.816406 15.964844 -32.128906 15.964844 -30.851562 L 15.964844 -21.617188 C 15.964844 -20.339844 15.277344 -19.652344 14 -19.652344 Z M 9.136719 -19.652344 "/></g></g></g><g fill="#000000" fill-opacity="1"><g transform="translate(107.339818, 282.135469)"><g><path d="M 22.058594 -38.515625 C 22.058594 -39.007812 21.863281 -39.300781 21.273438 -39.300781 L 3.191406 -39.300781 C 2.75 -39.300781 2.457031 -39.007812 2.457031 -38.515625 L 2.457031 -0.785156 C 2.457031 -0.292969 2.75 0 3.191406 0 L 21.273438 0 C 21.863281 0 22.058594 -0.292969 22.058594 -0.785156 L 22.058594 -5.699219 C 22.058594 -6.238281 21.863281 -6.484375 21.273438 -6.484375 L 8.992188 -6.484375 L 8.992188 -16.410156 L 18.375 -16.410156 C 18.863281 -16.410156 19.160156 -16.703125 19.160156 -17.242188 L 19.160156 -22.105469 C 19.160156 -22.648438 18.863281 -22.941406 18.375 -22.941406 L 8.992188 -22.941406 L 8.992188 -32.769531 L 21.273438 -32.769531 C 21.863281 -32.769531 22.058594 -33.113281 22.058594 -33.601562 Z M 22.058594 -38.515625 "/></g></g></g><g fill="#000000" fill-opacity="1"><g transform="translate(132.831236, 282.135469)"><g><path d="M 9.53125 -39.300781 C 4.960938 -39.300781 2.457031 -36.84375 2.457031 -32.226562 L 2.457031 -20.632812 C 2.457031 -19.699219 2.898438 -19.109375 3.78125 -18.816406 L 15.425781 -14.984375 L 15.425781 -8.449219 C 15.425781 -7.125 14.738281 -6.484375 13.460938 -6.484375 L 11.101562 -6.484375 C 9.875 -6.484375 9.136719 -7.125 9.136719 -8.449219 L 9.136719 -12.234375 C 9.136719 -12.773438 8.890625 -13.019531 8.351562 -13.019531 L 3.242188 -13.019531 C 2.75 -13.019531 2.457031 -12.773438 2.457031 -12.234375 L 2.457031 -7.074219 C 2.457031 -2.457031 4.960938 0 9.53125 0 L 15.03125 0 C 19.652344 0 22.105469 -2.457031 22.105469 -7.074219 L 22.105469 -18.421875 C 22.105469 -19.355469 21.664062 -19.898438 20.828125 -20.242188 L 9.136719 -24.074219 L 9.136719 -30.851562 C 9.136719 -32.128906 9.875 -32.816406 11.101562 -32.816406 L 13.460938 -32.816406 C 14.789062 -32.816406 15.425781 -32.128906 15.425781 -30.851562 L 15.425781 -27.019531 C 15.425781 -26.527344 15.71875 -26.234375 16.210938 -26.234375 L 21.320312 -26.234375 C 21.863281 -26.234375 22.105469 -26.527344 22.105469 -27.019531 L 22.105469 -32.226562 C 22.105469 -36.84375 19.652344 -39.300781 15.03125 -39.300781 Z M 9.53125 -39.300781 "/></g></g></g><g fill="#000000" fill-opacity="1"><g transform="translate(158.371772, 282.135469)"><g><path d="M 2.457031 -7.074219 C 2.457031 -2.457031 4.914062 0 9.53125 0 L 15.03125 0 C 19.652344 0 22.105469 -2.457031 22.105469 -7.074219 L 22.105469 -32.226562 C 22.105469 -36.84375 19.652344 -39.300781 15.03125 -39.300781 L 9.53125 -39.300781 C 4.914062 -39.300781 2.457031 -36.84375 2.457031 -32.226562 Z M 10.957031 -6.335938 C 9.679688 -6.335938 8.992188 -6.976562 8.992188 -8.300781 L 8.992188 -31 C 8.992188 -32.277344 9.679688 -32.964844 10.957031 -32.964844 L 13.804688 -32.964844 C 15.082031 -32.964844 15.769531 -32.277344 15.769531 -31 L 15.769531 -8.300781 C 15.769531 -6.976562 15.082031 -6.335938 13.804688 -6.335938 Z M 10.957031 -6.335938 "/></g></g></g><g fill="#000000" fill-opacity="1"><g transform="translate(183.91231, 282.135469)"><g><path d="M 9.136719 -6.484375 L 20.828125 -6.484375 C 21.371094 -6.484375 21.617188 -6.191406 21.617188 -5.699219 L 21.617188 -0.785156 C 21.617188 -0.246094 21.371094 0 20.828125 0 L 3.242188 0 C 2.75 0 2.457031 -0.246094 2.457031 -0.785156 L 2.457031 -38.515625 C 2.457031 -39.007812 2.75 -39.300781 3.242188 -39.300781 L 8.351562 -39.300781 C 8.890625 -39.300781 9.136719 -39.007812 9.136719 -38.515625 Z M 9.136719 -6.484375 "/></g></g></g><g fill="#000000" fill-opacity="1"><g transform="translate(208.961678, 282.135469)"><g><path d="M 19.601562 -39.300781 C 19.011719 -39.300781 18.667969 -39.007812 18.519531 -38.417969 L 13.3125 -12.085938 L 8.15625 -38.417969 C 8.007812 -39.007812 7.664062 -39.300781 7.074219 -39.300781 L 2.40625 -39.300781 C 1.671875 -39.300781 1.375 -38.910156 1.523438 -38.222656 L 9.777344 -0.882812 C 9.921875 -0.292969 10.265625 0 10.855469 0 L 15.769531 0 C 16.359375 0 16.703125 -0.292969 16.851562 -0.882812 L 25.152344 -38.222656 C 25.300781 -38.910156 25.003906 -39.300781 24.269531 -39.300781 Z M 19.601562 -39.300781 "/></g></g></g><g fill="#000000" fill-opacity="1"><g transform="translate(236.614204, 282.135469)"><g><path d="M 22.058594 -38.515625 C 22.058594 -39.007812 21.863281 -39.300781 21.273438 -39.300781 L 3.191406 -39.300781 C 2.75 -39.300781 2.457031 -39.007812 2.457031 -38.515625 L 2.457031 -0.785156 C 2.457031 -0.292969 2.75 0 3.191406 0 L 21.273438 0 C 21.863281 0 22.058594 -0.292969 22.058594 -0.785156 L 22.058594 -5.699219 C 22.058594 -6.238281 21.863281 -6.484375 21.273438 -6.484375 L 8.992188 -6.484375 L 8.992188 -16.410156 L 18.375 -16.410156 C 18.863281 -16.410156 19.160156 -16.703125 19.160156 -17.242188 L 19.160156 -22.105469 C 19.160156 -22.648438 18.863281 -22.941406 18.375 -22.941406 L 8.992188 -22.941406 L 8.992188 -32.769531 L 21.273438 -32.769531 C 21.863281 -32.769531 22.058594 -33.113281 22.058594 -33.601562 Z M 22.058594 -38.515625 "/></g></g></g><g fill="#000000" fill-opacity="1"><g transform="translate(262.105624, 282.135469)"><g><path d="M 2.457031 -0.785156 C 2.457031 -0.246094 2.703125 0 3.242188 0 L 15.03125 0 C 19.652344 0 22.105469 -2.457031 22.105469 -7.074219 L 22.105469 -32.179688 C 22.105469 -36.796875 19.652344 -39.300781 15.03125 -39.300781 L 3.242188 -39.300781 C 2.703125 -39.300781 2.457031 -39.007812 2.457031 -38.515625 Z M 9.136719 -6.484375 L 9.136719 -32.816406 L 13.65625 -32.816406 C 14.933594 -32.816406 15.621094 -32.128906 15.621094 -30.800781 L 15.621094 -8.449219 C 15.621094 -7.125 14.933594 -6.484375 13.65625 -6.484375 Z M 9.136719 -6.484375 "/></g></g></g></svg>