<svg xmlns="http://www.w3.org/2000/svg" xmlns:xlink="http://www.w3.org/1999/xlink" width="500" zoomAndPan="magnify" viewBox="0 0 375 374.999991" height="500" preserveAspectRatio="xMidYMid meet" version="1.0"><defs><g/><clipPath id="e5a5e1ddfc"><path d="M 62.753906 37.5 L 321.074219 37.5 L 321.074219 345.480469 L 62.753906 345.480469 Z M 62.753906 37.5 " clip-rule="nonzero"/></clipPath><clipPath id="d17c4f00d9"><path d="M 148.90625 45.3125 C 162.105469 40.59375 177.207031 37.5 191.984375 37.5 C 206.761719 37.5 220.980469 40.152344 234.082031 44.871094 C 234.363281 45.015625 234.640625 45.015625 234.921875 45.164062 C 284.128906 64.03125 320.375 113.851562 321.074219 171.519531 L 321.074219 345.480469 L 62.753906 345.480469 L 62.753906 171.648438 C 63.449219 113.558594 99.136719 63.738281 148.90625 45.3125 Z M 148.90625 45.3125 " clip-rule="nonzero"/></clipPath><clipPath id="bef9c04baa"><path d="M 62.753906 191.488281 L 321.074219 191.488281 L 321.074219 345.480469 L 62.753906 345.480469 Z M 62.753906 191.488281 " clip-rule="nonzero"/></clipPath><clipPath id="80e4b1d18f"><path d="M 154.84375 72.03125 L 241.09375 72.03125 L 241.09375 158.28125 L 154.84375 158.28125 Z M 154.84375 72.03125 " clip-rule="nonzero"/></clipPath></defs><g clip-path="url(#e5a5e1ddfc)"><g clip-path="url(#d17c4f00d9)"><path fill="#000000" d="M 62.753906 37.5 L 321.074219 37.5 L 321.074219 345.480469 L 62.753906 345.480469 Z M 62.753906 37.5 " fill-opacity="1" fill-rule="nonzero"/></g></g><g clip-path="url(#bef9c04baa)"><path fill="#38b6ff" d="M 62.753906 191.488281 L 321.074219 191.488281 L 321.074219 345.480469 L 62.753906 345.480469 Z M 62.753906 191.488281 " fill-opacity="1" fill-rule="nonzero"/></g><path fill="#d50000" d="M 166.984375 140.085938 L 223.09375 83.976562 L 229.191406 90.074219 L 173.082031 146.183594 Z M 166.984375 140.085938 " fill-opacity="1" fill-rule="nonzero"/><g clip-path="url(#80e4b1d18f)"><path fill="#d50000" d="M 197.96875 72.03125 C 174.25 72.03125 154.84375 91.4375 154.84375 115.15625 C 154.84375 138.875 174.25 158.28125 197.96875 158.28125 C 221.6875 158.28125 241.09375 138.875 241.09375 115.15625 C 241.09375 91.4375 221.6875 72.03125 197.96875 72.03125 Z M 197.96875 149.65625 C 178.992188 149.65625 163.46875 134.128906 163.46875 115.15625 C 163.46875 96.179688 178.992188 80.65625 197.96875 80.65625 C 216.945312 80.65625 232.46875 96.179688 232.46875 115.15625 C 232.46875 134.128906 216.945312 149.65625 197.96875 149.65625 Z M 197.96875 149.65625 " fill-opacity="1" fill-rule="nonzero"/></g><path fill="#000000" d="M 90.113281 278.882812 L 306.527344 278.882812 L 306.527344 282.992188 L 90.113281 282.992188 Z M 90.113281 278.882812 " fill-opacity="1" fill-rule="nonzero"/><g fill="#000000" fill-opacity="1"><g transform="translate(90.113041, 276.418621)"><g><path d="M 20.453125 -29.75 C 20.453125 -34.011719 18.140625 -36.28125 13.921875 -36.28125 L 8.84375 -36.28125 C 4.582031 -36.28125 2.265625 -34.011719 2.265625 -29.75 L 2.265625 -6.53125 C 2.265625 -2.265625 4.582031 0 8.84375 0 L 13.921875 0 C 18.140625 0 20.453125 -2.265625 20.453125 -6.53125 L 20.453125 -11.429688 C 20.453125 -11.882812 20.179688 -12.152344 19.726562 -12.152344 L 15.191406 -12.152344 C 14.691406 -12.152344 14.464844 -11.882812 14.464844 -11.429688 L 14.464844 -7.800781 C 14.464844 -6.574219 13.832031 -5.984375 12.652344 -5.984375 L 10.292969 -5.984375 C 9.113281 -5.984375 8.480469 -6.574219 8.480469 -7.800781 L 8.480469 -28.480469 C 8.480469 -29.660156 9.070312 -30.292969 10.292969 -30.292969 L 12.652344 -30.292969 C 13.832031 -30.292969 14.464844 -29.660156 14.464844 -28.480469 L 14.464844 -24.851562 C 14.464844 -24.398438 14.691406 -24.125 15.191406 -24.125 L 19.726562 -24.125 C 20.179688 -24.125 20.453125 -24.398438 20.453125 -24.851562 Z M 20.453125 -29.75 "/></g></g></g><g fill="#000000" fill-opacity="1"><g transform="translate(113.734866, 276.418621)"><g><path d="M 24.125 0 C 24.671875 0 24.851562 -0.273438 24.761719 -0.769531 L 17.234375 -35.644531 C 17.140625 -36.097656 16.871094 -36.28125 16.460938 -36.28125 L 10.160156 -36.28125 C 9.75 -36.28125 9.476562 -36.097656 9.386719 -35.644531 L 1.859375 -0.769531 C 1.722656 -0.273438 1.949219 0 2.449219 0 L 7.300781 0 C 7.710938 0 7.9375 -0.226562 8.027344 -0.636719 L 9.25 -7.257812 L 17.324219 -7.257812 L 18.59375 -0.636719 C 18.683594 -0.226562 18.910156 0 19.320312 0 Z M 16.191406 -12.515625 L 10.386719 -12.515625 L 13.289062 -28.34375 Z M 16.191406 -12.515625 "/></g></g></g><g fill="#000000" fill-opacity="1"><g transform="translate(141.210505, 276.418621)"><g><path d="M 16.191406 -36.28125 C 15.691406 -36.28125 15.464844 -36.007812 15.464844 -35.554688 L 15.464844 -16.417969 L 15.191406 -16.417969 L 8.300781 -35.691406 C 8.164062 -36.097656 7.890625 -36.28125 7.484375 -36.28125 L 2.992188 -36.28125 C 2.539062 -36.28125 2.265625 -36.007812 2.265625 -35.554688 L 2.265625 -0.726562 C 2.265625 -0.273438 2.539062 0 2.992188 0 L 7.710938 0 C 8.207031 0 8.433594 -0.273438 8.433594 -0.726562 L 8.433594 -19.953125 L 8.660156 -19.953125 L 15.601562 -0.589844 C 15.734375 -0.179688 16.007812 0 16.417969 0 L 20.90625 0 C 21.359375 0 21.632812 -0.273438 21.632812 -0.726562 L 21.632812 -35.554688 C 21.632812 -36.007812 21.359375 -36.28125 20.90625 -36.28125 Z M 16.191406 -36.28125 "/></g></g></g><g fill="#000000" fill-opacity="1"><g transform="translate(166.011134, 276.418621)"><g><path d="M 20.453125 -29.75 C 20.453125 -34.011719 18.140625 -36.28125 13.921875 -36.28125 L 8.84375 -36.28125 C 4.582031 -36.28125 2.265625 -34.011719 2.265625 -29.75 L 2.265625 -6.53125 C 2.265625 -2.265625 4.582031 0 8.84375 0 L 13.921875 0 C 18.140625 0 20.453125 -2.265625 20.453125 -6.53125 L 20.453125 -11.429688 C 20.453125 -11.882812 20.179688 -12.152344 19.726562 -12.152344 L 15.191406 -12.152344 C 14.691406 -12.152344 14.464844 -11.882812 14.464844 -11.429688 L 14.464844 -7.800781 C 14.464844 -6.574219 13.832031 -5.984375 12.652344 -5.984375 L 10.292969 -5.984375 C 9.113281 -5.984375 8.480469 -6.574219 8.480469 -7.800781 L 8.480469 -28.480469 C 8.480469 -29.660156 9.070312 -30.292969 10.292969 -30.292969 L 12.652344 -30.292969 C 13.832031 -30.292969 14.464844 -29.660156 14.464844 -28.480469 L 14.464844 -24.851562 C 14.464844 -24.398438 14.691406 -24.125 15.191406 -24.125 L 19.726562 -24.125 C 20.179688 -24.125 20.453125 -24.398438 20.453125 -24.851562 Z M 20.453125 -29.75 "/></g></g></g><g fill="#000000" fill-opacity="1"><g transform="translate(189.632961, 276.418621)"><g><path d="M 20.363281 -35.554688 C 20.363281 -36.007812 20.179688 -36.28125 19.636719 -36.28125 L 2.949219 -36.28125 C 2.539062 -36.28125 2.265625 -36.007812 2.265625 -35.554688 L 2.265625 -0.726562 C 2.265625 -0.273438 2.539062 0 2.949219 0 L 19.636719 0 C 20.179688 0 20.363281 -0.273438 20.363281 -0.726562 L 20.363281 -5.261719 C 20.363281 -5.757812 20.179688 -5.984375 19.636719 -5.984375 L 8.300781 -5.984375 L 8.300781 -15.148438 L 16.960938 -15.148438 C 17.414062 -15.148438 17.6875 -15.417969 17.6875 -15.917969 L 17.6875 -20.40625 C 17.6875 -20.90625 17.414062 -21.179688 16.960938 -21.179688 L 8.300781 -21.179688 L 8.300781 -30.246094 L 19.636719 -30.246094 C 20.179688 -30.246094 20.363281 -30.566406 20.363281 -31.019531 Z M 20.363281 -35.554688 "/></g></g></g><g fill="#000000" fill-opacity="1"><g transform="translate(213.164103, 276.418621)"><g><path d="M 8.433594 -5.984375 L 19.226562 -5.984375 C 19.726562 -5.984375 19.953125 -5.714844 19.953125 -5.261719 L 19.953125 -0.726562 C 19.953125 -0.226562 19.726562 0 19.226562 0 L 2.992188 0 C 2.539062 0 2.265625 -0.226562 2.265625 -0.726562 L 2.265625 -35.554688 C 2.265625 -36.007812 2.539062 -36.28125 2.992188 -36.28125 L 7.710938 -36.28125 C 8.207031 -36.28125 8.433594 -36.007812 8.433594 -35.554688 Z M 8.433594 -5.984375 "/></g></g></g><g fill="#000000" fill-opacity="1"><g transform="translate(236.287194, 276.418621)"><g><path d="M 8.433594 -5.984375 L 19.226562 -5.984375 C 19.726562 -5.984375 19.953125 -5.714844 19.953125 -5.261719 L 19.953125 -0.726562 C 19.953125 -0.226562 19.726562 0 19.226562 0 L 2.992188 0 C 2.539062 0 2.265625 -0.226562 2.265625 -0.726562 L 2.265625 -35.554688 C 2.265625 -36.007812 2.539062 -36.28125 2.992188 -36.28125 L 7.710938 -36.28125 C 8.207031 -36.28125 8.433594 -36.007812 8.433594 -35.554688 Z M 8.433594 -5.984375 "/></g></g></g><g fill="#000000" fill-opacity="1"><g transform="translate(259.410284, 276.418621)"><g><path d="M 20.363281 -35.554688 C 20.363281 -36.007812 20.179688 -36.28125 19.636719 -36.28125 L 2.949219 -36.28125 C 2.539062 -36.28125 2.265625 -36.007812 2.265625 -35.554688 L 2.265625 -0.726562 C 2.265625 -0.273438 2.539062 0 2.949219 0 L 19.636719 0 C 20.179688 0 20.363281 -0.273438 20.363281 -0.726562 L 20.363281 -5.261719 C 20.363281 -5.757812 20.179688 -5.984375 19.636719 -5.984375 L 8.300781 -5.984375 L 8.300781 -15.148438 L 16.960938 -15.148438 C 17.414062 -15.148438 17.6875 -15.417969 17.6875 -15.917969 L 17.6875 -20.40625 C 17.6875 -20.90625 17.414062 -21.179688 16.960938 -21.179688 L 8.300781 -21.179688 L 8.300781 -30.246094 L 19.636719 -30.246094 C 20.179688 -30.246094 20.363281 -30.566406 20.363281 -31.019531 Z M 20.363281 -35.554688 "/></g></g></g><g fill="#000000" fill-opacity="1"><g transform="translate(282.941427, 276.418621)"><g><path d="M 2.265625 -0.726562 C 2.265625 -0.226562 2.496094 0 2.992188 0 L 13.875 0 C 18.140625 0 20.40625 -2.265625 20.40625 -6.53125 L 20.40625 -29.703125 C 20.40625 -33.964844 18.140625 -36.28125 13.875 -36.28125 L 2.992188 -36.28125 C 2.496094 -36.28125 2.265625 -36.007812 2.265625 -35.554688 Z M 8.433594 -5.984375 L 8.433594 -30.292969 L 12.605469 -30.292969 C 13.785156 -30.292969 14.421875 -29.660156 14.421875 -28.433594 L 14.421875 -7.800781 C 14.421875 -6.574219 13.785156 -5.984375 12.605469 -5.984375 Z M 8.433594 -5.984375 "/></g></g></g></svg>