<svg xmlns="http://www.w3.org/2000/svg" xmlns:xlink="http://www.w3.org/1999/xlink" width="500" zoomAndPan="magnify" viewBox="0 0 375 374.999991" height="500" preserveAspectRatio="xMidYMid meet" version="1.0"><defs><g/><clipPath id="7a7c35289d"><path d="M 59.382812 15.179688 L 316.410156 15.179688 L 316.410156 337.5 L 59.382812 337.5 Z M 59.382812 15.179688 " clip-rule="nonzero"/></clipPath><clipPath id="a528c42221"><path d="M 145.105469 21.277344 C 158.242188 17.59375 173.265625 15.179688 187.96875 15.179688 C 202.671875 15.179688 216.820312 17.25 229.855469 20.933594 C 230.132812 21.046875 230.410156 21.046875 230.6875 21.160156 C 279.652344 35.890625 315.71875 74.785156 316.410156 121.625 L 316.410156 337.5 L 59.382812 337.5 L 59.382812 121.785156 C 60.078125 74.554688 95.585938 35.660156 145.105469 21.277344 Z M 145.105469 21.277344 " clip-rule="nonzero"/></clipPath><clipPath id="e908390211"><path d="M 59.382812 158.519531 L 316.410156 158.519531 L 316.410156 337.5 L 59.382812 337.5 Z M 59.382812 158.519531 " clip-rule="nonzero"/></clipPath><clipPath id="fe5484d114"><path d="M 181 134 L 188 134 L 188 145.5 L 181 145.5 Z M 181 134 " clip-rule="nonzero"/></clipPath><clipPath id="aaf37b97f3"><path d="M 134.027344 73 L 148 73 L 148 87 L 134.027344 87 Z M 134.027344 73 " clip-rule="nonzero"/></clipPath><clipPath id="23b81b148f"><path d="M 134.027344 96 L 148 96 L 148 110 L 134.027344 110 Z M 134.027344 96 " clip-rule="nonzero"/></clipPath><clipPath id="b689efcc6f"><path d="M 142 37.5 L 242 37.5 L 242 145.5 L 142 145.5 Z M 142 37.5 " clip-rule="nonzero"/></clipPath></defs><g clip-path="url(#7a7c35289d)"><g clip-path="url(#a528c42221)"><path fill="#000000" d="M 59.382812 15.179688 L 316.410156 15.179688 L 316.410156 337.5 L 59.382812 337.5 Z M 59.382812 15.179688 " fill-opacity="1" fill-rule="nonzero"/></g></g><g clip-path="url(#e908390211)"><path fill="#38b6ff" d="M 59.382812 158.519531 L 316.410156 158.519531 L 316.410156 337.5 L 59.382812 337.5 Z M 59.382812 158.519531 " fill-opacity="1" fill-rule="nonzero"/></g><path fill="#43a047" d="M 161.007812 91.847656 L 168.644531 84.210938 L 189.695312 105.265625 L 182.050781 112.898438 Z M 161.007812 91.847656 " fill-opacity="1" fill-rule="nonzero"/><path fill="#43a047" d="M 174.214844 105.03125 L 206.71875 72.527344 L 214.777344 80.582031 L 182.269531 113.101562 Z M 174.214844 105.03125 " fill-opacity="1" fill-rule="nonzero"/><g clip-path="url(#fe5484d114)"><path fill="#8bc34a" d="M 182.8125 134.375 L 181.542969 145.132812 C 183.621094 145.378906 185.75 145.5 187.882812 145.5 L 187.882812 134.699219 C 186.167969 134.699219 184.480469 134.570312 182.8125 134.375 Z M 182.8125 134.375 " fill-opacity="1" fill-rule="nonzero"/></g><path fill="#dcedc8" d="M 173.382812 50.847656 L 169.753906 40.632812 C 165.96875 41.964844 162.335938 43.75 158.917969 45.914062 L 164.761719 55.058594 C 167.449219 53.347656 170.339844 51.9375 173.382812 50.847656 Z M 173.382812 50.847656 " fill-opacity="1" fill-rule="nonzero"/><path fill="#c5e1a5" d="M 157.234375 61.078125 L 149.550781 53.476562 C 146.730469 56.320312 144.199219 59.496094 142.066406 62.914062 L 151.273438 68.660156 C 152.984375 65.917969 154.964844 63.359375 157.234375 61.078125 Z M 157.234375 61.078125 " fill-opacity="1" fill-rule="nonzero"/><g clip-path="url(#aaf37b97f3)"><path fill="#aed581" d="M 147.121094 77.324219 L 136.871094 73.773438 C 135.558594 77.546875 134.648438 81.5 134.226562 85.507812 L 144.976562 86.691406 C 145.335938 83.441406 146.078125 80.3125 147.121094 77.324219 Z M 147.121094 77.324219 " fill-opacity="1" fill-rule="nonzero"/></g><g clip-path="url(#23b81b148f)"><path fill="#9ccc65" d="M 144.976562 96.332031 L 134.226562 97.550781 C 134.648438 101.535156 135.558594 105.488281 136.890625 109.296875 L 147.132812 105.710938 C 146.085938 102.714844 145.339844 99.585938 144.976562 96.332031 Z M 144.976562 96.332031 " fill-opacity="1" fill-rule="nonzero"/></g><g clip-path="url(#b689efcc6f)"><path fill="#8bc34a" d="M 151.304688 114.394531 L 142.097656 120.140625 C 144.226562 123.558594 146.761719 126.714844 149.601562 129.578125 L 157.253906 121.949219 C 154.996094 119.675781 153.019531 117.125 151.304688 114.394531 Z M 164.78125 127.957031 L 158.976562 137.121094 C 162.359375 139.273438 166.003906 141.035156 169.808594 142.402344 L 173.445312 132.171875 C 170.382812 131.085938 167.480469 129.667969 164.78125 127.957031 Z M 187.882812 48.300781 L 187.882812 37.5 C 185.773438 37.5 183.640625 37.621094 181.542969 37.867188 L 182.800781 48.625 C 184.472656 48.429688 186.160156 48.300781 187.882812 48.300781 Z M 187.882812 37.5 L 187.882812 48.300781 C 187.886719 48.300781 187.890625 48.300781 187.890625 48.300781 C 211.75 48.300781 231.089844 67.640625 231.089844 91.5 C 231.089844 115.359375 211.75 134.699219 187.890625 134.699219 C 187.890625 134.699219 187.886719 134.699219 187.882812 134.699219 L 187.882812 145.5 C 217.660156 145.5 241.882812 121.277344 241.882812 91.5 C 241.882812 61.722656 217.660156 37.5 187.882812 37.5 Z M 187.882812 37.5 " fill-opacity="1" fill-rule="nonzero"/></g><path fill="#000000" d="M 96.550781 251.902344 L 129.734375 251.902344 L 129.734375 255.648438 L 96.550781 255.648438 Z M 96.550781 251.902344 " fill-opacity="1" fill-rule="nonzero"/><g fill="#000000" fill-opacity="1"><g transform="translate(96.550882, 249.658044)"><g><path d="M 2.726562 -33.058594 C 2.273438 -33.058594 2.066406 -32.808594 2.066406 -32.398438 L 2.066406 -0.660156 C 2.066406 -0.246094 2.273438 0 2.726562 0 L 7.023438 0 C 7.4375 0 7.6875 -0.246094 7.6875 -0.660156 L 7.6875 -32.398438 C 7.6875 -32.808594 7.4375 -33.058594 7.023438 -33.058594 Z M 2.726562 -33.058594 "/></g></g></g><g fill="#000000" fill-opacity="1"><g transform="translate(107.127147, 249.658044)"><g><path d="M 14.753906 -33.058594 C 14.296875 -33.058594 14.089844 -32.808594 14.089844 -32.398438 L 14.089844 -14.957031 L 13.84375 -14.957031 L 7.5625 -32.519531 C 7.4375 -32.890625 7.191406 -33.058594 6.816406 -33.058594 L 2.726562 -33.058594 C 2.3125 -33.058594 2.066406 -32.808594 2.066406 -32.398438 L 2.066406 -0.660156 C 2.066406 -0.246094 2.3125 0 2.726562 0 L 7.023438 0 C 7.480469 0 7.6875 -0.246094 7.6875 -0.660156 L 7.6875 -18.183594 L 7.890625 -18.183594 L 14.214844 -0.539062 C 14.339844 -0.164062 14.585938 0 14.957031 0 L 19.050781 0 C 19.460938 0 19.710938 -0.246094 19.710938 -0.660156 L 19.710938 -32.398438 C 19.710938 -32.808594 19.460938 -33.058594 19.050781 -33.058594 Z M 14.753906 -33.058594 "/></g></g></g><path fill="#000000" d="M 96.550781 294.574219 L 301.21875 294.574219 L 301.21875 298.316406 L 96.550781 298.316406 Z M 96.550781 294.574219 " fill-opacity="1" fill-rule="nonzero"/><g fill="#000000" fill-opacity="1"><g transform="translate(96.550882, 292.327673)"><g><path d="M 2.066406 -0.660156 C 2.066406 -0.246094 2.3125 0 2.726562 0 L 7.023438 0 C 7.480469 0 7.6875 -0.246094 7.6875 -0.660156 L 7.6875 -11.074219 L 12.644531 -11.074219 C 16.527344 -11.074219 18.59375 -13.183594 18.59375 -17.023438 L 18.59375 -27.105469 C 18.59375 -30.992188 16.527344 -33.058594 12.644531 -33.058594 L 2.726562 -33.058594 C 2.3125 -33.058594 2.066406 -32.808594 2.066406 -32.398438 Z M 7.6875 -16.527344 L 7.6875 -27.601562 L 11.324219 -27.601562 C 12.4375 -27.601562 12.976562 -27.023438 12.976562 -25.949219 L 12.976562 -18.183594 C 12.976562 -17.148438 12.4375 -16.527344 11.324219 -16.527344 Z M 7.6875 -16.527344 "/></g></g></g><g fill="#000000" fill-opacity="1"><g transform="translate(118.03372, 292.327673)"><g><path d="M 19.050781 -27.105469 C 19.050781 -30.992188 16.984375 -33.058594 13.097656 -33.058594 L 2.726562 -33.058594 C 2.3125 -33.058594 2.066406 -32.808594 2.066406 -32.398438 L 2.066406 -0.660156 C 2.066406 -0.246094 2.3125 0 2.726562 0 L 7.023438 0 C 7.4375 0 7.6875 -0.246094 7.6875 -0.660156 L 7.6875 -11.074219 L 10.539062 -11.074219 L 13.304688 -0.578125 C 13.386719 -0.207031 13.59375 0 14.007812 0 L 18.304688 0 C 18.761719 0 19.007812 -0.246094 18.882812 -0.742188 L 16.03125 -11.570312 C 18.015625 -12.4375 19.050781 -14.257812 19.050781 -17.023438 Z M 7.6875 -16.527344 L 7.6875 -27.601562 L 11.777344 -27.601562 C 12.851562 -27.601562 13.429688 -27.023438 13.429688 -25.949219 L 13.429688 -18.183594 C 13.429688 -17.105469 12.851562 -16.527344 11.777344 -16.527344 Z M 7.6875 -16.527344 "/></g></g></g><g fill="#000000" fill-opacity="1"><g transform="translate(139.970994, 292.327673)"><g><path d="M 2.066406 -5.949219 C 2.066406 -2.066406 4.132812 0 8.015625 0 L 12.644531 0 C 16.527344 0 18.59375 -2.066406 18.59375 -5.949219 L 18.59375 -27.105469 C 18.59375 -30.992188 16.527344 -33.058594 12.644531 -33.058594 L 8.015625 -33.058594 C 4.132812 -33.058594 2.066406 -30.992188 2.066406 -27.105469 Z M 9.214844 -5.332031 C 8.140625 -5.332031 7.5625 -5.867188 7.5625 -6.984375 L 7.5625 -26.074219 C 7.5625 -27.148438 8.140625 -27.726562 9.214844 -27.726562 L 11.613281 -27.726562 C 12.6875 -27.726562 13.265625 -27.148438 13.265625 -26.074219 L 13.265625 -6.984375 C 13.265625 -5.867188 12.6875 -5.332031 11.613281 -5.332031 Z M 9.214844 -5.332031 "/></g></g></g><g fill="#000000" fill-opacity="1"><g transform="translate(161.453831, 292.327673)"><g><path d="M 2.066406 -5.949219 C 2.066406 -2.066406 4.132812 0 8.015625 0 L 13.472656 0 C 17.3125 0 19.421875 -2.066406 19.421875 -5.949219 L 19.421875 -17.4375 C 19.421875 -17.890625 19.171875 -18.097656 18.761719 -18.097656 L 11.816406 -18.097656 C 11.363281 -18.097656 11.15625 -17.890625 11.15625 -17.4375 L 11.15625 -13.304688 C 11.15625 -12.890625 11.363281 -12.644531 11.816406 -12.644531 L 13.96875 -12.644531 L 13.96875 -7.105469 C 13.96875 -5.992188 13.386719 -5.453125 12.3125 -5.453125 L 9.339844 -5.453125 C 8.265625 -5.453125 7.6875 -5.992188 7.6875 -7.105469 L 7.6875 -25.949219 C 7.6875 -27.023438 8.222656 -27.601562 9.339844 -27.601562 L 12.3125 -27.601562 C 13.386719 -27.601562 13.96875 -27.023438 13.96875 -25.949219 L 13.96875 -22.808594 C 13.96875 -22.398438 14.171875 -22.148438 14.628906 -22.148438 L 18.761719 -22.148438 C 19.171875 -22.148438 19.421875 -22.398438 19.421875 -22.808594 L 19.421875 -27.105469 C 19.421875 -30.992188 17.3125 -33.058594 13.472656 -33.058594 L 8.015625 -33.058594 C 4.132812 -33.058594 2.066406 -30.992188 2.066406 -27.105469 Z M 2.066406 -5.949219 "/></g></g></g><g fill="#000000" fill-opacity="1"><g transform="translate(183.762922, 292.327673)"><g><path d="M 19.050781 -27.105469 C 19.050781 -30.992188 16.984375 -33.058594 13.097656 -33.058594 L 2.726562 -33.058594 C 2.3125 -33.058594 2.066406 -32.808594 2.066406 -32.398438 L 2.066406 -0.660156 C 2.066406 -0.246094 2.3125 0 2.726562 0 L 7.023438 0 C 7.4375 0 7.6875 -0.246094 7.6875 -0.660156 L 7.6875 -11.074219 L 10.539062 -11.074219 L 13.304688 -0.578125 C 13.386719 -0.207031 13.59375 0 14.007812 0 L 18.304688 0 C 18.761719 0 19.007812 -0.246094 18.882812 -0.742188 L 16.03125 -11.570312 C 18.015625 -12.4375 19.050781 -14.257812 19.050781 -17.023438 Z M 7.6875 -16.527344 L 7.6875 -27.601562 L 11.777344 -27.601562 C 12.851562 -27.601562 13.429688 -27.023438 13.429688 -25.949219 L 13.429688 -18.183594 C 13.429688 -17.105469 12.851562 -16.527344 11.777344 -16.527344 Z M 7.6875 -16.527344 "/></g></g></g><g fill="#000000" fill-opacity="1"><g transform="translate(205.700192, 292.327673)"><g><path d="M 18.554688 -32.398438 C 18.554688 -32.808594 18.386719 -33.058594 17.890625 -33.058594 L 2.6875 -33.058594 C 2.3125 -33.058594 2.066406 -32.808594 2.066406 -32.398438 L 2.066406 -0.660156 C 2.066406 -0.246094 2.3125 0 2.6875 0 L 17.890625 0 C 18.386719 0 18.554688 -0.246094 18.554688 -0.660156 L 18.554688 -4.792969 C 18.554688 -5.246094 18.386719 -5.453125 17.890625 -5.453125 L 7.5625 -5.453125 L 7.5625 -13.800781 L 15.453125 -13.800781 C 15.867188 -13.800781 16.117188 -14.050781 16.117188 -14.503906 L 16.117188 -18.59375 C 16.117188 -19.050781 15.867188 -19.296875 15.453125 -19.296875 L 7.5625 -19.296875 L 7.5625 -27.5625 L 17.890625 -27.5625 C 18.386719 -27.5625 18.554688 -27.851562 18.554688 -28.265625 Z M 18.554688 -32.398438 "/></g></g></g><g fill="#000000" fill-opacity="1"><g transform="translate(227.141716, 292.327673)"><g><path d="M 8.015625 -33.058594 C 4.171875 -33.058594 2.066406 -30.992188 2.066406 -27.105469 L 2.066406 -17.355469 C 2.066406 -16.570312 2.4375 -16.074219 3.183594 -15.828125 L 12.976562 -12.601562 L 12.976562 -7.105469 C 12.976562 -5.992188 12.398438 -5.453125 11.324219 -5.453125 L 9.339844 -5.453125 C 8.304688 -5.453125 7.6875 -5.992188 7.6875 -7.105469 L 7.6875 -10.289062 C 7.6875 -10.742188 7.480469 -10.949219 7.023438 -10.949219 L 2.726562 -10.949219 C 2.3125 -10.949219 2.066406 -10.742188 2.066406 -10.289062 L 2.066406 -5.949219 C 2.066406 -2.066406 4.171875 0 8.015625 0 L 12.644531 0 C 16.527344 0 18.59375 -2.066406 18.59375 -5.949219 L 18.59375 -15.496094 C 18.59375 -16.28125 18.222656 -16.734375 17.519531 -17.023438 L 7.6875 -20.246094 L 7.6875 -25.949219 C 7.6875 -27.023438 8.304688 -27.601562 9.339844 -27.601562 L 11.324219 -27.601562 C 12.4375 -27.601562 12.976562 -27.023438 12.976562 -25.949219 L 12.976562 -22.726562 C 12.976562 -22.3125 13.222656 -22.066406 13.636719 -22.066406 L 17.933594 -22.066406 C 18.386719 -22.066406 18.59375 -22.3125 18.59375 -22.726562 L 18.59375 -27.105469 C 18.59375 -30.992188 16.527344 -33.058594 12.644531 -33.058594 Z M 8.015625 -33.058594 "/></g></g></g><g fill="#000000" fill-opacity="1"><g transform="translate(248.624556, 292.327673)"><g><path d="M 8.015625 -33.058594 C 4.171875 -33.058594 2.066406 -30.992188 2.066406 -27.105469 L 2.066406 -17.355469 C 2.066406 -16.570312 2.4375 -16.074219 3.183594 -15.828125 L 12.976562 -12.601562 L 12.976562 -7.105469 C 12.976562 -5.992188 12.398438 -5.453125 11.324219 -5.453125 L 9.339844 -5.453125 C 8.304688 -5.453125 7.6875 -5.992188 7.6875 -7.105469 L 7.6875 -10.289062 C 7.6875 -10.742188 7.480469 -10.949219 7.023438 -10.949219 L 2.726562 -10.949219 C 2.3125 -10.949219 2.066406 -10.742188 2.066406 -10.289062 L 2.066406 -5.949219 C 2.066406 -2.066406 4.171875 0 8.015625 0 L 12.644531 0 C 16.527344 0 18.59375 -2.066406 18.59375 -5.949219 L 18.59375 -15.496094 C 18.59375 -16.28125 18.222656 -16.734375 17.519531 -17.023438 L 7.6875 -20.246094 L 7.6875 -25.949219 C 7.6875 -27.023438 8.304688 -27.601562 9.339844 -27.601562 L 11.324219 -27.601562 C 12.4375 -27.601562 12.976562 -27.023438 12.976562 -25.949219 L 12.976562 -22.726562 C 12.976562 -22.3125 13.222656 -22.066406 13.636719 -22.066406 L 17.933594 -22.066406 C 18.386719 -22.066406 18.59375 -22.3125 18.59375 -22.726562 L 18.59375 -27.105469 C 18.59375 -30.992188 16.527344 -33.058594 12.644531 -33.058594 Z M 8.015625 -33.058594 "/></g></g></g><g fill="#000000" fill-opacity="1"><g transform="translate(270.107395, 292.327673)"><g><path d="M 2.066406 -0.828125 C 2.066406 -0.289062 2.355469 0 2.890625 0 L 6.652344 0 C 7.191406 0 7.480469 -0.289062 7.480469 -0.828125 L 7.480469 -4.628906 C 7.480469 -5.164062 7.191406 -5.453125 6.652344 -5.453125 L 2.890625 -5.453125 C 2.355469 -5.453125 2.066406 -5.164062 2.066406 -4.628906 Z M 2.066406 -0.828125 "/></g></g></g><g fill="#000000" fill-opacity="1"><g transform="translate(280.477096, 292.327673)"><g><path d="M 2.066406 -0.828125 C 2.066406 -0.289062 2.355469 0 2.890625 0 L 6.652344 0 C 7.191406 0 7.480469 -0.289062 7.480469 -0.828125 L 7.480469 -4.628906 C 7.480469 -5.164062 7.191406 -5.453125 6.652344 -5.453125 L 2.890625 -5.453125 C 2.355469 -5.453125 2.066406 -5.164062 2.066406 -4.628906 Z M 2.066406 -0.828125 "/></g></g></g><g fill="#000000" fill-opacity="1"><g transform="translate(290.846785, 292.327673)"><g><path d="M 2.066406 -0.828125 C 2.066406 -0.289062 2.355469 0 2.890625 0 L 6.652344 0 C 7.191406 0 7.480469 -0.289062 7.480469 -0.828125 L 7.480469 -4.628906 C 7.480469 -5.164062 7.191406 -5.453125 6.652344 -5.453125 L 2.890625 -5.453125 C 2.355469 -5.453125 2.066406 -5.164062 2.066406 -4.628906 Z M 2.066406 -0.828125 "/></g></g></g></svg>