<svg xmlns="http://www.w3.org/2000/svg" xmlns:xlink="http://www.w3.org/1999/xlink" width="1280" zoomAndPan="magnify" viewBox="0 0 960 599.999999" height="800" preserveAspectRatio="xMidYMid meet" version="1.0"><defs><g/><clipPath id="34a7d930e1"><path d="M 180.609375 93.730469 L 798.074219 93.730469 L 798.074219 540 L 180.609375 540 Z M 180.609375 93.730469 " clip-rule="nonzero"/></clipPath><clipPath id="bf69db3c80"><path d="M 189.609375 93.730469 L 789.074219 93.730469 C 794.046875 93.730469 798.074219 97.757812 798.074219 102.730469 L 798.074219 531 C 798.074219 535.96875 794.046875 540 789.074219 540 L 189.609375 540 C 184.636719 540 180.609375 535.96875 180.609375 531 L 180.609375 102.730469 C 180.609375 97.757812 184.636719 93.730469 189.609375 93.730469 Z M 189.609375 93.730469 " clip-rule="nonzero"/></clipPath></defs><g clip-path="url(#34a7d930e1)"><g clip-path="url(#bf69db3c80)"><path fill="#e2ffed" d="M 180.609375 93.730469 L 798.074219 93.730469 L 798.074219 540 L 180.609375 540 Z M 180.609375 93.730469 " fill-opacity="1" fill-rule="nonzero"/></g></g><g fill="#000000" fill-opacity="1"><g transform="translate(234.217886, 208.543053)"><g><path d="M 3.609375 0 L 3.609375 -41.5 L 19.984375 -41.5 C 24.691406 -41.5 28.347656 -40.269531 30.953125 -37.8125 C 33.554688 -35.351562 34.859375 -32.0625 34.859375 -27.9375 C 34.859375 -25.101562 34.222656 -22.679688 32.953125 -20.671875 C 31.691406 -18.660156 29.878906 -17.144531 27.515625 -16.125 L 36.328125 0 L 26.640625 0 L 18.78125 -14.71875 L 12.375 -14.71875 L 12.375 0 Z M 12.375 -21.765625 L 18.34375 -21.765625 C 23.320312 -21.765625 25.8125 -23.820312 25.8125 -27.9375 C 25.8125 -32.195312 23.304688 -34.328125 18.296875 -34.328125 L 12.375 -34.328125 Z M 12.375 -21.765625 "/></g></g></g><g fill="#000000" fill-opacity="1"><g transform="translate(271.662096, 208.543053)"><g><path d="M 17.625 0.609375 C 14.4375 0.609375 11.6875 -0.0390625 9.375 -1.34375 C 7.070312 -2.644531 5.296875 -4.492188 4.046875 -6.890625 C 2.804688 -9.296875 2.1875 -12.140625 2.1875 -15.421875 C 2.1875 -18.617188 2.804688 -21.425781 4.046875 -23.84375 C 5.296875 -26.269531 7.050781 -28.15625 9.3125 -29.5 C 11.570312 -30.851562 14.226562 -31.53125 17.28125 -31.53125 C 20.03125 -31.53125 22.507812 -30.945312 24.71875 -29.78125 C 26.925781 -28.625 28.675781 -26.875 29.96875 -24.53125 C 31.269531 -22.1875 31.921875 -19.25 31.921875 -15.71875 L 31.921875 -13.359375 L 10.71875 -13.359375 L 10.71875 -13.328125 C 10.71875 -11.003906 11.351562 -9.175781 12.625 -7.84375 C 13.894531 -6.507812 15.609375 -5.84375 17.765625 -5.84375 C 19.210938 -5.84375 20.460938 -6.144531 21.515625 -6.75 C 22.566406 -7.351562 23.3125 -8.25 23.75 -9.4375 L 31.734375 -8.921875 C 31.128906 -6.023438 29.585938 -3.710938 27.109375 -1.984375 C 24.640625 -0.253906 21.476562 0.609375 17.625 0.609375 Z M 10.71875 -18.703125 L 23.796875 -18.703125 C 23.773438 -20.554688 23.175781 -22.082031 22 -23.28125 C 20.832031 -24.488281 19.304688 -25.09375 17.421875 -25.09375 C 15.503906 -25.09375 13.929688 -24.46875 12.703125 -23.21875 C 11.472656 -21.976562 10.8125 -20.472656 10.71875 -18.703125 Z M 10.71875 -18.703125 "/></g></g></g><g fill="#000000" fill-opacity="1"><g transform="translate(305.763089, 208.543053)"><g><path d="M 29.34375 -22.25 L 21.4375 -21.765625 C 21.21875 -22.765625 20.671875 -23.617188 19.796875 -24.328125 C 18.921875 -25.046875 17.734375 -25.40625 16.234375 -25.40625 C 14.890625 -25.40625 13.753906 -25.125 12.828125 -24.5625 C 11.910156 -24.007812 11.457031 -23.265625 11.46875 -22.328125 C 11.457031 -21.585938 11.75 -20.957031 12.34375 -20.4375 C 12.945312 -19.925781 13.972656 -19.515625 15.421875 -19.203125 L 21.046875 -18.078125 C 27.035156 -16.847656 30.035156 -14.035156 30.046875 -9.640625 C 30.046875 -7.597656 29.445312 -5.804688 28.25 -4.265625 C 27.0625 -2.734375 25.425781 -1.535156 23.34375 -0.671875 C 21.257812 0.179688 18.875 0.609375 16.1875 0.609375 C 12.070312 0.609375 8.789062 -0.25 6.34375 -1.96875 C 3.894531 -3.695312 2.46875 -6.046875 2.0625 -9.015625 L 10.5625 -9.46875 C 10.832031 -8.195312 11.457031 -7.234375 12.4375 -6.578125 C 13.414062 -5.929688 14.675781 -5.609375 16.21875 -5.609375 C 17.726562 -5.609375 18.941406 -5.90625 19.859375 -6.5 C 20.785156 -7.09375 21.257812 -7.851562 21.28125 -8.78125 C 21.238281 -10.3125 19.90625 -11.34375 17.28125 -11.875 L 11.890625 -12.953125 C 5.867188 -14.148438 2.867188 -17.113281 2.890625 -21.84375 C 2.878906 -24.84375 4.078125 -27.207031 6.484375 -28.9375 C 8.898438 -30.664062 12.101562 -31.53125 16.09375 -31.53125 C 20.019531 -31.53125 23.113281 -30.695312 25.375 -29.03125 C 27.644531 -27.375 28.96875 -25.113281 29.34375 -22.25 Z M 29.34375 -22.25 "/></g></g></g><g fill="#000000" fill-opacity="1"><g transform="translate(337.817633, 208.543053)"><g><path d="M 17.515625 0.609375 C 14.359375 0.609375 11.632812 -0.0625 9.34375 -1.40625 C 7.0625 -2.75 5.296875 -4.625 4.046875 -7.03125 C 2.804688 -9.445312 2.1875 -12.25 2.1875 -15.4375 C 2.1875 -18.65625 2.804688 -21.46875 4.046875 -23.875 C 5.296875 -26.289062 7.0625 -28.171875 9.34375 -29.515625 C 11.632812 -30.859375 14.359375 -31.53125 17.515625 -31.53125 C 20.660156 -31.53125 23.375 -30.859375 25.65625 -29.515625 C 27.945312 -28.171875 29.710938 -26.289062 30.953125 -23.875 C 32.203125 -21.46875 32.828125 -18.65625 32.828125 -15.4375 C 32.828125 -12.25 32.203125 -9.445312 30.953125 -7.03125 C 29.710938 -4.625 27.945312 -2.75 25.65625 -1.40625 C 23.375 -0.0625 20.660156 0.609375 17.515625 0.609375 Z M 17.546875 -6.078125 C 19.679688 -6.078125 21.296875 -6.96875 22.390625 -8.75 C 23.492188 -10.53125 24.046875 -12.78125 24.046875 -15.5 C 24.046875 -18.21875 23.492188 -20.46875 22.390625 -22.25 C 21.296875 -24.039062 19.679688 -24.9375 17.546875 -24.9375 C 15.367188 -24.9375 13.726562 -24.039062 12.625 -22.25 C 11.519531 -20.46875 10.96875 -18.21875 10.96875 -15.5 C 10.96875 -12.78125 11.519531 -10.53125 12.625 -8.75 C 13.726562 -6.96875 15.367188 -6.078125 17.546875 -6.078125 Z M 17.546875 -6.078125 "/></g></g></g><g fill="#000000" fill-opacity="1"><g transform="translate(372.830408, 208.543053)"><g><path d="M 12.078125 -41.5 L 12.078125 0 L 3.4375 0 L 3.4375 -41.5 Z M 12.078125 -41.5 "/></g></g></g><g fill="#000000" fill-opacity="1"><g transform="translate(388.351101, 208.543053)"><g><path d="M 32.46875 -31.125 L 21.578125 0 L 11.859375 0 L 0.96875 -31.125 L 10.09375 -31.125 L 16.5625 -8.859375 L 16.875 -8.859375 L 23.328125 -31.125 Z M 32.46875 -31.125 "/></g></g></g><g fill="#000000" fill-opacity="1"><g transform="translate(421.78344, 208.543053)"><g><path d="M 17.625 0.609375 C 14.4375 0.609375 11.6875 -0.0390625 9.375 -1.34375 C 7.070312 -2.644531 5.296875 -4.492188 4.046875 -6.890625 C 2.804688 -9.296875 2.1875 -12.140625 2.1875 -15.421875 C 2.1875 -18.617188 2.804688 -21.425781 4.046875 -23.84375 C 5.296875 -26.269531 7.050781 -28.15625 9.3125 -29.5 C 11.570312 -30.851562 14.226562 -31.53125 17.28125 -31.53125 C 20.03125 -31.53125 22.507812 -30.945312 24.71875 -29.78125 C 26.925781 -28.625 28.675781 -26.875 29.96875 -24.53125 C 31.269531 -22.1875 31.921875 -19.25 31.921875 -15.71875 L 31.921875 -13.359375 L 10.71875 -13.359375 L 10.71875 -13.328125 C 10.71875 -11.003906 11.351562 -9.175781 12.625 -7.84375 C 13.894531 -6.507812 15.609375 -5.84375 17.765625 -5.84375 C 19.210938 -5.84375 20.460938 -6.144531 21.515625 -6.75 C 22.566406 -7.351562 23.3125 -8.25 23.75 -9.4375 L 31.734375 -8.921875 C 31.128906 -6.023438 29.585938 -3.710938 27.109375 -1.984375 C 24.640625 -0.253906 21.476562 0.609375 17.625 0.609375 Z M 10.71875 -18.703125 L 23.796875 -18.703125 C 23.773438 -20.554688 23.175781 -22.082031 22 -23.28125 C 20.832031 -24.488281 19.304688 -25.09375 17.421875 -25.09375 C 15.503906 -25.09375 13.929688 -24.46875 12.703125 -23.21875 C 11.472656 -21.976562 10.8125 -20.472656 10.71875 -18.703125 Z M 10.71875 -18.703125 "/></g></g></g><g fill="#000000" fill-opacity="1"><g transform="translate(455.884432, 208.543053)"><g><path d="M 14.921875 0.5 C 12.554688 0.5 10.421875 -0.109375 8.515625 -1.328125 C 6.609375 -2.546875 5.09375 -4.347656 3.96875 -6.734375 C 2.851562 -9.117188 2.296875 -12.046875 2.296875 -15.515625 C 2.296875 -19.085938 2.867188 -22.054688 4.015625 -24.421875 C 5.171875 -26.796875 6.703125 -28.570312 8.609375 -29.75 C 10.523438 -30.9375 12.617188 -31.53125 14.890625 -31.53125 C 16.640625 -31.53125 18.097656 -31.234375 19.265625 -30.640625 C 20.429688 -30.054688 21.375 -29.332031 22.09375 -28.46875 C 22.820312 -27.601562 23.375 -26.742188 23.75 -25.890625 L 24.015625 -25.890625 L 24.015625 -41.5 L 32.625 -41.5 L 32.625 0 L 24.109375 0 L 24.109375 -4.984375 L 23.75 -4.984375 C 23.351562 -4.117188 22.785156 -3.265625 22.046875 -2.421875 C 21.304688 -1.578125 20.347656 -0.878906 19.171875 -0.328125 C 18.003906 0.222656 16.585938 0.5 14.921875 0.5 Z M 17.65625 -6.359375 C 19.726562 -6.359375 21.332031 -7.195312 22.46875 -8.875 C 23.613281 -10.5625 24.1875 -12.789062 24.1875 -15.5625 C 24.1875 -18.34375 23.617188 -20.550781 22.484375 -22.1875 C 21.359375 -23.832031 19.75 -24.65625 17.65625 -24.65625 C 15.519531 -24.65625 13.894531 -23.8125 12.78125 -22.125 C 11.664062 -20.445312 11.109375 -18.257812 11.109375 -15.5625 C 11.109375 -12.84375 11.664062 -10.628906 12.78125 -8.921875 C 13.90625 -7.210938 15.53125 -6.359375 17.65625 -6.359375 Z M 17.65625 -6.359375 "/></g></g></g><g fill="#000000" fill-opacity="1"><g transform="translate(492.133194, 208.543053)"><g/></g></g><g fill="#000000" fill-opacity="1"><g transform="translate(505.364312, 208.543053)"><g><path d="M 40.21875 -26.96875 L 31.34375 -26.96875 C 31.007812 -29.25 30.035156 -31.039062 28.421875 -32.34375 C 26.816406 -33.65625 24.8125 -34.3125 22.40625 -34.3125 C 19.195312 -34.3125 16.617188 -33.128906 14.671875 -30.765625 C 12.734375 -28.410156 11.765625 -25.070312 11.765625 -20.75 C 11.765625 -16.320312 12.738281 -12.953125 14.6875 -10.640625 C 16.644531 -8.335938 19.195312 -7.1875 22.34375 -7.1875 C 24.6875 -7.1875 26.664062 -7.796875 28.28125 -9.015625 C 29.90625 -10.242188 30.925781 -11.96875 31.34375 -14.1875 L 40.21875 -14.140625 C 39.90625 -11.597656 39 -9.207031 37.5 -6.96875 C 36.007812 -4.726562 33.972656 -2.910156 31.390625 -1.515625 C 28.816406 -0.128906 25.753906 0.5625 22.203125 0.5625 C 18.503906 0.5625 15.195312 -0.269531 12.28125 -1.9375 C 9.375 -3.613281 7.078125 -6.039062 5.390625 -9.21875 C 3.710938 -12.394531 2.875 -16.238281 2.875 -20.75 C 2.875 -25.269531 3.722656 -29.117188 5.421875 -32.296875 C 7.128906 -35.472656 9.441406 -37.894531 12.359375 -39.5625 C 15.273438 -41.226562 18.554688 -42.0625 22.203125 -42.0625 C 25.410156 -42.0625 28.300781 -41.46875 30.875 -40.28125 C 33.445312 -39.101562 35.550781 -37.390625 37.1875 -35.140625 C 38.832031 -32.898438 39.84375 -30.175781 40.21875 -26.96875 Z M 40.21875 -26.96875 "/></g></g></g><g fill="#000000" fill-opacity="1"><g transform="translate(548.279267, 208.543053)"><g><path d="M 12.328125 0.59375 C 9.347656 0.59375 6.878906 -0.179688 4.921875 -1.734375 C 2.960938 -3.296875 1.984375 -5.613281 1.984375 -8.6875 C 1.984375 -11.007812 2.53125 -12.832031 3.625 -14.15625 C 4.71875 -15.488281 6.148438 -16.460938 7.921875 -17.078125 C 9.703125 -17.691406 11.617188 -18.09375 13.671875 -18.28125 C 16.378906 -18.550781 18.3125 -18.832031 19.46875 -19.125 C 20.632812 -19.425781 21.21875 -20.078125 21.21875 -21.078125 L 21.21875 -21.203125 C 21.21875 -22.484375 20.816406 -23.472656 20.015625 -24.171875 C 19.210938 -24.878906 18.070312 -25.234375 16.59375 -25.234375 C 15.039062 -25.234375 13.804688 -24.894531 12.890625 -24.21875 C 11.972656 -23.539062 11.363281 -22.679688 11.0625 -21.640625 L 3.078125 -22.296875 C 3.671875 -25.128906 5.144531 -27.375 7.5 -29.03125 C 9.863281 -30.695312 12.910156 -31.53125 16.640625 -31.53125 C 18.953125 -31.53125 21.113281 -31.164062 23.125 -30.4375 C 25.132812 -29.707031 26.753906 -28.566406 27.984375 -27.015625 C 29.222656 -25.472656 29.84375 -23.46875 29.84375 -21 L 29.84375 0 L 21.65625 0 L 21.65625 -4.3125 L 21.421875 -4.3125 C 20.660156 -2.863281 19.523438 -1.679688 18.015625 -0.765625 C 16.515625 0.140625 14.617188 0.59375 12.328125 0.59375 Z M 14.796875 -5.375 C 16.679688 -5.375 18.234375 -5.921875 19.453125 -7.015625 C 20.671875 -8.117188 21.28125 -9.488281 21.28125 -11.125 L 21.28125 -14.421875 C 20.9375 -14.191406 20.410156 -13.988281 19.703125 -13.8125 C 18.992188 -13.644531 18.238281 -13.492188 17.4375 -13.359375 C 16.632812 -13.234375 15.914062 -13.125 15.28125 -13.03125 C 13.769531 -12.8125 12.550781 -12.382812 11.625 -11.75 C 10.695312 -11.113281 10.234375 -10.191406 10.234375 -8.984375 C 10.234375 -7.785156 10.660156 -6.882812 11.515625 -6.28125 C 12.378906 -5.675781 13.472656 -5.375 14.796875 -5.375 Z M 14.796875 -5.375 "/></g></g></g><g fill="#000000" fill-opacity="1"><g transform="translate(581.387399, 208.543053)"><g><path d="M 29.34375 -22.25 L 21.4375 -21.765625 C 21.21875 -22.765625 20.671875 -23.617188 19.796875 -24.328125 C 18.921875 -25.046875 17.734375 -25.40625 16.234375 -25.40625 C 14.890625 -25.40625 13.753906 -25.125 12.828125 -24.5625 C 11.910156 -24.007812 11.457031 -23.265625 11.46875 -22.328125 C 11.457031 -21.585938 11.75 -20.957031 12.34375 -20.4375 C 12.945312 -19.925781 13.972656 -19.515625 15.421875 -19.203125 L 21.046875 -18.078125 C 27.035156 -16.847656 30.035156 -14.035156 30.046875 -9.640625 C 30.046875 -7.597656 29.445312 -5.804688 28.25 -4.265625 C 27.0625 -2.734375 25.425781 -1.535156 23.34375 -0.671875 C 21.257812 0.179688 18.875 0.609375 16.1875 0.609375 C 12.070312 0.609375 8.789062 -0.25 6.34375 -1.96875 C 3.894531 -3.695312 2.46875 -6.046875 2.0625 -9.015625 L 10.5625 -9.46875 C 10.832031 -8.195312 11.457031 -7.234375 12.4375 -6.578125 C 13.414062 -5.929688 14.675781 -5.609375 16.21875 -5.609375 C 17.726562 -5.609375 18.941406 -5.90625 19.859375 -6.5 C 20.785156 -7.09375 21.257812 -7.851562 21.28125 -8.78125 C 21.238281 -10.3125 19.90625 -11.34375 17.28125 -11.875 L 11.890625 -12.953125 C 5.867188 -14.148438 2.867188 -17.113281 2.890625 -21.84375 C 2.878906 -24.84375 4.078125 -27.207031 6.484375 -28.9375 C 8.898438 -30.664062 12.101562 -31.53125 16.09375 -31.53125 C 20.019531 -31.53125 23.113281 -30.695312 25.375 -29.03125 C 27.644531 -27.375 28.96875 -25.113281 29.34375 -22.25 Z M 29.34375 -22.25 "/></g></g></g><g fill="#000000" fill-opacity="1"><g transform="translate(613.441943, 208.543053)"><g><path d="M 17.625 0.609375 C 14.4375 0.609375 11.6875 -0.0390625 9.375 -1.34375 C 7.070312 -2.644531 5.296875 -4.492188 4.046875 -6.890625 C 2.804688 -9.296875 2.1875 -12.140625 2.1875 -15.421875 C 2.1875 -18.617188 2.804688 -21.425781 4.046875 -23.84375 C 5.296875 -26.269531 7.050781 -28.15625 9.3125 -29.5 C 11.570312 -30.851562 14.226562 -31.53125 17.28125 -31.53125 C 20.03125 -31.53125 22.507812 -30.945312 24.71875 -29.78125 C 26.925781 -28.625 28.675781 -26.875 29.96875 -24.53125 C 31.269531 -22.1875 31.921875 -19.25 31.921875 -15.71875 L 31.921875 -13.359375 L 10.71875 -13.359375 L 10.71875 -13.328125 C 10.71875 -11.003906 11.351562 -9.175781 12.625 -7.84375 C 13.894531 -6.507812 15.609375 -5.84375 17.765625 -5.84375 C 19.210938 -5.84375 20.460938 -6.144531 21.515625 -6.75 C 22.566406 -7.351562 23.3125 -8.25 23.75 -9.4375 L 31.734375 -8.921875 C 31.128906 -6.023438 29.585938 -3.710938 27.109375 -1.984375 C 24.640625 -0.253906 21.476562 0.609375 17.625 0.609375 Z M 10.71875 -18.703125 L 23.796875 -18.703125 C 23.773438 -20.554688 23.175781 -22.082031 22 -23.28125 C 20.832031 -24.488281 19.304688 -25.09375 17.421875 -25.09375 C 15.503906 -25.09375 13.929688 -24.46875 12.703125 -23.21875 C 11.472656 -21.976562 10.8125 -20.472656 10.71875 -18.703125 Z M 10.71875 -18.703125 "/></g></g></g><g fill="#000000" fill-opacity="1"><g transform="translate(647.542936, 208.543053)"><g><path d="M 29.34375 -22.25 L 21.4375 -21.765625 C 21.21875 -22.765625 20.671875 -23.617188 19.796875 -24.328125 C 18.921875 -25.046875 17.734375 -25.40625 16.234375 -25.40625 C 14.890625 -25.40625 13.753906 -25.125 12.828125 -24.5625 C 11.910156 -24.007812 11.457031 -23.265625 11.46875 -22.328125 C 11.457031 -21.585938 11.75 -20.957031 12.34375 -20.4375 C 12.945312 -19.925781 13.972656 -19.515625 15.421875 -19.203125 L 21.046875 -18.078125 C 27.035156 -16.847656 30.035156 -14.035156 30.046875 -9.640625 C 30.046875 -7.597656 29.445312 -5.804688 28.25 -4.265625 C 27.0625 -2.734375 25.425781 -1.535156 23.34375 -0.671875 C 21.257812 0.179688 18.875 0.609375 16.1875 0.609375 C 12.070312 0.609375 8.789062 -0.25 6.34375 -1.96875 C 3.894531 -3.695312 2.46875 -6.046875 2.0625 -9.015625 L 10.5625 -9.46875 C 10.832031 -8.195312 11.457031 -7.234375 12.4375 -6.578125 C 13.414062 -5.929688 14.675781 -5.609375 16.21875 -5.609375 C 17.726562 -5.609375 18.941406 -5.90625 19.859375 -6.5 C 20.785156 -7.09375 21.257812 -7.851562 21.28125 -8.78125 C 21.238281 -10.3125 19.90625 -11.34375 17.28125 -11.875 L 11.890625 -12.953125 C 5.867188 -14.148438 2.867188 -17.113281 2.890625 -21.84375 C 2.878906 -24.84375 4.078125 -27.207031 6.484375 -28.9375 C 8.898438 -30.664062 12.101562 -31.53125 16.09375 -31.53125 C 20.019531 -31.53125 23.113281 -30.695312 25.375 -29.03125 C 27.644531 -27.375 28.96875 -25.113281 29.34375 -22.25 Z M 29.34375 -22.25 "/></g></g></g><g fill="#000000" fill-opacity="1"><g transform="translate(377.063334, 404.720061)"><g><path d="M 4.28125 -6.984375 C 4.28125 -11.847656 4.8125 -15.941406 5.875 -19.265625 C 6.9375 -22.597656 8.671875 -25.640625 11.078125 -28.390625 C 13.484375 -31.140625 16.894531 -34.101562 21.3125 -37.28125 L 33.0625 -45.765625 C 36.269531 -48.054688 38.769531 -50.046875 40.5625 -51.734375 C 42.351562 -53.421875 43.695312 -55.1875 44.59375 -57.03125 C 45.5 -58.882812 45.953125 -60.992188 45.953125 -63.359375 C 45.953125 -66.929688 44.867188 -69.691406 42.703125 -71.640625 C 40.535156 -73.585938 37.28125 -74.5625 32.9375 -74.5625 C 28.769531 -74.5625 25.054688 -73.566406 21.796875 -71.578125 C 18.546875 -69.585938 15.859375 -66.867188 13.734375 -63.421875 L 12.59375 -63.125 L 3.015625 -73.84375 C 6.140625 -78.5 10.222656 -82.238281 15.265625 -85.0625 C 20.304688 -87.894531 26.421875 -89.3125 33.609375 -89.3125 C 40.191406 -89.3125 45.703125 -88.226562 50.140625 -86.0625 C 54.578125 -83.894531 57.867188 -80.929688 60.015625 -77.171875 C 62.160156 -73.421875 63.234375 -69.117188 63.234375 -64.265625 C 63.234375 -60.085938 62.359375 -56.269531 60.609375 -52.8125 C 58.867188 -49.363281 56.453125 -46.171875 53.359375 -43.234375 C 50.265625 -40.304688 46.3125 -37.15625 41.5 -33.78125 L 31.078125 -26.5 C 27.941406 -24.25 25.75 -22.25 24.5 -20.5 C 23.257812 -18.757812 22.640625 -16.785156 22.640625 -14.578125 L 62.390625 -14.578125 L 62.390625 0 L 4.28125 0 Z M 4.28125 -6.984375 "/></g></g></g><g fill="#000000" fill-opacity="1"><g transform="translate(445.781663, 404.720061)"><g><path d="M 36.671875 1.265625 C 27.878906 1.265625 20.90625 -0.578125 15.75 -4.265625 C 10.59375 -7.960938 7.226562 -13.125 5.65625 -19.75 L 18.84375 -25.59375 L 20.234375 -25.359375 C 21.515625 -21.460938 23.429688 -18.53125 25.984375 -16.5625 C 28.535156 -14.59375 32.039062 -13.609375 36.5 -13.609375 C 41.070312 -13.609375 44.601562 -14.910156 47.09375 -17.515625 C 49.582031 -20.128906 50.828125 -24.023438 50.828125 -29.203125 C 50.828125 -34.347656 49.59375 -38.242188 47.125 -40.890625 C 44.65625 -43.546875 41.296875 -44.875 37.046875 -44.875 C 33.785156 -44.875 31.050781 -44.171875 28.84375 -42.765625 C 26.632812 -41.359375 24.789062 -39.269531 23.3125 -36.5 L 8.90625 -37.515625 L 10.71875 -88.046875 L 63.125 -88.046875 L 63.125 -73.421875 L 25.359375 -73.421875 L 24.515625 -50.953125 L 25.78125 -50.703125 C 27.820312 -53.398438 30.269531 -55.441406 33.125 -56.828125 C 35.976562 -58.210938 39.410156 -58.90625 43.421875 -58.90625 C 48.441406 -58.90625 52.828125 -57.789062 56.578125 -55.5625 C 60.335938 -53.332031 63.238281 -50.019531 65.28125 -45.625 C 67.332031 -41.226562 68.359375 -35.859375 68.359375 -29.515625 C 68.359375 -23.046875 67.125 -17.507812 64.65625 -12.90625 C 62.1875 -8.3125 58.582031 -4.800781 53.84375 -2.375 C 49.101562 0.0507812 43.378906 1.265625 36.671875 1.265625 Z M 36.671875 1.265625 "/></g></g></g></svg>