<svg xmlns="http://www.w3.org/2000/svg" xmlns:xlink="http://www.w3.org/1999/xlink" width="1280" zoomAndPan="magnify" viewBox="0 0 960 599.999999" height="800" preserveAspectRatio="xMidYMid meet" version="1.0"><defs><g/></defs><path fill="#ffbd59" d="M 472.847656 91.394531 C 475.757812 91.394531 478.664062 91.453125 481.570312 91.566406 C 484.476562 91.679688 487.382812 91.851562 490.28125 92.082031 C 493.179688 92.308594 496.074219 92.597656 498.964844 92.9375 C 501.851562 93.28125 504.734375 93.679688 507.605469 94.136719 C 510.480469 94.59375 513.34375 95.105469 516.195312 95.675781 C 519.046875 96.246094 521.886719 96.871094 524.714844 97.550781 C 527.542969 98.230469 530.359375 98.96875 533.15625 99.757812 C 535.957031 100.550781 538.738281 101.398438 541.503906 102.296875 C 544.269531 103.199219 547.019531 104.15625 549.746094 105.164062 C 552.472656 106.171875 555.179688 107.234375 557.867188 108.351562 C 560.554688 109.46875 563.21875 110.636719 565.859375 111.859375 C 568.496094 113.078125 571.113281 114.351562 573.703125 115.675781 C 576.292969 117 578.855469 118.375 581.394531 119.796875 C 583.929688 121.222656 586.4375 122.695312 588.914062 124.21875 C 591.390625 125.742188 593.839844 127.316406 596.253906 128.9375 C 598.671875 130.554688 601.054688 132.222656 603.40625 133.9375 C 605.753906 135.648438 608.070312 137.410156 610.351562 139.214844 C 612.632812 141.019531 614.878906 142.867188 617.085938 144.761719 C 619.296875 146.65625 621.464844 148.589844 623.597656 150.570312 C 625.730469 152.550781 627.824219 154.570312 629.875 156.628906 C 631.929688 158.691406 633.9375 160.792969 635.910156 162.933594 C 637.878906 165.074219 639.804688 167.25 641.691406 169.46875 C 643.574219 171.683594 645.414062 173.9375 647.210938 176.226562 C 649.003906 178.515625 650.753906 180.835938 652.457031 183.195312 C 654.160156 185.554688 655.820312 187.941406 657.429688 190.367188 C 659.039062 192.789062 660.601562 195.242188 662.113281 197.726562 C 663.625 200.210938 665.089844 202.726562 666.503906 205.265625 C 667.917969 207.808594 669.28125 210.378906 670.59375 212.972656 C 671.90625 215.570312 673.167969 218.191406 674.378906 220.835938 C 675.589844 223.480469 676.746094 226.148438 677.851562 228.839844 C 678.957031 231.53125 680.007812 234.242188 681.003906 236.976562 C 682.003906 239.707031 682.945312 242.457031 683.835938 245.226562 C 684.726562 247.996094 685.558594 250.785156 686.339844 253.585938 C 687.121094 256.386719 687.84375 259.207031 688.511719 262.035156 C 689.183594 264.867188 689.796875 267.710938 690.351562 270.566406 C 690.910156 273.421875 691.410156 276.285156 691.855469 279.160156 C 692.296875 282.035156 692.6875 284.917969 693.015625 287.808594 C 693.347656 290.699219 693.621094 293.59375 693.835938 296.492188 C 694.054688 299.394531 694.214844 302.296875 694.316406 305.207031 C 694.417969 308.113281 694.464844 311.019531 694.449219 313.929688 C 694.4375 316.839844 694.371094 319.746094 694.242188 322.652344 C 694.117188 325.558594 693.933594 328.460938 693.691406 331.359375 C 693.449219 334.257812 693.152344 337.152344 692.796875 340.039062 C 692.441406 342.925781 692.03125 345.804688 691.5625 348.675781 C 691.09375 351.546875 690.570312 354.40625 689.988281 357.257812 C 689.40625 360.109375 688.769531 362.945312 688.078125 365.773438 C 687.386719 368.597656 686.636719 371.40625 685.832031 374.203125 C 685.03125 377 684.171875 379.777344 683.257812 382.539062 C 682.347656 385.300781 681.378906 388.046875 680.359375 390.769531 C 679.335938 393.492188 678.261719 396.195312 677.136719 398.878906 C 676.007812 401.558594 674.828125 404.21875 673.597656 406.851562 C 672.367188 409.488281 671.082031 412.097656 669.746094 414.683594 C 668.414062 417.265625 667.027344 419.824219 665.59375 422.355469 C 664.15625 424.882812 662.671875 427.386719 661.136719 429.855469 C 659.605469 432.328125 658.023438 434.769531 656.390625 437.179688 C 654.761719 439.585938 653.085938 441.964844 651.359375 444.308594 C 649.636719 446.648438 647.867188 448.957031 646.054688 451.230469 C 644.238281 453.503906 642.382812 455.742188 640.476562 457.941406 C 638.574219 460.144531 636.628906 462.304688 634.644531 464.429688 C 632.65625 466.554688 630.625 468.636719 628.554688 470.679688 C 626.488281 472.726562 624.378906 474.726562 622.226562 476.6875 C 620.078125 478.648438 617.894531 480.566406 615.667969 482.441406 C 613.445312 484.316406 611.183594 486.148438 608.886719 487.933594 C 606.59375 489.71875 604.261719 491.457031 601.898438 493.152344 L 537.371094 403.074219 C 539.738281 401.382812 542.035156 399.597656 544.257812 397.71875 C 546.484375 395.84375 548.632812 393.886719 550.703125 391.839844 C 552.773438 389.796875 554.761719 387.671875 556.664062 385.472656 C 558.566406 383.269531 560.378906 380.996094 562.105469 378.652344 C 563.828125 376.308594 565.457031 373.902344 566.992188 371.429688 C 568.527344 368.957031 569.960938 366.425781 571.296875 363.839844 C 572.632812 361.253906 573.863281 358.621094 574.992188 355.9375 C 576.121094 353.253906 577.140625 350.53125 578.054688 347.769531 C 578.96875 345.007812 579.769531 342.210938 580.464844 339.386719 C 581.15625 336.558594 581.738281 333.710938 582.207031 330.835938 C 582.671875 327.964844 583.027344 325.078125 583.269531 322.179688 C 583.511719 319.28125 583.636719 316.375 583.648438 313.464844 C 583.660156 310.554688 583.558594 307.648438 583.34375 304.746094 C 583.125 301.84375 582.796875 298.957031 582.351562 296.078125 C 581.90625 293.203125 581.351562 290.351562 580.679688 287.515625 C 580.011719 284.683594 579.230469 281.882812 578.34375 279.113281 C 577.453125 276.34375 576.453125 273.613281 575.347656 270.917969 C 574.246094 268.226562 573.035156 265.582031 571.722656 262.988281 C 570.40625 260.390625 568.996094 257.847656 567.480469 255.363281 C 565.96875 252.878906 564.359375 250.457031 562.652344 248.097656 C 560.949219 245.738281 559.152344 243.449219 557.269531 241.234375 C 555.382812 239.015625 553.414062 236.875 551.363281 234.816406 C 549.308594 232.753906 547.175781 230.773438 544.96875 228.878906 C 542.757812 226.988281 540.476562 225.183594 538.125 223.46875 C 535.777344 221.753906 533.359375 220.132812 530.882812 218.609375 C 528.402344 217.085938 525.867188 215.660156 523.277344 214.335938 C 520.683594 213.011719 518.046875 211.792969 515.359375 210.675781 C 512.671875 209.558594 509.945312 208.550781 507.175781 207.648438 C 504.410156 206.746094 501.613281 205.957031 498.78125 205.273438 C 495.953125 204.59375 493.101562 204.023438 490.226562 203.566406 C 487.355469 203.113281 484.464844 202.769531 481.566406 202.539062 C 478.664062 202.3125 475.757812 202.195312 472.847656 202.195312 Z M 472.847656 91.394531 " fill-opacity="1" fill-rule="nonzero"/><path fill="#5271ff" d="M 601.898438 493.152344 C 598.332031 495.703125 594.695312 498.148438 590.988281 500.488281 C 587.28125 502.824219 583.503906 505.046875 579.664062 507.160156 C 575.824219 509.273438 571.921875 511.269531 567.964844 513.152344 C 564.003906 515.035156 559.992188 516.796875 555.929688 518.441406 C 551.867188 520.082031 547.757812 521.605469 543.601562 523.003906 C 539.449219 524.402344 535.257812 525.679688 531.027344 526.832031 C 526.796875 527.980469 522.539062 529.003906 518.246094 529.902344 C 513.957031 530.800781 509.644531 531.570312 505.308594 532.214844 C 500.972656 532.855469 496.621094 533.367188 492.253906 533.753906 C 487.886719 534.136719 483.511719 534.390625 479.128906 534.515625 C 474.75 534.640625 470.367188 534.632812 465.984375 534.496094 C 461.605469 534.363281 457.230469 534.097656 452.863281 533.699219 C 448.5 533.304688 444.148438 532.78125 439.816406 532.128906 C 435.480469 531.472656 431.167969 530.691406 426.878906 529.785156 C 422.59375 528.875 418.335938 527.839844 414.109375 526.675781 C 409.882812 525.515625 405.691406 524.230469 401.542969 522.816406 C 397.390625 521.40625 393.289062 519.875 389.226562 518.222656 C 385.167969 516.566406 381.160156 514.792969 377.207031 512.902344 C 373.253906 511.011719 369.359375 509.003906 365.523438 506.878906 C 361.6875 504.757812 357.917969 502.523438 354.214844 500.175781 C 350.515625 497.828125 346.882812 495.375 343.328125 492.8125 C 339.769531 490.25 336.292969 487.585938 332.894531 484.816406 C 329.496094 482.046875 326.183594 479.183594 322.953125 476.21875 C 319.726562 473.253906 316.585938 470.195312 313.539062 467.042969 C 310.492188 463.890625 307.542969 460.652344 304.6875 457.328125 C 301.832031 454 299.078125 450.59375 296.425781 447.101562 C 293.773438 443.613281 291.226562 440.046875 288.785156 436.40625 C 286.34375 432.765625 284.011719 429.054688 281.792969 425.277344 C 279.570312 421.496094 277.464844 417.65625 275.472656 413.75 C 273.476562 409.847656 271.601562 405.886719 269.84375 401.871094 C 268.085938 397.855469 266.449219 393.792969 264.933594 389.679688 C 263.417969 385.566406 262.023438 381.410156 260.753906 377.214844 L 366.800781 345.109375 C 367.433594 347.207031 368.132812 349.28125 368.890625 351.339844 C 369.648438 353.394531 370.46875 355.425781 371.347656 357.433594 C 372.226562 359.441406 373.164062 361.421875 374.160156 363.375 C 375.15625 365.328125 376.210938 367.246094 377.320312 369.136719 C 378.429688 371.027344 379.597656 372.882812 380.816406 374.703125 C 382.039062 376.523438 383.3125 378.304688 384.636719 380.050781 C 385.964844 381.796875 387.339844 383.5 388.769531 385.164062 C 390.195312 386.824219 391.671875 388.445312 393.195312 390.019531 C 394.71875 391.597656 396.285156 393.125 397.902344 394.609375 C 399.515625 396.089844 401.171875 397.523438 402.871094 398.90625 C 404.570312 400.292969 406.308594 401.625 408.089844 402.90625 C 409.867188 404.1875 411.679688 405.414062 413.53125 406.585938 C 415.382812 407.761719 417.269531 408.878906 419.1875 409.941406 C 421.101562 411 423.050781 412.003906 425.027344 412.949219 C 427.003906 413.898438 429.007812 414.78125 431.039062 415.609375 C 433.066406 416.4375 435.121094 417.203125 437.195312 417.910156 C 439.269531 418.613281 441.363281 419.257812 443.476562 419.839844 C 445.589844 420.417969 447.71875 420.9375 449.863281 421.390625 C 452.007812 421.847656 454.164062 422.238281 456.332031 422.5625 C 458.5 422.890625 460.671875 423.152344 462.855469 423.351562 C 465.039062 423.546875 467.226562 423.679688 469.417969 423.75 C 471.609375 423.816406 473.796875 423.820312 475.988281 423.757812 C 478.179688 423.695312 480.367188 423.566406 482.550781 423.375 C 484.734375 423.183594 486.910156 422.925781 489.078125 422.605469 C 491.246094 422.285156 493.402344 421.898438 495.546875 421.453125 C 497.691406 421.003906 499.824219 420.488281 501.9375 419.914062 C 504.054688 419.339844 506.148438 418.703125 508.226562 418 C 510.304688 417.300781 512.355469 416.542969 514.390625 415.71875 C 516.421875 414.898438 518.425781 414.015625 520.40625 413.074219 C 522.386719 412.136719 524.335938 411.136719 526.257812 410.082031 C 528.175781 409.023438 530.0625 407.910156 531.917969 406.742188 C 533.773438 405.574219 535.589844 404.351562 537.371094 403.074219 Z M 601.898438 493.152344 " fill-opacity="1" fill-rule="nonzero"/><path fill="#8c52ff" d="M 260.753906 377.214844 C 259.785156 374.023438 258.890625 370.8125 258.070312 367.578125 C 257.25 364.34375 256.5 361.09375 255.824219 357.828125 C 255.152344 354.5625 254.550781 351.28125 254.023438 347.988281 C 253.496094 344.695312 253.042969 341.390625 252.667969 338.074219 C 252.289062 334.761719 251.988281 331.441406 251.757812 328.113281 C 251.53125 324.785156 251.378906 321.453125 251.304688 318.117188 C 251.226562 314.78125 251.222656 311.449219 251.296875 308.113281 C 251.371094 304.777344 251.519531 301.445312 251.742188 298.117188 C 251.96875 294.789062 252.265625 291.46875 252.640625 288.152344 C 253.015625 284.839844 253.464844 281.535156 253.988281 278.242188 C 254.511719 274.945312 255.105469 271.664062 255.777344 268.398438 C 256.449219 265.128906 257.195312 261.878906 258.011719 258.644531 C 258.832031 255.410156 259.722656 252.199219 260.683594 249.003906 C 261.648438 245.8125 262.683594 242.640625 263.789062 239.492188 C 264.894531 236.347656 266.074219 233.226562 267.320312 230.132812 C 268.566406 227.039062 269.882812 223.976562 271.269531 220.941406 C 272.65625 217.90625 274.109375 214.90625 275.628906 211.9375 C 277.152344 208.96875 278.738281 206.035156 280.390625 203.136719 C 282.046875 200.242188 283.765625 197.382812 285.546875 194.5625 C 287.328125 191.746094 289.175781 188.96875 291.082031 186.230469 C 292.992188 183.496094 294.960938 180.804688 296.992188 178.15625 C 299.019531 175.507812 301.109375 172.910156 303.253906 170.355469 C 305.402344 167.804688 307.605469 165.300781 309.867188 162.847656 C 312.125 160.394531 314.441406 157.992188 316.808594 155.644531 C 319.179688 153.296875 321.597656 151 324.070312 148.761719 C 326.542969 146.523438 329.066406 144.339844 331.636719 142.214844 C 334.207031 140.089844 336.824219 138.023438 339.488281 136.015625 C 342.152344 134.007812 344.859375 132.0625 347.613281 130.175781 C 350.363281 128.289062 353.15625 126.46875 355.992188 124.710938 C 358.824219 122.949219 361.699219 121.257812 364.609375 119.628906 C 367.519531 117.996094 370.464844 116.433594 373.445312 114.9375 C 376.425781 113.441406 379.441406 112.015625 382.488281 110.65625 L 427.667969 211.828125 C 426.144531 212.507812 424.636719 213.222656 423.148438 213.96875 C 421.65625 214.71875 420.183594 215.5 418.726562 216.3125 C 417.273438 217.128906 415.835938 217.976562 414.417969 218.855469 C 413.003906 219.734375 411.605469 220.644531 410.230469 221.585938 C 408.855469 222.53125 407.5 223.503906 406.167969 224.507812 C 404.835938 225.511719 403.527344 226.542969 402.242188 227.605469 C 400.957031 228.667969 399.695312 229.761719 398.460938 230.878906 C 397.222656 232 396.011719 233.148438 394.828125 234.320312 C 393.644531 235.496094 392.488281 236.695312 391.359375 237.921875 C 390.226562 239.148438 389.125 240.402344 388.050781 241.679688 C 386.976562 242.953125 385.933594 244.253906 384.917969 245.578125 C 383.90625 246.902344 382.921875 248.246094 381.964844 249.613281 C 381.011719 250.984375 380.089844 252.371094 379.199219 253.78125 C 378.304688 255.191406 377.449219 256.621094 376.621094 258.070312 C 375.792969 259.515625 375 260.984375 374.238281 262.46875 C 373.480469 263.953125 372.75 265.453125 372.058594 266.96875 C 371.367188 268.488281 370.707031 270.019531 370.085938 271.566406 C 369.460938 273.113281 368.871094 274.671875 368.320312 276.246094 C 367.765625 277.820312 367.25 279.40625 366.765625 281 C 366.285156 282.597656 365.839844 284.207031 365.429688 285.824219 C 365.023438 287.4375 364.648438 289.066406 364.3125 290.699219 C 363.976562 292.332031 363.679688 293.972656 363.417969 295.621094 C 363.15625 297.265625 362.929688 298.917969 362.746094 300.578125 C 362.558594 302.234375 362.40625 303.894531 362.296875 305.558594 C 362.183594 307.222656 362.109375 308.886719 362.074219 310.554688 C 362.035156 312.222656 362.039062 313.890625 362.074219 315.558594 C 362.113281 317.226562 362.191406 318.890625 362.304688 320.554688 C 362.417969 322.21875 362.570312 323.878906 362.757812 325.535156 C 362.945312 327.195312 363.171875 328.847656 363.4375 330.492188 C 363.699219 332.140625 364 333.78125 364.335938 335.414062 C 364.675781 337.046875 365.046875 338.671875 365.460938 340.289062 C 365.871094 341.90625 366.316406 343.511719 366.800781 345.109375 Z M 260.753906 377.214844 " fill-opacity="1" fill-rule="nonzero"/><path fill="#ff5757" d="M 382.488281 110.65625 C 396.699219 104.308594 411.417969 99.511719 426.640625 96.265625 C 441.867188 93.019531 457.261719 91.394531 472.828125 91.394531 L 472.835938 202.195312 C 465.054688 202.199219 457.355469 203.007812 449.746094 204.632812 C 442.132812 206.253906 434.773438 208.652344 427.667969 211.828125 Z M 382.488281 110.65625 " fill-opacity="1" fill-rule="nonzero"/><g fill="#000000" fill-opacity="1"><g transform="translate(691.579022, 251.145994)"><g><path d="M 1.015625 -2.609375 L 1.015625 -3.875 L 6.609375 -12.734375 L 8.46875 -12.734375 L 8.46875 -3.984375 L 10.21875 -3.984375 L 10.21875 -2.609375 L 8.46875 -2.609375 L 8.46875 0 L 7.015625 0 L 7.015625 -2.609375 Z M 7.015625 -3.984375 L 7.015625 -10.765625 L 6.90625 -10.765625 L 2.6875 -4.078125 L 2.6875 -3.984375 Z M 7.015625 -3.984375 "/></g></g></g><g fill="#000000" fill-opacity="1"><g transform="translate(702.813082, 251.145994)"><g><path d="M 5.46875 0.171875 C 4.0625 0.171875 2.972656 -0.394531 2.203125 -1.53125 C 1.429688 -2.675781 1.046875 -4.285156 1.046875 -6.359375 C 1.046875 -8.421875 1.429688 -10.023438 2.203125 -11.171875 C 2.984375 -12.328125 4.070312 -12.90625 5.46875 -12.90625 C 6.863281 -12.90625 7.945312 -12.328125 8.71875 -11.171875 C 9.5 -10.023438 9.890625 -8.421875 9.890625 -6.359375 C 9.890625 -4.285156 9.503906 -2.675781 8.734375 -1.53125 C 7.960938 -0.394531 6.875 0.171875 5.46875 0.171875 Z M 5.46875 -1.1875 C 6.394531 -1.1875 7.113281 -1.632812 7.625 -2.53125 C 8.144531 -3.425781 8.40625 -4.703125 8.40625 -6.359375 C 8.40625 -8.015625 8.144531 -9.296875 7.625 -10.203125 C 7.101562 -11.109375 6.382812 -11.5625 5.46875 -11.5625 C 4.550781 -11.5625 3.832031 -11.109375 3.3125 -10.203125 C 2.789062 -9.296875 2.53125 -8.015625 2.53125 -6.359375 C 2.53125 -4.703125 2.785156 -3.425781 3.296875 -2.53125 C 3.816406 -1.632812 4.539062 -1.1875 5.46875 -1.1875 Z M 5.46875 -1.1875 "/></g></g></g><g fill="#000000" fill-opacity="1"><g transform="translate(713.748901, 251.145994)"><g><path d="M 2.40625 0.09375 C 2.101562 0.09375 1.84375 -0.015625 1.625 -0.234375 C 1.40625 -0.453125 1.296875 -0.710938 1.296875 -1.015625 C 1.296875 -1.328125 1.40625 -1.59375 1.625 -1.8125 C 1.84375 -2.03125 2.101562 -2.140625 2.40625 -2.140625 C 2.71875 -2.140625 2.984375 -2.03125 3.203125 -1.8125 C 3.421875 -1.59375 3.53125 -1.328125 3.53125 -1.015625 C 3.53125 -0.710938 3.421875 -0.453125 3.203125 -0.234375 C 2.984375 -0.015625 2.71875 0.09375 2.40625 0.09375 Z M 2.40625 0.09375 "/></g></g></g><g fill="#000000" fill-opacity="1"><g transform="translate(717.178019, 251.145994)"><g><path d="M 5.390625 -12.734375 L 5.390625 0 L 3.859375 0 L 3.859375 -10.484375 L 3.75 -10.484375 C 3.695312 -10.367188 3.550781 -10.238281 3.3125 -10.09375 C 3.070312 -9.945312 2.757812 -9.816406 2.375 -9.703125 C 1.988281 -9.597656 1.550781 -9.546875 1.0625 -9.546875 L 1.0625 -10.84375 C 1.5625 -10.84375 1.988281 -10.929688 2.34375 -11.109375 C 2.707031 -11.285156 3.007812 -11.492188 3.25 -11.734375 C 3.488281 -11.972656 3.671875 -12.1875 3.796875 -12.375 C 3.929688 -12.570312 4.007812 -12.691406 4.03125 -12.734375 Z M 5.390625 -12.734375 "/></g></g></g><g fill="#000000" fill-opacity="1"><g transform="translate(724.907646, 251.145994)"><g><path d="M 7.8125 -2.390625 L 7.8125 -3.0625 C 7.8125 -3.519531 7.90625 -3.941406 8.09375 -4.328125 C 8.289062 -4.722656 8.570312 -5.035156 8.9375 -5.265625 C 9.3125 -5.503906 9.765625 -5.625 10.296875 -5.625 C 10.828125 -5.625 11.273438 -5.503906 11.640625 -5.265625 C 12.003906 -5.035156 12.28125 -4.722656 12.46875 -4.328125 C 12.65625 -3.941406 12.75 -3.519531 12.75 -3.0625 L 12.75 -2.390625 C 12.75 -1.921875 12.65625 -1.492188 12.46875 -1.109375 C 12.28125 -0.722656 12.003906 -0.410156 11.640625 -0.171875 C 11.273438 0.0546875 10.828125 0.171875 10.296875 0.171875 C 9.753906 0.171875 9.296875 0.0546875 8.921875 -0.171875 C 8.554688 -0.410156 8.28125 -0.722656 8.09375 -1.109375 C 7.90625 -1.492188 7.8125 -1.921875 7.8125 -2.390625 Z M 1.46875 -9.671875 L 1.46875 -10.34375 C 1.46875 -10.800781 1.5625 -11.222656 1.75 -11.609375 C 1.945312 -12.003906 2.226562 -12.316406 2.59375 -12.546875 C 2.96875 -12.785156 3.421875 -12.90625 3.953125 -12.90625 C 4.492188 -12.90625 4.945312 -12.785156 5.3125 -12.546875 C 5.675781 -12.316406 5.945312 -12.003906 6.125 -11.609375 C 6.3125 -11.222656 6.40625 -10.800781 6.40625 -10.34375 L 6.40625 -9.671875 C 6.40625 -9.203125 6.3125 -8.773438 6.125 -8.390625 C 5.9375 -8.003906 5.660156 -7.691406 5.296875 -7.453125 C 4.929688 -7.222656 4.484375 -7.109375 3.953125 -7.109375 C 3.410156 -7.109375 2.953125 -7.222656 2.578125 -7.453125 C 2.210938 -7.691406 1.9375 -8.003906 1.75 -8.390625 C 1.5625 -8.773438 1.46875 -9.203125 1.46875 -9.671875 Z M 1.9375 0 L 10.6875 -12.734375 L 12.109375 -12.734375 L 3.359375 0 Z M 9.078125 -3.0625 L 9.078125 -2.390625 C 9.078125 -2.003906 9.164062 -1.65625 9.34375 -1.34375 C 9.53125 -1.039062 9.847656 -0.890625 10.296875 -0.890625 C 10.722656 -0.890625 11.023438 -1.039062 11.203125 -1.34375 C 11.390625 -1.65625 11.484375 -2.003906 11.484375 -2.390625 L 11.484375 -3.0625 C 11.484375 -3.445312 11.394531 -3.789062 11.21875 -4.09375 C 11.050781 -4.394531 10.742188 -4.546875 10.296875 -4.546875 C 9.859375 -4.546875 9.546875 -4.394531 9.359375 -4.09375 C 9.171875 -3.789062 9.078125 -3.445312 9.078125 -3.0625 Z M 2.734375 -10.34375 L 2.734375 -9.671875 C 2.734375 -9.285156 2.820312 -8.9375 3 -8.625 C 3.1875 -8.320312 3.503906 -8.171875 3.953125 -8.171875 C 4.390625 -8.171875 4.695312 -8.320312 4.875 -8.625 C 5.050781 -8.9375 5.140625 -9.285156 5.140625 -9.671875 L 5.140625 -10.34375 C 5.140625 -10.726562 5.050781 -11.070312 4.875 -11.375 C 4.707031 -11.675781 4.398438 -11.828125 3.953125 -11.828125 C 3.515625 -11.828125 3.203125 -11.675781 3.015625 -11.375 C 2.828125 -11.070312 2.734375 -10.726562 2.734375 -10.34375 Z M 2.734375 -10.34375 "/></g></g></g><g fill="#000000" fill-opacity="1"><g transform="translate(367.436176, 563.158295)"><g><path d="M 5.625 0.171875 C 4.800781 0.171875 4.066406 0.03125 3.421875 -0.25 C 2.785156 -0.53125 2.28125 -0.921875 1.90625 -1.421875 C 1.53125 -1.929688 1.328125 -2.519531 1.296875 -3.1875 L 2.859375 -3.1875 C 2.898438 -2.570312 3.179688 -2.082031 3.703125 -1.71875 C 4.222656 -1.363281 4.851562 -1.1875 5.59375 -1.1875 C 6.40625 -1.1875 7.078125 -1.394531 7.609375 -1.8125 C 8.140625 -2.226562 8.40625 -2.773438 8.40625 -3.453125 C 8.40625 -4.160156 8.144531 -4.734375 7.625 -5.171875 C 7.101562 -5.617188 6.359375 -5.84375 5.390625 -5.84375 L 4.375 -5.84375 L 4.375 -7.203125 L 5.390625 -7.203125 C 6.148438 -7.203125 6.765625 -7.40625 7.234375 -7.8125 C 7.710938 -8.21875 7.953125 -8.753906 7.953125 -9.421875 C 7.953125 -10.066406 7.742188 -10.582031 7.328125 -10.96875 C 6.910156 -11.363281 6.347656 -11.5625 5.640625 -11.5625 C 5.203125 -11.5625 4.789062 -11.476562 4.40625 -11.3125 C 4.019531 -11.15625 3.703125 -10.925781 3.453125 -10.625 C 3.210938 -10.320312 3.082031 -9.960938 3.0625 -9.546875 L 1.5625 -9.546875 C 1.59375 -10.210938 1.796875 -10.796875 2.171875 -11.296875 C 2.546875 -11.804688 3.035156 -12.203125 3.640625 -12.484375 C 4.253906 -12.765625 4.929688 -12.90625 5.671875 -12.90625 C 6.453125 -12.90625 7.125 -12.742188 7.6875 -12.421875 C 8.25 -12.109375 8.679688 -11.691406 8.984375 -11.171875 C 9.296875 -10.648438 9.453125 -10.09375 9.453125 -9.5 C 9.453125 -8.78125 9.265625 -8.164062 8.890625 -7.65625 C 8.515625 -7.15625 8.003906 -6.804688 7.359375 -6.609375 L 7.359375 -6.515625 C 8.160156 -6.378906 8.785156 -6.035156 9.234375 -5.484375 C 9.691406 -4.941406 9.921875 -4.265625 9.921875 -3.453125 C 9.921875 -2.765625 9.734375 -2.144531 9.359375 -1.59375 C 8.984375 -1.039062 8.472656 -0.609375 7.828125 -0.296875 C 7.179688 0.015625 6.445312 0.171875 5.625 0.171875 Z M 5.625 0.171875 "/></g></g></g><g fill="#000000" fill-opacity="1"><g transform="translate(378.570822, 563.158295)"><g><path d="M 5.46875 0.171875 C 4.0625 0.171875 2.972656 -0.394531 2.203125 -1.53125 C 1.429688 -2.675781 1.046875 -4.285156 1.046875 -6.359375 C 1.046875 -8.421875 1.429688 -10.023438 2.203125 -11.171875 C 2.984375 -12.328125 4.070312 -12.90625 5.46875 -12.90625 C 6.863281 -12.90625 7.945312 -12.328125 8.71875 -11.171875 C 9.5 -10.023438 9.890625 -8.421875 9.890625 -6.359375 C 9.890625 -4.285156 9.503906 -2.675781 8.734375 -1.53125 C 7.960938 -0.394531 6.875 0.171875 5.46875 0.171875 Z M 5.46875 -1.1875 C 6.394531 -1.1875 7.113281 -1.632812 7.625 -2.53125 C 8.144531 -3.425781 8.40625 -4.703125 8.40625 -6.359375 C 8.40625 -8.015625 8.144531 -9.296875 7.625 -10.203125 C 7.101562 -11.109375 6.382812 -11.5625 5.46875 -11.5625 C 4.550781 -11.5625 3.832031 -11.109375 3.3125 -10.203125 C 2.789062 -9.296875 2.53125 -8.015625 2.53125 -6.359375 C 2.53125 -4.703125 2.785156 -3.425781 3.296875 -2.53125 C 3.816406 -1.632812 4.539062 -1.1875 5.46875 -1.1875 Z M 5.46875 -1.1875 "/></g></g></g><g fill="#000000" fill-opacity="1"><g transform="translate(389.506641, 563.158295)"><g><path d="M 2.40625 0.09375 C 2.101562 0.09375 1.84375 -0.015625 1.625 -0.234375 C 1.40625 -0.453125 1.296875 -0.710938 1.296875 -1.015625 C 1.296875 -1.328125 1.40625 -1.59375 1.625 -1.8125 C 1.84375 -2.03125 2.101562 -2.140625 2.40625 -2.140625 C 2.71875 -2.140625 2.984375 -2.03125 3.203125 -1.8125 C 3.421875 -1.59375 3.53125 -1.328125 3.53125 -1.015625 C 3.53125 -0.710938 3.421875 -0.453125 3.203125 -0.234375 C 2.984375 -0.015625 2.71875 0.09375 2.40625 0.09375 Z M 2.40625 0.09375 "/></g></g></g><g fill="#000000" fill-opacity="1"><g transform="translate(394.328339, 563.158295)"><g><path d="M 1.3125 0 L 1.3125 -1.125 L 5.515625 -5.71875 C 6.015625 -6.257812 6.421875 -6.726562 6.734375 -7.125 C 7.054688 -7.519531 7.296875 -7.894531 7.453125 -8.25 C 7.609375 -8.601562 7.6875 -8.976562 7.6875 -9.375 C 7.6875 -10.039062 7.453125 -10.570312 6.984375 -10.96875 C 6.515625 -11.363281 5.9375 -11.5625 5.25 -11.5625 C 4.507812 -11.5625 3.921875 -11.335938 3.484375 -10.890625 C 3.046875 -10.453125 2.828125 -9.867188 2.828125 -9.140625 L 1.359375 -9.140625 C 1.359375 -9.890625 1.53125 -10.546875 1.875 -11.109375 C 2.226562 -11.671875 2.703125 -12.109375 3.296875 -12.421875 C 3.890625 -12.742188 4.554688 -12.90625 5.296875 -12.90625 C 6.035156 -12.90625 6.691406 -12.742188 7.265625 -12.421875 C 7.847656 -12.109375 8.300781 -11.6875 8.625 -11.15625 C 8.957031 -10.625 9.125 -10.03125 9.125 -9.375 C 9.125 -8.90625 9.039062 -8.445312 8.875 -8 C 8.707031 -7.550781 8.414062 -7.054688 8 -6.515625 C 7.582031 -5.972656 7.007812 -5.3125 6.28125 -4.53125 L 3.4375 -1.46875 L 3.4375 -1.359375 L 9.34375 -1.359375 L 9.34375 0 Z M 1.3125 0 "/></g></g></g><g fill="#000000" fill-opacity="1"><g transform="translate(404.916199, 563.158295)"><g><path d="M 7.8125 -2.390625 L 7.8125 -3.0625 C 7.8125 -3.519531 7.90625 -3.941406 8.09375 -4.328125 C 8.289062 -4.722656 8.570312 -5.035156 8.9375 -5.265625 C 9.3125 -5.503906 9.765625 -5.625 10.296875 -5.625 C 10.828125 -5.625 11.273438 -5.503906 11.640625 -5.265625 C 12.003906 -5.035156 12.28125 -4.722656 12.46875 -4.328125 C 12.65625 -3.941406 12.75 -3.519531 12.75 -3.0625 L 12.75 -2.390625 C 12.75 -1.921875 12.65625 -1.492188 12.46875 -1.109375 C 12.28125 -0.722656 12.003906 -0.410156 11.640625 -0.171875 C 11.273438 0.0546875 10.828125 0.171875 10.296875 0.171875 C 9.753906 0.171875 9.296875 0.0546875 8.921875 -0.171875 C 8.554688 -0.410156 8.28125 -0.722656 8.09375 -1.109375 C 7.90625 -1.492188 7.8125 -1.921875 7.8125 -2.390625 Z M 1.46875 -9.671875 L 1.46875 -10.34375 C 1.46875 -10.800781 1.5625 -11.222656 1.75 -11.609375 C 1.945312 -12.003906 2.226562 -12.316406 2.59375 -12.546875 C 2.96875 -12.785156 3.421875 -12.90625 3.953125 -12.90625 C 4.492188 -12.90625 4.945312 -12.785156 5.3125 -12.546875 C 5.675781 -12.316406 5.945312 -12.003906 6.125 -11.609375 C 6.3125 -11.222656 6.40625 -10.800781 6.40625 -10.34375 L 6.40625 -9.671875 C 6.40625 -9.203125 6.3125 -8.773438 6.125 -8.390625 C 5.9375 -8.003906 5.660156 -7.691406 5.296875 -7.453125 C 4.929688 -7.222656 4.484375 -7.109375 3.953125 -7.109375 C 3.410156 -7.109375 2.953125 -7.222656 2.578125 -7.453125 C 2.210938 -7.691406 1.9375 -8.003906 1.75 -8.390625 C 1.5625 -8.773438 1.46875 -9.203125 1.46875 -9.671875 Z M 1.9375 0 L 10.6875 -12.734375 L 12.109375 -12.734375 L 3.359375 0 Z M 9.078125 -3.0625 L 9.078125 -2.390625 C 9.078125 -2.003906 9.164062 -1.65625 9.34375 -1.34375 C 9.53125 -1.039062 9.847656 -0.890625 10.296875 -0.890625 C 10.722656 -0.890625 11.023438 -1.039062 11.203125 -1.34375 C 11.390625 -1.65625 11.484375 -2.003906 11.484375 -2.390625 L 11.484375 -3.0625 C 11.484375 -3.445312 11.394531 -3.789062 11.21875 -4.09375 C 11.050781 -4.394531 10.742188 -4.546875 10.296875 -4.546875 C 9.859375 -4.546875 9.546875 -4.394531 9.359375 -4.09375 C 9.171875 -3.789062 9.078125 -3.445312 9.078125 -3.0625 Z M 2.734375 -10.34375 L 2.734375 -9.671875 C 2.734375 -9.285156 2.820312 -8.9375 3 -8.625 C 3.1875 -8.320312 3.503906 -8.171875 3.953125 -8.171875 C 4.390625 -8.171875 4.695312 -8.320312 4.875 -8.625 C 5.050781 -8.9375 5.140625 -9.285156 5.140625 -9.671875 L 5.140625 -10.34375 C 5.140625 -10.726562 5.050781 -11.070312 4.875 -11.375 C 4.707031 -11.675781 4.398438 -11.828125 3.953125 -11.828125 C 3.515625 -11.828125 3.203125 -11.675781 3.015625 -11.375 C 2.828125 -11.070312 2.734375 -10.726562 2.734375 -10.34375 Z M 2.734375 -10.34375 "/></g></g></g><g fill="#000000" fill-opacity="1"><g transform="translate(227.375166, 225.142083)"><g><path d="M 1.3125 0 L 1.3125 -1.125 L 5.515625 -5.71875 C 6.015625 -6.257812 6.421875 -6.726562 6.734375 -7.125 C 7.054688 -7.519531 7.296875 -7.894531 7.453125 -8.25 C 7.609375 -8.601562 7.6875 -8.976562 7.6875 -9.375 C 7.6875 -10.039062 7.453125 -10.570312 6.984375 -10.96875 C 6.515625 -11.363281 5.9375 -11.5625 5.25 -11.5625 C 4.507812 -11.5625 3.921875 -11.335938 3.484375 -10.890625 C 3.046875 -10.453125 2.828125 -9.867188 2.828125 -9.140625 L 1.359375 -9.140625 C 1.359375 -9.890625 1.53125 -10.546875 1.875 -11.109375 C 2.226562 -11.671875 2.703125 -12.109375 3.296875 -12.421875 C 3.890625 -12.742188 4.554688 -12.90625 5.296875 -12.90625 C 6.035156 -12.90625 6.691406 -12.742188 7.265625 -12.421875 C 7.847656 -12.109375 8.300781 -11.6875 8.625 -11.15625 C 8.957031 -10.625 9.125 -10.03125 9.125 -9.375 C 9.125 -8.90625 9.039062 -8.445312 8.875 -8 C 8.707031 -7.550781 8.414062 -7.054688 8 -6.515625 C 7.582031 -5.972656 7.007812 -5.3125 6.28125 -4.53125 L 3.4375 -1.46875 L 3.4375 -1.359375 L 9.34375 -1.359375 L 9.34375 0 Z M 1.3125 0 "/></g></g></g><g fill="#000000" fill-opacity="1"><g transform="translate(237.963026, 225.142083)"><g><path d="M 5.625 0.171875 C 4.800781 0.171875 4.066406 0.03125 3.421875 -0.25 C 2.785156 -0.53125 2.28125 -0.921875 1.90625 -1.421875 C 1.53125 -1.929688 1.328125 -2.519531 1.296875 -3.1875 L 2.859375 -3.1875 C 2.898438 -2.570312 3.179688 -2.082031 3.703125 -1.71875 C 4.222656 -1.363281 4.851562 -1.1875 5.59375 -1.1875 C 6.40625 -1.1875 7.078125 -1.394531 7.609375 -1.8125 C 8.140625 -2.226562 8.40625 -2.773438 8.40625 -3.453125 C 8.40625 -4.160156 8.144531 -4.734375 7.625 -5.171875 C 7.101562 -5.617188 6.359375 -5.84375 5.390625 -5.84375 L 4.375 -5.84375 L 4.375 -7.203125 L 5.390625 -7.203125 C 6.148438 -7.203125 6.765625 -7.40625 7.234375 -7.8125 C 7.710938 -8.21875 7.953125 -8.753906 7.953125 -9.421875 C 7.953125 -10.066406 7.742188 -10.582031 7.328125 -10.96875 C 6.910156 -11.363281 6.347656 -11.5625 5.640625 -11.5625 C 5.203125 -11.5625 4.789062 -11.476562 4.40625 -11.3125 C 4.019531 -11.15625 3.703125 -10.925781 3.453125 -10.625 C 3.210938 -10.320312 3.082031 -9.960938 3.0625 -9.546875 L 1.5625 -9.546875 C 1.59375 -10.210938 1.796875 -10.796875 2.171875 -11.296875 C 2.546875 -11.804688 3.035156 -12.203125 3.640625 -12.484375 C 4.253906 -12.765625 4.929688 -12.90625 5.671875 -12.90625 C 6.453125 -12.90625 7.125 -12.742188 7.6875 -12.421875 C 8.25 -12.109375 8.679688 -11.691406 8.984375 -11.171875 C 9.296875 -10.648438 9.453125 -10.09375 9.453125 -9.5 C 9.453125 -8.78125 9.265625 -8.164062 8.890625 -7.65625 C 8.515625 -7.15625 8.003906 -6.804688 7.359375 -6.609375 L 7.359375 -6.515625 C 8.160156 -6.378906 8.785156 -6.035156 9.234375 -5.484375 C 9.691406 -4.941406 9.921875 -4.265625 9.921875 -3.453125 C 9.921875 -2.765625 9.734375 -2.144531 9.359375 -1.59375 C 8.984375 -1.039062 8.472656 -0.609375 7.828125 -0.296875 C 7.179688 0.015625 6.445312 0.171875 5.625 0.171875 Z M 5.625 0.171875 "/></g></g></g><g fill="#000000" fill-opacity="1"><g transform="translate(249.097672, 225.142083)"><g><path d="M 7.8125 -2.390625 L 7.8125 -3.0625 C 7.8125 -3.519531 7.90625 -3.941406 8.09375 -4.328125 C 8.289062 -4.722656 8.570312 -5.035156 8.9375 -5.265625 C 9.3125 -5.503906 9.765625 -5.625 10.296875 -5.625 C 10.828125 -5.625 11.273438 -5.503906 11.640625 -5.265625 C 12.003906 -5.035156 12.28125 -4.722656 12.46875 -4.328125 C 12.65625 -3.941406 12.75 -3.519531 12.75 -3.0625 L 12.75 -2.390625 C 12.75 -1.921875 12.65625 -1.492188 12.46875 -1.109375 C 12.28125 -0.722656 12.003906 -0.410156 11.640625 -0.171875 C 11.273438 0.0546875 10.828125 0.171875 10.296875 0.171875 C 9.753906 0.171875 9.296875 0.0546875 8.921875 -0.171875 C 8.554688 -0.410156 8.28125 -0.722656 8.09375 -1.109375 C 7.90625 -1.492188 7.8125 -1.921875 7.8125 -2.390625 Z M 1.46875 -9.671875 L 1.46875 -10.34375 C 1.46875 -10.800781 1.5625 -11.222656 1.75 -11.609375 C 1.945312 -12.003906 2.226562 -12.316406 2.59375 -12.546875 C 2.96875 -12.785156 3.421875 -12.90625 3.953125 -12.90625 C 4.492188 -12.90625 4.945312 -12.785156 5.3125 -12.546875 C 5.675781 -12.316406 5.945312 -12.003906 6.125 -11.609375 C 6.3125 -11.222656 6.40625 -10.800781 6.40625 -10.34375 L 6.40625 -9.671875 C 6.40625 -9.203125 6.3125 -8.773438 6.125 -8.390625 C 5.9375 -8.003906 5.660156 -7.691406 5.296875 -7.453125 C 4.929688 -7.222656 4.484375 -7.109375 3.953125 -7.109375 C 3.410156 -7.109375 2.953125 -7.222656 2.578125 -7.453125 C 2.210938 -7.691406 1.9375 -8.003906 1.75 -8.390625 C 1.5625 -8.773438 1.46875 -9.203125 1.46875 -9.671875 Z M 1.9375 0 L 10.6875 -12.734375 L 12.109375 -12.734375 L 3.359375 0 Z M 9.078125 -3.0625 L 9.078125 -2.390625 C 9.078125 -2.003906 9.164062 -1.65625 9.34375 -1.34375 C 9.53125 -1.039062 9.847656 -0.890625 10.296875 -0.890625 C 10.722656 -0.890625 11.023438 -1.039062 11.203125 -1.34375 C 11.390625 -1.65625 11.484375 -2.003906 11.484375 -2.390625 L 11.484375 -3.0625 C 11.484375 -3.445312 11.394531 -3.789062 11.21875 -4.09375 C 11.050781 -4.394531 10.742188 -4.546875 10.296875 -4.546875 C 9.859375 -4.546875 9.546875 -4.394531 9.359375 -4.09375 C 9.171875 -3.789062 9.078125 -3.445312 9.078125 -3.0625 Z M 2.734375 -10.34375 L 2.734375 -9.671875 C 2.734375 -9.285156 2.820312 -8.9375 3 -8.625 C 3.1875 -8.320312 3.503906 -8.171875 3.953125 -8.171875 C 4.390625 -8.171875 4.695312 -8.320312 4.875 -8.625 C 5.050781 -8.9375 5.140625 -9.285156 5.140625 -9.671875 L 5.140625 -10.34375 C 5.140625 -10.726562 5.050781 -11.070312 4.875 -11.375 C 4.707031 -11.675781 4.398438 -11.828125 3.953125 -11.828125 C 3.515625 -11.828125 3.203125 -11.675781 3.015625 -11.375 C 2.828125 -11.070312 2.734375 -10.726562 2.734375 -10.34375 Z M 2.734375 -10.34375 "/></g></g></g><g fill="#000000" fill-opacity="1"><g transform="translate(402.442772, 91.013609)"><g><path d="M 5.546875 0.171875 C 5.023438 0.160156 4.5 0.0625 3.96875 -0.125 C 3.445312 -0.3125 2.972656 -0.628906 2.546875 -1.078125 C 2.117188 -1.535156 1.773438 -2.148438 1.515625 -2.921875 C 1.253906 -3.703125 1.125 -4.679688 1.125 -5.859375 C 1.125 -8.128906 1.535156 -9.875 2.359375 -11.09375 C 3.179688 -12.3125 4.304688 -12.921875 5.734375 -12.921875 C 6.804688 -12.921875 7.695312 -12.609375 8.40625 -11.984375 C 9.113281 -11.359375 9.539062 -10.546875 9.6875 -9.546875 L 8.171875 -9.546875 C 8.035156 -10.128906 7.765625 -10.609375 7.359375 -10.984375 C 6.953125 -11.367188 6.410156 -11.5625 5.734375 -11.5625 C 4.753906 -11.5625 3.976562 -11.128906 3.40625 -10.265625 C 2.84375 -9.410156 2.5625 -8.203125 2.5625 -6.640625 L 2.65625 -6.640625 C 3.007812 -7.160156 3.457031 -7.570312 4 -7.875 C 4.539062 -8.175781 5.140625 -8.328125 5.796875 -8.328125 C 6.523438 -8.328125 7.191406 -8.144531 7.796875 -7.78125 C 8.398438 -7.414062 8.882812 -6.914062 9.25 -6.28125 C 9.613281 -5.644531 9.796875 -4.914062 9.796875 -4.09375 C 9.796875 -3.3125 9.617188 -2.59375 9.265625 -1.9375 C 8.910156 -1.289062 8.414062 -0.773438 7.78125 -0.390625 C 7.144531 -0.00390625 6.398438 0.179688 5.546875 0.171875 Z M 5.546875 -1.1875 C 6.066406 -1.1875 6.535156 -1.316406 6.953125 -1.578125 C 7.367188 -1.835938 7.695312 -2.1875 7.9375 -2.625 C 8.175781 -3.070312 8.296875 -3.5625 8.296875 -4.09375 C 8.296875 -4.625 8.175781 -5.101562 7.9375 -5.53125 C 7.707031 -5.96875 7.390625 -6.3125 6.984375 -6.5625 C 6.578125 -6.820312 6.113281 -6.953125 5.59375 -6.953125 C 5.0625 -6.953125 4.582031 -6.816406 4.15625 -6.546875 C 3.738281 -6.285156 3.40625 -5.9375 3.15625 -5.5 C 2.914062 -5.0625 2.789062 -4.585938 2.78125 -4.078125 C 2.78125 -3.566406 2.898438 -3.09375 3.140625 -2.65625 C 3.378906 -2.21875 3.707031 -1.863281 4.125 -1.59375 C 4.539062 -1.320312 5.015625 -1.1875 5.546875 -1.1875 Z M 5.546875 -1.1875 "/></g></g></g><g fill="#000000" fill-opacity="1"><g transform="translate(412.756906, 91.013609)"><g><path d="M 2.40625 0.09375 C 2.101562 0.09375 1.84375 -0.015625 1.625 -0.234375 C 1.40625 -0.453125 1.296875 -0.710938 1.296875 -1.015625 C 1.296875 -1.328125 1.40625 -1.59375 1.625 -1.8125 C 1.84375 -2.03125 2.101562 -2.140625 2.40625 -2.140625 C 2.71875 -2.140625 2.984375 -2.03125 3.203125 -1.8125 C 3.421875 -1.59375 3.53125 -1.328125 3.53125 -1.015625 C 3.53125 -0.710938 3.421875 -0.453125 3.203125 -0.234375 C 2.984375 -0.015625 2.71875 0.09375 2.40625 0.09375 Z M 2.40625 0.09375 "/></g></g></g><g fill="#000000" fill-opacity="1"><g transform="translate(417.578604, 91.013609)"><g><path d="M 1.71875 0 L 7.40625 -11.265625 L 7.40625 -11.359375 L 0.84375 -11.359375 L 0.84375 -12.734375 L 9 -12.734375 L 9 -11.28125 L 3.328125 0 Z M 1.71875 0 "/></g></g></g><g fill="#000000" fill-opacity="1"><g transform="translate(427.56996, 91.013609)"><g><path d="M 7.8125 -2.390625 L 7.8125 -3.0625 C 7.8125 -3.519531 7.90625 -3.941406 8.09375 -4.328125 C 8.289062 -4.722656 8.570312 -5.035156 8.9375 -5.265625 C 9.3125 -5.503906 9.765625 -5.625 10.296875 -5.625 C 10.828125 -5.625 11.273438 -5.503906 11.640625 -5.265625 C 12.003906 -5.035156 12.28125 -4.722656 12.46875 -4.328125 C 12.65625 -3.941406 12.75 -3.519531 12.75 -3.0625 L 12.75 -2.390625 C 12.75 -1.921875 12.65625 -1.492188 12.46875 -1.109375 C 12.28125 -0.722656 12.003906 -0.410156 11.640625 -0.171875 C 11.273438 0.0546875 10.828125 0.171875 10.296875 0.171875 C 9.753906 0.171875 9.296875 0.0546875 8.921875 -0.171875 C 8.554688 -0.410156 8.28125 -0.722656 8.09375 -1.109375 C 7.90625 -1.492188 7.8125 -1.921875 7.8125 -2.390625 Z M 1.46875 -9.671875 L 1.46875 -10.34375 C 1.46875 -10.800781 1.5625 -11.222656 1.75 -11.609375 C 1.945312 -12.003906 2.226562 -12.316406 2.59375 -12.546875 C 2.96875 -12.785156 3.421875 -12.90625 3.953125 -12.90625 C 4.492188 -12.90625 4.945312 -12.785156 5.3125 -12.546875 C 5.675781 -12.316406 5.945312 -12.003906 6.125 -11.609375 C 6.3125 -11.222656 6.40625 -10.800781 6.40625 -10.34375 L 6.40625 -9.671875 C 6.40625 -9.203125 6.3125 -8.773438 6.125 -8.390625 C 5.9375 -8.003906 5.660156 -7.691406 5.296875 -7.453125 C 4.929688 -7.222656 4.484375 -7.109375 3.953125 -7.109375 C 3.410156 -7.109375 2.953125 -7.222656 2.578125 -7.453125 C 2.210938 -7.691406 1.9375 -8.003906 1.75 -8.390625 C 1.5625 -8.773438 1.46875 -9.203125 1.46875 -9.671875 Z M 1.9375 0 L 10.6875 -12.734375 L 12.109375 -12.734375 L 3.359375 0 Z M 9.078125 -3.0625 L 9.078125 -2.390625 C 9.078125 -2.003906 9.164062 -1.65625 9.34375 -1.34375 C 9.53125 -1.039062 9.847656 -0.890625 10.296875 -0.890625 C 10.722656 -0.890625 11.023438 -1.039062 11.203125 -1.34375 C 11.390625 -1.65625 11.484375 -2.003906 11.484375 -2.390625 L 11.484375 -3.0625 C 11.484375 -3.445312 11.394531 -3.789062 11.21875 -4.09375 C 11.050781 -4.394531 10.742188 -4.546875 10.296875 -4.546875 C 9.859375 -4.546875 9.546875 -4.394531 9.359375 -4.09375 C 9.171875 -3.789062 9.078125 -3.445312 9.078125 -3.0625 Z M 2.734375 -10.34375 L 2.734375 -9.671875 C 2.734375 -9.285156 2.820312 -8.9375 3 -8.625 C 3.1875 -8.320312 3.503906 -8.171875 3.953125 -8.171875 C 4.390625 -8.171875 4.695312 -8.320312 4.875 -8.625 C 5.050781 -8.9375 5.140625 -9.285156 5.140625 -9.671875 L 5.140625 -10.34375 C 5.140625 -10.726562 5.050781 -11.070312 4.875 -11.375 C 4.707031 -11.675781 4.398438 -11.828125 3.953125 -11.828125 C 3.515625 -11.828125 3.203125 -11.675781 3.015625 -11.375 C 2.828125 -11.070312 2.734375 -10.726562 2.734375 -10.34375 Z M 2.734375 -10.34375 "/></g></g></g></svg>