<svg xmlns="http://www.w3.org/2000/svg" xmlns:xlink="http://www.w3.org/1999/xlink" width="1280" zoomAndPan="magnify" viewBox="0 0 960 599.999999" height="800" preserveAspectRatio="xMidYMid meet" version="1.0"><defs><g/><clipPath id="1e86ab2e6b"><path d="M 91.261719 224.796875 L 135.253906 224.796875 L 135.253906 268.792969 L 91.261719 268.792969 Z M 91.261719 224.796875 " clip-rule="nonzero"/></clipPath><clipPath id="948bfaf261"><path d="M 113.257812 224.796875 C 125.40625 224.796875 135.253906 234.644531 135.253906 246.792969 C 135.253906 258.941406 125.40625 268.792969 113.257812 268.792969 C 101.109375 268.792969 91.261719 258.941406 91.261719 246.792969 C 91.261719 234.644531 101.109375 224.796875 113.257812 224.796875 Z M 113.257812 224.796875 " clip-rule="nonzero"/></clipPath><clipPath id="08b09e6165"><path d="M 91.261719 364.332031 L 134.203125 364.332031 L 134.203125 407.273438 L 91.261719 407.273438 Z M 91.261719 364.332031 " clip-rule="nonzero"/></clipPath><clipPath id="d073e5a7ed"><path d="M 112.730469 364.332031 C 124.589844 364.332031 134.203125 373.945312 134.203125 385.800781 C 134.203125 397.660156 124.589844 407.273438 112.730469 407.273438 C 100.875 407.273438 91.261719 397.660156 91.261719 385.800781 C 91.261719 373.945312 100.875 364.332031 112.730469 364.332031 Z M 112.730469 364.332031 " clip-rule="nonzero"/></clipPath><clipPath id="079e3d9c66"><path d="M 91.261719 295.042969 L 134.203125 295.042969 L 134.203125 337.984375 L 91.261719 337.984375 Z M 91.261719 295.042969 " clip-rule="nonzero"/></clipPath><clipPath id="c87d6b6bc1"><path d="M 112.730469 295.042969 C 124.589844 295.042969 134.203125 304.65625 134.203125 316.511719 C 134.203125 328.371094 124.589844 337.984375 112.730469 337.984375 C 100.875 337.984375 91.261719 328.371094 91.261719 316.511719 C 91.261719 304.65625 100.875 295.042969 112.730469 295.042969 Z M 112.730469 295.042969 " clip-rule="nonzero"/></clipPath><clipPath id="05b3663dc7"><path d="M 92.050781 434.671875 L 134.992188 434.671875 L 134.992188 477.613281 L 92.050781 477.613281 Z M 92.050781 434.671875 " clip-rule="nonzero"/></clipPath><clipPath id="0ce684c3a1"><path d="M 113.519531 434.671875 C 125.378906 434.671875 134.992188 444.285156 134.992188 456.144531 C 134.992188 468 125.378906 477.613281 113.519531 477.613281 C 101.664062 477.613281 92.050781 468 92.050781 456.144531 C 92.050781 444.285156 101.664062 434.671875 113.519531 434.671875 Z M 113.519531 434.671875 " clip-rule="nonzero"/></clipPath></defs><g clip-path="url(#1e86ab2e6b)"><g clip-path="url(#948bfaf261)"><path fill="#ff5757" d="M 91.261719 224.796875 L 135.253906 224.796875 L 135.253906 268.792969 L 91.261719 268.792969 Z M 91.261719 224.796875 " fill-opacity="1" fill-rule="nonzero"/></g></g><g fill="#000000" fill-opacity="1"><g transform="translate(157.192626, 258.271147)"><g><path d="M 12.21875 -20.859375 L 12.21875 -18.140625 L 7.546875 -18.140625 L 7.546875 0 L 4.34375 0 L 4.34375 -18.140625 L 0.984375 -18.140625 L 0.984375 -20.859375 L 4.34375 -20.859375 L 4.34375 -23.75 C 4.34375 -24.9375 4.625 -25.925781 5.1875 -26.71875 C 5.75 -27.519531 6.476562 -28.117188 7.375 -28.515625 C 8.269531 -28.921875 9.21875 -29.125 10.21875 -29.125 C 11 -29.125 11.640625 -29.054688 12.140625 -28.921875 C 12.640625 -28.796875 13.007812 -28.679688 13.25 -28.578125 L 12.328125 -25.8125 C 12.171875 -25.863281 11.945312 -25.929688 11.65625 -26.015625 C 11.375 -26.097656 11.003906 -26.140625 10.546875 -26.140625 C 9.484375 -26.140625 8.71875 -25.867188 8.25 -25.328125 C 7.78125 -24.796875 7.546875 -24.015625 7.546875 -22.984375 L 7.546875 -20.859375 Z M 12.21875 -20.859375 "/></g></g></g><g fill="#000000" fill-opacity="1"><g transform="translate(170.98983, 258.271147)"><g><path d="M 6.140625 -27.8125 L 6.140625 0 L 2.9375 0 L 2.9375 -27.8125 Z M 6.140625 -27.8125 "/></g></g></g><g fill="#000000" fill-opacity="1"><g transform="translate(180.061195, 258.271147)"><g><path d="M 11.40625 0.4375 C 9.519531 0.4375 7.867188 -0.0078125 6.453125 -0.90625 C 5.035156 -1.800781 3.929688 -3.054688 3.140625 -4.671875 C 2.347656 -6.285156 1.953125 -8.171875 1.953125 -10.328125 C 1.953125 -12.492188 2.347656 -14.390625 3.140625 -16.015625 C 3.929688 -17.640625 5.035156 -18.898438 6.453125 -19.796875 C 7.867188 -20.691406 9.519531 -21.140625 11.40625 -21.140625 C 13.289062 -21.140625 14.941406 -20.691406 16.359375 -19.796875 C 17.773438 -18.898438 18.878906 -17.640625 19.671875 -16.015625 C 20.460938 -14.390625 20.859375 -12.492188 20.859375 -10.328125 C 20.859375 -8.171875 20.460938 -6.285156 19.671875 -4.671875 C 18.878906 -3.054688 17.773438 -1.800781 16.359375 -0.90625 C 14.941406 -0.0078125 13.289062 0.4375 11.40625 0.4375 Z M 11.40625 -2.4375 C 12.84375 -2.4375 14.019531 -2.800781 14.9375 -3.53125 C 15.863281 -4.269531 16.546875 -5.238281 16.984375 -6.4375 C 17.429688 -7.632812 17.65625 -8.929688 17.65625 -10.328125 C 17.65625 -11.722656 17.429688 -13.019531 16.984375 -14.21875 C 16.546875 -15.425781 15.863281 -16.398438 14.9375 -17.140625 C 14.019531 -17.878906 12.84375 -18.25 11.40625 -18.25 C 9.976562 -18.25 8.800781 -17.878906 7.875 -17.140625 C 6.957031 -16.398438 6.273438 -15.425781 5.828125 -14.21875 C 5.378906 -13.019531 5.15625 -11.722656 5.15625 -10.328125 C 5.15625 -8.929688 5.378906 -7.632812 5.828125 -6.4375 C 6.273438 -5.238281 6.957031 -4.269531 7.875 -3.53125 C 8.800781 -2.800781 9.976562 -2.4375 11.40625 -2.4375 Z M 11.40625 -2.4375 "/></g></g></g><g fill="#000000" fill-opacity="1"><g transform="translate(202.875435, 258.271147)"><g><path d="M 11.40625 0.4375 C 9.519531 0.4375 7.867188 -0.0078125 6.453125 -0.90625 C 5.035156 -1.800781 3.929688 -3.054688 3.140625 -4.671875 C 2.347656 -6.285156 1.953125 -8.171875 1.953125 -10.328125 C 1.953125 -12.492188 2.347656 -14.390625 3.140625 -16.015625 C 3.929688 -17.640625 5.035156 -18.898438 6.453125 -19.796875 C 7.867188 -20.691406 9.519531 -21.140625 11.40625 -21.140625 C 13.289062 -21.140625 14.941406 -20.691406 16.359375 -19.796875 C 17.773438 -18.898438 18.878906 -17.640625 19.671875 -16.015625 C 20.460938 -14.390625 20.859375 -12.492188 20.859375 -10.328125 C 20.859375 -8.171875 20.460938 -6.285156 19.671875 -4.671875 C 18.878906 -3.054688 17.773438 -1.800781 16.359375 -0.90625 C 14.941406 -0.0078125 13.289062 0.4375 11.40625 0.4375 Z M 11.40625 -2.4375 C 12.84375 -2.4375 14.019531 -2.800781 14.9375 -3.53125 C 15.863281 -4.269531 16.546875 -5.238281 16.984375 -6.4375 C 17.429688 -7.632812 17.65625 -8.929688 17.65625 -10.328125 C 17.65625 -11.722656 17.429688 -13.019531 16.984375 -14.21875 C 16.546875 -15.425781 15.863281 -16.398438 14.9375 -17.140625 C 14.019531 -17.878906 12.84375 -18.25 11.40625 -18.25 C 9.976562 -18.25 8.800781 -17.878906 7.875 -17.140625 C 6.957031 -16.398438 6.273438 -15.425781 5.828125 -14.21875 C 5.378906 -13.019531 5.15625 -11.722656 5.15625 -10.328125 C 5.15625 -8.929688 5.378906 -7.632812 5.828125 -6.4375 C 6.273438 -5.238281 6.957031 -4.269531 7.875 -3.53125 C 8.800781 -2.800781 9.976562 -2.4375 11.40625 -2.4375 Z M 11.40625 -2.4375 "/></g></g></g><g fill="#000000" fill-opacity="1"><g transform="translate(225.689674, 258.271147)"><g><path d="M 10.8125 0.4375 C 9.070312 0.4375 7.535156 -0.00390625 6.203125 -0.890625 C 4.867188 -1.773438 3.828125 -3.023438 3.078125 -4.640625 C 2.328125 -6.253906 1.953125 -8.164062 1.953125 -10.375 C 1.953125 -12.570312 2.328125 -14.472656 3.078125 -16.078125 C 3.828125 -17.691406 4.875 -18.9375 6.21875 -19.8125 C 7.5625 -20.695312 9.109375 -21.140625 10.859375 -21.140625 C 12.222656 -21.140625 13.300781 -20.914062 14.09375 -20.46875 C 14.882812 -20.019531 15.488281 -19.507812 15.90625 -18.9375 C 16.332031 -18.375 16.660156 -17.910156 16.890625 -17.546875 L 17.171875 -17.546875 L 17.171875 -27.8125 L 20.375 -27.8125 L 20.375 0 L 17.28125 0 L 17.28125 -3.203125 L 16.890625 -3.203125 C 16.660156 -2.828125 16.328125 -2.347656 15.890625 -1.765625 C 15.453125 -1.191406 14.832031 -0.679688 14.03125 -0.234375 C 13.226562 0.210938 12.15625 0.4375 10.8125 0.4375 Z M 11.25 -2.4375 C 13.175781 -2.4375 14.648438 -3.175781 15.671875 -4.65625 C 16.703125 -6.144531 17.21875 -8.070312 17.21875 -10.4375 C 17.21875 -12.769531 16.710938 -14.65625 15.703125 -16.09375 C 14.691406 -17.53125 13.207031 -18.25 11.25 -18.25 C 9.882812 -18.25 8.75 -17.898438 7.84375 -17.203125 C 6.945312 -16.515625 6.273438 -15.578125 5.828125 -14.390625 C 5.378906 -13.210938 5.15625 -11.894531 5.15625 -10.4375 C 5.15625 -8.945312 5.382812 -7.597656 5.84375 -6.390625 C 6.300781 -5.179688 6.976562 -4.21875 7.875 -3.5 C 8.78125 -2.789062 9.90625 -2.4375 11.25 -2.4375 Z M 11.25 -2.4375 "/></g></g></g><g fill="#000000" fill-opacity="1"><g transform="translate(249.427358, 258.271147)"><g><path d="M 17.71875 -16.1875 L 14.828125 -15.375 C 14.546875 -16.101562 14.070312 -16.78125 13.40625 -17.40625 C 12.75 -18.039062 11.722656 -18.359375 10.328125 -18.359375 C 9.046875 -18.359375 7.984375 -18.066406 7.140625 -17.484375 C 6.296875 -16.898438 5.875 -16.160156 5.875 -15.265625 C 5.875 -14.472656 6.160156 -13.84375 6.734375 -13.375 C 7.316406 -12.914062 8.222656 -12.53125 9.453125 -12.21875 L 12.546875 -11.46875 C 16.242188 -10.5625 18.09375 -8.675781 18.09375 -5.8125 C 18.09375 -4.613281 17.75 -3.546875 17.0625 -2.609375 C 16.382812 -1.671875 15.429688 -0.925781 14.203125 -0.375 C 12.984375 0.164062 11.5625 0.4375 9.9375 0.4375 C 7.8125 0.4375 6.050781 -0.0234375 4.65625 -0.953125 C 3.257812 -1.878906 2.378906 -3.226562 2.015625 -5 L 5.046875 -5.765625 C 5.617188 -3.515625 7.234375 -2.390625 9.890625 -2.390625 C 11.378906 -2.390625 12.566406 -2.707031 13.453125 -3.34375 C 14.335938 -3.988281 14.78125 -4.757812 14.78125 -5.65625 C 14.78125 -7.125 13.75 -8.097656 11.6875 -8.578125 L 8.203125 -9.40625 C 6.296875 -9.851562 4.894531 -10.550781 4 -11.5 C 3.101562 -12.457031 2.65625 -13.660156 2.65625 -15.109375 C 2.65625 -16.285156 2.988281 -17.328125 3.65625 -18.234375 C 4.320312 -19.140625 5.234375 -19.847656 6.390625 -20.359375 C 7.546875 -20.878906 8.859375 -21.140625 10.328125 -21.140625 C 12.390625 -21.140625 14.007812 -20.6875 15.1875 -19.78125 C 16.375 -18.875 17.21875 -17.675781 17.71875 -16.1875 Z M 17.71875 -16.1875 "/></g></g></g><g clip-path="url(#08b09e6165)"><g clip-path="url(#d073e5a7ed)"><path fill="#8c52ff" d="M 91.261719 364.332031 L 134.203125 364.332031 L 134.203125 407.273438 L 91.261719 407.273438 Z M 91.261719 364.332031 " fill-opacity="1" fill-rule="nonzero"/></g></g><g fill="#000000" fill-opacity="1"><g transform="translate(156.140223, 397.804425)"><g><path d="M 2.9375 7.828125 L 2.9375 -20.859375 L 6.03125 -20.859375 L 6.03125 -17.546875 L 6.40625 -17.546875 C 6.644531 -17.910156 6.972656 -18.375 7.390625 -18.9375 C 7.816406 -19.507812 8.425781 -20.019531 9.21875 -20.46875 C 10.007812 -20.914062 11.082031 -21.140625 12.4375 -21.140625 C 14.195312 -21.140625 15.742188 -20.695312 17.078125 -19.8125 C 18.421875 -18.9375 19.46875 -17.691406 20.21875 -16.078125 C 20.976562 -14.472656 21.359375 -12.570312 21.359375 -10.375 C 21.359375 -8.164062 20.976562 -6.253906 20.21875 -4.640625 C 19.46875 -3.023438 18.425781 -1.773438 17.09375 -0.890625 C 15.769531 -0.00390625 14.238281 0.4375 12.5 0.4375 C 11.15625 0.4375 10.078125 0.210938 9.265625 -0.234375 C 8.460938 -0.679688 7.84375 -1.191406 7.40625 -1.765625 C 6.976562 -2.347656 6.644531 -2.828125 6.40625 -3.203125 L 6.140625 -3.203125 L 6.140625 7.828125 Z M 6.078125 -10.4375 C 6.078125 -8.070312 6.59375 -6.144531 7.625 -4.65625 C 8.65625 -3.175781 10.132812 -2.4375 12.0625 -2.4375 C 13.40625 -2.4375 14.523438 -2.789062 15.421875 -3.5 C 16.328125 -4.21875 17.003906 -5.179688 17.453125 -6.390625 C 17.910156 -7.597656 18.140625 -8.945312 18.140625 -10.4375 C 18.140625 -11.894531 17.914062 -13.210938 17.46875 -14.390625 C 17.019531 -15.578125 16.34375 -16.515625 15.4375 -17.203125 C 14.539062 -17.898438 13.414062 -18.25 12.0625 -18.25 C 10.101562 -18.25 8.613281 -17.53125 7.59375 -16.09375 C 6.582031 -14.65625 6.078125 -12.769531 6.078125 -10.4375 Z M 6.078125 -10.4375 "/></g></g></g><g fill="#000000" fill-opacity="1"><g transform="translate(179.44335, 397.804425)"><g><path d="M 2.9375 0 L 2.9375 -20.859375 L 6.140625 -20.859375 L 6.140625 0 Z M 4.5625 -24.34375 C 3.9375 -24.34375 3.398438 -24.554688 2.953125 -24.984375 C 2.503906 -25.410156 2.28125 -25.921875 2.28125 -26.515625 C 2.28125 -27.109375 2.503906 -27.617188 2.953125 -28.046875 C 3.398438 -28.472656 3.9375 -28.6875 4.5625 -28.6875 C 5.1875 -28.6875 5.722656 -28.472656 6.171875 -28.046875 C 6.617188 -27.617188 6.84375 -27.109375 6.84375 -26.515625 C 6.84375 -25.921875 6.617188 -25.410156 6.171875 -24.984375 C 5.722656 -24.554688 5.1875 -24.34375 4.5625 -24.34375 Z M 4.5625 -24.34375 "/></g></g></g><g fill="#000000" fill-opacity="1"><g transform="translate(188.514715, 397.804425)"><g><path d="M 2.9375 7.828125 L 2.9375 -20.859375 L 6.03125 -20.859375 L 6.03125 -17.546875 L 6.40625 -17.546875 C 6.644531 -17.910156 6.972656 -18.375 7.390625 -18.9375 C 7.816406 -19.507812 8.425781 -20.019531 9.21875 -20.46875 C 10.007812 -20.914062 11.082031 -21.140625 12.4375 -21.140625 C 14.195312 -21.140625 15.742188 -20.695312 17.078125 -19.8125 C 18.421875 -18.9375 19.46875 -17.691406 20.21875 -16.078125 C 20.976562 -14.472656 21.359375 -12.570312 21.359375 -10.375 C 21.359375 -8.164062 20.976562 -6.253906 20.21875 -4.640625 C 19.46875 -3.023438 18.425781 -1.773438 17.09375 -0.890625 C 15.769531 -0.00390625 14.238281 0.4375 12.5 0.4375 C 11.15625 0.4375 10.078125 0.210938 9.265625 -0.234375 C 8.460938 -0.679688 7.84375 -1.191406 7.40625 -1.765625 C 6.976562 -2.347656 6.644531 -2.828125 6.40625 -3.203125 L 6.140625 -3.203125 L 6.140625 7.828125 Z M 6.078125 -10.4375 C 6.078125 -8.070312 6.59375 -6.144531 7.625 -4.65625 C 8.65625 -3.175781 10.132812 -2.4375 12.0625 -2.4375 C 13.40625 -2.4375 14.523438 -2.789062 15.421875 -3.5 C 16.328125 -4.21875 17.003906 -5.179688 17.453125 -6.390625 C 17.910156 -7.597656 18.140625 -8.945312 18.140625 -10.4375 C 18.140625 -11.894531 17.914062 -13.210938 17.46875 -14.390625 C 17.019531 -15.578125 16.34375 -16.515625 15.4375 -17.203125 C 14.539062 -17.898438 13.414062 -18.25 12.0625 -18.25 C 10.101562 -18.25 8.613281 -17.53125 7.59375 -16.09375 C 6.582031 -14.65625 6.078125 -12.769531 6.078125 -10.4375 Z M 6.078125 -10.4375 "/></g></g></g><g fill="#000000" fill-opacity="1"><g transform="translate(211.817842, 397.804425)"><g><path d="M 11.6875 0.4375 C 9.675781 0.4375 7.941406 -0.00390625 6.484375 -0.890625 C 5.035156 -1.785156 3.914062 -3.035156 3.125 -4.640625 C 2.34375 -6.253906 1.953125 -8.128906 1.953125 -10.265625 C 1.953125 -12.398438 2.34375 -14.285156 3.125 -15.921875 C 3.914062 -17.554688 5.015625 -18.832031 6.421875 -19.75 C 7.828125 -20.675781 9.472656 -21.140625 11.359375 -21.140625 C 12.441406 -21.140625 13.507812 -20.957031 14.5625 -20.59375 C 15.625 -20.226562 16.585938 -19.640625 17.453125 -18.828125 C 18.328125 -18.023438 19.023438 -16.957031 19.546875 -15.625 C 20.066406 -14.289062 20.328125 -12.648438 20.328125 -10.703125 L 20.328125 -9.34375 L 5.171875 -9.34375 C 5.242188 -7.113281 5.875 -5.40625 7.0625 -4.21875 C 8.257812 -3.03125 9.800781 -2.4375 11.6875 -2.4375 C 12.9375 -2.4375 14.015625 -2.707031 14.921875 -3.25 C 15.828125 -3.800781 16.484375 -4.617188 16.890625 -5.703125 L 20 -4.828125 C 19.507812 -3.253906 18.53125 -1.984375 17.0625 -1.015625 C 15.59375 -0.046875 13.800781 0.4375 11.6875 0.4375 Z M 5.171875 -12.109375 L 17.0625 -12.109375 C 17.0625 -13.878906 16.546875 -15.34375 15.515625 -16.5 C 14.484375 -17.664062 13.097656 -18.25 11.359375 -18.25 C 10.128906 -18.25 9.066406 -17.960938 8.171875 -17.390625 C 7.273438 -16.828125 6.566406 -16.078125 6.046875 -15.140625 C 5.535156 -14.203125 5.242188 -13.191406 5.171875 -12.109375 Z M 5.171875 -12.109375 "/></g></g></g><g fill="#000000" fill-opacity="1"><g transform="translate(234.088907, 397.804425)"><g/></g></g><g fill="#000000" fill-opacity="1"><g transform="translate(244.844213, 397.804425)"><g><path d="M 6.140625 -27.8125 L 6.140625 0 L 2.9375 0 L 2.9375 -27.8125 Z M 6.140625 -27.8125 "/></g></g></g><g fill="#000000" fill-opacity="1"><g transform="translate(253.915578, 397.804425)"><g><path d="M 11.6875 0.4375 C 9.675781 0.4375 7.941406 -0.00390625 6.484375 -0.890625 C 5.035156 -1.785156 3.914062 -3.035156 3.125 -4.640625 C 2.34375 -6.253906 1.953125 -8.128906 1.953125 -10.265625 C 1.953125 -12.398438 2.34375 -14.285156 3.125 -15.921875 C 3.914062 -17.554688 5.015625 -18.832031 6.421875 -19.75 C 7.828125 -20.675781 9.472656 -21.140625 11.359375 -21.140625 C 12.441406 -21.140625 13.507812 -20.957031 14.5625 -20.59375 C 15.625 -20.226562 16.585938 -19.640625 17.453125 -18.828125 C 18.328125 -18.023438 19.023438 -16.957031 19.546875 -15.625 C 20.066406 -14.289062 20.328125 -12.648438 20.328125 -10.703125 L 20.328125 -9.34375 L 5.171875 -9.34375 C 5.242188 -7.113281 5.875 -5.40625 7.0625 -4.21875 C 8.257812 -3.03125 9.800781 -2.4375 11.6875 -2.4375 C 12.9375 -2.4375 14.015625 -2.707031 14.921875 -3.25 C 15.828125 -3.800781 16.484375 -4.617188 16.890625 -5.703125 L 20 -4.828125 C 19.507812 -3.253906 18.53125 -1.984375 17.0625 -1.015625 C 15.59375 -0.046875 13.800781 0.4375 11.6875 0.4375 Z M 5.171875 -12.109375 L 17.0625 -12.109375 C 17.0625 -13.878906 16.546875 -15.34375 15.515625 -16.5 C 14.484375 -17.664062 13.097656 -18.25 11.359375 -18.25 C 10.128906 -18.25 9.066406 -17.960938 8.171875 -17.390625 C 7.273438 -16.828125 6.566406 -16.078125 6.046875 -15.140625 C 5.535156 -14.203125 5.242188 -13.191406 5.171875 -12.109375 Z M 5.171875 -12.109375 "/></g></g></g><g fill="#000000" fill-opacity="1"><g transform="translate(276.186643, 397.804425)"><g><path d="M 9.078125 0.484375 C 7.753906 0.484375 6.550781 0.234375 5.46875 -0.265625 C 4.394531 -0.765625 3.539062 -1.492188 2.90625 -2.453125 C 2.269531 -3.410156 1.953125 -4.566406 1.953125 -5.921875 C 1.953125 -7.117188 2.1875 -8.085938 2.65625 -8.828125 C 3.132812 -9.578125 3.765625 -10.164062 4.546875 -10.59375 C 5.335938 -11.019531 6.207031 -11.335938 7.15625 -11.546875 C 8.113281 -11.765625 9.078125 -11.9375 10.046875 -12.0625 C 11.316406 -12.226562 12.347656 -12.351562 13.140625 -12.4375 C 13.929688 -12.519531 14.507812 -12.664062 14.875 -12.875 C 15.25 -13.082031 15.4375 -13.445312 15.4375 -13.96875 L 15.4375 -14.078125 C 15.4375 -15.410156 15.070312 -16.445312 14.34375 -17.1875 C 13.613281 -17.9375 12.507812 -18.3125 11.03125 -18.3125 C 9.5 -18.3125 8.296875 -17.972656 7.421875 -17.296875 C 6.554688 -16.628906 5.945312 -15.914062 5.59375 -15.15625 L 2.546875 -16.25 C 3.097656 -17.507812 3.828125 -18.492188 4.734375 -19.203125 C 5.640625 -19.921875 6.632812 -20.421875 7.71875 -20.703125 C 8.800781 -20.992188 9.867188 -21.140625 10.921875 -21.140625 C 11.585938 -21.140625 12.359375 -21.054688 13.234375 -20.890625 C 14.109375 -20.734375 14.953125 -20.410156 15.765625 -19.921875 C 16.585938 -19.429688 17.269531 -18.691406 17.8125 -17.703125 C 18.363281 -16.722656 18.640625 -15.40625 18.640625 -13.75 L 18.640625 0 L 15.4375 0 L 15.4375 -2.828125 L 15.265625 -2.828125 C 15.046875 -2.367188 14.679688 -1.878906 14.171875 -1.359375 C 13.671875 -0.847656 13 -0.410156 12.15625 -0.046875 C 11.3125 0.304688 10.285156 0.484375 9.078125 0.484375 Z M 9.5625 -2.390625 C 10.832031 -2.390625 11.898438 -2.640625 12.765625 -3.140625 C 13.640625 -3.640625 14.300781 -4.28125 14.75 -5.0625 C 15.207031 -5.851562 15.4375 -6.679688 15.4375 -7.546875 L 15.4375 -10.484375 C 15.300781 -10.316406 15.003906 -10.164062 14.546875 -10.03125 C 14.085938 -9.90625 13.5625 -9.796875 12.96875 -9.703125 C 12.375 -9.609375 11.796875 -9.523438 11.234375 -9.453125 C 10.679688 -9.390625 10.234375 -9.335938 9.890625 -9.296875 C 9.054688 -9.179688 8.28125 -9.003906 7.5625 -8.765625 C 6.84375 -8.523438 6.257812 -8.164062 5.8125 -7.6875 C 5.375 -7.21875 5.15625 -6.578125 5.15625 -5.765625 C 5.15625 -4.648438 5.566406 -3.804688 6.390625 -3.234375 C 7.222656 -2.671875 8.28125 -2.390625 9.5625 -2.390625 Z M 9.5625 -2.390625 "/></g></g></g><g fill="#000000" fill-opacity="1"><g transform="translate(297.751542, 397.804425)"><g><path d="M 2.9375 0 L 2.9375 -27.8125 L 6.140625 -27.8125 L 6.140625 -11.578125 L 6.515625 -11.578125 L 15.640625 -20.859375 L 19.609375 -20.859375 L 10.796875 -11.953125 L 20.265625 0 L 16.1875 0 L 8.375 -9.890625 L 6.140625 -7.8125 L 6.140625 0 Z M 2.9375 0 "/></g></g></g><g fill="#000000" fill-opacity="1"><g transform="translate(318.555945, 397.804425)"><g><path d="M 9.078125 0.484375 C 7.753906 0.484375 6.550781 0.234375 5.46875 -0.265625 C 4.394531 -0.765625 3.539062 -1.492188 2.90625 -2.453125 C 2.269531 -3.410156 1.953125 -4.566406 1.953125 -5.921875 C 1.953125 -7.117188 2.1875 -8.085938 2.65625 -8.828125 C 3.132812 -9.578125 3.765625 -10.164062 4.546875 -10.59375 C 5.335938 -11.019531 6.207031 -11.335938 7.15625 -11.546875 C 8.113281 -11.765625 9.078125 -11.9375 10.046875 -12.0625 C 11.316406 -12.226562 12.347656 -12.351562 13.140625 -12.4375 C 13.929688 -12.519531 14.507812 -12.664062 14.875 -12.875 C 15.25 -13.082031 15.4375 -13.445312 15.4375 -13.96875 L 15.4375 -14.078125 C 15.4375 -15.410156 15.070312 -16.445312 14.34375 -17.1875 C 13.613281 -17.9375 12.507812 -18.3125 11.03125 -18.3125 C 9.5 -18.3125 8.296875 -17.972656 7.421875 -17.296875 C 6.554688 -16.628906 5.945312 -15.914062 5.59375 -15.15625 L 2.546875 -16.25 C 3.097656 -17.507812 3.828125 -18.492188 4.734375 -19.203125 C 5.640625 -19.921875 6.632812 -20.421875 7.71875 -20.703125 C 8.800781 -20.992188 9.867188 -21.140625 10.921875 -21.140625 C 11.585938 -21.140625 12.359375 -21.054688 13.234375 -20.890625 C 14.109375 -20.734375 14.953125 -20.410156 15.765625 -19.921875 C 16.585938 -19.429688 17.269531 -18.691406 17.8125 -17.703125 C 18.363281 -16.722656 18.640625 -15.40625 18.640625 -13.75 L 18.640625 0 L 15.4375 0 L 15.4375 -2.828125 L 15.265625 -2.828125 C 15.046875 -2.367188 14.679688 -1.878906 14.171875 -1.359375 C 13.671875 -0.847656 13 -0.410156 12.15625 -0.046875 C 11.3125 0.304688 10.285156 0.484375 9.078125 0.484375 Z M 9.5625 -2.390625 C 10.832031 -2.390625 11.898438 -2.640625 12.765625 -3.140625 C 13.640625 -3.640625 14.300781 -4.28125 14.75 -5.0625 C 15.207031 -5.851562 15.4375 -6.679688 15.4375 -7.546875 L 15.4375 -10.484375 C 15.300781 -10.316406 15.003906 -10.164062 14.546875 -10.03125 C 14.085938 -9.90625 13.5625 -9.796875 12.96875 -9.703125 C 12.375 -9.609375 11.796875 -9.523438 11.234375 -9.453125 C 10.679688 -9.390625 10.234375 -9.335938 9.890625 -9.296875 C 9.054688 -9.179688 8.28125 -9.003906 7.5625 -8.765625 C 6.84375 -8.523438 6.257812 -8.164062 5.8125 -7.6875 C 5.375 -7.21875 5.15625 -6.578125 5.15625 -5.765625 C 5.15625 -4.648438 5.566406 -3.804688 6.390625 -3.234375 C 7.222656 -2.671875 8.28125 -2.390625 9.5625 -2.390625 Z M 9.5625 -2.390625 "/></g></g></g><g fill="#000000" fill-opacity="1"><g transform="translate(340.120844, 397.804425)"><g><path d="M 11.359375 8.265625 C 9.023438 8.265625 7.179688 7.835938 5.828125 6.984375 C 4.472656 6.140625 3.472656 5.171875 2.828125 4.078125 L 5.375 2.28125 C 5.664062 2.664062 6.03125 3.101562 6.46875 3.59375 C 6.914062 4.082031 7.523438 4.507812 8.296875 4.875 C 9.078125 5.25 10.097656 5.4375 11.359375 5.4375 C 13.035156 5.4375 14.421875 5.023438 15.515625 4.203125 C 16.617188 3.390625 17.171875 2.113281 17.171875 0.375 L 17.171875 -3.859375 L 16.890625 -3.859375 C 16.660156 -3.472656 16.328125 -3 15.890625 -2.4375 C 15.460938 -1.882812 14.847656 -1.394531 14.046875 -0.96875 C 13.242188 -0.539062 12.164062 -0.328125 10.8125 -0.328125 C 9.125 -0.328125 7.613281 -0.722656 6.28125 -1.515625 C 4.945312 -2.316406 3.890625 -3.476562 3.109375 -5 C 2.335938 -6.519531 1.953125 -8.367188 1.953125 -10.546875 C 1.953125 -12.679688 2.328125 -14.539062 3.078125 -16.125 C 3.828125 -17.71875 4.875 -18.953125 6.21875 -19.828125 C 7.5625 -20.703125 9.109375 -21.140625 10.859375 -21.140625 C 12.222656 -21.140625 13.304688 -20.914062 14.109375 -20.46875 C 14.910156 -20.019531 15.523438 -19.507812 15.953125 -18.9375 C 16.378906 -18.375 16.710938 -17.910156 16.953125 -17.546875 L 17.28125 -17.546875 L 17.28125 -20.859375 L 20.375 -20.859375 L 20.375 0.59375 C 20.375 2.382812 19.96875 3.84375 19.15625 4.96875 C 18.34375 6.101562 17.253906 6.9375 15.890625 7.46875 C 14.535156 8 13.023438 8.265625 11.359375 8.265625 Z M 11.25 -3.203125 C 13.175781 -3.203125 14.648438 -3.851562 15.671875 -5.15625 C 16.703125 -6.46875 17.21875 -8.28125 17.21875 -10.59375 C 17.21875 -12.851562 16.710938 -14.691406 15.703125 -16.109375 C 14.691406 -17.535156 13.207031 -18.25 11.25 -18.25 C 9.882812 -18.25 8.75 -17.90625 7.84375 -17.21875 C 6.945312 -16.53125 6.273438 -15.609375 5.828125 -14.453125 C 5.378906 -13.296875 5.15625 -12.007812 5.15625 -10.59375 C 5.15625 -8.414062 5.664062 -6.640625 6.6875 -5.265625 C 7.71875 -3.890625 9.238281 -3.203125 11.25 -3.203125 Z M 11.25 -3.203125 "/></g></g></g><g fill="#000000" fill-opacity="1"><g transform="translate(363.423971, 397.804425)"><g><path d="M 11.6875 0.4375 C 9.675781 0.4375 7.941406 -0.00390625 6.484375 -0.890625 C 5.035156 -1.785156 3.914062 -3.035156 3.125 -4.640625 C 2.34375 -6.253906 1.953125 -8.128906 1.953125 -10.265625 C 1.953125 -12.398438 2.34375 -14.285156 3.125 -15.921875 C 3.914062 -17.554688 5.015625 -18.832031 6.421875 -19.75 C 7.828125 -20.675781 9.472656 -21.140625 11.359375 -21.140625 C 12.441406 -21.140625 13.507812 -20.957031 14.5625 -20.59375 C 15.625 -20.226562 16.585938 -19.640625 17.453125 -18.828125 C 18.328125 -18.023438 19.023438 -16.957031 19.546875 -15.625 C 20.066406 -14.289062 20.328125 -12.648438 20.328125 -10.703125 L 20.328125 -9.34375 L 5.171875 -9.34375 C 5.242188 -7.113281 5.875 -5.40625 7.0625 -4.21875 C 8.257812 -3.03125 9.800781 -2.4375 11.6875 -2.4375 C 12.9375 -2.4375 14.015625 -2.707031 14.921875 -3.25 C 15.828125 -3.800781 16.484375 -4.617188 16.890625 -5.703125 L 20 -4.828125 C 19.507812 -3.253906 18.53125 -1.984375 17.0625 -1.015625 C 15.59375 -0.046875 13.800781 0.4375 11.6875 0.4375 Z M 5.171875 -12.109375 L 17.0625 -12.109375 C 17.0625 -13.878906 16.546875 -15.34375 15.515625 -16.5 C 14.484375 -17.664062 13.097656 -18.25 11.359375 -18.25 C 10.128906 -18.25 9.066406 -17.960938 8.171875 -17.390625 C 7.273438 -16.828125 6.566406 -16.078125 6.046875 -15.140625 C 5.535156 -14.203125 5.242188 -13.191406 5.171875 -12.109375 Z M 5.171875 -12.109375 "/></g></g></g><g clip-path="url(#079e3d9c66)"><g clip-path="url(#c87d6b6bc1)"><path fill="#5271ff" d="M 91.261719 295.042969 L 134.203125 295.042969 L 134.203125 337.984375 L 91.261719 337.984375 Z M 91.261719 295.042969 " fill-opacity="1" fill-rule="nonzero"/></g></g><g fill="#000000" fill-opacity="1"><g transform="translate(156.140223, 327.988802)"><g><path d="M 11.953125 0 L 3.375 0 L 3.375 -27.8125 L 12.328125 -27.8125 C 15.023438 -27.8125 17.332031 -27.253906 19.25 -26.140625 C 21.175781 -25.035156 22.648438 -23.445312 23.671875 -21.375 C 24.691406 -19.3125 25.203125 -16.84375 25.203125 -13.96875 C 25.203125 -11.0625 24.6875 -8.566406 23.65625 -6.484375 C 22.625 -4.398438 21.117188 -2.796875 19.140625 -1.671875 C 17.171875 -0.554688 14.773438 0 11.953125 0 Z M 6.734375 -2.984375 L 11.734375 -2.984375 C 15.179688 -2.984375 17.742188 -3.960938 19.421875 -5.921875 C 21.109375 -7.890625 21.953125 -10.570312 21.953125 -13.96875 C 21.953125 -17.332031 21.125 -19.984375 19.46875 -21.921875 C 17.820312 -23.859375 15.367188 -24.828125 12.109375 -24.828125 L 6.734375 -24.828125 Z M 6.734375 -2.984375 "/></g></g></g><g fill="#000000" fill-opacity="1"><g transform="translate(183.625971, 327.988802)"><g><path d="M 2.9375 0 L 2.9375 -20.859375 L 6.03125 -20.859375 L 6.03125 -17.71875 L 6.25 -17.71875 C 6.625 -18.75 7.304688 -19.582031 8.296875 -20.21875 C 9.296875 -20.863281 10.425781 -21.1875 11.6875 -21.1875 C 12.257812 -21.1875 12.765625 -21.117188 13.203125 -20.984375 C 13.640625 -20.847656 14.019531 -20.660156 14.34375 -20.421875 L 13.25 -17.71875 C 13.03125 -17.832031 12.765625 -17.921875 12.453125 -17.984375 C 12.148438 -18.054688 11.800781 -18.09375 11.40625 -18.09375 C 9.882812 -18.09375 8.625 -17.628906 7.625 -16.703125 C 6.632812 -15.773438 6.140625 -14.609375 6.140625 -13.203125 L 6.140625 0 Z M 2.9375 0 "/></g></g></g><g fill="#000000" fill-opacity="1"><g transform="translate(198.29229, 327.988802)"><g><path d="M 9.078125 0.484375 C 7.753906 0.484375 6.550781 0.234375 5.46875 -0.265625 C 4.394531 -0.765625 3.539062 -1.492188 2.90625 -2.453125 C 2.269531 -3.410156 1.953125 -4.566406 1.953125 -5.921875 C 1.953125 -7.117188 2.1875 -8.085938 2.65625 -8.828125 C 3.132812 -9.578125 3.765625 -10.164062 4.546875 -10.59375 C 5.335938 -11.019531 6.207031 -11.335938 7.15625 -11.546875 C 8.113281 -11.765625 9.078125 -11.9375 10.046875 -12.0625 C 11.316406 -12.226562 12.347656 -12.351562 13.140625 -12.4375 C 13.929688 -12.519531 14.507812 -12.664062 14.875 -12.875 C 15.25 -13.082031 15.4375 -13.445312 15.4375 -13.96875 L 15.4375 -14.078125 C 15.4375 -15.410156 15.070312 -16.445312 14.34375 -17.1875 C 13.613281 -17.9375 12.507812 -18.3125 11.03125 -18.3125 C 9.5 -18.3125 8.296875 -17.972656 7.421875 -17.296875 C 6.554688 -16.628906 5.945312 -15.914062 5.59375 -15.15625 L 2.546875 -16.25 C 3.097656 -17.507812 3.828125 -18.492188 4.734375 -19.203125 C 5.640625 -19.921875 6.632812 -20.421875 7.71875 -20.703125 C 8.800781 -20.992188 9.867188 -21.140625 10.921875 -21.140625 C 11.585938 -21.140625 12.359375 -21.054688 13.234375 -20.890625 C 14.109375 -20.734375 14.953125 -20.410156 15.765625 -19.921875 C 16.585938 -19.429688 17.269531 -18.691406 17.8125 -17.703125 C 18.363281 -16.722656 18.640625 -15.40625 18.640625 -13.75 L 18.640625 0 L 15.4375 0 L 15.4375 -2.828125 L 15.265625 -2.828125 C 15.046875 -2.367188 14.679688 -1.878906 14.171875 -1.359375 C 13.671875 -0.847656 13 -0.410156 12.15625 -0.046875 C 11.3125 0.304688 10.285156 0.484375 9.078125 0.484375 Z M 9.5625 -2.390625 C 10.832031 -2.390625 11.898438 -2.640625 12.765625 -3.140625 C 13.640625 -3.640625 14.300781 -4.28125 14.75 -5.0625 C 15.207031 -5.851562 15.4375 -6.679688 15.4375 -7.546875 L 15.4375 -10.484375 C 15.300781 -10.316406 15.003906 -10.164062 14.546875 -10.03125 C 14.085938 -9.90625 13.5625 -9.796875 12.96875 -9.703125 C 12.375 -9.609375 11.796875 -9.523438 11.234375 -9.453125 C 10.679688 -9.390625 10.234375 -9.335938 9.890625 -9.296875 C 9.054688 -9.179688 8.28125 -9.003906 7.5625 -8.765625 C 6.84375 -8.523438 6.257812 -8.164062 5.8125 -7.6875 C 5.375 -7.21875 5.15625 -6.578125 5.15625 -5.765625 C 5.15625 -4.648438 5.566406 -3.804688 6.390625 -3.234375 C 7.222656 -2.671875 8.28125 -2.390625 9.5625 -2.390625 Z M 9.5625 -2.390625 "/></g></g></g><g fill="#000000" fill-opacity="1"><g transform="translate(219.857189, 327.988802)"><g><path d="M 2.9375 0 L 2.9375 -20.859375 L 6.140625 -20.859375 L 6.140625 0 Z M 4.5625 -24.34375 C 3.9375 -24.34375 3.398438 -24.554688 2.953125 -24.984375 C 2.503906 -25.410156 2.28125 -25.921875 2.28125 -26.515625 C 2.28125 -27.109375 2.503906 -27.617188 2.953125 -28.046875 C 3.398438 -28.472656 3.9375 -28.6875 4.5625 -28.6875 C 5.1875 -28.6875 5.722656 -28.472656 6.171875 -28.046875 C 6.617188 -27.617188 6.84375 -27.109375 6.84375 -26.515625 C 6.84375 -25.921875 6.617188 -25.410156 6.171875 -24.984375 C 5.722656 -24.554688 5.1875 -24.34375 4.5625 -24.34375 Z M 4.5625 -24.34375 "/></g></g></g><g fill="#000000" fill-opacity="1"><g transform="translate(228.928554, 327.988802)"><g><path d="M 6.140625 -12.546875 L 6.140625 0 L 2.9375 0 L 2.9375 -20.859375 L 6.03125 -20.859375 L 6.03125 -17.609375 L 6.296875 -17.609375 C 6.785156 -18.660156 7.53125 -19.507812 8.53125 -20.15625 C 9.53125 -20.8125 10.816406 -21.140625 12.390625 -21.140625 C 14.492188 -21.140625 16.195312 -20.488281 17.5 -19.1875 C 18.800781 -17.894531 19.453125 -15.914062 19.453125 -13.25 L 19.453125 0 L 16.25 0 L 16.25 -13.046875 C 16.25 -14.679688 15.820312 -15.957031 14.96875 -16.875 C 14.113281 -17.789062 12.945312 -18.25 11.46875 -18.25 C 9.9375 -18.25 8.664062 -17.753906 7.65625 -16.765625 C 6.644531 -15.773438 6.140625 -14.367188 6.140625 -12.546875 Z M 6.140625 -12.546875 "/></g></g></g><g fill="#000000" fill-opacity="1"><g transform="translate(251.308236, 327.988802)"><g><path d="M 9.078125 0.484375 C 7.753906 0.484375 6.550781 0.234375 5.46875 -0.265625 C 4.394531 -0.765625 3.539062 -1.492188 2.90625 -2.453125 C 2.269531 -3.410156 1.953125 -4.566406 1.953125 -5.921875 C 1.953125 -7.117188 2.1875 -8.085938 2.65625 -8.828125 C 3.132812 -9.578125 3.765625 -10.164062 4.546875 -10.59375 C 5.335938 -11.019531 6.207031 -11.335938 7.15625 -11.546875 C 8.113281 -11.765625 9.078125 -11.9375 10.046875 -12.0625 C 11.316406 -12.226562 12.347656 -12.351562 13.140625 -12.4375 C 13.929688 -12.519531 14.507812 -12.664062 14.875 -12.875 C 15.25 -13.082031 15.4375 -13.445312 15.4375 -13.96875 L 15.4375 -14.078125 C 15.4375 -15.410156 15.070312 -16.445312 14.34375 -17.1875 C 13.613281 -17.9375 12.507812 -18.3125 11.03125 -18.3125 C 9.5 -18.3125 8.296875 -17.972656 7.421875 -17.296875 C 6.554688 -16.628906 5.945312 -15.914062 5.59375 -15.15625 L 2.546875 -16.25 C 3.097656 -17.507812 3.828125 -18.492188 4.734375 -19.203125 C 5.640625 -19.921875 6.632812 -20.421875 7.71875 -20.703125 C 8.800781 -20.992188 9.867188 -21.140625 10.921875 -21.140625 C 11.585938 -21.140625 12.359375 -21.054688 13.234375 -20.890625 C 14.109375 -20.734375 14.953125 -20.410156 15.765625 -19.921875 C 16.585938 -19.429688 17.269531 -18.691406 17.8125 -17.703125 C 18.363281 -16.722656 18.640625 -15.40625 18.640625 -13.75 L 18.640625 0 L 15.4375 0 L 15.4375 -2.828125 L 15.265625 -2.828125 C 15.046875 -2.367188 14.679688 -1.878906 14.171875 -1.359375 C 13.671875 -0.847656 13 -0.410156 12.15625 -0.046875 C 11.3125 0.304688 10.285156 0.484375 9.078125 0.484375 Z M 9.5625 -2.390625 C 10.832031 -2.390625 11.898438 -2.640625 12.765625 -3.140625 C 13.640625 -3.640625 14.300781 -4.28125 14.75 -5.0625 C 15.207031 -5.851562 15.4375 -6.679688 15.4375 -7.546875 L 15.4375 -10.484375 C 15.300781 -10.316406 15.003906 -10.164062 14.546875 -10.03125 C 14.085938 -9.90625 13.5625 -9.796875 12.96875 -9.703125 C 12.375 -9.609375 11.796875 -9.523438 11.234375 -9.453125 C 10.679688 -9.390625 10.234375 -9.335938 9.890625 -9.296875 C 9.054688 -9.179688 8.28125 -9.003906 7.5625 -8.765625 C 6.84375 -8.523438 6.257812 -8.164062 5.8125 -7.6875 C 5.375 -7.21875 5.15625 -6.578125 5.15625 -5.765625 C 5.15625 -4.648438 5.566406 -3.804688 6.390625 -3.234375 C 7.222656 -2.671875 8.28125 -2.390625 9.5625 -2.390625 Z M 9.5625 -2.390625 "/></g></g></g><g fill="#000000" fill-opacity="1"><g transform="translate(272.873135, 327.988802)"><g><path d="M 11.359375 8.265625 C 9.023438 8.265625 7.179688 7.835938 5.828125 6.984375 C 4.472656 6.140625 3.472656 5.171875 2.828125 4.078125 L 5.375 2.28125 C 5.664062 2.664062 6.03125 3.101562 6.46875 3.59375 C 6.914062 4.082031 7.523438 4.507812 8.296875 4.875 C 9.078125 5.25 10.097656 5.4375 11.359375 5.4375 C 13.035156 5.4375 14.421875 5.023438 15.515625 4.203125 C 16.617188 3.390625 17.171875 2.113281 17.171875 0.375 L 17.171875 -3.859375 L 16.890625 -3.859375 C 16.660156 -3.472656 16.328125 -3 15.890625 -2.4375 C 15.460938 -1.882812 14.847656 -1.394531 14.046875 -0.96875 C 13.242188 -0.539062 12.164062 -0.328125 10.8125 -0.328125 C 9.125 -0.328125 7.613281 -0.722656 6.28125 -1.515625 C 4.945312 -2.316406 3.890625 -3.476562 3.109375 -5 C 2.335938 -6.519531 1.953125 -8.367188 1.953125 -10.546875 C 1.953125 -12.679688 2.328125 -14.539062 3.078125 -16.125 C 3.828125 -17.71875 4.875 -18.953125 6.21875 -19.828125 C 7.5625 -20.703125 9.109375 -21.140625 10.859375 -21.140625 C 12.222656 -21.140625 13.304688 -20.914062 14.109375 -20.46875 C 14.910156 -20.019531 15.523438 -19.507812 15.953125 -18.9375 C 16.378906 -18.375 16.710938 -17.910156 16.953125 -17.546875 L 17.28125 -17.546875 L 17.28125 -20.859375 L 20.375 -20.859375 L 20.375 0.59375 C 20.375 2.382812 19.96875 3.84375 19.15625 4.96875 C 18.34375 6.101562 17.253906 6.9375 15.890625 7.46875 C 14.535156 8 13.023438 8.265625 11.359375 8.265625 Z M 11.25 -3.203125 C 13.175781 -3.203125 14.648438 -3.851562 15.671875 -5.15625 C 16.703125 -6.46875 17.21875 -8.28125 17.21875 -10.59375 C 17.21875 -12.851562 16.710938 -14.691406 15.703125 -16.109375 C 14.691406 -17.535156 13.207031 -18.25 11.25 -18.25 C 9.882812 -18.25 8.75 -17.90625 7.84375 -17.21875 C 6.945312 -16.53125 6.273438 -15.609375 5.828125 -14.453125 C 5.378906 -13.296875 5.15625 -12.007812 5.15625 -10.59375 C 5.15625 -8.414062 5.664062 -6.640625 6.6875 -5.265625 C 7.71875 -3.890625 9.238281 -3.203125 11.25 -3.203125 Z M 11.25 -3.203125 "/></g></g></g><g fill="#000000" fill-opacity="1"><g transform="translate(296.176262, 327.988802)"><g><path d="M 11.6875 0.4375 C 9.675781 0.4375 7.941406 -0.00390625 6.484375 -0.890625 C 5.035156 -1.785156 3.914062 -3.035156 3.125 -4.640625 C 2.34375 -6.253906 1.953125 -8.128906 1.953125 -10.265625 C 1.953125 -12.398438 2.34375 -14.285156 3.125 -15.921875 C 3.914062 -17.554688 5.015625 -18.832031 6.421875 -19.75 C 7.828125 -20.675781 9.472656 -21.140625 11.359375 -21.140625 C 12.441406 -21.140625 13.507812 -20.957031 14.5625 -20.59375 C 15.625 -20.226562 16.585938 -19.640625 17.453125 -18.828125 C 18.328125 -18.023438 19.023438 -16.957031 19.546875 -15.625 C 20.066406 -14.289062 20.328125 -12.648438 20.328125 -10.703125 L 20.328125 -9.34375 L 5.171875 -9.34375 C 5.242188 -7.113281 5.875 -5.40625 7.0625 -4.21875 C 8.257812 -3.03125 9.800781 -2.4375 11.6875 -2.4375 C 12.9375 -2.4375 14.015625 -2.707031 14.921875 -3.25 C 15.828125 -3.800781 16.484375 -4.617188 16.890625 -5.703125 L 20 -4.828125 C 19.507812 -3.253906 18.53125 -1.984375 17.0625 -1.015625 C 15.59375 -0.046875 13.800781 0.4375 11.6875 0.4375 Z M 5.171875 -12.109375 L 17.0625 -12.109375 C 17.0625 -13.878906 16.546875 -15.34375 15.515625 -16.5 C 14.484375 -17.664062 13.097656 -18.25 11.359375 -18.25 C 10.128906 -18.25 9.066406 -17.960938 8.171875 -17.390625 C 7.273438 -16.828125 6.566406 -16.078125 6.046875 -15.140625 C 5.535156 -14.203125 5.242188 -13.191406 5.171875 -12.109375 Z M 5.171875 -12.109375 "/></g></g></g><g fill="#000000" fill-opacity="1"><g transform="translate(318.471012, 327.988802)"><g/></g></g><g clip-path="url(#05b3663dc7)"><g clip-path="url(#0ce684c3a1)"><path fill="#ffbd59" d="M 92.050781 434.671875 L 134.992188 434.671875 L 134.992188 477.613281 L 92.050781 477.613281 Z M 92.050781 434.671875 " fill-opacity="1" fill-rule="nonzero"/></g></g><g fill="#000000" fill-opacity="1"><g transform="translate(156.929833, 467.62005)"><g><path d="M 2.9375 7.828125 L 2.9375 -20.859375 L 6.03125 -20.859375 L 6.03125 -17.546875 L 6.40625 -17.546875 C 6.644531 -17.910156 6.972656 -18.375 7.390625 -18.9375 C 7.816406 -19.507812 8.425781 -20.019531 9.21875 -20.46875 C 10.007812 -20.914062 11.082031 -21.140625 12.4375 -21.140625 C 14.195312 -21.140625 15.742188 -20.695312 17.078125 -19.8125 C 18.421875 -18.9375 19.46875 -17.691406 20.21875 -16.078125 C 20.976562 -14.472656 21.359375 -12.570312 21.359375 -10.375 C 21.359375 -8.164062 20.976562 -6.253906 20.21875 -4.640625 C 19.46875 -3.023438 18.425781 -1.773438 17.09375 -0.890625 C 15.769531 -0.00390625 14.238281 0.4375 12.5 0.4375 C 11.15625 0.4375 10.078125 0.210938 9.265625 -0.234375 C 8.460938 -0.679688 7.84375 -1.191406 7.40625 -1.765625 C 6.976562 -2.347656 6.644531 -2.828125 6.40625 -3.203125 L 6.140625 -3.203125 L 6.140625 7.828125 Z M 6.078125 -10.4375 C 6.078125 -8.070312 6.59375 -6.144531 7.625 -4.65625 C 8.65625 -3.175781 10.132812 -2.4375 12.0625 -2.4375 C 13.40625 -2.4375 14.523438 -2.789062 15.421875 -3.5 C 16.328125 -4.21875 17.003906 -5.179688 17.453125 -6.390625 C 17.910156 -7.597656 18.140625 -8.945312 18.140625 -10.4375 C 18.140625 -11.894531 17.914062 -13.210938 17.46875 -14.390625 C 17.019531 -15.578125 16.34375 -16.515625 15.4375 -17.203125 C 14.539062 -17.898438 13.414062 -18.25 12.0625 -18.25 C 10.101562 -18.25 8.613281 -17.53125 7.59375 -16.09375 C 6.582031 -14.65625 6.078125 -12.769531 6.078125 -10.4375 Z M 6.078125 -10.4375 "/></g></g></g><g fill="#000000" fill-opacity="1"><g transform="translate(180.23296, 467.62005)"><g><path d="M 11.40625 0.4375 C 9.519531 0.4375 7.867188 -0.0078125 6.453125 -0.90625 C 5.035156 -1.800781 3.929688 -3.054688 3.140625 -4.671875 C 2.347656 -6.285156 1.953125 -8.171875 1.953125 -10.328125 C 1.953125 -12.492188 2.347656 -14.390625 3.140625 -16.015625 C 3.929688 -17.640625 5.035156 -18.898438 6.453125 -19.796875 C 7.867188 -20.691406 9.519531 -21.140625 11.40625 -21.140625 C 13.289062 -21.140625 14.941406 -20.691406 16.359375 -19.796875 C 17.773438 -18.898438 18.878906 -17.640625 19.671875 -16.015625 C 20.460938 -14.390625 20.859375 -12.492188 20.859375 -10.328125 C 20.859375 -8.171875 20.460938 -6.285156 19.671875 -4.671875 C 18.878906 -3.054688 17.773438 -1.800781 16.359375 -0.90625 C 14.941406 -0.0078125 13.289062 0.4375 11.40625 0.4375 Z M 11.40625 -2.4375 C 12.84375 -2.4375 14.019531 -2.800781 14.9375 -3.53125 C 15.863281 -4.269531 16.546875 -5.238281 16.984375 -6.4375 C 17.429688 -7.632812 17.65625 -8.929688 17.65625 -10.328125 C 17.65625 -11.722656 17.429688 -13.019531 16.984375 -14.21875 C 16.546875 -15.425781 15.863281 -16.398438 14.9375 -17.140625 C 14.019531 -17.878906 12.84375 -18.25 11.40625 -18.25 C 9.976562 -18.25 8.800781 -17.878906 7.875 -17.140625 C 6.957031 -16.398438 6.273438 -15.425781 5.828125 -14.21875 C 5.378906 -13.019531 5.15625 -11.722656 5.15625 -10.328125 C 5.15625 -8.929688 5.378906 -7.632812 5.828125 -6.4375 C 6.273438 -5.238281 6.957031 -4.269531 7.875 -3.53125 C 8.800781 -2.800781 9.976562 -2.4375 11.40625 -2.4375 Z M 11.40625 -2.4375 "/></g></g></g><g fill="#000000" fill-opacity="1"><g transform="translate(203.047199, 467.62005)"><g><path d="M 12 -20.859375 L 12 -18.140625 L 7.546875 -18.140625 L 7.546875 -5.984375 C 7.546875 -5.078125 7.679688 -4.398438 7.953125 -3.953125 C 8.222656 -3.503906 8.566406 -3.203125 8.984375 -3.046875 C 9.398438 -2.898438 9.847656 -2.828125 10.328125 -2.828125 C 10.679688 -2.828125 10.96875 -2.847656 11.1875 -2.890625 C 11.414062 -2.929688 11.597656 -2.960938 11.734375 -2.984375 L 12.390625 -0.109375 C 12.171875 -0.0234375 11.863281 0.0546875 11.46875 0.140625 C 11.082031 0.222656 10.59375 0.265625 10 0.265625 C 9.09375 0.265625 8.207031 0.0703125 7.34375 -0.3125 C 6.476562 -0.695312 5.757812 -1.285156 5.1875 -2.078125 C 4.625 -2.878906 4.34375 -3.890625 4.34375 -5.109375 L 4.34375 -18.140625 L 1.203125 -18.140625 L 1.203125 -20.859375 L 4.34375 -20.859375 L 4.34375 -25.859375 L 7.546875 -25.859375 L 7.546875 -20.859375 Z M 12 -20.859375 "/></g></g></g><g fill="#000000" fill-opacity="1"><g transform="translate(216.953021, 467.62005)"><g><path d="M 6.140625 -12.546875 L 6.140625 0 L 2.9375 0 L 2.9375 -27.8125 L 6.140625 -27.8125 L 6.140625 -17.609375 L 6.40625 -17.609375 C 6.894531 -18.679688 7.628906 -19.535156 8.609375 -20.171875 C 9.597656 -20.816406 10.910156 -21.140625 12.546875 -21.140625 C 14.679688 -21.140625 16.398438 -20.492188 17.703125 -19.203125 C 19.015625 -17.921875 19.671875 -15.9375 19.671875 -13.25 L 19.671875 0 L 16.46875 0 L 16.46875 -13.046875 C 16.46875 -14.703125 16.035156 -15.984375 15.171875 -16.890625 C 14.316406 -17.796875 13.132812 -18.25 11.625 -18.25 C 10.039062 -18.25 8.726562 -17.753906 7.6875 -16.765625 C 6.65625 -15.773438 6.140625 -14.367188 6.140625 -12.546875 Z M 6.140625 -12.546875 "/></g></g></g><g fill="#000000" fill-opacity="1"><g transform="translate(239.549982, 467.62005)"><g><path d="M 11.40625 0.4375 C 9.519531 0.4375 7.867188 -0.0078125 6.453125 -0.90625 C 5.035156 -1.800781 3.929688 -3.054688 3.140625 -4.671875 C 2.347656 -6.285156 1.953125 -8.171875 1.953125 -10.328125 C 1.953125 -12.492188 2.347656 -14.390625 3.140625 -16.015625 C 3.929688 -17.640625 5.035156 -18.898438 6.453125 -19.796875 C 7.867188 -20.691406 9.519531 -21.140625 11.40625 -21.140625 C 13.289062 -21.140625 14.941406 -20.691406 16.359375 -19.796875 C 17.773438 -18.898438 18.878906 -17.640625 19.671875 -16.015625 C 20.460938 -14.390625 20.859375 -12.492188 20.859375 -10.328125 C 20.859375 -8.171875 20.460938 -6.285156 19.671875 -4.671875 C 18.878906 -3.054688 17.773438 -1.800781 16.359375 -0.90625 C 14.941406 -0.0078125 13.289062 0.4375 11.40625 0.4375 Z M 11.40625 -2.4375 C 12.84375 -2.4375 14.019531 -2.800781 14.9375 -3.53125 C 15.863281 -4.269531 16.546875 -5.238281 16.984375 -6.4375 C 17.429688 -7.632812 17.65625 -8.929688 17.65625 -10.328125 C 17.65625 -11.722656 17.429688 -13.019531 16.984375 -14.21875 C 16.546875 -15.425781 15.863281 -16.398438 14.9375 -17.140625 C 14.019531 -17.878906 12.84375 -18.25 11.40625 -18.25 C 9.976562 -18.25 8.800781 -17.878906 7.875 -17.140625 C 6.957031 -16.398438 6.273438 -15.425781 5.828125 -14.21875 C 5.378906 -13.019531 5.15625 -11.722656 5.15625 -10.328125 C 5.15625 -8.929688 5.378906 -7.632812 5.828125 -6.4375 C 6.273438 -5.238281 6.957031 -4.269531 7.875 -3.53125 C 8.800781 -2.800781 9.976562 -2.4375 11.40625 -2.4375 Z M 11.40625 -2.4375 "/></g></g></g><g fill="#000000" fill-opacity="1"><g transform="translate(262.364221, 467.62005)"><g><path d="M 6.140625 -27.8125 L 6.140625 0 L 2.9375 0 L 2.9375 -27.8125 Z M 6.140625 -27.8125 "/></g></g></g><g fill="#000000" fill-opacity="1"><g transform="translate(271.435586, 467.62005)"><g><path d="M 11.6875 0.4375 C 9.675781 0.4375 7.941406 -0.00390625 6.484375 -0.890625 C 5.035156 -1.785156 3.914062 -3.035156 3.125 -4.640625 C 2.34375 -6.253906 1.953125 -8.128906 1.953125 -10.265625 C 1.953125 -12.398438 2.34375 -14.285156 3.125 -15.921875 C 3.914062 -17.554688 5.015625 -18.832031 6.421875 -19.75 C 7.828125 -20.675781 9.472656 -21.140625 11.359375 -21.140625 C 12.441406 -21.140625 13.507812 -20.957031 14.5625 -20.59375 C 15.625 -20.226562 16.585938 -19.640625 17.453125 -18.828125 C 18.328125 -18.023438 19.023438 -16.957031 19.546875 -15.625 C 20.066406 -14.289062 20.328125 -12.648438 20.328125 -10.703125 L 20.328125 -9.34375 L 5.171875 -9.34375 C 5.242188 -7.113281 5.875 -5.40625 7.0625 -4.21875 C 8.257812 -3.03125 9.800781 -2.4375 11.6875 -2.4375 C 12.9375 -2.4375 14.015625 -2.707031 14.921875 -3.25 C 15.828125 -3.800781 16.484375 -4.617188 16.890625 -5.703125 L 20 -4.828125 C 19.507812 -3.253906 18.53125 -1.984375 17.0625 -1.015625 C 15.59375 -0.046875 13.800781 0.4375 11.6875 0.4375 Z M 5.171875 -12.109375 L 17.0625 -12.109375 C 17.0625 -13.878906 16.546875 -15.34375 15.515625 -16.5 C 14.484375 -17.664062 13.097656 -18.25 11.359375 -18.25 C 10.128906 -18.25 9.066406 -17.960938 8.171875 -17.390625 C 7.273438 -16.828125 6.566406 -16.078125 6.046875 -15.140625 C 5.535156 -14.203125 5.242188 -13.191406 5.171875 -12.109375 Z M 5.171875 -12.109375 "/></g></g></g><g fill="#000000" fill-opacity="1"><g transform="translate(293.706651, 467.62005)"><g><path d="M 17.71875 -16.1875 L 14.828125 -15.375 C 14.546875 -16.101562 14.070312 -16.78125 13.40625 -17.40625 C 12.75 -18.039062 11.722656 -18.359375 10.328125 -18.359375 C 9.046875 -18.359375 7.984375 -18.066406 7.140625 -17.484375 C 6.296875 -16.898438 5.875 -16.160156 5.875 -15.265625 C 5.875 -14.472656 6.160156 -13.84375 6.734375 -13.375 C 7.316406 -12.914062 8.222656 -12.53125 9.453125 -12.21875 L 12.546875 -11.46875 C 16.242188 -10.5625 18.09375 -8.675781 18.09375 -5.8125 C 18.09375 -4.613281 17.75 -3.546875 17.0625 -2.609375 C 16.382812 -1.671875 15.429688 -0.925781 14.203125 -0.375 C 12.984375 0.164062 11.5625 0.4375 9.9375 0.4375 C 7.8125 0.4375 6.050781 -0.0234375 4.65625 -0.953125 C 3.257812 -1.878906 2.378906 -3.226562 2.015625 -5 L 5.046875 -5.765625 C 5.617188 -3.515625 7.234375 -2.390625 9.890625 -2.390625 C 11.378906 -2.390625 12.566406 -2.707031 13.453125 -3.34375 C 14.335938 -3.988281 14.78125 -4.757812 14.78125 -5.65625 C 14.78125 -7.125 13.75 -8.097656 11.6875 -8.578125 L 8.203125 -9.40625 C 6.296875 -9.851562 4.894531 -10.550781 4 -11.5 C 3.101562 -12.457031 2.65625 -13.660156 2.65625 -15.109375 C 2.65625 -16.285156 2.988281 -17.328125 3.65625 -18.234375 C 4.320312 -19.140625 5.234375 -19.847656 6.390625 -20.359375 C 7.546875 -20.878906 8.859375 -21.140625 10.328125 -21.140625 C 12.390625 -21.140625 14.007812 -20.6875 15.1875 -19.78125 C 16.375 -18.875 17.21875 -17.675781 17.71875 -16.1875 Z M 17.71875 -16.1875 "/></g></g></g><g fill="#000000" fill-opacity="1"><g transform="translate(75.358372, 159.556429)"><g/></g></g><g fill="#000000" fill-opacity="1"><g transform="translate(91.362816, 159.556429)"><g><path d="M 4.359375 0 L 4.359375 -50.078125 L 24.40625 -50.078125 C 29.925781 -50.078125 34.078125 -48.875 36.859375 -46.46875 C 39.640625 -44.0625 41.03125 -40.984375 41.03125 -37.234375 C 41.03125 -34.285156 40.171875 -31.898438 38.453125 -30.078125 C 36.742188 -28.265625 34.585938 -27.066406 31.984375 -26.484375 L 31.984375 -26 C 33.890625 -25.914062 35.675781 -25.375 37.34375 -24.375 C 39.019531 -23.382812 40.378906 -22 41.421875 -20.21875 C 42.460938 -18.445312 42.984375 -16.320312 42.984375 -13.84375 C 42.984375 -11.1875 42.328125 -8.8125 41.015625 -6.71875 C 39.703125 -4.632812 37.765625 -2.992188 35.203125 -1.796875 C 32.648438 -0.597656 29.5 0 25.75 0 Z M 14.9375 -8.65625 L 23.578125 -8.65625 C 26.535156 -8.65625 28.6875 -9.222656 30.03125 -10.359375 C 31.382812 -11.503906 32.0625 -13.015625 32.0625 -14.890625 C 32.0625 -16.960938 31.320312 -18.65625 29.84375 -19.96875 C 28.363281 -21.289062 26.351562 -21.953125 23.8125 -21.953125 L 14.9375 -21.953125 Z M 14.9375 -29.125 L 22.796875 -29.125 C 24.960938 -29.125 26.757812 -29.6875 28.1875 -30.8125 C 29.625 -31.945312 30.34375 -33.503906 30.34375 -35.484375 C 30.34375 -37.296875 29.703125 -38.753906 28.421875 -39.859375 C 27.140625 -40.960938 25.328125 -41.515625 22.984375 -41.515625 L 14.9375 -41.515625 Z M 14.9375 -29.125 "/></g></g></g><g fill="#000000" fill-opacity="1"><g transform="translate(136.86985, 159.556429)"><g><path d="M 10.21875 14.625 C 8.738281 14.625 7.472656 14.492188 6.421875 14.234375 C 5.367188 13.984375 4.550781 13.726562 3.96875 13.46875 L 6.3125 5.40625 C 8.15625 5.957031 9.707031 6.101562 10.96875 5.84375 C 12.226562 5.582031 13.226562 4.597656 13.96875 2.890625 L 14.640625 1.078125 L 1.171875 -37.5625 L 12.125 -37.5625 L 19.90625 -9.984375 L 20.296875 -9.984375 L 28.140625 -37.5625 L 39.171875 -37.5625 L 24.5 4.296875 C 23.4375 7.296875 21.742188 9.765625 19.421875 11.703125 C 17.097656 13.648438 14.03125 14.625 10.21875 14.625 Z M 10.21875 14.625 "/></g></g></g><g fill="#000000" fill-opacity="1"><g transform="translate(177.217275, 159.556429)"><g/></g></g><g fill="#000000" fill-opacity="1"><g transform="translate(193.185075, 159.556429)"><g><path d="M 48.53125 -32.546875 L 37.828125 -32.546875 C 37.421875 -35.296875 36.242188 -37.457031 34.296875 -39.03125 C 32.359375 -40.613281 29.941406 -41.40625 27.046875 -41.40625 C 23.160156 -41.40625 20.046875 -39.976562 17.703125 -37.125 C 15.367188 -34.28125 14.203125 -30.253906 14.203125 -25.046875 C 14.203125 -19.691406 15.378906 -15.625 17.734375 -12.84375 C 20.097656 -10.070312 23.175781 -8.6875 26.96875 -8.6875 C 29.789062 -8.6875 32.179688 -9.421875 34.140625 -10.890625 C 36.097656 -12.367188 37.328125 -14.441406 37.828125 -17.109375 L 48.53125 -17.0625 C 48.164062 -14 47.078125 -11.113281 45.265625 -8.40625 C 43.453125 -5.707031 40.992188 -3.515625 37.890625 -1.828125 C 34.785156 -0.148438 31.085938 0.6875 26.796875 0.6875 C 22.328125 0.6875 18.335938 -0.320312 14.828125 -2.34375 C 11.316406 -4.363281 8.546875 -7.289062 6.515625 -11.125 C 4.484375 -14.957031 3.46875 -19.597656 3.46875 -25.046875 C 3.46875 -30.503906 4.492188 -35.144531 6.546875 -38.96875 C 8.609375 -42.800781 11.398438 -45.722656 14.921875 -47.734375 C 18.441406 -49.753906 22.398438 -50.765625 26.796875 -50.765625 C 30.660156 -50.765625 34.144531 -50.050781 37.25 -48.625 C 40.351562 -47.195312 42.894531 -45.125 44.875 -42.40625 C 46.863281 -39.695312 48.082031 -36.410156 48.53125 -32.546875 Z M 48.53125 -32.546875 "/></g></g></g><g fill="#000000" fill-opacity="1"><g transform="translate(244.976504, 159.556429)"><g><path d="M 14.875 0.703125 C 11.28125 0.703125 8.300781 -0.234375 5.9375 -2.109375 C 3.570312 -3.984375 2.390625 -6.773438 2.390625 -10.484375 C 2.390625 -13.296875 3.050781 -15.5 4.375 -17.09375 C 5.695312 -18.6875 7.425781 -19.851562 9.5625 -20.59375 C 11.707031 -21.34375 14.019531 -21.832031 16.5 -22.0625 C 19.757812 -22.382812 22.09375 -22.722656 23.5 -23.078125 C 24.90625 -23.441406 25.609375 -24.226562 25.609375 -25.4375 L 25.609375 -25.578125 C 25.609375 -27.128906 25.117188 -28.328125 24.140625 -29.171875 C 23.171875 -30.015625 21.800781 -30.4375 20.03125 -30.4375 C 18.15625 -30.4375 16.660156 -30.03125 15.546875 -29.21875 C 14.441406 -28.40625 13.707031 -27.367188 13.34375 -26.109375 L 3.71875 -26.890625 C 4.4375 -30.316406 6.21875 -33.03125 9.0625 -35.03125 C 11.90625 -37.039062 15.578125 -38.046875 20.078125 -38.046875 C 22.859375 -38.046875 25.460938 -37.601562 27.890625 -36.71875 C 30.328125 -35.84375 32.289062 -34.472656 33.78125 -32.609375 C 35.269531 -30.742188 36.015625 -28.316406 36.015625 -25.328125 L 36.015625 0 L 26.140625 0 L 26.140625 -5.203125 L 25.84375 -5.203125 C 24.9375 -3.460938 23.570312 -2.039062 21.75 -0.9375 C 19.9375 0.15625 17.644531 0.703125 14.875 0.703125 Z M 17.84375 -6.484375 C 20.132812 -6.484375 22.007812 -7.144531 23.46875 -8.46875 C 24.9375 -9.800781 25.671875 -11.453125 25.671875 -13.421875 L 25.671875 -17.40625 C 25.265625 -17.132812 24.632812 -16.890625 23.78125 -16.671875 C 22.925781 -16.460938 22.015625 -16.28125 21.046875 -16.125 C 20.078125 -15.96875 19.207031 -15.832031 18.4375 -15.71875 C 16.613281 -15.457031 15.140625 -14.941406 14.015625 -14.171875 C 12.898438 -13.410156 12.34375 -12.296875 12.34375 -10.828125 C 12.34375 -9.398438 12.859375 -8.316406 13.890625 -7.578125 C 14.929688 -6.847656 16.25 -6.484375 17.84375 -6.484375 Z M 17.84375 -6.484375 "/></g></g></g><g fill="#000000" fill-opacity="1"><g transform="translate(284.932715, 159.556429)"><g><path d="M 24.140625 -37.5625 L 24.140625 -29.734375 L 17.0625 -29.734375 L 17.0625 -11.546875 C 17.0625 -10.109375 17.390625 -9.132812 18.046875 -8.625 C 18.703125 -8.125 19.550781 -7.875 20.59375 -7.875 C 21.082031 -7.875 21.570312 -7.914062 22.0625 -8 C 22.550781 -8.09375 22.925781 -8.164062 23.1875 -8.21875 L 24.8125 -0.46875 C 24.289062 -0.300781 23.554688 -0.109375 22.609375 0.109375 C 21.671875 0.328125 20.523438 0.460938 19.171875 0.515625 C 15.390625 0.679688 12.351562 -0.132812 10.0625 -1.9375 C 7.769531 -3.738281 6.632812 -6.484375 6.65625 -10.171875 L 6.65625 -29.734375 L 1.515625 -29.734375 L 1.515625 -37.5625 L 6.65625 -37.5625 L 6.65625 -46.5625 L 17.0625 -46.5625 L 17.0625 -37.5625 Z M 24.140625 -37.5625 "/></g></g></g><g fill="#000000" fill-opacity="1"><g transform="translate(311.684278, 159.556429)"><g><path d="M 21.28125 0.734375 C 17.425781 0.734375 14.101562 -0.0507812 11.3125 -1.625 C 8.53125 -3.195312 6.390625 -5.429688 4.890625 -8.328125 C 3.390625 -11.222656 2.640625 -14.648438 2.640625 -18.609375 C 2.640625 -22.472656 3.390625 -25.863281 4.890625 -28.78125 C 6.390625 -31.695312 8.503906 -33.96875 11.234375 -35.59375 C 13.960938 -37.226562 17.171875 -38.046875 20.859375 -38.046875 C 24.171875 -38.046875 27.15625 -37.34375 29.8125 -35.9375 C 32.476562 -34.539062 34.59375 -32.425781 36.15625 -29.59375 C 37.726562 -26.769531 38.515625 -23.226562 38.515625 -18.96875 L 38.515625 -16.109375 L 12.9375 -16.109375 L 12.9375 -16.09375 C 12.9375 -13.289062 13.703125 -11.082031 15.234375 -9.46875 C 16.765625 -7.851562 18.832031 -7.046875 21.4375 -7.046875 C 23.1875 -7.046875 24.695312 -7.410156 25.96875 -8.140625 C 27.238281 -8.878906 28.132812 -9.960938 28.65625 -11.390625 L 38.296875 -10.765625 C 37.554688 -7.273438 35.695312 -4.484375 32.71875 -2.390625 C 29.738281 -0.304688 25.925781 0.734375 21.28125 0.734375 Z M 12.9375 -22.5625 L 28.703125 -22.5625 C 28.691406 -24.800781 27.972656 -26.644531 26.546875 -28.09375 C 25.128906 -29.539062 23.289062 -30.265625 21.03125 -30.265625 C 18.71875 -30.265625 16.816406 -29.515625 15.328125 -28.015625 C 13.847656 -26.515625 13.050781 -24.695312 12.9375 -22.5625 Z M 12.9375 -22.5625 "/></g></g></g><g fill="#000000" fill-opacity="1"><g transform="translate(352.83865, 159.556429)"><g><path d="M 21.078125 14.625 C 16.023438 14.625 12.054688 13.628906 9.171875 11.640625 C 6.285156 9.648438 4.53125 7.238281 3.90625 4.40625 L 13.546875 3.109375 C 13.972656 4.117188 14.800781 5.039062 16.03125 5.875 C 17.257812 6.71875 19.023438 7.140625 21.328125 7.140625 C 23.585938 7.140625 25.453125 6.597656 26.921875 5.515625 C 28.398438 4.441406 29.140625 2.675781 29.140625 0.21875 L 29.140625 -6.65625 L 28.703125 -6.65625 C 28.023438 -5.101562 26.820312 -3.691406 25.09375 -2.421875 C 23.363281 -1.160156 21 -0.53125 18 -0.53125 C 15.175781 -0.53125 12.609375 -1.191406 10.296875 -2.515625 C 7.992188 -3.835938 6.160156 -5.851562 4.796875 -8.5625 C 3.441406 -11.269531 2.765625 -14.703125 2.765625 -18.859375 C 2.765625 -23.128906 3.457031 -26.679688 4.84375 -29.515625 C 6.238281 -32.347656 8.085938 -34.476562 10.390625 -35.90625 C 12.703125 -37.332031 15.226562 -38.046875 17.96875 -38.046875 C 20.070312 -38.046875 21.832031 -37.691406 23.25 -36.984375 C 24.664062 -36.273438 25.8125 -35.398438 26.6875 -34.359375 C 27.570312 -33.316406 28.242188 -32.28125 28.703125 -31.25 L 29.09375 -31.25 L 29.09375 -37.5625 L 39.4375 -37.5625 L 39.4375 0.359375 C 39.4375 3.472656 38.648438 6.085938 37.078125 8.203125 C 35.503906 10.328125 33.335938 11.925781 30.578125 13 C 27.828125 14.082031 24.660156 14.625 21.078125 14.625 Z M 21.296875 -8.359375 C 23.804688 -8.359375 25.75 -9.285156 27.125 -11.140625 C 28.507812 -13.003906 29.203125 -15.59375 29.203125 -18.90625 C 29.203125 -22.195312 28.515625 -24.828125 27.140625 -26.796875 C 25.773438 -28.773438 23.828125 -29.765625 21.296875 -29.765625 C 18.722656 -29.765625 16.765625 -28.75 15.421875 -26.71875 C 14.078125 -24.695312 13.40625 -22.09375 13.40625 -18.90625 C 13.40625 -15.65625 14.078125 -13.082031 15.421875 -11.1875 C 16.773438 -9.300781 18.734375 -8.359375 21.296875 -8.359375 Z M 21.296875 -8.359375 "/></g></g></g><g fill="#000000" fill-opacity="1"><g transform="translate(396.438335, 159.556429)"><g><path d="M 21.125 0.734375 C 17.332031 0.734375 14.050781 -0.0703125 11.28125 -1.6875 C 8.519531 -3.3125 6.390625 -5.578125 4.890625 -8.484375 C 3.390625 -11.398438 2.640625 -14.785156 2.640625 -18.640625 C 2.640625 -22.515625 3.390625 -25.90625 4.890625 -28.8125 C 6.390625 -31.726562 8.519531 -33.992188 11.28125 -35.609375 C 14.050781 -37.234375 17.332031 -38.046875 21.125 -38.046875 C 24.925781 -38.046875 28.207031 -37.234375 30.96875 -35.609375 C 33.726562 -33.992188 35.859375 -31.726562 37.359375 -28.8125 C 38.859375 -25.90625 39.609375 -22.515625 39.609375 -18.640625 C 39.609375 -14.785156 38.859375 -11.398438 37.359375 -8.484375 C 35.859375 -5.578125 33.726562 -3.3125 30.96875 -1.6875 C 28.207031 -0.0703125 24.925781 0.734375 21.125 0.734375 Z M 21.171875 -7.328125 C 23.753906 -7.328125 25.707031 -8.40625 27.03125 -10.5625 C 28.363281 -12.71875 29.03125 -15.429688 29.03125 -18.703125 C 29.03125 -21.984375 28.363281 -24.703125 27.03125 -26.859375 C 25.707031 -29.015625 23.753906 -30.09375 21.171875 -30.09375 C 18.546875 -30.09375 16.566406 -29.015625 15.234375 -26.859375 C 13.898438 -24.703125 13.234375 -21.984375 13.234375 -18.703125 C 13.234375 -15.429688 13.898438 -12.71875 15.234375 -10.5625 C 16.566406 -8.40625 18.546875 -7.328125 21.171875 -7.328125 Z M 21.171875 -7.328125 "/></g></g></g><g fill="#000000" fill-opacity="1"><g transform="translate(438.693108, 159.556429)"><g><path d="M 4.15625 0 L 4.15625 -37.5625 L 14.25 -37.5625 L 14.25 -31 L 14.640625 -31 C 15.328125 -33.332031 16.472656 -35.097656 18.078125 -36.296875 C 19.679688 -37.492188 21.546875 -38.09375 23.671875 -38.09375 C 24.679688 -38.09375 25.617188 -37.96875 26.484375 -37.71875 C 27.347656 -37.476562 28.125 -37.148438 28.8125 -36.734375 L 25.671875 -28.125 C 25.179688 -28.363281 24.644531 -28.566406 24.0625 -28.734375 C 23.488281 -28.910156 22.84375 -29 22.125 -29 C 20.019531 -29 18.238281 -28.28125 16.78125 -26.84375 C 15.320312 -25.414062 14.585938 -23.550781 14.578125 -21.25 L 14.578125 0 Z M 4.15625 0 "/></g></g></g><g fill="#000000" fill-opacity="1"><g transform="translate(468.207869, 159.556429)"><g><path d="M 4.15625 0 L 4.15625 -37.5625 L 14.578125 -37.5625 L 14.578125 0 Z M 9.390625 -42.40625 C 7.859375 -42.40625 6.535156 -42.921875 5.421875 -43.953125 C 4.316406 -44.984375 3.765625 -46.226562 3.765625 -47.6875 C 3.765625 -49.132812 4.316406 -50.367188 5.421875 -51.390625 C 6.535156 -52.421875 7.859375 -52.9375 9.390625 -52.9375 C 10.929688 -52.9375 12.253906 -52.421875 13.359375 -51.390625 C 14.472656 -50.367188 15.03125 -49.132812 15.03125 -47.6875 C 15.03125 -46.226562 14.472656 -44.984375 13.359375 -43.953125 C 12.253906 -42.921875 10.929688 -42.40625 9.390625 -42.40625 Z M 9.390625 -42.40625 "/></g></g></g><g fill="#000000" fill-opacity="1"><g transform="translate(486.938866, 159.556429)"><g><path d="M 21.28125 0.734375 C 17.425781 0.734375 14.101562 -0.0507812 11.3125 -1.625 C 8.53125 -3.195312 6.390625 -5.429688 4.890625 -8.328125 C 3.390625 -11.222656 2.640625 -14.648438 2.640625 -18.609375 C 2.640625 -22.472656 3.390625 -25.863281 4.890625 -28.78125 C 6.390625 -31.695312 8.503906 -33.96875 11.234375 -35.59375 C 13.960938 -37.226562 17.171875 -38.046875 20.859375 -38.046875 C 24.171875 -38.046875 27.15625 -37.34375 29.8125 -35.9375 C 32.476562 -34.539062 34.59375 -32.425781 36.15625 -29.59375 C 37.726562 -26.769531 38.515625 -23.226562 38.515625 -18.96875 L 38.515625 -16.109375 L 12.9375 -16.109375 L 12.9375 -16.09375 C 12.9375 -13.289062 13.703125 -11.082031 15.234375 -9.46875 C 16.765625 -7.851562 18.832031 -7.046875 21.4375 -7.046875 C 23.1875 -7.046875 24.695312 -7.410156 25.96875 -8.140625 C 27.238281 -8.878906 28.132812 -9.960938 28.65625 -11.390625 L 38.296875 -10.765625 C 37.554688 -7.273438 35.695312 -4.484375 32.71875 -2.390625 C 29.738281 -0.304688 25.925781 0.734375 21.28125 0.734375 Z M 12.9375 -22.5625 L 28.703125 -22.5625 C 28.691406 -24.800781 27.972656 -26.644531 26.546875 -28.09375 C 25.128906 -29.539062 23.289062 -30.265625 21.03125 -30.265625 C 18.71875 -30.265625 16.816406 -29.515625 15.328125 -28.015625 C 13.847656 -26.515625 13.050781 -24.695312 12.9375 -22.5625 Z M 12.9375 -22.5625 "/></g></g></g><g fill="#000000" fill-opacity="1"><g transform="translate(528.093238, 159.556429)"><g><path d="M 35.40625 -26.84375 L 25.875 -26.265625 C 25.613281 -27.472656 24.953125 -28.503906 23.890625 -29.359375 C 22.828125 -30.222656 21.394531 -30.65625 19.59375 -30.65625 C 17.976562 -30.65625 16.609375 -30.316406 15.484375 -29.640625 C 14.367188 -28.972656 13.820312 -28.078125 13.84375 -26.953125 C 13.820312 -26.054688 14.175781 -25.296875 14.90625 -24.671875 C 15.632812 -24.054688 16.867188 -23.5625 18.609375 -23.1875 L 25.40625 -21.8125 C 32.625 -20.332031 36.242188 -16.941406 36.265625 -11.640625 C 36.265625 -9.179688 35.539062 -7.019531 34.09375 -5.15625 C 32.65625 -3.300781 30.679688 -1.851562 28.171875 -0.8125 C 25.660156 0.21875 22.78125 0.734375 19.53125 0.734375 C 14.5625 0.734375 10.601562 -0.300781 7.65625 -2.375 C 4.707031 -4.457031 2.988281 -7.289062 2.5 -10.875 L 12.734375 -11.421875 C 13.066406 -9.890625 13.820312 -8.734375 15 -7.953125 C 16.1875 -7.171875 17.707031 -6.78125 19.5625 -6.78125 C 21.382812 -6.78125 22.851562 -7.132812 23.96875 -7.84375 C 25.09375 -8.5625 25.660156 -9.476562 25.671875 -10.59375 C 25.628906 -12.445312 24.023438 -13.691406 20.859375 -14.328125 L 14.359375 -15.625 C 7.085938 -17.070312 3.46875 -20.648438 3.5 -26.359375 C 3.476562 -29.972656 4.921875 -32.820312 7.828125 -34.90625 C 10.742188 -37 14.609375 -38.046875 19.421875 -38.046875 C 24.160156 -38.046875 27.894531 -37.039062 30.625 -35.03125 C 33.351562 -33.03125 34.945312 -30.300781 35.40625 -26.84375 Z M 35.40625 -26.84375 "/></g></g></g></svg>