<svg xmlns="http://www.w3.org/2000/svg" xmlns:xlink="http://www.w3.org/1999/xlink" width="1280" zoomAndPan="magnify" viewBox="0 0 960 599.999999" height="800" preserveAspectRatio="xMidYMid meet" version="1.0"><defs><filter x="0%" y="0%" width="100%" height="100%" id="486acb7a43"><feColorMatrix values="0 0 0 0 1 0 0 0 0 1 0 0 0 0 1 0 0 0 1 0" color-interpolation-filters="sRGB"/></filter><g/><clipPath id="f91c0f0b12"><path d="M 665.597656 275.28125 L 937.375 275.28125 L 937.375 569.886719 L 665.597656 569.886719 Z M 665.597656 275.28125 " clip-rule="nonzero"/></clipPath><clipPath id="35c304f277"><path d="M 674.597656 275.28125 L 928.375 275.28125 C 930.761719 275.28125 933.050781 276.230469 934.738281 277.917969 C 936.425781 279.605469 937.375 281.894531 937.375 284.28125 L 937.375 560.886719 C 937.375 563.273438 936.425781 565.5625 934.738281 567.25 C 933.050781 568.9375 930.761719 569.886719 928.375 569.886719 L 674.597656 569.886719 C 672.210938 569.886719 669.921875 568.9375 668.234375 567.25 C 666.546875 565.5625 665.597656 563.273438 665.597656 560.886719 L 665.597656 284.28125 C 665.597656 279.3125 669.625 275.28125 674.597656 275.28125 Z M 674.597656 275.28125 " clip-rule="nonzero"/></clipPath><clipPath id="2f48c2a405"><path d="M 578.527344 249.113281 L 587.527344 249.113281 L 587.527344 254 L 578.527344 254 Z M 578.527344 249.113281 " clip-rule="nonzero"/></clipPath><clipPath id="b6d1fd5fc4"><path d="M 112 74 L 910.457031 74 L 910.457031 436 L 112 436 Z M 112 74 " clip-rule="nonzero"/></clipPath><mask id="4bd6e9bcc5"><g filter="url(#486acb7a43)"><rect x="-96" width="1152" fill="#000000" y="-60" height="719.999999" fill-opacity="0.25"/></g></mask><clipPath id="44d036ffe2"><path d="M 0.078125 360 L 798.457031 360 L 798.457031 361.839844 L 0.078125 361.839844 Z M 0.078125 360 " clip-rule="nonzero"/></clipPath><clipPath id="2330daec5e"><path d="M 0.078125 270 L 798.457031 270 L 798.457031 272 L 0.078125 272 Z M 0.078125 270 " clip-rule="nonzero"/></clipPath><clipPath id="d28dfc15b8"><path d="M 0.078125 180 L 798.457031 180 L 798.457031 182 L 0.078125 182 Z M 0.078125 180 " clip-rule="nonzero"/></clipPath><clipPath id="a53165ad4d"><path d="M 0.078125 90 L 798.457031 90 L 798.457031 92 L 0.078125 92 Z M 0.078125 90 " clip-rule="nonzero"/></clipPath><clipPath id="9c3aca5a92"><path d="M 0.078125 0.160156 L 798.457031 0.160156 L 798.457031 2 L 0.078125 2 Z M 0.078125 0.160156 " clip-rule="nonzero"/></clipPath><clipPath id="0495edfea7"><rect x="0" width="799" y="0" height="362"/></clipPath><clipPath id="e2216d8a77"><path d="M 112 524 L 910.457031 524 L 910.457031 526 L 112 526 Z M 112 524 " clip-rule="nonzero"/></clipPath><mask id="bb7de64733"><g filter="url(#486acb7a43)"><rect x="-96" width="1152" fill="#000000" y="-60" height="719.999999" fill-opacity="0.6"/></g></mask><clipPath id="1d5d4d8fea"><path d="M 0.078125 0.160156 L 798.457031 0.160156 L 798.457031 1.839844 L 0.078125 1.839844 Z M 0.078125 0.160156 " clip-rule="nonzero"/></clipPath><clipPath id="ecdd95b7f4"><rect x="0" width="799" y="0" height="2"/></clipPath><clipPath id="36a968f544"><path d="M 112.839844 453 L 296.992188 453 L 296.992188 525 L 112.839844 525 Z M 112.839844 453 " clip-rule="nonzero"/></clipPath><clipPath id="a46f20ecab"><path d="M 112.839844 399 L 296.992188 399 L 296.992188 453 L 112.839844 453 Z M 112.839844 399 " clip-rule="nonzero"/></clipPath><clipPath id="d4977114db"><path d="M 112.839844 219 L 296.992188 219 L 296.992188 399 L 112.839844 399 Z M 112.839844 219 " clip-rule="nonzero"/></clipPath><clipPath id="2b48fa3010"><path d="M 317.453125 426 L 501.605469 426 L 501.605469 525 L 317.453125 525 Z M 317.453125 426 " clip-rule="nonzero"/></clipPath><clipPath id="62e3b4c918"><path d="M 317.453125 390 L 501.605469 390 L 501.605469 426 L 317.453125 426 Z M 317.453125 390 " clip-rule="nonzero"/></clipPath><clipPath id="e79b300e9c"><path d="M 317.453125 192 L 501.605469 192 L 501.605469 390 L 317.453125 390 Z M 317.453125 192 " clip-rule="nonzero"/></clipPath><clipPath id="bea98f81db"><path d="M 522.066406 507 L 706.214844 507 L 706.214844 525 L 522.066406 525 Z M 522.066406 507 " clip-rule="nonzero"/></clipPath><clipPath id="85c418f249"><path d="M 522.066406 444 L 706.214844 444 L 706.214844 507 L 522.066406 507 Z M 522.066406 444 " clip-rule="nonzero"/></clipPath><clipPath id="d00af2e018"><path d="M 522.066406 363 L 706.214844 363 L 706.214844 444 L 522.066406 444 Z M 522.066406 363 " clip-rule="nonzero"/></clipPath><clipPath id="9650f92463"><path d="M 522.066406 93 L 706.214844 93 L 706.214844 363 L 522.066406 363 Z M 522.066406 93 " clip-rule="nonzero"/></clipPath><clipPath id="c29058ed87"><path d="M 726.675781 399 L 910.457031 399 L 910.457031 525 L 726.675781 525 Z M 726.675781 399 " clip-rule="nonzero"/></clipPath><clipPath id="33531f1c37"><path d="M 726.675781 327 L 910.457031 327 L 910.457031 399 L 726.675781 399 Z M 726.675781 327 " clip-rule="nonzero"/></clipPath><clipPath id="84b0642790"><path d="M 726.675781 237 L 910.457031 237 L 910.457031 327 L 726.675781 327 Z M 726.675781 237 " clip-rule="nonzero"/></clipPath></defs><g clip-path="url(#f91c0f0b12)"><g clip-path="url(#35c304f277)"><path fill="#ffffff" d="M 665.597656 275.28125 L 937.375 275.28125 L 937.375 569.886719 L 665.597656 569.886719 Z M 665.597656 275.28125 " fill-opacity="1" fill-rule="nonzero"/></g></g><g clip-path="url(#2f48c2a405)"><path fill="#606060" d="M 582.679688 253.839844 C 582.757812 253.921875 582.855469 253.960938 582.972656 253.960938 C 583.085938 253.960938 583.183594 253.921875 583.261719 253.839844 L 587.253906 249.851562 C 587.335938 249.769531 587.375 249.671875 587.375 249.558594 C 587.375 249.441406 587.335938 249.34375 587.253906 249.261719 C 587.175781 249.183594 587.078125 249.140625 586.960938 249.140625 C 586.847656 249.144531 586.75 249.183594 586.667969 249.265625 L 582.972656 252.964844 L 579.273438 249.265625 C 579.191406 249.191406 579.097656 249.152344 578.984375 249.15625 C 578.875 249.15625 578.777344 249.199219 578.699219 249.277344 C 578.621094 249.355469 578.582031 249.449219 578.578125 249.5625 C 578.578125 249.671875 578.613281 249.769531 578.691406 249.851562 Z M 582.679688 253.839844 " fill-opacity="1" fill-rule="nonzero"/></g><g fill="#000000" fill-opacity="1"><g transform="translate(166.572547, 548.137509)"><g><path d="M 12.484375 -6.46875 C 12.484375 -5.25 12.285156 -4.175781 11.890625 -3.25 C 11.492188 -2.332031 10.953125 -1.59375 10.265625 -1.03125 L 11.953125 1.21875 L 10.234375 1.21875 L 9.09375 -0.296875 C 8.382812 0.015625 7.609375 0.171875 6.765625 0.171875 C 5.660156 0.171875 4.675781 -0.09375 3.8125 -0.625 C 2.957031 -1.164062 2.285156 -1.929688 1.796875 -2.921875 C 1.304688 -3.921875 1.0625 -5.101562 1.0625 -6.46875 C 1.0625 -7.832031 1.304688 -9.007812 1.796875 -10 C 2.285156 -10.988281 2.957031 -11.753906 3.8125 -12.296875 C 4.675781 -12.835938 5.660156 -13.109375 6.765625 -13.109375 C 7.867188 -13.109375 8.847656 -12.835938 9.703125 -12.296875 C 10.566406 -11.753906 11.242188 -10.988281 11.734375 -10 C 12.234375 -9.007812 12.484375 -7.832031 12.484375 -6.46875 Z M 6.265625 -4.046875 L 7.984375 -4.046875 L 9.359375 -2.234375 C 9.847656 -2.660156 10.238281 -3.226562 10.53125 -3.9375 C 10.820312 -4.644531 10.96875 -5.488281 10.96875 -6.46875 C 10.96875 -7.582031 10.78125 -8.523438 10.40625 -9.296875 C 10.03125 -10.066406 9.523438 -10.648438 8.890625 -11.046875 C 8.253906 -11.441406 7.546875 -11.640625 6.765625 -11.640625 C 5.984375 -11.640625 5.273438 -11.441406 4.640625 -11.046875 C 4.003906 -10.648438 3.5 -10.066406 3.125 -9.296875 C 2.757812 -8.523438 2.578125 -7.582031 2.578125 -6.46875 C 2.578125 -5.34375 2.757812 -4.394531 3.125 -3.625 C 3.5 -2.851562 4.003906 -2.269531 4.640625 -1.875 C 5.273438 -1.476562 5.984375 -1.28125 6.765625 -1.28125 C 7.265625 -1.28125 7.738281 -1.363281 8.1875 -1.53125 Z M 6.265625 -4.046875 "/></g></g></g><g fill="#000000" fill-opacity="1"><g transform="translate(180.098478, 548.137509)"><g><path d="M 7.46875 -3.96875 L 7.46875 -9.703125 L 8.96875 -9.703125 L 8.96875 0 L 7.46875 0 L 7.46875 -1.640625 L 7.375 -1.640625 C 7.144531 -1.148438 6.789062 -0.734375 6.3125 -0.390625 C 5.832031 -0.046875 5.226562 0.125 4.5 0.125 C 3.582031 0.125 2.828125 -0.171875 2.234375 -0.765625 C 1.648438 -1.367188 1.359375 -2.289062 1.359375 -3.53125 L 1.359375 -9.703125 L 2.859375 -9.703125 L 2.859375 -3.640625 C 2.859375 -2.929688 3.054688 -2.363281 3.453125 -1.9375 C 3.847656 -1.519531 4.351562 -1.3125 4.96875 -1.3125 C 5.34375 -1.3125 5.722656 -1.40625 6.109375 -1.59375 C 6.492188 -1.78125 6.816406 -2.070312 7.078125 -2.46875 C 7.335938 -2.863281 7.46875 -3.363281 7.46875 -3.96875 Z M 7.46875 -3.96875 "/></g></g></g><g fill="#000000" fill-opacity="1"><g transform="translate(190.419572, 548.137509)"><g><path d="M 4.21875 0.234375 C 3.601562 0.234375 3.046875 0.117188 2.546875 -0.109375 C 2.046875 -0.347656 1.644531 -0.691406 1.34375 -1.140625 C 1.050781 -1.585938 0.90625 -2.125 0.90625 -2.75 C 0.90625 -3.3125 1.015625 -3.765625 1.234375 -4.109375 C 1.453125 -4.453125 1.742188 -4.722656 2.109375 -4.921875 C 2.484375 -5.117188 2.890625 -5.265625 3.328125 -5.359375 C 3.773438 -5.460938 4.222656 -5.546875 4.671875 -5.609375 C 5.265625 -5.679688 5.742188 -5.738281 6.109375 -5.78125 C 6.472656 -5.820312 6.738281 -5.890625 6.90625 -5.984375 C 7.082031 -6.078125 7.171875 -6.242188 7.171875 -6.484375 L 7.171875 -6.546875 C 7.171875 -7.160156 7 -7.640625 6.65625 -7.984375 C 6.320312 -8.335938 5.8125 -8.515625 5.125 -8.515625 C 4.414062 -8.515625 3.859375 -8.359375 3.453125 -8.046875 C 3.046875 -7.734375 2.757812 -7.398438 2.59375 -7.046875 L 1.1875 -7.546875 C 1.4375 -8.140625 1.769531 -8.597656 2.1875 -8.921875 C 2.613281 -9.253906 3.078125 -9.488281 3.578125 -9.625 C 4.085938 -9.757812 4.585938 -9.828125 5.078125 -9.828125 C 5.390625 -9.828125 5.75 -9.789062 6.15625 -9.71875 C 6.5625 -9.644531 6.953125 -9.492188 7.328125 -9.265625 C 7.710938 -9.035156 8.03125 -8.691406 8.28125 -8.234375 C 8.53125 -7.773438 8.65625 -7.160156 8.65625 -6.390625 L 8.65625 0 L 7.171875 0 L 7.171875 -1.3125 L 7.09375 -1.3125 C 7 -1.101562 6.832031 -0.878906 6.59375 -0.640625 C 6.351562 -0.398438 6.035156 -0.191406 5.640625 -0.015625 C 5.253906 0.148438 4.78125 0.234375 4.21875 0.234375 Z M 4.4375 -1.109375 C 5.03125 -1.109375 5.53125 -1.222656 5.9375 -1.453125 C 6.34375 -1.691406 6.648438 -1.992188 6.859375 -2.359375 C 7.066406 -2.722656 7.171875 -3.109375 7.171875 -3.515625 L 7.171875 -4.875 C 7.109375 -4.800781 6.96875 -4.734375 6.75 -4.671875 C 6.539062 -4.609375 6.296875 -4.550781 6.015625 -4.5 C 5.742188 -4.457031 5.476562 -4.421875 5.21875 -4.390625 C 4.96875 -4.359375 4.757812 -4.332031 4.59375 -4.3125 C 4.207031 -4.269531 3.847656 -4.191406 3.515625 -4.078125 C 3.179688 -3.960938 2.910156 -3.796875 2.703125 -3.578125 C 2.503906 -3.359375 2.40625 -3.054688 2.40625 -2.671875 C 2.40625 -2.160156 2.597656 -1.769531 2.984375 -1.5 C 3.367188 -1.238281 3.851562 -1.109375 4.4375 -1.109375 Z M 4.4375 -1.109375 "/></g></g></g><g fill="#000000" fill-opacity="1"><g transform="translate(200.437844, 548.137509)"><g><path d="M 1.359375 0 L 1.359375 -9.703125 L 2.796875 -9.703125 L 2.796875 -8.234375 L 2.90625 -8.234375 C 3.082031 -8.710938 3.398438 -9.097656 3.859375 -9.390625 C 4.328125 -9.691406 4.851562 -9.84375 5.4375 -9.84375 C 5.539062 -9.84375 5.675781 -9.84375 5.84375 -9.84375 C 6.007812 -9.84375 6.132812 -9.835938 6.21875 -9.828125 L 6.21875 -8.3125 C 6.164062 -8.320312 6.046875 -8.335938 5.859375 -8.359375 C 5.679688 -8.390625 5.492188 -8.40625 5.296875 -8.40625 C 4.597656 -8.40625 4.015625 -8.191406 3.546875 -7.765625 C 3.085938 -7.335938 2.859375 -6.796875 2.859375 -6.140625 L 2.859375 0 Z M 1.359375 0 "/></g></g></g><g fill="#000000" fill-opacity="1"><g transform="translate(207.655358, 548.137509)"><g><path d="M 5.578125 -9.703125 L 5.578125 -8.4375 L 3.515625 -8.4375 L 3.515625 -2.78125 C 3.515625 -2.351562 3.578125 -2.035156 3.703125 -1.828125 C 3.828125 -1.617188 3.984375 -1.476562 4.171875 -1.40625 C 4.367188 -1.34375 4.578125 -1.3125 4.796875 -1.3125 C 4.960938 -1.3125 5.097656 -1.320312 5.203125 -1.34375 C 5.304688 -1.363281 5.390625 -1.378906 5.453125 -1.390625 L 5.765625 -0.046875 C 5.660156 -0.015625 5.515625 0.0195312 5.328125 0.0625 C 5.148438 0.101562 4.921875 0.125 4.640625 0.125 C 4.222656 0.125 3.8125 0.0351562 3.40625 -0.140625 C 3.007812 -0.328125 2.675781 -0.601562 2.40625 -0.96875 C 2.144531 -1.34375 2.015625 -1.8125 2.015625 -2.375 L 2.015625 -8.4375 L 0.5625 -8.4375 L 0.5625 -9.703125 L 2.015625 -9.703125 L 2.015625 -12.015625 L 3.515625 -12.015625 L 3.515625 -9.703125 Z M 5.578125 -9.703125 "/></g></g></g><g fill="#000000" fill-opacity="1"><g transform="translate(214.014507, 548.137509)"><g><path d="M 5.4375 0.203125 C 4.5 0.203125 3.691406 -0.00390625 3.015625 -0.421875 C 2.335938 -0.835938 1.816406 -1.414062 1.453125 -2.15625 C 1.085938 -2.90625 0.90625 -3.78125 0.90625 -4.78125 C 0.90625 -5.769531 1.085938 -6.644531 1.453125 -7.40625 C 1.816406 -8.164062 2.328125 -8.757812 2.984375 -9.1875 C 3.640625 -9.613281 4.40625 -9.828125 5.28125 -9.828125 C 5.78125 -9.828125 6.273438 -9.738281 6.765625 -9.5625 C 7.265625 -9.394531 7.710938 -9.125 8.109375 -8.75 C 8.515625 -8.375 8.835938 -7.875 9.078125 -7.25 C 9.328125 -6.632812 9.453125 -5.875 9.453125 -4.96875 L 9.453125 -4.34375 L 2.40625 -4.34375 C 2.4375 -3.3125 2.726562 -2.519531 3.28125 -1.96875 C 3.832031 -1.414062 4.550781 -1.140625 5.4375 -1.140625 C 6.019531 -1.140625 6.519531 -1.265625 6.9375 -1.515625 C 7.363281 -1.765625 7.671875 -2.144531 7.859375 -2.65625 L 9.296875 -2.25 C 9.066406 -1.519531 8.609375 -0.925781 7.921875 -0.46875 C 7.242188 -0.0195312 6.414062 0.203125 5.4375 0.203125 Z M 2.40625 -5.625 L 7.9375 -5.625 C 7.9375 -6.445312 7.691406 -7.128906 7.203125 -7.671875 C 6.722656 -8.210938 6.082031 -8.484375 5.28125 -8.484375 C 4.707031 -8.484375 4.210938 -8.347656 3.796875 -8.078125 C 3.378906 -7.816406 3.050781 -7.46875 2.8125 -7.03125 C 2.570312 -6.601562 2.4375 -6.132812 2.40625 -5.625 Z M 2.40625 -5.625 "/></g></g></g><g fill="#000000" fill-opacity="1"><g transform="translate(224.360836, 548.137509)"><g><path d="M 1.359375 0 L 1.359375 -9.703125 L 2.796875 -9.703125 L 2.796875 -8.234375 L 2.90625 -8.234375 C 3.070312 -8.710938 3.382812 -9.097656 3.84375 -9.390625 C 4.3125 -9.691406 4.84375 -9.84375 5.4375 -9.84375 C 5.695312 -9.84375 5.925781 -9.8125 6.125 -9.75 C 6.332031 -9.6875 6.515625 -9.601562 6.671875 -9.5 L 6.15625 -8.234375 C 6.050781 -8.285156 5.925781 -8.328125 5.78125 -8.359375 C 5.644531 -8.390625 5.484375 -8.40625 5.296875 -8.40625 C 4.597656 -8.40625 4.015625 -8.1875 3.546875 -7.75 C 3.085938 -7.320312 2.859375 -6.785156 2.859375 -6.140625 L 2.859375 0 Z M 1.359375 0 "/></g></g></g><g fill="#000000" fill-opacity="1"><g transform="translate(231.17427, 548.137509)"><g/></g></g><g fill="#000000" fill-opacity="1"><g transform="translate(236.170783, 548.137509)"><g><path d="M 5.484375 -12.9375 L 5.484375 0 L 3.921875 0 L 3.921875 -10.65625 L 3.8125 -10.65625 C 3.75 -10.539062 3.597656 -10.40625 3.359375 -10.25 C 3.117188 -10.101562 2.800781 -9.972656 2.40625 -9.859375 C 2.019531 -9.753906 1.582031 -9.703125 1.09375 -9.703125 L 1.09375 -11.015625 C 1.59375 -11.015625 2.023438 -11.101562 2.390625 -11.28125 C 2.753906 -11.46875 3.054688 -11.679688 3.296875 -11.921875 C 3.546875 -12.160156 3.734375 -12.378906 3.859375 -12.578125 C 3.992188 -12.773438 4.070312 -12.894531 4.09375 -12.9375 Z M 5.484375 -12.9375 "/></g></g></g><g fill="#000000" fill-opacity="1"><g transform="translate(369.356502, 548.137509)"><g><path d="M 12.484375 -6.46875 C 12.484375 -5.25 12.285156 -4.175781 11.890625 -3.25 C 11.492188 -2.332031 10.953125 -1.59375 10.265625 -1.03125 L 11.953125 1.21875 L 10.234375 1.21875 L 9.09375 -0.296875 C 8.382812 0.015625 7.609375 0.171875 6.765625 0.171875 C 5.660156 0.171875 4.675781 -0.09375 3.8125 -0.625 C 2.957031 -1.164062 2.285156 -1.929688 1.796875 -2.921875 C 1.304688 -3.921875 1.0625 -5.101562 1.0625 -6.46875 C 1.0625 -7.832031 1.304688 -9.007812 1.796875 -10 C 2.285156 -10.988281 2.957031 -11.753906 3.8125 -12.296875 C 4.675781 -12.835938 5.660156 -13.109375 6.765625 -13.109375 C 7.867188 -13.109375 8.847656 -12.835938 9.703125 -12.296875 C 10.566406 -11.753906 11.242188 -10.988281 11.734375 -10 C 12.234375 -9.007812 12.484375 -7.832031 12.484375 -6.46875 Z M 6.265625 -4.046875 L 7.984375 -4.046875 L 9.359375 -2.234375 C 9.847656 -2.660156 10.238281 -3.226562 10.53125 -3.9375 C 10.820312 -4.644531 10.96875 -5.488281 10.96875 -6.46875 C 10.96875 -7.582031 10.78125 -8.523438 10.40625 -9.296875 C 10.03125 -10.066406 9.523438 -10.648438 8.890625 -11.046875 C 8.253906 -11.441406 7.546875 -11.640625 6.765625 -11.640625 C 5.984375 -11.640625 5.273438 -11.441406 4.640625 -11.046875 C 4.003906 -10.648438 3.5 -10.066406 3.125 -9.296875 C 2.757812 -8.523438 2.578125 -7.582031 2.578125 -6.46875 C 2.578125 -5.34375 2.757812 -4.394531 3.125 -3.625 C 3.5 -2.851562 4.003906 -2.269531 4.640625 -1.875 C 5.273438 -1.476562 5.984375 -1.28125 6.765625 -1.28125 C 7.265625 -1.28125 7.738281 -1.363281 8.1875 -1.53125 Z M 6.265625 -4.046875 "/></g></g></g><g fill="#000000" fill-opacity="1"><g transform="translate(382.882433, 548.137509)"><g><path d="M 7.46875 -3.96875 L 7.46875 -9.703125 L 8.96875 -9.703125 L 8.96875 0 L 7.46875 0 L 7.46875 -1.640625 L 7.375 -1.640625 C 7.144531 -1.148438 6.789062 -0.734375 6.3125 -0.390625 C 5.832031 -0.046875 5.226562 0.125 4.5 0.125 C 3.582031 0.125 2.828125 -0.171875 2.234375 -0.765625 C 1.648438 -1.367188 1.359375 -2.289062 1.359375 -3.53125 L 1.359375 -9.703125 L 2.859375 -9.703125 L 2.859375 -3.640625 C 2.859375 -2.929688 3.054688 -2.363281 3.453125 -1.9375 C 3.847656 -1.519531 4.351562 -1.3125 4.96875 -1.3125 C 5.34375 -1.3125 5.722656 -1.40625 6.109375 -1.59375 C 6.492188 -1.78125 6.816406 -2.070312 7.078125 -2.46875 C 7.335938 -2.863281 7.46875 -3.363281 7.46875 -3.96875 Z M 7.46875 -3.96875 "/></g></g></g><g fill="#000000" fill-opacity="1"><g transform="translate(393.203527, 548.137509)"><g><path d="M 4.21875 0.234375 C 3.601562 0.234375 3.046875 0.117188 2.546875 -0.109375 C 2.046875 -0.347656 1.644531 -0.691406 1.34375 -1.140625 C 1.050781 -1.585938 0.90625 -2.125 0.90625 -2.75 C 0.90625 -3.3125 1.015625 -3.765625 1.234375 -4.109375 C 1.453125 -4.453125 1.742188 -4.722656 2.109375 -4.921875 C 2.484375 -5.117188 2.890625 -5.265625 3.328125 -5.359375 C 3.773438 -5.460938 4.222656 -5.546875 4.671875 -5.609375 C 5.265625 -5.679688 5.742188 -5.738281 6.109375 -5.78125 C 6.472656 -5.820312 6.738281 -5.890625 6.90625 -5.984375 C 7.082031 -6.078125 7.171875 -6.242188 7.171875 -6.484375 L 7.171875 -6.546875 C 7.171875 -7.160156 7 -7.640625 6.65625 -7.984375 C 6.320312 -8.335938 5.8125 -8.515625 5.125 -8.515625 C 4.414062 -8.515625 3.859375 -8.359375 3.453125 -8.046875 C 3.046875 -7.734375 2.757812 -7.398438 2.59375 -7.046875 L 1.1875 -7.546875 C 1.4375 -8.140625 1.769531 -8.597656 2.1875 -8.921875 C 2.613281 -9.253906 3.078125 -9.488281 3.578125 -9.625 C 4.085938 -9.757812 4.585938 -9.828125 5.078125 -9.828125 C 5.390625 -9.828125 5.75 -9.789062 6.15625 -9.71875 C 6.5625 -9.644531 6.953125 -9.492188 7.328125 -9.265625 C 7.710938 -9.035156 8.03125 -8.691406 8.28125 -8.234375 C 8.53125 -7.773438 8.65625 -7.160156 8.65625 -6.390625 L 8.65625 0 L 7.171875 0 L 7.171875 -1.3125 L 7.09375 -1.3125 C 7 -1.101562 6.832031 -0.878906 6.59375 -0.640625 C 6.351562 -0.398438 6.035156 -0.191406 5.640625 -0.015625 C 5.253906 0.148438 4.78125 0.234375 4.21875 0.234375 Z M 4.4375 -1.109375 C 5.03125 -1.109375 5.53125 -1.222656 5.9375 -1.453125 C 6.34375 -1.691406 6.648438 -1.992188 6.859375 -2.359375 C 7.066406 -2.722656 7.171875 -3.109375 7.171875 -3.515625 L 7.171875 -4.875 C 7.109375 -4.800781 6.96875 -4.734375 6.75 -4.671875 C 6.539062 -4.609375 6.296875 -4.550781 6.015625 -4.5 C 5.742188 -4.457031 5.476562 -4.421875 5.21875 -4.390625 C 4.96875 -4.359375 4.757812 -4.332031 4.59375 -4.3125 C 4.207031 -4.269531 3.847656 -4.191406 3.515625 -4.078125 C 3.179688 -3.960938 2.910156 -3.796875 2.703125 -3.578125 C 2.503906 -3.359375 2.40625 -3.054688 2.40625 -2.671875 C 2.40625 -2.160156 2.597656 -1.769531 2.984375 -1.5 C 3.367188 -1.238281 3.851562 -1.109375 4.4375 -1.109375 Z M 4.4375 -1.109375 "/></g></g></g><g fill="#000000" fill-opacity="1"><g transform="translate(403.221799, 548.137509)"><g><path d="M 1.359375 0 L 1.359375 -9.703125 L 2.796875 -9.703125 L 2.796875 -8.234375 L 2.90625 -8.234375 C 3.082031 -8.710938 3.398438 -9.097656 3.859375 -9.390625 C 4.328125 -9.691406 4.851562 -9.84375 5.4375 -9.84375 C 5.539062 -9.84375 5.675781 -9.84375 5.84375 -9.84375 C 6.007812 -9.84375 6.132812 -9.835938 6.21875 -9.828125 L 6.21875 -8.3125 C 6.164062 -8.320312 6.046875 -8.335938 5.859375 -8.359375 C 5.679688 -8.390625 5.492188 -8.40625 5.296875 -8.40625 C 4.597656 -8.40625 4.015625 -8.191406 3.546875 -7.765625 C 3.085938 -7.335938 2.859375 -6.796875 2.859375 -6.140625 L 2.859375 0 Z M 1.359375 0 "/></g></g></g><g fill="#000000" fill-opacity="1"><g transform="translate(410.439313, 548.137509)"><g><path d="M 5.578125 -9.703125 L 5.578125 -8.4375 L 3.515625 -8.4375 L 3.515625 -2.78125 C 3.515625 -2.351562 3.578125 -2.035156 3.703125 -1.828125 C 3.828125 -1.617188 3.984375 -1.476562 4.171875 -1.40625 C 4.367188 -1.34375 4.578125 -1.3125 4.796875 -1.3125 C 4.960938 -1.3125 5.097656 -1.320312 5.203125 -1.34375 C 5.304688 -1.363281 5.390625 -1.378906 5.453125 -1.390625 L 5.765625 -0.046875 C 5.660156 -0.015625 5.515625 0.0195312 5.328125 0.0625 C 5.148438 0.101562 4.921875 0.125 4.640625 0.125 C 4.222656 0.125 3.8125 0.0351562 3.40625 -0.140625 C 3.007812 -0.328125 2.675781 -0.601562 2.40625 -0.96875 C 2.144531 -1.34375 2.015625 -1.8125 2.015625 -2.375 L 2.015625 -8.4375 L 0.5625 -8.4375 L 0.5625 -9.703125 L 2.015625 -9.703125 L 2.015625 -12.015625 L 3.515625 -12.015625 L 3.515625 -9.703125 Z M 5.578125 -9.703125 "/></g></g></g><g fill="#000000" fill-opacity="1"><g transform="translate(416.798463, 548.137509)"><g><path d="M 5.4375 0.203125 C 4.5 0.203125 3.691406 -0.00390625 3.015625 -0.421875 C 2.335938 -0.835938 1.816406 -1.414062 1.453125 -2.15625 C 1.085938 -2.90625 0.90625 -3.78125 0.90625 -4.78125 C 0.90625 -5.769531 1.085938 -6.644531 1.453125 -7.40625 C 1.816406 -8.164062 2.328125 -8.757812 2.984375 -9.1875 C 3.640625 -9.613281 4.40625 -9.828125 5.28125 -9.828125 C 5.78125 -9.828125 6.273438 -9.738281 6.765625 -9.5625 C 7.265625 -9.394531 7.710938 -9.125 8.109375 -8.75 C 8.515625 -8.375 8.835938 -7.875 9.078125 -7.25 C 9.328125 -6.632812 9.453125 -5.875 9.453125 -4.96875 L 9.453125 -4.34375 L 2.40625 -4.34375 C 2.4375 -3.3125 2.726562 -2.519531 3.28125 -1.96875 C 3.832031 -1.414062 4.550781 -1.140625 5.4375 -1.140625 C 6.019531 -1.140625 6.519531 -1.265625 6.9375 -1.515625 C 7.363281 -1.765625 7.671875 -2.144531 7.859375 -2.65625 L 9.296875 -2.25 C 9.066406 -1.519531 8.609375 -0.925781 7.921875 -0.46875 C 7.242188 -0.0195312 6.414062 0.203125 5.4375 0.203125 Z M 2.40625 -5.625 L 7.9375 -5.625 C 7.9375 -6.445312 7.691406 -7.128906 7.203125 -7.671875 C 6.722656 -8.210938 6.082031 -8.484375 5.28125 -8.484375 C 4.707031 -8.484375 4.210938 -8.347656 3.796875 -8.078125 C 3.378906 -7.816406 3.050781 -7.46875 2.8125 -7.03125 C 2.570312 -6.601562 2.4375 -6.132812 2.40625 -5.625 Z M 2.40625 -5.625 "/></g></g></g><g fill="#000000" fill-opacity="1"><g transform="translate(427.144791, 548.137509)"><g><path d="M 1.359375 0 L 1.359375 -9.703125 L 2.796875 -9.703125 L 2.796875 -8.234375 L 2.90625 -8.234375 C 3.070312 -8.710938 3.382812 -9.097656 3.84375 -9.390625 C 4.3125 -9.691406 4.84375 -9.84375 5.4375 -9.84375 C 5.695312 -9.84375 5.925781 -9.8125 6.125 -9.75 C 6.332031 -9.6875 6.515625 -9.601562 6.671875 -9.5 L 6.15625 -8.234375 C 6.050781 -8.285156 5.925781 -8.328125 5.78125 -8.359375 C 5.644531 -8.390625 5.484375 -8.40625 5.296875 -8.40625 C 4.597656 -8.40625 4.015625 -8.1875 3.546875 -7.75 C 3.085938 -7.320312 2.859375 -6.785156 2.859375 -6.140625 L 2.859375 0 Z M 1.359375 0 "/></g></g></g><g fill="#000000" fill-opacity="1"><g transform="translate(433.958225, 548.137509)"><g/></g></g><g fill="#000000" fill-opacity="1"><g transform="translate(438.954738, 548.137509)"><g><path d="M 1.34375 0 L 1.34375 -1.140625 L 5.609375 -5.8125 C 6.109375 -6.351562 6.519531 -6.828125 6.84375 -7.234375 C 7.164062 -7.640625 7.40625 -8.019531 7.5625 -8.375 C 7.71875 -8.738281 7.796875 -9.117188 7.796875 -9.515625 C 7.796875 -10.203125 7.5625 -10.742188 7.09375 -11.140625 C 6.625 -11.546875 6.035156 -11.75 5.328125 -11.75 C 4.578125 -11.75 3.976562 -11.523438 3.53125 -11.078125 C 3.09375 -10.628906 2.875 -10.035156 2.875 -9.296875 L 1.390625 -9.296875 C 1.390625 -10.054688 1.5625 -10.722656 1.90625 -11.296875 C 2.257812 -11.867188 2.738281 -12.3125 3.34375 -12.625 C 3.945312 -12.945312 4.625 -13.109375 5.375 -13.109375 C 6.132812 -13.109375 6.804688 -12.945312 7.390625 -12.625 C 7.972656 -12.3125 8.429688 -11.878906 8.765625 -11.328125 C 9.097656 -10.785156 9.265625 -10.179688 9.265625 -9.515625 C 9.265625 -9.046875 9.179688 -8.582031 9.015625 -8.125 C 8.847656 -7.675781 8.550781 -7.175781 8.125 -6.625 C 7.707031 -6.070312 7.128906 -5.394531 6.390625 -4.59375 L 3.484375 -1.484375 L 3.484375 -1.390625 L 9.5 -1.390625 L 9.5 0 Z M 1.34375 0 "/></g></g></g><g fill="#000000" fill-opacity="1"><g transform="translate(573.687291, 548.137509)"><g><path d="M 12.484375 -6.46875 C 12.484375 -5.25 12.285156 -4.175781 11.890625 -3.25 C 11.492188 -2.332031 10.953125 -1.59375 10.265625 -1.03125 L 11.953125 1.21875 L 10.234375 1.21875 L 9.09375 -0.296875 C 8.382812 0.015625 7.609375 0.171875 6.765625 0.171875 C 5.660156 0.171875 4.675781 -0.09375 3.8125 -0.625 C 2.957031 -1.164062 2.285156 -1.929688 1.796875 -2.921875 C 1.304688 -3.921875 1.0625 -5.101562 1.0625 -6.46875 C 1.0625 -7.832031 1.304688 -9.007812 1.796875 -10 C 2.285156 -10.988281 2.957031 -11.753906 3.8125 -12.296875 C 4.675781 -12.835938 5.660156 -13.109375 6.765625 -13.109375 C 7.867188 -13.109375 8.847656 -12.835938 9.703125 -12.296875 C 10.566406 -11.753906 11.242188 -10.988281 11.734375 -10 C 12.234375 -9.007812 12.484375 -7.832031 12.484375 -6.46875 Z M 6.265625 -4.046875 L 7.984375 -4.046875 L 9.359375 -2.234375 C 9.847656 -2.660156 10.238281 -3.226562 10.53125 -3.9375 C 10.820312 -4.644531 10.96875 -5.488281 10.96875 -6.46875 C 10.96875 -7.582031 10.78125 -8.523438 10.40625 -9.296875 C 10.03125 -10.066406 9.523438 -10.648438 8.890625 -11.046875 C 8.253906 -11.441406 7.546875 -11.640625 6.765625 -11.640625 C 5.984375 -11.640625 5.273438 -11.441406 4.640625 -11.046875 C 4.003906 -10.648438 3.5 -10.066406 3.125 -9.296875 C 2.757812 -8.523438 2.578125 -7.582031 2.578125 -6.46875 C 2.578125 -5.34375 2.757812 -4.394531 3.125 -3.625 C 3.5 -2.851562 4.003906 -2.269531 4.640625 -1.875 C 5.273438 -1.476562 5.984375 -1.28125 6.765625 -1.28125 C 7.265625 -1.28125 7.738281 -1.363281 8.1875 -1.53125 Z M 6.265625 -4.046875 "/></g></g></g><g fill="#000000" fill-opacity="1"><g transform="translate(587.213222, 548.137509)"><g><path d="M 7.46875 -3.96875 L 7.46875 -9.703125 L 8.96875 -9.703125 L 8.96875 0 L 7.46875 0 L 7.46875 -1.640625 L 7.375 -1.640625 C 7.144531 -1.148438 6.789062 -0.734375 6.3125 -0.390625 C 5.832031 -0.046875 5.226562 0.125 4.5 0.125 C 3.582031 0.125 2.828125 -0.171875 2.234375 -0.765625 C 1.648438 -1.367188 1.359375 -2.289062 1.359375 -3.53125 L 1.359375 -9.703125 L 2.859375 -9.703125 L 2.859375 -3.640625 C 2.859375 -2.929688 3.054688 -2.363281 3.453125 -1.9375 C 3.847656 -1.519531 4.351562 -1.3125 4.96875 -1.3125 C 5.34375 -1.3125 5.722656 -1.40625 6.109375 -1.59375 C 6.492188 -1.78125 6.816406 -2.070312 7.078125 -2.46875 C 7.335938 -2.863281 7.46875 -3.363281 7.46875 -3.96875 Z M 7.46875 -3.96875 "/></g></g></g><g fill="#000000" fill-opacity="1"><g transform="translate(597.534317, 548.137509)"><g><path d="M 4.21875 0.234375 C 3.601562 0.234375 3.046875 0.117188 2.546875 -0.109375 C 2.046875 -0.347656 1.644531 -0.691406 1.34375 -1.140625 C 1.050781 -1.585938 0.90625 -2.125 0.90625 -2.75 C 0.90625 -3.3125 1.015625 -3.765625 1.234375 -4.109375 C 1.453125 -4.453125 1.742188 -4.722656 2.109375 -4.921875 C 2.484375 -5.117188 2.890625 -5.265625 3.328125 -5.359375 C 3.773438 -5.460938 4.222656 -5.546875 4.671875 -5.609375 C 5.265625 -5.679688 5.742188 -5.738281 6.109375 -5.78125 C 6.472656 -5.820312 6.738281 -5.890625 6.90625 -5.984375 C 7.082031 -6.078125 7.171875 -6.242188 7.171875 -6.484375 L 7.171875 -6.546875 C 7.171875 -7.160156 7 -7.640625 6.65625 -7.984375 C 6.320312 -8.335938 5.8125 -8.515625 5.125 -8.515625 C 4.414062 -8.515625 3.859375 -8.359375 3.453125 -8.046875 C 3.046875 -7.734375 2.757812 -7.398438 2.59375 -7.046875 L 1.1875 -7.546875 C 1.4375 -8.140625 1.769531 -8.597656 2.1875 -8.921875 C 2.613281 -9.253906 3.078125 -9.488281 3.578125 -9.625 C 4.085938 -9.757812 4.585938 -9.828125 5.078125 -9.828125 C 5.390625 -9.828125 5.75 -9.789062 6.15625 -9.71875 C 6.5625 -9.644531 6.953125 -9.492188 7.328125 -9.265625 C 7.710938 -9.035156 8.03125 -8.691406 8.28125 -8.234375 C 8.53125 -7.773438 8.65625 -7.160156 8.65625 -6.390625 L 8.65625 0 L 7.171875 0 L 7.171875 -1.3125 L 7.09375 -1.3125 C 7 -1.101562 6.832031 -0.878906 6.59375 -0.640625 C 6.351562 -0.398438 6.035156 -0.191406 5.640625 -0.015625 C 5.253906 0.148438 4.78125 0.234375 4.21875 0.234375 Z M 4.4375 -1.109375 C 5.03125 -1.109375 5.53125 -1.222656 5.9375 -1.453125 C 6.34375 -1.691406 6.648438 -1.992188 6.859375 -2.359375 C 7.066406 -2.722656 7.171875 -3.109375 7.171875 -3.515625 L 7.171875 -4.875 C 7.109375 -4.800781 6.96875 -4.734375 6.75 -4.671875 C 6.539062 -4.609375 6.296875 -4.550781 6.015625 -4.5 C 5.742188 -4.457031 5.476562 -4.421875 5.21875 -4.390625 C 4.96875 -4.359375 4.757812 -4.332031 4.59375 -4.3125 C 4.207031 -4.269531 3.847656 -4.191406 3.515625 -4.078125 C 3.179688 -3.960938 2.910156 -3.796875 2.703125 -3.578125 C 2.503906 -3.359375 2.40625 -3.054688 2.40625 -2.671875 C 2.40625 -2.160156 2.597656 -1.769531 2.984375 -1.5 C 3.367188 -1.238281 3.851562 -1.109375 4.4375 -1.109375 Z M 4.4375 -1.109375 "/></g></g></g><g fill="#000000" fill-opacity="1"><g transform="translate(607.552588, 548.137509)"><g><path d="M 1.359375 0 L 1.359375 -9.703125 L 2.796875 -9.703125 L 2.796875 -8.234375 L 2.90625 -8.234375 C 3.082031 -8.710938 3.398438 -9.097656 3.859375 -9.390625 C 4.328125 -9.691406 4.851562 -9.84375 5.4375 -9.84375 C 5.539062 -9.84375 5.675781 -9.84375 5.84375 -9.84375 C 6.007812 -9.84375 6.132812 -9.835938 6.21875 -9.828125 L 6.21875 -8.3125 C 6.164062 -8.320312 6.046875 -8.335938 5.859375 -8.359375 C 5.679688 -8.390625 5.492188 -8.40625 5.296875 -8.40625 C 4.597656 -8.40625 4.015625 -8.191406 3.546875 -7.765625 C 3.085938 -7.335938 2.859375 -6.796875 2.859375 -6.140625 L 2.859375 0 Z M 1.359375 0 "/></g></g></g><g fill="#000000" fill-opacity="1"><g transform="translate(614.770102, 548.137509)"><g><path d="M 5.578125 -9.703125 L 5.578125 -8.4375 L 3.515625 -8.4375 L 3.515625 -2.78125 C 3.515625 -2.351562 3.578125 -2.035156 3.703125 -1.828125 C 3.828125 -1.617188 3.984375 -1.476562 4.171875 -1.40625 C 4.367188 -1.34375 4.578125 -1.3125 4.796875 -1.3125 C 4.960938 -1.3125 5.097656 -1.320312 5.203125 -1.34375 C 5.304688 -1.363281 5.390625 -1.378906 5.453125 -1.390625 L 5.765625 -0.046875 C 5.660156 -0.015625 5.515625 0.0195312 5.328125 0.0625 C 5.148438 0.101562 4.921875 0.125 4.640625 0.125 C 4.222656 0.125 3.8125 0.0351562 3.40625 -0.140625 C 3.007812 -0.328125 2.675781 -0.601562 2.40625 -0.96875 C 2.144531 -1.34375 2.015625 -1.8125 2.015625 -2.375 L 2.015625 -8.4375 L 0.5625 -8.4375 L 0.5625 -9.703125 L 2.015625 -9.703125 L 2.015625 -12.015625 L 3.515625 -12.015625 L 3.515625 -9.703125 Z M 5.578125 -9.703125 "/></g></g></g><g fill="#000000" fill-opacity="1"><g transform="translate(621.129252, 548.137509)"><g><path d="M 5.4375 0.203125 C 4.5 0.203125 3.691406 -0.00390625 3.015625 -0.421875 C 2.335938 -0.835938 1.816406 -1.414062 1.453125 -2.15625 C 1.085938 -2.90625 0.90625 -3.78125 0.90625 -4.78125 C 0.90625 -5.769531 1.085938 -6.644531 1.453125 -7.40625 C 1.816406 -8.164062 2.328125 -8.757812 2.984375 -9.1875 C 3.640625 -9.613281 4.40625 -9.828125 5.28125 -9.828125 C 5.78125 -9.828125 6.273438 -9.738281 6.765625 -9.5625 C 7.265625 -9.394531 7.710938 -9.125 8.109375 -8.75 C 8.515625 -8.375 8.835938 -7.875 9.078125 -7.25 C 9.328125 -6.632812 9.453125 -5.875 9.453125 -4.96875 L 9.453125 -4.34375 L 2.40625 -4.34375 C 2.4375 -3.3125 2.726562 -2.519531 3.28125 -1.96875 C 3.832031 -1.414062 4.550781 -1.140625 5.4375 -1.140625 C 6.019531 -1.140625 6.519531 -1.265625 6.9375 -1.515625 C 7.363281 -1.765625 7.671875 -2.144531 7.859375 -2.65625 L 9.296875 -2.25 C 9.066406 -1.519531 8.609375 -0.925781 7.921875 -0.46875 C 7.242188 -0.0195312 6.414062 0.203125 5.4375 0.203125 Z M 2.40625 -5.625 L 7.9375 -5.625 C 7.9375 -6.445312 7.691406 -7.128906 7.203125 -7.671875 C 6.722656 -8.210938 6.082031 -8.484375 5.28125 -8.484375 C 4.707031 -8.484375 4.210938 -8.347656 3.796875 -8.078125 C 3.378906 -7.816406 3.050781 -7.46875 2.8125 -7.03125 C 2.570312 -6.601562 2.4375 -6.132812 2.40625 -5.625 Z M 2.40625 -5.625 "/></g></g></g><g fill="#000000" fill-opacity="1"><g transform="translate(631.47558, 548.137509)"><g><path d="M 1.359375 0 L 1.359375 -9.703125 L 2.796875 -9.703125 L 2.796875 -8.234375 L 2.90625 -8.234375 C 3.070312 -8.710938 3.382812 -9.097656 3.84375 -9.390625 C 4.3125 -9.691406 4.84375 -9.84375 5.4375 -9.84375 C 5.695312 -9.84375 5.925781 -9.8125 6.125 -9.75 C 6.332031 -9.6875 6.515625 -9.601562 6.671875 -9.5 L 6.15625 -8.234375 C 6.050781 -8.285156 5.925781 -8.328125 5.78125 -8.359375 C 5.644531 -8.390625 5.484375 -8.40625 5.296875 -8.40625 C 4.597656 -8.40625 4.015625 -8.1875 3.546875 -7.75 C 3.085938 -7.320312 2.859375 -6.785156 2.859375 -6.140625 L 2.859375 0 Z M 1.359375 0 "/></g></g></g><g fill="#000000" fill-opacity="1"><g transform="translate(638.289015, 548.137509)"><g/></g></g><g fill="#000000" fill-opacity="1"><g transform="translate(643.285528, 548.137509)"><g><path d="M 5.703125 0.171875 C 4.867188 0.171875 4.125 0.03125 3.46875 -0.25 C 2.820312 -0.539062 2.304688 -0.941406 1.921875 -1.453125 C 1.546875 -1.960938 1.34375 -2.554688 1.3125 -3.234375 L 2.90625 -3.234375 C 2.945312 -2.609375 3.234375 -2.113281 3.765625 -1.75 C 4.296875 -1.394531 4.9375 -1.21875 5.6875 -1.21875 C 6.507812 -1.21875 7.1875 -1.425781 7.71875 -1.84375 C 8.257812 -2.269531 8.53125 -2.828125 8.53125 -3.515625 C 8.53125 -4.222656 8.265625 -4.800781 7.734375 -5.25 C 7.210938 -5.707031 6.460938 -5.9375 5.484375 -5.9375 L 4.4375 -5.9375 L 4.4375 -7.328125 L 5.484375 -7.328125 C 6.242188 -7.328125 6.863281 -7.53125 7.34375 -7.9375 C 7.832031 -8.34375 8.078125 -8.890625 8.078125 -9.578125 C 8.078125 -10.222656 7.863281 -10.742188 7.4375 -11.140625 C 7.019531 -11.546875 6.453125 -11.75 5.734375 -11.75 C 5.285156 -11.75 4.863281 -11.664062 4.46875 -11.5 C 4.082031 -11.34375 3.765625 -11.109375 3.515625 -10.796875 C 3.265625 -10.492188 3.128906 -10.128906 3.109375 -9.703125 L 1.59375 -9.703125 C 1.613281 -10.378906 1.816406 -10.972656 2.203125 -11.484375 C 2.585938 -11.992188 3.085938 -12.390625 3.703125 -12.671875 C 4.328125 -12.960938 5.015625 -13.109375 5.765625 -13.109375 C 6.554688 -13.109375 7.238281 -12.945312 7.8125 -12.625 C 8.382812 -12.300781 8.820312 -11.875 9.125 -11.34375 C 9.4375 -10.820312 9.59375 -10.253906 9.59375 -9.640625 C 9.59375 -8.921875 9.398438 -8.300781 9.015625 -7.78125 C 8.640625 -7.269531 8.125 -6.914062 7.46875 -6.71875 L 7.46875 -6.625 C 8.289062 -6.488281 8.929688 -6.140625 9.390625 -5.578125 C 9.847656 -5.015625 10.078125 -4.328125 10.078125 -3.515625 C 10.078125 -2.804688 9.882812 -2.171875 9.5 -1.609375 C 9.125 -1.054688 8.609375 -0.617188 7.953125 -0.296875 C 7.296875 0.015625 6.546875 0.171875 5.703125 0.171875 Z M 5.703125 0.171875 "/></g></g></g><g fill="#000000" fill-opacity="1"><g transform="translate(778.627479, 548.137509)"><g><path d="M 12.484375 -6.46875 C 12.484375 -5.25 12.285156 -4.175781 11.890625 -3.25 C 11.492188 -2.332031 10.953125 -1.59375 10.265625 -1.03125 L 11.953125 1.21875 L 10.234375 1.21875 L 9.09375 -0.296875 C 8.382812 0.015625 7.609375 0.171875 6.765625 0.171875 C 5.660156 0.171875 4.675781 -0.09375 3.8125 -0.625 C 2.957031 -1.164062 2.285156 -1.929688 1.796875 -2.921875 C 1.304688 -3.921875 1.0625 -5.101562 1.0625 -6.46875 C 1.0625 -7.832031 1.304688 -9.007812 1.796875 -10 C 2.285156 -10.988281 2.957031 -11.753906 3.8125 -12.296875 C 4.675781 -12.835938 5.660156 -13.109375 6.765625 -13.109375 C 7.867188 -13.109375 8.847656 -12.835938 9.703125 -12.296875 C 10.566406 -11.753906 11.242188 -10.988281 11.734375 -10 C 12.234375 -9.007812 12.484375 -7.832031 12.484375 -6.46875 Z M 6.265625 -4.046875 L 7.984375 -4.046875 L 9.359375 -2.234375 C 9.847656 -2.660156 10.238281 -3.226562 10.53125 -3.9375 C 10.820312 -4.644531 10.96875 -5.488281 10.96875 -6.46875 C 10.96875 -7.582031 10.78125 -8.523438 10.40625 -9.296875 C 10.03125 -10.066406 9.523438 -10.648438 8.890625 -11.046875 C 8.253906 -11.441406 7.546875 -11.640625 6.765625 -11.640625 C 5.984375 -11.640625 5.273438 -11.441406 4.640625 -11.046875 C 4.003906 -10.648438 3.5 -10.066406 3.125 -9.296875 C 2.757812 -8.523438 2.578125 -7.582031 2.578125 -6.46875 C 2.578125 -5.34375 2.757812 -4.394531 3.125 -3.625 C 3.5 -2.851562 4.003906 -2.269531 4.640625 -1.875 C 5.273438 -1.476562 5.984375 -1.28125 6.765625 -1.28125 C 7.265625 -1.28125 7.738281 -1.363281 8.1875 -1.53125 Z M 6.265625 -4.046875 "/></g></g></g><g fill="#000000" fill-opacity="1"><g transform="translate(792.153411, 548.137509)"><g><path d="M 7.46875 -3.96875 L 7.46875 -9.703125 L 8.96875 -9.703125 L 8.96875 0 L 7.46875 0 L 7.46875 -1.640625 L 7.375 -1.640625 C 7.144531 -1.148438 6.789062 -0.734375 6.3125 -0.390625 C 5.832031 -0.046875 5.226562 0.125 4.5 0.125 C 3.582031 0.125 2.828125 -0.171875 2.234375 -0.765625 C 1.648438 -1.367188 1.359375 -2.289062 1.359375 -3.53125 L 1.359375 -9.703125 L 2.859375 -9.703125 L 2.859375 -3.640625 C 2.859375 -2.929688 3.054688 -2.363281 3.453125 -1.9375 C 3.847656 -1.519531 4.351562 -1.3125 4.96875 -1.3125 C 5.34375 -1.3125 5.722656 -1.40625 6.109375 -1.59375 C 6.492188 -1.78125 6.816406 -2.070312 7.078125 -2.46875 C 7.335938 -2.863281 7.46875 -3.363281 7.46875 -3.96875 Z M 7.46875 -3.96875 "/></g></g></g><g fill="#000000" fill-opacity="1"><g transform="translate(802.474505, 548.137509)"><g><path d="M 4.21875 0.234375 C 3.601562 0.234375 3.046875 0.117188 2.546875 -0.109375 C 2.046875 -0.347656 1.644531 -0.691406 1.34375 -1.140625 C 1.050781 -1.585938 0.90625 -2.125 0.90625 -2.75 C 0.90625 -3.3125 1.015625 -3.765625 1.234375 -4.109375 C 1.453125 -4.453125 1.742188 -4.722656 2.109375 -4.921875 C 2.484375 -5.117188 2.890625 -5.265625 3.328125 -5.359375 C 3.773438 -5.460938 4.222656 -5.546875 4.671875 -5.609375 C 5.265625 -5.679688 5.742188 -5.738281 6.109375 -5.78125 C 6.472656 -5.820312 6.738281 -5.890625 6.90625 -5.984375 C 7.082031 -6.078125 7.171875 -6.242188 7.171875 -6.484375 L 7.171875 -6.546875 C 7.171875 -7.160156 7 -7.640625 6.65625 -7.984375 C 6.320312 -8.335938 5.8125 -8.515625 5.125 -8.515625 C 4.414062 -8.515625 3.859375 -8.359375 3.453125 -8.046875 C 3.046875 -7.734375 2.757812 -7.398438 2.59375 -7.046875 L 1.1875 -7.546875 C 1.4375 -8.140625 1.769531 -8.597656 2.1875 -8.921875 C 2.613281 -9.253906 3.078125 -9.488281 3.578125 -9.625 C 4.085938 -9.757812 4.585938 -9.828125 5.078125 -9.828125 C 5.390625 -9.828125 5.75 -9.789062 6.15625 -9.71875 C 6.5625 -9.644531 6.953125 -9.492188 7.328125 -9.265625 C 7.710938 -9.035156 8.03125 -8.691406 8.28125 -8.234375 C 8.53125 -7.773438 8.65625 -7.160156 8.65625 -6.390625 L 8.65625 0 L 7.171875 0 L 7.171875 -1.3125 L 7.09375 -1.3125 C 7 -1.101562 6.832031 -0.878906 6.59375 -0.640625 C 6.351562 -0.398438 6.035156 -0.191406 5.640625 -0.015625 C 5.253906 0.148438 4.78125 0.234375 4.21875 0.234375 Z M 4.4375 -1.109375 C 5.03125 -1.109375 5.53125 -1.222656 5.9375 -1.453125 C 6.34375 -1.691406 6.648438 -1.992188 6.859375 -2.359375 C 7.066406 -2.722656 7.171875 -3.109375 7.171875 -3.515625 L 7.171875 -4.875 C 7.109375 -4.800781 6.96875 -4.734375 6.75 -4.671875 C 6.539062 -4.609375 6.296875 -4.550781 6.015625 -4.5 C 5.742188 -4.457031 5.476562 -4.421875 5.21875 -4.390625 C 4.96875 -4.359375 4.757812 -4.332031 4.59375 -4.3125 C 4.207031 -4.269531 3.847656 -4.191406 3.515625 -4.078125 C 3.179688 -3.960938 2.910156 -3.796875 2.703125 -3.578125 C 2.503906 -3.359375 2.40625 -3.054688 2.40625 -2.671875 C 2.40625 -2.160156 2.597656 -1.769531 2.984375 -1.5 C 3.367188 -1.238281 3.851562 -1.109375 4.4375 -1.109375 Z M 4.4375 -1.109375 "/></g></g></g><g fill="#000000" fill-opacity="1"><g transform="translate(812.492777, 548.137509)"><g><path d="M 1.359375 0 L 1.359375 -9.703125 L 2.796875 -9.703125 L 2.796875 -8.234375 L 2.90625 -8.234375 C 3.082031 -8.710938 3.398438 -9.097656 3.859375 -9.390625 C 4.328125 -9.691406 4.851562 -9.84375 5.4375 -9.84375 C 5.539062 -9.84375 5.675781 -9.84375 5.84375 -9.84375 C 6.007812 -9.84375 6.132812 -9.835938 6.21875 -9.828125 L 6.21875 -8.3125 C 6.164062 -8.320312 6.046875 -8.335938 5.859375 -8.359375 C 5.679688 -8.390625 5.492188 -8.40625 5.296875 -8.40625 C 4.597656 -8.40625 4.015625 -8.191406 3.546875 -7.765625 C 3.085938 -7.335938 2.859375 -6.796875 2.859375 -6.140625 L 2.859375 0 Z M 1.359375 0 "/></g></g></g><g fill="#000000" fill-opacity="1"><g transform="translate(819.710291, 548.137509)"><g><path d="M 5.578125 -9.703125 L 5.578125 -8.4375 L 3.515625 -8.4375 L 3.515625 -2.78125 C 3.515625 -2.351562 3.578125 -2.035156 3.703125 -1.828125 C 3.828125 -1.617188 3.984375 -1.476562 4.171875 -1.40625 C 4.367188 -1.34375 4.578125 -1.3125 4.796875 -1.3125 C 4.960938 -1.3125 5.097656 -1.320312 5.203125 -1.34375 C 5.304688 -1.363281 5.390625 -1.378906 5.453125 -1.390625 L 5.765625 -0.046875 C 5.660156 -0.015625 5.515625 0.0195312 5.328125 0.0625 C 5.148438 0.101562 4.921875 0.125 4.640625 0.125 C 4.222656 0.125 3.8125 0.0351562 3.40625 -0.140625 C 3.007812 -0.328125 2.675781 -0.601562 2.40625 -0.96875 C 2.144531 -1.34375 2.015625 -1.8125 2.015625 -2.375 L 2.015625 -8.4375 L 0.5625 -8.4375 L 0.5625 -9.703125 L 2.015625 -9.703125 L 2.015625 -12.015625 L 3.515625 -12.015625 L 3.515625 -9.703125 Z M 5.578125 -9.703125 "/></g></g></g><g fill="#000000" fill-opacity="1"><g transform="translate(826.06944, 548.137509)"><g><path d="M 5.4375 0.203125 C 4.5 0.203125 3.691406 -0.00390625 3.015625 -0.421875 C 2.335938 -0.835938 1.816406 -1.414062 1.453125 -2.15625 C 1.085938 -2.90625 0.90625 -3.78125 0.90625 -4.78125 C 0.90625 -5.769531 1.085938 -6.644531 1.453125 -7.40625 C 1.816406 -8.164062 2.328125 -8.757812 2.984375 -9.1875 C 3.640625 -9.613281 4.40625 -9.828125 5.28125 -9.828125 C 5.78125 -9.828125 6.273438 -9.738281 6.765625 -9.5625 C 7.265625 -9.394531 7.710938 -9.125 8.109375 -8.75 C 8.515625 -8.375 8.835938 -7.875 9.078125 -7.25 C 9.328125 -6.632812 9.453125 -5.875 9.453125 -4.96875 L 9.453125 -4.34375 L 2.40625 -4.34375 C 2.4375 -3.3125 2.726562 -2.519531 3.28125 -1.96875 C 3.832031 -1.414062 4.550781 -1.140625 5.4375 -1.140625 C 6.019531 -1.140625 6.519531 -1.265625 6.9375 -1.515625 C 7.363281 -1.765625 7.671875 -2.144531 7.859375 -2.65625 L 9.296875 -2.25 C 9.066406 -1.519531 8.609375 -0.925781 7.921875 -0.46875 C 7.242188 -0.0195312 6.414062 0.203125 5.4375 0.203125 Z M 2.40625 -5.625 L 7.9375 -5.625 C 7.9375 -6.445312 7.691406 -7.128906 7.203125 -7.671875 C 6.722656 -8.210938 6.082031 -8.484375 5.28125 -8.484375 C 4.707031 -8.484375 4.210938 -8.347656 3.796875 -8.078125 C 3.378906 -7.816406 3.050781 -7.46875 2.8125 -7.03125 C 2.570312 -6.601562 2.4375 -6.132812 2.40625 -5.625 Z M 2.40625 -5.625 "/></g></g></g><g fill="#000000" fill-opacity="1"><g transform="translate(836.415768, 548.137509)"><g><path d="M 1.359375 0 L 1.359375 -9.703125 L 2.796875 -9.703125 L 2.796875 -8.234375 L 2.90625 -8.234375 C 3.070312 -8.710938 3.382812 -9.097656 3.84375 -9.390625 C 4.3125 -9.691406 4.84375 -9.84375 5.4375 -9.84375 C 5.695312 -9.84375 5.925781 -9.8125 6.125 -9.75 C 6.332031 -9.6875 6.515625 -9.601562 6.671875 -9.5 L 6.15625 -8.234375 C 6.050781 -8.285156 5.925781 -8.328125 5.78125 -8.359375 C 5.644531 -8.390625 5.484375 -8.40625 5.296875 -8.40625 C 4.597656 -8.40625 4.015625 -8.1875 3.546875 -7.75 C 3.085938 -7.320312 2.859375 -6.785156 2.859375 -6.140625 L 2.859375 0 Z M 1.359375 0 "/></g></g></g><g fill="#000000" fill-opacity="1"><g transform="translate(843.229203, 548.137509)"><g/></g></g><g fill="#000000" fill-opacity="1"><g transform="translate(848.225716, 548.137509)"><g><path d="M 1.03125 -2.65625 L 1.03125 -3.9375 L 6.71875 -12.9375 L 8.609375 -12.9375 L 8.609375 -4.046875 L 10.375 -4.046875 L 10.375 -2.65625 L 8.609375 -2.65625 L 8.609375 0 L 7.125 0 L 7.125 -2.65625 Z M 7.125 -4.046875 L 7.125 -10.9375 L 7.015625 -10.9375 L 2.734375 -4.140625 L 2.734375 -4.046875 Z M 7.125 -4.046875 "/></g></g></g><g fill="#000000" fill-opacity="1"><g transform="translate(88.152184, 531.374997)"><g><path d="M 5.5625 0.171875 C 4.132812 0.171875 3.023438 -0.40625 2.234375 -1.5625 C 1.453125 -2.71875 1.0625 -4.351562 1.0625 -6.46875 C 1.0625 -8.5625 1.457031 -10.191406 2.25 -11.359375 C 3.039062 -12.523438 4.144531 -13.109375 5.5625 -13.109375 C 6.96875 -13.109375 8.066406 -12.523438 8.859375 -11.359375 C 9.648438 -10.191406 10.046875 -8.5625 10.046875 -6.46875 C 10.046875 -4.351562 9.65625 -2.71875 8.875 -1.5625 C 8.09375 -0.40625 6.988281 0.171875 5.5625 0.171875 Z M 5.5625 -1.21875 C 6.5 -1.21875 7.226562 -1.671875 7.75 -2.578125 C 8.269531 -3.484375 8.53125 -4.78125 8.53125 -6.46875 C 8.53125 -8.144531 8.265625 -9.441406 7.734375 -10.359375 C 7.210938 -11.285156 6.488281 -11.75 5.5625 -11.75 C 4.625 -11.75 3.890625 -11.285156 3.359375 -10.359375 C 2.835938 -9.441406 2.578125 -8.144531 2.578125 -6.46875 C 2.578125 -4.78125 2.835938 -3.484375 3.359375 -2.578125 C 3.890625 -1.671875 4.625 -1.21875 5.5625 -1.21875 Z M 5.5625 -1.21875 "/></g></g></g><g fill="#000000" fill-opacity="1"><g transform="translate(80.476403, 441.375001)"><g><path d="M 5.484375 -12.9375 L 5.484375 0 L 3.921875 0 L 3.921875 -10.65625 L 3.8125 -10.65625 C 3.75 -10.539062 3.597656 -10.40625 3.359375 -10.25 C 3.117188 -10.101562 2.800781 -9.972656 2.40625 -9.859375 C 2.019531 -9.753906 1.582031 -9.703125 1.09375 -9.703125 L 1.09375 -11.015625 C 1.59375 -11.015625 2.023438 -11.101562 2.390625 -11.28125 C 2.753906 -11.46875 3.054688 -11.679688 3.296875 -11.921875 C 3.546875 -12.160156 3.734375 -12.378906 3.859375 -12.578125 C 3.992188 -12.773438 4.070312 -12.894531 4.09375 -12.9375 Z M 5.484375 -12.9375 "/></g></g></g><g fill="#000000" fill-opacity="1"><g transform="translate(88.324463, 441.375001)"><g><path d="M 5.5625 0.171875 C 4.132812 0.171875 3.023438 -0.40625 2.234375 -1.5625 C 1.453125 -2.71875 1.0625 -4.351562 1.0625 -6.46875 C 1.0625 -8.5625 1.457031 -10.191406 2.25 -11.359375 C 3.039062 -12.523438 4.144531 -13.109375 5.5625 -13.109375 C 6.96875 -13.109375 8.066406 -12.523438 8.859375 -11.359375 C 9.648438 -10.191406 10.046875 -8.5625 10.046875 -6.46875 C 10.046875 -4.351562 9.65625 -2.71875 8.875 -1.5625 C 8.09375 -0.40625 6.988281 0.171875 5.5625 0.171875 Z M 5.5625 -1.21875 C 6.5 -1.21875 7.226562 -1.671875 7.75 -2.578125 C 8.269531 -3.484375 8.53125 -4.78125 8.53125 -6.46875 C 8.53125 -8.144531 8.265625 -9.441406 7.734375 -10.359375 C 7.210938 -11.285156 6.488281 -11.75 5.5625 -11.75 C 4.625 -11.75 3.890625 -11.285156 3.359375 -10.359375 C 2.835938 -9.441406 2.578125 -8.144531 2.578125 -6.46875 C 2.578125 -4.78125 2.835938 -3.484375 3.359375 -2.578125 C 3.890625 -1.671875 4.625 -1.21875 5.5625 -1.21875 Z M 5.5625 -1.21875 "/></g></g></g><g fill="#000000" fill-opacity="1"><g transform="translate(77.534997, 351.375005)"><g><path d="M 1.34375 0 L 1.34375 -1.140625 L 5.609375 -5.8125 C 6.109375 -6.351562 6.519531 -6.828125 6.84375 -7.234375 C 7.164062 -7.640625 7.40625 -8.019531 7.5625 -8.375 C 7.71875 -8.738281 7.796875 -9.117188 7.796875 -9.515625 C 7.796875 -10.203125 7.5625 -10.742188 7.09375 -11.140625 C 6.625 -11.546875 6.035156 -11.75 5.328125 -11.75 C 4.578125 -11.75 3.976562 -11.523438 3.53125 -11.078125 C 3.09375 -10.628906 2.875 -10.035156 2.875 -9.296875 L 1.390625 -9.296875 C 1.390625 -10.054688 1.5625 -10.722656 1.90625 -11.296875 C 2.257812 -11.867188 2.738281 -12.3125 3.34375 -12.625 C 3.945312 -12.945312 4.625 -13.109375 5.375 -13.109375 C 6.132812 -13.109375 6.804688 -12.945312 7.390625 -12.625 C 7.972656 -12.3125 8.429688 -11.878906 8.765625 -11.328125 C 9.097656 -10.785156 9.265625 -10.179688 9.265625 -9.515625 C 9.265625 -9.046875 9.179688 -8.582031 9.015625 -8.125 C 8.847656 -7.675781 8.550781 -7.175781 8.125 -6.625 C 7.707031 -6.070312 7.128906 -5.394531 6.390625 -4.59375 L 3.484375 -1.484375 L 3.484375 -1.390625 L 9.5 -1.390625 L 9.5 0 Z M 1.34375 0 "/></g></g></g><g fill="#000000" fill-opacity="1"><g transform="translate(88.285084, 351.375005)"><g><path d="M 5.5625 0.171875 C 4.132812 0.171875 3.023438 -0.40625 2.234375 -1.5625 C 1.453125 -2.71875 1.0625 -4.351562 1.0625 -6.46875 C 1.0625 -8.5625 1.457031 -10.191406 2.25 -11.359375 C 3.039062 -12.523438 4.144531 -13.109375 5.5625 -13.109375 C 6.96875 -13.109375 8.066406 -12.523438 8.859375 -11.359375 C 9.648438 -10.191406 10.046875 -8.5625 10.046875 -6.46875 C 10.046875 -4.351562 9.65625 -2.71875 8.875 -1.5625 C 8.09375 -0.40625 6.988281 0.171875 5.5625 0.171875 Z M 5.5625 -1.21875 C 6.5 -1.21875 7.226562 -1.671875 7.75 -2.578125 C 8.269531 -3.484375 8.53125 -4.78125 8.53125 -6.46875 C 8.53125 -8.144531 8.265625 -9.441406 7.734375 -10.359375 C 7.210938 -11.285156 6.488281 -11.75 5.5625 -11.75 C 4.625 -11.75 3.890625 -11.285156 3.359375 -10.359375 C 2.835938 -9.441406 2.578125 -8.144531 2.578125 -6.46875 C 2.578125 -4.78125 2.835938 -3.484375 3.359375 -2.578125 C 3.890625 -1.671875 4.625 -1.21875 5.5625 -1.21875 Z M 5.5625 -1.21875 "/></g></g></g><g fill="#000000" fill-opacity="1"><g transform="translate(76.503747, 261.375009)"><g><path d="M 5.703125 0.171875 C 4.867188 0.171875 4.125 0.03125 3.46875 -0.25 C 2.820312 -0.539062 2.304688 -0.941406 1.921875 -1.453125 C 1.546875 -1.960938 1.34375 -2.554688 1.3125 -3.234375 L 2.90625 -3.234375 C 2.945312 -2.609375 3.234375 -2.113281 3.765625 -1.75 C 4.296875 -1.394531 4.9375 -1.21875 5.6875 -1.21875 C 6.507812 -1.21875 7.1875 -1.425781 7.71875 -1.84375 C 8.257812 -2.269531 8.53125 -2.828125 8.53125 -3.515625 C 8.53125 -4.222656 8.265625 -4.800781 7.734375 -5.25 C 7.210938 -5.707031 6.460938 -5.9375 5.484375 -5.9375 L 4.4375 -5.9375 L 4.4375 -7.328125 L 5.484375 -7.328125 C 6.242188 -7.328125 6.863281 -7.53125 7.34375 -7.9375 C 7.832031 -8.34375 8.078125 -8.890625 8.078125 -9.578125 C 8.078125 -10.222656 7.863281 -10.742188 7.4375 -11.140625 C 7.019531 -11.546875 6.453125 -11.75 5.734375 -11.75 C 5.285156 -11.75 4.863281 -11.664062 4.46875 -11.5 C 4.082031 -11.34375 3.765625 -11.109375 3.515625 -10.796875 C 3.265625 -10.492188 3.128906 -10.128906 3.109375 -9.703125 L 1.59375 -9.703125 C 1.613281 -10.378906 1.816406 -10.972656 2.203125 -11.484375 C 2.585938 -11.992188 3.085938 -12.390625 3.703125 -12.671875 C 4.328125 -12.960938 5.015625 -13.109375 5.765625 -13.109375 C 6.554688 -13.109375 7.238281 -12.945312 7.8125 -12.625 C 8.382812 -12.300781 8.820312 -11.875 9.125 -11.34375 C 9.4375 -10.820312 9.59375 -10.253906 9.59375 -9.640625 C 9.59375 -8.921875 9.398438 -8.300781 9.015625 -7.78125 C 8.640625 -7.269531 8.125 -6.914062 7.46875 -6.71875 L 7.46875 -6.625 C 8.289062 -6.488281 8.929688 -6.140625 9.390625 -5.578125 C 9.847656 -5.015625 10.078125 -4.328125 10.078125 -3.515625 C 10.078125 -2.804688 9.882812 -2.171875 9.5 -1.609375 C 9.125 -1.054688 8.609375 -0.617188 7.953125 -0.296875 C 7.296875 0.015625 6.546875 0.171875 5.703125 0.171875 Z M 5.703125 0.171875 "/></g></g></g><g fill="#000000" fill-opacity="1"><g transform="translate(87.808998, 261.375009)"><g><path d="M 5.5625 0.171875 C 4.132812 0.171875 3.023438 -0.40625 2.234375 -1.5625 C 1.453125 -2.71875 1.0625 -4.351562 1.0625 -6.46875 C 1.0625 -8.5625 1.457031 -10.191406 2.25 -11.359375 C 3.039062 -12.523438 4.144531 -13.109375 5.5625 -13.109375 C 6.96875 -13.109375 8.066406 -12.523438 8.859375 -11.359375 C 9.648438 -10.191406 10.046875 -8.5625 10.046875 -6.46875 C 10.046875 -4.351562 9.65625 -2.71875 8.875 -1.5625 C 8.09375 -0.40625 6.988281 0.171875 5.5625 0.171875 Z M 5.5625 -1.21875 C 6.5 -1.21875 7.226562 -1.671875 7.75 -2.578125 C 8.269531 -3.484375 8.53125 -4.78125 8.53125 -6.46875 C 8.53125 -8.144531 8.265625 -9.441406 7.734375 -10.359375 C 7.210938 -11.285156 6.488281 -11.75 5.5625 -11.75 C 4.625 -11.75 3.890625 -11.285156 3.359375 -10.359375 C 2.835938 -9.441406 2.578125 -8.144531 2.578125 -6.46875 C 2.578125 -4.78125 2.835938 -3.484375 3.359375 -2.578125 C 3.890625 -1.671875 4.625 -1.21875 5.5625 -1.21875 Z M 5.5625 -1.21875 "/></g></g></g><g fill="#000000" fill-opacity="1"><g transform="translate(76.456872, 171.375013)"><g><path d="M 1.03125 -2.65625 L 1.03125 -3.9375 L 6.71875 -12.9375 L 8.609375 -12.9375 L 8.609375 -4.046875 L 10.375 -4.046875 L 10.375 -2.65625 L 8.609375 -2.65625 L 8.609375 0 L 7.125 0 L 7.125 -2.65625 Z M 7.125 -4.046875 L 7.125 -10.9375 L 7.015625 -10.9375 L 2.734375 -4.140625 L 2.734375 -4.046875 Z M 7.125 -4.046875 "/></g></g></g><g fill="#000000" fill-opacity="1"><g transform="translate(87.86306, 171.375013)"><g><path d="M 5.5625 0.171875 C 4.132812 0.171875 3.023438 -0.40625 2.234375 -1.5625 C 1.453125 -2.71875 1.0625 -4.351562 1.0625 -6.46875 C 1.0625 -8.5625 1.457031 -10.191406 2.25 -11.359375 C 3.039062 -12.523438 4.144531 -13.109375 5.5625 -13.109375 C 6.96875 -13.109375 8.066406 -12.523438 8.859375 -11.359375 C 9.648438 -10.191406 10.046875 -8.5625 10.046875 -6.46875 C 10.046875 -4.351562 9.65625 -2.71875 8.875 -1.5625 C 8.09375 -0.40625 6.988281 0.171875 5.5625 0.171875 Z M 5.5625 -1.21875 C 6.5 -1.21875 7.226562 -1.671875 7.75 -2.578125 C 8.269531 -3.484375 8.53125 -4.78125 8.53125 -6.46875 C 8.53125 -8.144531 8.265625 -9.441406 7.734375 -10.359375 C 7.210938 -11.285156 6.488281 -11.75 5.5625 -11.75 C 4.625 -11.75 3.890625 -11.285156 3.359375 -10.359375 C 2.835938 -9.441406 2.578125 -8.144531 2.578125 -6.46875 C 2.578125 -4.78125 2.835938 -3.484375 3.359375 -2.578125 C 3.890625 -1.671875 4.625 -1.21875 5.5625 -1.21875 Z M 5.5625 -1.21875 "/></g></g></g><g fill="#000000" fill-opacity="1"><g transform="translate(77.49984, 81.375017)"><g><path d="M 5.375 0.171875 C 4.632812 0.171875 3.96875 0.0234375 3.375 -0.265625 C 2.78125 -0.554688 2.304688 -0.957031 1.953125 -1.46875 C 1.597656 -1.988281 1.398438 -2.578125 1.359375 -3.234375 L 2.875 -3.234375 C 2.9375 -2.648438 3.203125 -2.164062 3.671875 -1.78125 C 4.148438 -1.40625 4.71875 -1.21875 5.375 -1.21875 C 5.90625 -1.21875 6.378906 -1.335938 6.796875 -1.578125 C 7.210938 -1.828125 7.535156 -2.171875 7.765625 -2.609375 C 8.003906 -3.046875 8.125 -3.539062 8.125 -4.09375 C 8.125 -4.65625 8 -5.15625 7.75 -5.59375 C 7.507812 -6.039062 7.175781 -6.394531 6.75 -6.65625 C 6.320312 -6.914062 5.832031 -7.046875 5.28125 -7.046875 C 4.882812 -7.046875 4.476562 -6.984375 4.0625 -6.859375 C 3.644531 -6.742188 3.300781 -6.585938 3.03125 -6.390625 L 1.5625 -6.5625 L 2.34375 -12.9375 L 9.0625 -12.9375 L 9.0625 -11.546875 L 3.65625 -11.546875 L 3.203125 -7.734375 L 3.28125 -7.734375 C 3.550781 -7.941406 3.882812 -8.113281 4.28125 -8.25 C 4.675781 -8.394531 5.09375 -8.46875 5.53125 -8.46875 C 6.320312 -8.46875 7.023438 -8.273438 7.640625 -7.890625 C 8.265625 -7.515625 8.753906 -7 9.109375 -6.34375 C 9.460938 -5.695312 9.640625 -4.953125 9.640625 -4.109375 C 9.640625 -3.285156 9.457031 -2.550781 9.09375 -1.90625 C 8.726562 -1.257812 8.222656 -0.75 7.578125 -0.375 C 6.929688 -0.0078125 6.195312 0.171875 5.375 0.171875 Z M 5.375 0.171875 "/></g></g></g><g fill="#000000" fill-opacity="1"><g transform="translate(88.300396, 81.375017)"><g><path d="M 5.5625 0.171875 C 4.132812 0.171875 3.023438 -0.40625 2.234375 -1.5625 C 1.453125 -2.71875 1.0625 -4.351562 1.0625 -6.46875 C 1.0625 -8.5625 1.457031 -10.191406 2.25 -11.359375 C 3.039062 -12.523438 4.144531 -13.109375 5.5625 -13.109375 C 6.96875 -13.109375 8.066406 -12.523438 8.859375 -11.359375 C 9.648438 -10.191406 10.046875 -8.5625 10.046875 -6.46875 C 10.046875 -4.351562 9.65625 -2.71875 8.875 -1.5625 C 8.09375 -0.40625 6.988281 0.171875 5.5625 0.171875 Z M 5.5625 -1.21875 C 6.5 -1.21875 7.226562 -1.671875 7.75 -2.578125 C 8.269531 -3.484375 8.53125 -4.78125 8.53125 -6.46875 C 8.53125 -8.144531 8.265625 -9.441406 7.734375 -10.359375 C 7.210938 -11.285156 6.488281 -11.75 5.5625 -11.75 C 4.625 -11.75 3.890625 -11.285156 3.359375 -10.359375 C 2.835938 -9.441406 2.578125 -8.144531 2.578125 -6.46875 C 2.578125 -4.78125 2.835938 -3.484375 3.359375 -2.578125 C 3.890625 -1.671875 4.625 -1.21875 5.5625 -1.21875 Z M 5.5625 -1.21875 "/></g></g></g><g clip-path="url(#b6d1fd5fc4)"><g mask="url(#4bd6e9bcc5)"><g transform="matrix(1, 0, 0, 1, 112, 74)"><g clip-path="url(#0495edfea7)"><g clip-path="url(#44d036ffe2)"><path stroke-linecap="butt" transform="matrix(0.75, 0, 0, 0.75, 0.840879, 1.000017)" fill="none" stroke-linejoin="miter" d="M -0.00138093 479.999998 L 1063.983039 479.999998 " stroke="#000000" stroke-width="1" stroke-opacity="1" stroke-miterlimit="4"/></g><g clip-path="url(#2330daec5e)"><path stroke-linecap="butt" transform="matrix(0.75, 0, 0, 0.75, 0.840879, 1.000017)" fill="none" stroke-linejoin="miter" d="M -0.00138093 359.999993 L 1063.983039 359.999993 " stroke="#000000" stroke-width="1" stroke-opacity="1" stroke-miterlimit="4"/></g><g clip-path="url(#d28dfc15b8)"><path stroke-linecap="butt" transform="matrix(0.75, 0, 0, 0.75, 0.840879, 1.000017)" fill="none" stroke-linejoin="miter" d="M -0.00138093 239.999988 L 1063.983039 239.999988 " stroke="#000000" stroke-width="1" stroke-opacity="1" stroke-miterlimit="4"/></g><g clip-path="url(#a53165ad4d)"><path stroke-linecap="butt" transform="matrix(0.75, 0, 0, 0.75, 0.840879, 1.000017)" fill="none" stroke-linejoin="miter" d="M -0.00138093 119.999983 L 1063.983039 119.999983 " stroke="#000000" stroke-width="1" stroke-opacity="1" stroke-miterlimit="4"/></g><g clip-path="url(#9c3aca5a92)"><path stroke-linecap="butt" transform="matrix(0.75, 0, 0, 0.75, 0.840879, 1.000017)" fill="none" stroke-linejoin="miter" d="M -0.00138093 -0.0000224 L 1063.983039 -0.0000224 " stroke="#000000" stroke-width="1" stroke-opacity="1" stroke-miterlimit="4"/></g></g></g></g></g><g clip-path="url(#e2216d8a77)"><g mask="url(#bb7de64733)"><g transform="matrix(1, 0, 0, 1, 112, 524)"><g clip-path="url(#ecdd95b7f4)"><g clip-path="url(#1d5d4d8fea)"><path stroke-linecap="butt" transform="matrix(0.75, 0, 0, 0.75, 0.840879, -448.999983)" fill="none" stroke-linejoin="miter" d="M -0.00138093 600.000003 L 1063.983039 600.000003 " stroke="#000000" stroke-width="1" stroke-opacity="1" stroke-miterlimit="4"/></g></g></g></g></g><g clip-path="url(#36a968f544)"><path fill="#8c52ff" d="M 127.574219 219 L 282.257812 219 C 283.226562 219 284.183594 219.09375 285.132812 219.28125 C 286.082031 219.472656 287.003906 219.75 287.898438 220.121094 C 288.792969 220.492188 289.640625 220.945312 290.445312 221.484375 C 291.25 222.019531 291.992188 222.632812 292.675781 223.316406 C 293.359375 224 293.972656 224.742188 294.507812 225.546875 C 295.046875 226.351562 295.5 227.199219 295.871094 228.09375 C 296.242188 228.988281 296.519531 229.910156 296.707031 230.859375 C 296.898438 231.808594 296.992188 232.765625 296.992188 233.730469 L 296.992188 525 C 296.992188 525.96875 296.898438 526.925781 296.707031 527.875 C 296.519531 528.824219 296.242188 529.742188 295.871094 530.636719 C 295.5 531.53125 295.046875 532.378906 294.507812 533.183594 C 293.972656 533.988281 293.359375 534.734375 292.675781 535.417969 C 291.992188 536.101562 291.25 536.710938 290.445312 537.25 C 289.640625 537.785156 288.792969 538.242188 287.898438 538.609375 C 287.003906 538.980469 286.082031 539.261719 285.132812 539.449219 C 284.183594 539.636719 283.226562 539.730469 282.257812 539.730469 L 127.574219 539.730469 C 126.605469 539.730469 125.648438 539.636719 124.699219 539.449219 C 123.75 539.261719 122.828125 538.980469 121.933594 538.609375 C 121.042969 538.242188 120.191406 537.785156 119.386719 537.25 C 118.582031 536.710938 117.839844 536.101562 117.15625 535.417969 C 116.472656 534.734375 115.859375 533.988281 115.324219 533.183594 C 114.785156 532.378906 114.332031 531.53125 113.960938 530.636719 C 113.59375 529.742188 113.3125 528.824219 113.125 527.875 C 112.933594 526.925781 112.839844 525.96875 112.839844 525 L 112.839844 233.730469 C 112.839844 232.765625 112.933594 231.808594 113.125 230.859375 C 113.3125 229.910156 113.59375 228.988281 113.960938 228.09375 C 114.332031 227.199219 114.785156 226.351562 115.324219 225.546875 C 115.859375 224.742188 116.472656 224 117.15625 223.316406 C 117.839844 222.632812 118.582031 222.019531 119.386719 221.484375 C 120.191406 220.945312 121.042969 220.492188 121.933594 220.121094 C 122.828125 219.75 123.75 219.472656 124.699219 219.28125 C 125.648438 219.09375 126.605469 219 127.574219 219 Z M 127.574219 219 " fill-opacity="1" fill-rule="nonzero"/></g><g clip-path="url(#a46f20ecab)"><path fill="#5271ff" d="M 127.574219 219 L 282.257812 219 C 283.226562 219 284.183594 219.09375 285.132812 219.28125 C 286.082031 219.472656 287.003906 219.75 287.898438 220.121094 C 288.792969 220.492188 289.640625 220.945312 290.445312 221.484375 C 291.25 222.019531 291.992188 222.632812 292.675781 223.316406 C 293.359375 224 293.972656 224.742188 294.507812 225.546875 C 295.046875 226.351562 295.5 227.199219 295.871094 228.09375 C 296.242188 228.988281 296.519531 229.910156 296.707031 230.859375 C 296.898438 231.808594 296.992188 232.765625 296.992188 233.730469 L 296.992188 525 C 296.992188 525.96875 296.898438 526.925781 296.707031 527.875 C 296.519531 528.824219 296.242188 529.742188 295.871094 530.636719 C 295.5 531.53125 295.046875 532.378906 294.507812 533.183594 C 293.972656 533.988281 293.359375 534.734375 292.675781 535.417969 C 291.992188 536.101562 291.25 536.710938 290.445312 537.25 C 289.640625 537.785156 288.792969 538.242188 287.898438 538.609375 C 287.003906 538.980469 286.082031 539.261719 285.132812 539.449219 C 284.183594 539.636719 283.226562 539.730469 282.257812 539.730469 L 127.574219 539.730469 C 126.605469 539.730469 125.648438 539.636719 124.699219 539.449219 C 123.75 539.261719 122.828125 538.980469 121.933594 538.609375 C 121.042969 538.242188 120.191406 537.785156 119.386719 537.25 C 118.582031 536.710938 117.839844 536.101562 117.15625 535.417969 C 116.472656 534.734375 115.859375 533.988281 115.324219 533.183594 C 114.785156 532.378906 114.332031 531.53125 113.960938 530.636719 C 113.59375 529.742188 113.3125 528.824219 113.125 527.875 C 112.933594 526.925781 112.839844 525.96875 112.839844 525 L 112.839844 233.730469 C 112.839844 232.765625 112.933594 231.808594 113.125 230.859375 C 113.3125 229.910156 113.59375 228.988281 113.960938 228.09375 C 114.332031 227.199219 114.785156 226.351562 115.324219 225.546875 C 115.859375 224.742188 116.472656 224 117.15625 223.316406 C 117.839844 222.632812 118.582031 222.019531 119.386719 221.484375 C 120.191406 220.945312 121.042969 220.492188 121.933594 220.121094 C 122.828125 219.75 123.75 219.472656 124.699219 219.28125 C 125.648438 219.09375 126.605469 219 127.574219 219 Z M 127.574219 219 " fill-opacity="1" fill-rule="nonzero"/></g><g clip-path="url(#d4977114db)"><path fill="#ffbd59" d="M 127.574219 219 L 282.257812 219 C 283.226562 219 284.183594 219.09375 285.132812 219.28125 C 286.082031 219.472656 287.003906 219.75 287.898438 220.121094 C 288.792969 220.492188 289.640625 220.945312 290.445312 221.484375 C 291.25 222.019531 291.992188 222.632812 292.675781 223.316406 C 293.359375 224 293.972656 224.742188 294.507812 225.546875 C 295.046875 226.351562 295.5 227.199219 295.871094 228.09375 C 296.242188 228.988281 296.519531 229.910156 296.707031 230.859375 C 296.898438 231.808594 296.992188 232.765625 296.992188 233.730469 L 296.992188 525 C 296.992188 525.96875 296.898438 526.925781 296.707031 527.875 C 296.519531 528.824219 296.242188 529.742188 295.871094 530.636719 C 295.5 531.53125 295.046875 532.378906 294.507812 533.183594 C 293.972656 533.988281 293.359375 534.734375 292.675781 535.417969 C 291.992188 536.101562 291.25 536.710938 290.445312 537.25 C 289.640625 537.785156 288.792969 538.242188 287.898438 538.609375 C 287.003906 538.980469 286.082031 539.261719 285.132812 539.449219 C 284.183594 539.636719 283.226562 539.730469 282.257812 539.730469 L 127.574219 539.730469 C 126.605469 539.730469 125.648438 539.636719 124.699219 539.449219 C 123.75 539.261719 122.828125 538.980469 121.933594 538.609375 C 121.042969 538.242188 120.191406 537.785156 119.386719 537.25 C 118.582031 536.710938 117.839844 536.101562 117.15625 535.417969 C 116.472656 534.734375 115.859375 533.988281 115.324219 533.183594 C 114.785156 532.378906 114.332031 531.53125 113.960938 530.636719 C 113.59375 529.742188 113.3125 528.824219 113.125 527.875 C 112.933594 526.925781 112.839844 525.96875 112.839844 525 L 112.839844 233.730469 C 112.839844 232.765625 112.933594 231.808594 113.125 230.859375 C 113.3125 229.910156 113.59375 228.988281 113.960938 228.09375 C 114.332031 227.199219 114.785156 226.351562 115.324219 225.546875 C 115.859375 224.742188 116.472656 224 117.15625 223.316406 C 117.839844 222.632812 118.582031 222.019531 119.386719 221.484375 C 120.191406 220.945312 121.042969 220.492188 121.933594 220.121094 C 122.828125 219.75 123.75 219.472656 124.699219 219.28125 C 125.648438 219.09375 126.605469 219 127.574219 219 Z M 127.574219 219 " fill-opacity="1" fill-rule="nonzero"/></g><g clip-path="url(#2b48fa3010)"><path fill="#8c52ff" d="M 332.183594 192 L 486.871094 192 C 487.839844 192 488.796875 192.09375 489.746094 192.28125 C 490.695312 192.472656 491.617188 192.75 492.507812 193.121094 C 493.402344 193.492188 494.253906 193.945312 495.054688 194.484375 C 495.859375 195.019531 496.605469 195.632812 497.289062 196.316406 C 497.972656 197 498.582031 197.742188 499.121094 198.546875 C 499.660156 199.351562 500.113281 200.199219 500.480469 201.09375 C 500.851562 201.988281 501.132812 202.910156 501.320312 203.859375 C 501.507812 204.808594 501.605469 205.765625 501.605469 206.730469 L 501.605469 525 C 501.605469 525.96875 501.507812 526.925781 501.320312 527.875 C 501.132812 528.824219 500.851562 529.742188 500.480469 530.636719 C 500.113281 531.53125 499.660156 532.378906 499.121094 533.183594 C 498.582031 533.988281 497.972656 534.734375 497.289062 535.417969 C 496.605469 536.101562 495.859375 536.710938 495.054688 537.25 C 494.253906 537.785156 493.402344 538.242188 492.507812 538.609375 C 491.617188 538.980469 490.695312 539.261719 489.746094 539.449219 C 488.796875 539.636719 487.839844 539.730469 486.871094 539.730469 L 332.183594 539.730469 C 331.21875 539.730469 330.257812 539.636719 329.3125 539.449219 C 328.363281 539.261719 327.441406 538.980469 326.546875 538.609375 C 325.652344 538.242188 324.804688 537.785156 324 537.25 C 323.195312 536.710938 322.453125 536.101562 321.769531 535.417969 C 321.082031 534.734375 320.472656 533.988281 319.9375 533.183594 C 319.398438 532.378906 318.945312 531.53125 318.574219 530.636719 C 318.203125 529.742188 317.925781 528.824219 317.734375 527.875 C 317.546875 526.925781 317.453125 525.96875 317.453125 525 L 317.453125 206.730469 C 317.453125 205.765625 317.546875 204.808594 317.734375 203.859375 C 317.925781 202.910156 318.203125 201.988281 318.574219 201.09375 C 318.945312 200.199219 319.398438 199.351562 319.9375 198.546875 C 320.472656 197.742188 321.082031 197 321.769531 196.316406 C 322.453125 195.632812 323.195312 195.019531 324 194.484375 C 324.804688 193.945312 325.652344 193.492188 326.546875 193.121094 C 327.441406 192.75 328.363281 192.472656 329.3125 192.28125 C 330.257812 192.09375 331.21875 192 332.183594 192 Z M 332.183594 192 " fill-opacity="1" fill-rule="nonzero"/></g><g clip-path="url(#62e3b4c918)"><path fill="#5271ff" d="M 332.183594 192 L 486.871094 192 C 487.839844 192 488.796875 192.09375 489.746094 192.28125 C 490.695312 192.472656 491.617188 192.75 492.507812 193.121094 C 493.402344 193.492188 494.253906 193.945312 495.054688 194.484375 C 495.859375 195.019531 496.605469 195.632812 497.289062 196.316406 C 497.972656 197 498.582031 197.742188 499.121094 198.546875 C 499.660156 199.351562 500.113281 200.199219 500.480469 201.09375 C 500.851562 201.988281 501.132812 202.910156 501.320312 203.859375 C 501.507812 204.808594 501.605469 205.765625 501.605469 206.730469 L 501.605469 525 C 501.605469 525.96875 501.507812 526.925781 501.320312 527.875 C 501.132812 528.824219 500.851562 529.742188 500.480469 530.636719 C 500.113281 531.53125 499.660156 532.378906 499.121094 533.183594 C 498.582031 533.988281 497.972656 534.734375 497.289062 535.417969 C 496.605469 536.101562 495.859375 536.710938 495.054688 537.25 C 494.253906 537.785156 493.402344 538.242188 492.507812 538.609375 C 491.617188 538.980469 490.695312 539.261719 489.746094 539.449219 C 488.796875 539.636719 487.839844 539.730469 486.871094 539.730469 L 332.183594 539.730469 C 331.21875 539.730469 330.257812 539.636719 329.3125 539.449219 C 328.363281 539.261719 327.441406 538.980469 326.546875 538.609375 C 325.652344 538.242188 324.804688 537.785156 324 537.25 C 323.195312 536.710938 322.453125 536.101562 321.769531 535.417969 C 321.082031 534.734375 320.472656 533.988281 319.9375 533.183594 C 319.398438 532.378906 318.945312 531.53125 318.574219 530.636719 C 318.203125 529.742188 317.925781 528.824219 317.734375 527.875 C 317.546875 526.925781 317.453125 525.96875 317.453125 525 L 317.453125 206.730469 C 317.453125 205.765625 317.546875 204.808594 317.734375 203.859375 C 317.925781 202.910156 318.203125 201.988281 318.574219 201.09375 C 318.945312 200.199219 319.398438 199.351562 319.9375 198.546875 C 320.472656 197.742188 321.082031 197 321.769531 196.316406 C 322.453125 195.632812 323.195312 195.019531 324 194.484375 C 324.804688 193.945312 325.652344 193.492188 326.546875 193.121094 C 327.441406 192.75 328.363281 192.472656 329.3125 192.28125 C 330.257812 192.09375 331.21875 192 332.183594 192 Z M 332.183594 192 " fill-opacity="1" fill-rule="nonzero"/></g><g clip-path="url(#e79b300e9c)"><path fill="#ffbd59" d="M 332.183594 192 L 486.871094 192 C 487.839844 192 488.796875 192.09375 489.746094 192.28125 C 490.695312 192.472656 491.617188 192.75 492.507812 193.121094 C 493.402344 193.492188 494.253906 193.945312 495.054688 194.484375 C 495.859375 195.019531 496.605469 195.632812 497.289062 196.316406 C 497.972656 197 498.582031 197.742188 499.121094 198.546875 C 499.660156 199.351562 500.113281 200.199219 500.480469 201.09375 C 500.851562 201.988281 501.132812 202.910156 501.320312 203.859375 C 501.507812 204.808594 501.605469 205.765625 501.605469 206.730469 L 501.605469 525 C 501.605469 525.96875 501.507812 526.925781 501.320312 527.875 C 501.132812 528.824219 500.851562 529.742188 500.480469 530.636719 C 500.113281 531.53125 499.660156 532.378906 499.121094 533.183594 C 498.582031 533.988281 497.972656 534.734375 497.289062 535.417969 C 496.605469 536.101562 495.859375 536.710938 495.054688 537.25 C 494.253906 537.785156 493.402344 538.242188 492.507812 538.609375 C 491.617188 538.980469 490.695312 539.261719 489.746094 539.449219 C 488.796875 539.636719 487.839844 539.730469 486.871094 539.730469 L 332.183594 539.730469 C 331.21875 539.730469 330.257812 539.636719 329.3125 539.449219 C 328.363281 539.261719 327.441406 538.980469 326.546875 538.609375 C 325.652344 538.242188 324.804688 537.785156 324 537.25 C 323.195312 536.710938 322.453125 536.101562 321.769531 535.417969 C 321.082031 534.734375 320.472656 533.988281 319.9375 533.183594 C 319.398438 532.378906 318.945312 531.53125 318.574219 530.636719 C 318.203125 529.742188 317.925781 528.824219 317.734375 527.875 C 317.546875 526.925781 317.453125 525.96875 317.453125 525 L 317.453125 206.730469 C 317.453125 205.765625 317.546875 204.808594 317.734375 203.859375 C 317.925781 202.910156 318.203125 201.988281 318.574219 201.09375 C 318.945312 200.199219 319.398438 199.351562 319.9375 198.546875 C 320.472656 197.742188 321.082031 197 321.769531 196.316406 C 322.453125 195.632812 323.195312 195.019531 324 194.484375 C 324.804688 193.945312 325.652344 193.492188 326.546875 193.121094 C 327.441406 192.75 328.363281 192.472656 329.3125 192.28125 C 330.257812 192.09375 331.21875 192 332.183594 192 Z M 332.183594 192 " fill-opacity="1" fill-rule="nonzero"/></g><g clip-path="url(#bea98f81db)"><path fill="#ff5757" d="M 536.796875 93 L 691.484375 93 C 692.449219 93 693.410156 93.09375 694.359375 93.28125 C 695.304688 93.472656 696.226562 93.75 697.121094 94.121094 C 698.015625 94.492188 698.863281 94.945312 699.667969 95.484375 C 700.472656 96.019531 701.21875 96.632812 701.902344 97.316406 C 702.585938 98 703.195312 98.742188 703.734375 99.546875 C 704.269531 100.351562 704.722656 101.199219 705.09375 102.09375 C 705.464844 102.988281 705.742188 103.910156 705.933594 104.859375 C 706.121094 105.808594 706.214844 106.765625 706.214844 107.730469 L 706.214844 525 C 706.214844 525.96875 706.121094 526.925781 705.933594 527.875 C 705.742188 528.824219 705.464844 529.742188 705.09375 530.636719 C 704.722656 531.53125 704.269531 532.378906 703.734375 533.183594 C 703.195312 533.988281 702.585938 534.734375 701.902344 535.417969 C 701.21875 536.101562 700.472656 536.710938 699.667969 537.25 C 698.863281 537.785156 698.015625 538.242188 697.121094 538.609375 C 696.226562 538.980469 695.304688 539.261719 694.359375 539.449219 C 693.410156 539.636719 692.449219 539.730469 691.484375 539.730469 L 536.796875 539.730469 C 535.828125 539.730469 534.871094 539.636719 533.921875 539.449219 C 532.972656 539.261719 532.054688 538.980469 531.160156 538.609375 C 530.265625 538.242188 529.417969 537.785156 528.613281 537.25 C 527.808594 536.710938 527.0625 536.101562 526.378906 535.417969 C 525.695312 534.734375 525.085938 533.988281 524.546875 533.183594 C 524.011719 532.378906 523.554688 531.53125 523.1875 530.636719 C 522.816406 529.742188 522.535156 528.824219 522.347656 527.875 C 522.160156 526.925781 522.066406 525.96875 522.066406 525 L 522.066406 107.730469 C 522.066406 106.765625 522.160156 105.808594 522.347656 104.859375 C 522.535156 103.910156 522.816406 102.988281 523.1875 102.09375 C 523.554688 101.199219 524.011719 100.351562 524.546875 99.546875 C 525.085938 98.742188 525.695312 98 526.378906 97.316406 C 527.0625 96.632812 527.808594 96.019531 528.613281 95.484375 C 529.417969 94.945312 530.265625 94.492188 531.160156 94.121094 C 532.054688 93.75 532.972656 93.472656 533.921875 93.28125 C 534.871094 93.09375 535.828125 93 536.796875 93 Z M 536.796875 93 " fill-opacity="1" fill-rule="nonzero"/></g><g clip-path="url(#85c418f249)"><path fill="#8c52ff" d="M 536.796875 93 L 691.484375 93 C 692.449219 93 693.410156 93.09375 694.359375 93.28125 C 695.304688 93.472656 696.226562 93.75 697.121094 94.121094 C 698.015625 94.492188 698.863281 94.945312 699.667969 95.484375 C 700.472656 96.019531 701.21875 96.632812 701.902344 97.316406 C 702.585938 98 703.195312 98.742188 703.734375 99.546875 C 704.269531 100.351562 704.722656 101.199219 705.09375 102.09375 C 705.464844 102.988281 705.742188 103.910156 705.933594 104.859375 C 706.121094 105.808594 706.214844 106.765625 706.214844 107.730469 L 706.214844 525 C 706.214844 525.96875 706.121094 526.925781 705.933594 527.875 C 705.742188 528.824219 705.464844 529.742188 705.09375 530.636719 C 704.722656 531.53125 704.269531 532.378906 703.734375 533.183594 C 703.195312 533.988281 702.585938 534.734375 701.902344 535.417969 C 701.21875 536.101562 700.472656 536.710938 699.667969 537.25 C 698.863281 537.785156 698.015625 538.242188 697.121094 538.609375 C 696.226562 538.980469 695.304688 539.261719 694.359375 539.449219 C 693.410156 539.636719 692.449219 539.730469 691.484375 539.730469 L 536.796875 539.730469 C 535.828125 539.730469 534.871094 539.636719 533.921875 539.449219 C 532.972656 539.261719 532.054688 538.980469 531.160156 538.609375 C 530.265625 538.242188 529.417969 537.785156 528.613281 537.25 C 527.808594 536.710938 527.0625 536.101562 526.378906 535.417969 C 525.695312 534.734375 525.085938 533.988281 524.546875 533.183594 C 524.011719 532.378906 523.554688 531.53125 523.1875 530.636719 C 522.816406 529.742188 522.535156 528.824219 522.347656 527.875 C 522.160156 526.925781 522.066406 525.96875 522.066406 525 L 522.066406 107.730469 C 522.066406 106.765625 522.160156 105.808594 522.347656 104.859375 C 522.535156 103.910156 522.816406 102.988281 523.1875 102.09375 C 523.554688 101.199219 524.011719 100.351562 524.546875 99.546875 C 525.085938 98.742188 525.695312 98 526.378906 97.316406 C 527.0625 96.632812 527.808594 96.019531 528.613281 95.484375 C 529.417969 94.945312 530.265625 94.492188 531.160156 94.121094 C 532.054688 93.75 532.972656 93.472656 533.921875 93.28125 C 534.871094 93.09375 535.828125 93 536.796875 93 Z M 536.796875 93 " fill-opacity="1" fill-rule="nonzero"/></g><g clip-path="url(#d00af2e018)"><path fill="#5271ff" d="M 536.796875 93 L 691.484375 93 C 692.449219 93 693.410156 93.09375 694.359375 93.28125 C 695.304688 93.472656 696.226562 93.75 697.121094 94.121094 C 698.015625 94.492188 698.863281 94.945312 699.667969 95.484375 C 700.472656 96.019531 701.21875 96.632812 701.902344 97.316406 C 702.585938 98 703.195312 98.742188 703.734375 99.546875 C 704.269531 100.351562 704.722656 101.199219 705.09375 102.09375 C 705.464844 102.988281 705.742188 103.910156 705.933594 104.859375 C 706.121094 105.808594 706.214844 106.765625 706.214844 107.730469 L 706.214844 525 C 706.214844 525.96875 706.121094 526.925781 705.933594 527.875 C 705.742188 528.824219 705.464844 529.742188 705.09375 530.636719 C 704.722656 531.53125 704.269531 532.378906 703.734375 533.183594 C 703.195312 533.988281 702.585938 534.734375 701.902344 535.417969 C 701.21875 536.101562 700.472656 536.710938 699.667969 537.25 C 698.863281 537.785156 698.015625 538.242188 697.121094 538.609375 C 696.226562 538.980469 695.304688 539.261719 694.359375 539.449219 C 693.410156 539.636719 692.449219 539.730469 691.484375 539.730469 L 536.796875 539.730469 C 535.828125 539.730469 534.871094 539.636719 533.921875 539.449219 C 532.972656 539.261719 532.054688 538.980469 531.160156 538.609375 C 530.265625 538.242188 529.417969 537.785156 528.613281 537.25 C 527.808594 536.710938 527.0625 536.101562 526.378906 535.417969 C 525.695312 534.734375 525.085938 533.988281 524.546875 533.183594 C 524.011719 532.378906 523.554688 531.53125 523.1875 530.636719 C 522.816406 529.742188 522.535156 528.824219 522.347656 527.875 C 522.160156 526.925781 522.066406 525.96875 522.066406 525 L 522.066406 107.730469 C 522.066406 106.765625 522.160156 105.808594 522.347656 104.859375 C 522.535156 103.910156 522.816406 102.988281 523.1875 102.09375 C 523.554688 101.199219 524.011719 100.351562 524.546875 99.546875 C 525.085938 98.742188 525.695312 98 526.378906 97.316406 C 527.0625 96.632812 527.808594 96.019531 528.613281 95.484375 C 529.417969 94.945312 530.265625 94.492188 531.160156 94.121094 C 532.054688 93.75 532.972656 93.472656 533.921875 93.28125 C 534.871094 93.09375 535.828125 93 536.796875 93 Z M 536.796875 93 " fill-opacity="1" fill-rule="nonzero"/></g><g clip-path="url(#9650f92463)"><path fill="#ffbd59" d="M 536.796875 93 L 691.484375 93 C 692.449219 93 693.410156 93.09375 694.359375 93.28125 C 695.304688 93.472656 696.226562 93.75 697.121094 94.121094 C 698.015625 94.492188 698.863281 94.945312 699.667969 95.484375 C 700.472656 96.019531 701.21875 96.632812 701.902344 97.316406 C 702.585938 98 703.195312 98.742188 703.734375 99.546875 C 704.269531 100.351562 704.722656 101.199219 705.09375 102.09375 C 705.464844 102.988281 705.742188 103.910156 705.933594 104.859375 C 706.121094 105.808594 706.214844 106.765625 706.214844 107.730469 L 706.214844 525 C 706.214844 525.96875 706.121094 526.925781 705.933594 527.875 C 705.742188 528.824219 705.464844 529.742188 705.09375 530.636719 C 704.722656 531.53125 704.269531 532.378906 703.734375 533.183594 C 703.195312 533.988281 702.585938 534.734375 701.902344 535.417969 C 701.21875 536.101562 700.472656 536.710938 699.667969 537.25 C 698.863281 537.785156 698.015625 538.242188 697.121094 538.609375 C 696.226562 538.980469 695.304688 539.261719 694.359375 539.449219 C 693.410156 539.636719 692.449219 539.730469 691.484375 539.730469 L 536.796875 539.730469 C 535.828125 539.730469 534.871094 539.636719 533.921875 539.449219 C 532.972656 539.261719 532.054688 538.980469 531.160156 538.609375 C 530.265625 538.242188 529.417969 537.785156 528.613281 537.25 C 527.808594 536.710938 527.0625 536.101562 526.378906 535.417969 C 525.695312 534.734375 525.085938 533.988281 524.546875 533.183594 C 524.011719 532.378906 523.554688 531.53125 523.1875 530.636719 C 522.816406 529.742188 522.535156 528.824219 522.347656 527.875 C 522.160156 526.925781 522.066406 525.96875 522.066406 525 L 522.066406 107.730469 C 522.066406 106.765625 522.160156 105.808594 522.347656 104.859375 C 522.535156 103.910156 522.816406 102.988281 523.1875 102.09375 C 523.554688 101.199219 524.011719 100.351562 524.546875 99.546875 C 525.085938 98.742188 525.695312 98 526.378906 97.316406 C 527.0625 96.632812 527.808594 96.019531 528.613281 95.484375 C 529.417969 94.945312 530.265625 94.492188 531.160156 94.121094 C 532.054688 93.75 532.972656 93.472656 533.921875 93.28125 C 534.871094 93.09375 535.828125 93 536.796875 93 Z M 536.796875 93 " fill-opacity="1" fill-rule="nonzero"/></g><g clip-path="url(#c29058ed87)"><path fill="#8c52ff" d="M 741.410156 237 L 896.097656 237 C 897.0625 237 898.019531 237.09375 898.96875 237.28125 C 899.917969 237.472656 900.839844 237.75 901.734375 238.121094 C 902.628906 238.492188 903.476562 238.945312 904.28125 239.484375 C 905.085938 240.019531 905.828125 240.632812 906.511719 241.316406 C 907.195312 242 907.808594 242.742188 908.34375 243.546875 C 908.882812 244.351562 909.335938 245.199219 909.707031 246.09375 C 910.078125 246.988281 910.355469 247.910156 910.542969 248.859375 C 910.734375 249.808594 910.828125 250.765625 910.828125 251.730469 L 910.828125 525 C 910.828125 525.96875 910.734375 526.925781 910.542969 527.875 C 910.355469 528.824219 910.078125 529.742188 909.707031 530.636719 C 909.335938 531.53125 908.882812 532.378906 908.34375 533.183594 C 907.808594 533.988281 907.195312 534.734375 906.511719 535.417969 C 905.828125 536.101562 905.085938 536.710938 904.28125 537.25 C 903.476562 537.785156 902.628906 538.242188 901.734375 538.609375 C 900.839844 538.980469 899.917969 539.261719 898.96875 539.449219 C 898.019531 539.636719 897.0625 539.730469 896.097656 539.730469 L 741.410156 539.730469 C 740.441406 539.730469 739.484375 539.636719 738.535156 539.449219 C 737.585938 539.261719 736.664062 538.980469 735.769531 538.609375 C 734.878906 538.242188 734.027344 537.785156 733.222656 537.25 C 732.421875 536.710938 731.675781 536.101562 730.992188 535.417969 C 730.308594 534.734375 729.695312 533.988281 729.160156 533.183594 C 728.621094 532.378906 728.167969 531.53125 727.796875 530.636719 C 727.429688 529.742188 727.148438 528.824219 726.960938 527.875 C 726.769531 526.925781 726.675781 525.96875 726.675781 525 L 726.675781 251.730469 C 726.675781 250.765625 726.769531 249.808594 726.960938 248.859375 C 727.148438 247.910156 727.429688 246.988281 727.796875 246.09375 C 728.167969 245.199219 728.621094 244.351562 729.160156 243.546875 C 729.695312 242.742188 730.308594 242 730.992188 241.316406 C 731.675781 240.632812 732.421875 240.019531 733.222656 239.484375 C 734.027344 238.945312 734.878906 238.492188 735.769531 238.121094 C 736.664062 237.75 737.585938 237.472656 738.535156 237.28125 C 739.484375 237.09375 740.441406 237 741.410156 237 Z M 741.410156 237 " fill-opacity="1" fill-rule="nonzero"/></g><g clip-path="url(#33531f1c37)"><path fill="#5271ff" d="M 741.410156 237 L 896.097656 237 C 897.0625 237 898.019531 237.09375 898.96875 237.28125 C 899.917969 237.472656 900.839844 237.75 901.734375 238.121094 C 902.628906 238.492188 903.476562 238.945312 904.28125 239.484375 C 905.085938 240.019531 905.828125 240.632812 906.511719 241.316406 C 907.195312 242 907.808594 242.742188 908.34375 243.546875 C 908.882812 244.351562 909.335938 245.199219 909.707031 246.09375 C 910.078125 246.988281 910.355469 247.910156 910.542969 248.859375 C 910.734375 249.808594 910.828125 250.765625 910.828125 251.730469 L 910.828125 525 C 910.828125 525.96875 910.734375 526.925781 910.542969 527.875 C 910.355469 528.824219 910.078125 529.742188 909.707031 530.636719 C 909.335938 531.53125 908.882812 532.378906 908.34375 533.183594 C 907.808594 533.988281 907.195312 534.734375 906.511719 535.417969 C 905.828125 536.101562 905.085938 536.710938 904.28125 537.25 C 903.476562 537.785156 902.628906 538.242188 901.734375 538.609375 C 900.839844 538.980469 899.917969 539.261719 898.96875 539.449219 C 898.019531 539.636719 897.0625 539.730469 896.097656 539.730469 L 741.410156 539.730469 C 740.441406 539.730469 739.484375 539.636719 738.535156 539.449219 C 737.585938 539.261719 736.664062 538.980469 735.769531 538.609375 C 734.878906 538.242188 734.027344 537.785156 733.222656 537.25 C 732.421875 536.710938 731.675781 536.101562 730.992188 535.417969 C 730.308594 534.734375 729.695312 533.988281 729.160156 533.183594 C 728.621094 532.378906 728.167969 531.53125 727.796875 530.636719 C 727.429688 529.742188 727.148438 528.824219 726.960938 527.875 C 726.769531 526.925781 726.675781 525.96875 726.675781 525 L 726.675781 251.730469 C 726.675781 250.765625 726.769531 249.808594 726.960938 248.859375 C 727.148438 247.910156 727.429688 246.988281 727.796875 246.09375 C 728.167969 245.199219 728.621094 244.351562 729.160156 243.546875 C 729.695312 242.742188 730.308594 242 730.992188 241.316406 C 731.675781 240.632812 732.421875 240.019531 733.222656 239.484375 C 734.027344 238.945312 734.878906 238.492188 735.769531 238.121094 C 736.664062 237.75 737.585938 237.472656 738.535156 237.28125 C 739.484375 237.09375 740.441406 237 741.410156 237 Z M 741.410156 237 " fill-opacity="1" fill-rule="nonzero"/></g><g clip-path="url(#84b0642790)"><path fill="#ffbd59" d="M 741.410156 237 L 896.097656 237 C 897.0625 237 898.019531 237.09375 898.96875 237.28125 C 899.917969 237.472656 900.839844 237.75 901.734375 238.121094 C 902.628906 238.492188 903.476562 238.945312 904.28125 239.484375 C 905.085938 240.019531 905.828125 240.632812 906.511719 241.316406 C 907.195312 242 907.808594 242.742188 908.34375 243.546875 C 908.882812 244.351562 909.335938 245.199219 909.707031 246.09375 C 910.078125 246.988281 910.355469 247.910156 910.542969 248.859375 C 910.734375 249.808594 910.828125 250.765625 910.828125 251.730469 L 910.828125 525 C 910.828125 525.96875 910.734375 526.925781 910.542969 527.875 C 910.355469 528.824219 910.078125 529.742188 909.707031 530.636719 C 909.335938 531.53125 908.882812 532.378906 908.34375 533.183594 C 907.808594 533.988281 907.195312 534.734375 906.511719 535.417969 C 905.828125 536.101562 905.085938 536.710938 904.28125 537.25 C 903.476562 537.785156 902.628906 538.242188 901.734375 538.609375 C 900.839844 538.980469 899.917969 539.261719 898.96875 539.449219 C 898.019531 539.636719 897.0625 539.730469 896.097656 539.730469 L 741.410156 539.730469 C 740.441406 539.730469 739.484375 539.636719 738.535156 539.449219 C 737.585938 539.261719 736.664062 538.980469 735.769531 538.609375 C 734.878906 538.242188 734.027344 537.785156 733.222656 537.25 C 732.421875 536.710938 731.675781 536.101562 730.992188 535.417969 C 730.308594 534.734375 729.695312 533.988281 729.160156 533.183594 C 728.621094 532.378906 728.167969 531.53125 727.796875 530.636719 C 727.429688 529.742188 727.148438 528.824219 726.960938 527.875 C 726.769531 526.925781 726.675781 525.96875 726.675781 525 L 726.675781 251.730469 C 726.675781 250.765625 726.769531 249.808594 726.960938 248.859375 C 727.148438 247.910156 727.429688 246.988281 727.796875 246.09375 C 728.167969 245.199219 728.621094 244.351562 729.160156 243.546875 C 729.695312 242.742188 730.308594 242 730.992188 241.316406 C 731.675781 240.632812 732.421875 240.019531 733.222656 239.484375 C 734.027344 238.945312 734.878906 238.492188 735.769531 238.121094 C 736.664062 237.75 737.585938 237.472656 738.535156 237.28125 C 739.484375 237.09375 740.441406 237 741.410156 237 Z M 741.410156 237 " fill-opacity="1" fill-rule="nonzero"/></g></svg>