<svg xmlns="http://www.w3.org/2000/svg" xmlns:xlink="http://www.w3.org/1999/xlink" width="1280" zoomAndPan="magnify" viewBox="0 0 960 599.999999" height="800" preserveAspectRatio="xMidYMid meet" version="1.0"><defs><filter x="0%" y="0%" width="100%" height="100%" id="5b7740d8c3"><feColorMatrix values="0 0 0 0 1 0 0 0 0 1 0 0 0 0 1 0 0 0 1 0" color-interpolation-filters="sRGB"/></filter><g/><clipPath id="501f28b8e6"><path d="M 122.246094 60 L 798.179688 60 L 798.179688 439.929688 L 122.246094 439.929688 Z M 122.246094 60 " clip-rule="nonzero"/></clipPath><clipPath id="89b1f56da4"><path d="M 137.246094 60 L 783.179688 60 C 787.15625 60 790.972656 61.582031 793.785156 64.394531 C 796.597656 67.207031 798.179688 71.023438 798.179688 75 L 798.179688 424.929688 C 798.179688 428.90625 796.597656 432.722656 793.785156 435.535156 C 790.972656 438.347656 787.15625 439.929688 783.179688 439.929688 L 137.246094 439.929688 C 133.269531 439.929688 129.453125 438.347656 126.640625 435.535156 C 123.828125 432.722656 122.246094 428.90625 122.246094 424.929688 L 122.246094 75 C 122.246094 71.023438 123.828125 67.207031 126.640625 64.394531 C 129.453125 61.582031 133.269531 60 137.246094 60 Z M 137.246094 60 " clip-rule="nonzero"/></clipPath><clipPath id="caa2672b69"><path d="M 416.859375 132.746094 L 422.945312 132.746094 L 422.945312 138.832031 L 416.859375 138.832031 Z M 416.859375 132.746094 " clip-rule="nonzero"/></clipPath><clipPath id="c9010c0ab3"><path d="M 419.902344 132.746094 C 418.222656 132.746094 416.859375 134.109375 416.859375 135.789062 C 416.859375 137.472656 418.222656 138.832031 419.902344 138.832031 C 421.582031 138.832031 422.945312 137.472656 422.945312 135.789062 C 422.945312 134.109375 421.582031 132.746094 419.902344 132.746094 Z M 419.902344 132.746094 " clip-rule="nonzero"/></clipPath><clipPath id="a4e327707b"><path d="M 491.007812 132.746094 L 497.09375 132.746094 L 497.09375 138.832031 L 491.007812 138.832031 Z M 491.007812 132.746094 " clip-rule="nonzero"/></clipPath><clipPath id="f298c7d161"><path d="M 494.050781 132.746094 C 492.371094 132.746094 491.007812 134.109375 491.007812 135.789062 C 491.007812 137.472656 492.371094 138.832031 494.050781 138.832031 C 495.730469 138.832031 497.09375 137.472656 497.09375 135.789062 C 497.09375 134.109375 495.730469 132.746094 494.050781 132.746094 Z M 494.050781 132.746094 " clip-rule="nonzero"/></clipPath><clipPath id="d709ffe8c0"><path d="M 186 154 L 731.757812 154 L 731.757812 334 L 186 334 Z M 186 154 " clip-rule="nonzero"/></clipPath><mask id="9aa6172724"><g filter="url(#5b7740d8c3)"><rect x="-96" width="1152" fill="#000000" y="-60" height="719.999999" fill-opacity="0.25"/></g></mask><clipPath id="5f9281a8e2"><path d="M 1 177 L 545.757812 177 L 545.757812 179 L 1 179 Z M 1 177 " clip-rule="nonzero"/></clipPath><clipPath id="a3768300da"><path d="M 1 142 L 545.757812 142 L 545.757812 144 L 1 144 Z M 1 142 " clip-rule="nonzero"/></clipPath><clipPath id="bb1f09efa3"><path d="M 1 106 L 545.757812 106 L 545.757812 109 L 1 109 Z M 1 106 " clip-rule="nonzero"/></clipPath><clipPath id="31969e31ef"><path d="M 1 71 L 545.757812 71 L 545.757812 73 L 1 73 Z M 1 71 " clip-rule="nonzero"/></clipPath><clipPath id="b3d4c91fbb"><path d="M 1 36 L 545.757812 36 L 545.757812 38 L 1 38 Z M 1 36 " clip-rule="nonzero"/></clipPath><clipPath id="fd19f4807c"><path d="M 1 0.078125 L 545.757812 0.078125 L 545.757812 2 L 1 2 Z M 1 0.078125 " clip-rule="nonzero"/></clipPath><clipPath id="37deaa64e4"><rect x="0" width="546" y="0" height="180"/></clipPath><clipPath id="08edb63a4e"><path d="M 186 366 L 731.757812 366 L 731.757812 369 L 186 369 Z M 186 366 " clip-rule="nonzero"/></clipPath><mask id="3aeff18096"><g filter="url(#5b7740d8c3)"><rect x="-96" width="1152" fill="#000000" y="-60" height="719.999999" fill-opacity="0.6"/></g></mask><clipPath id="f3634af662"><path d="M 1 1 L 545.757812 1 L 545.757812 2.640625 L 1 2.640625 Z M 1 1 " clip-rule="nonzero"/></clipPath><clipPath id="a61214fddc"><rect x="0" width="546" y="0" height="3"/></clipPath><clipPath id="160131dab5"><path d="M 515 144.832031 L 585 144.832031 L 585 185 L 515 185 Z M 515 144.832031 " clip-rule="nonzero"/></clipPath><clipPath id="6d6d7f5728"><path d="M 561 144.832031 L 631 144.832031 L 631 238 L 561 238 Z M 561 144.832031 " clip-rule="nonzero"/></clipPath></defs><g clip-path="url(#501f28b8e6)"><g clip-path="url(#89b1f56da4)"><path fill="#ffffff" d="M 122.246094 60 L 798.179688 60 L 798.179688 439.929688 L 122.246094 439.929688 Z M 122.246094 60 " fill-opacity="1" fill-rule="nonzero"/></g></g><g clip-path="url(#caa2672b69)"><g clip-path="url(#c9010c0ab3)"><path fill="#5669cc" d="M 416.859375 132.746094 L 422.945312 132.746094 L 422.945312 138.832031 L 416.859375 138.832031 Z M 416.859375 132.746094 " fill-opacity="1" fill-rule="nonzero"/></g></g><g clip-path="url(#a4e327707b)"><g clip-path="url(#f298c7d161)"><path fill="#e8e8e8" d="M 491.007812 132.746094 L 497.09375 132.746094 L 497.09375 138.832031 L 491.007812 138.832031 Z M 491.007812 132.746094 " fill-opacity="1" fill-rule="nonzero"/></g></g><g fill="#252525" fill-opacity="1"><g transform="translate(193.251491, 427.532889)"><g><path d="M -4.359375 -18.203125 L 3.96875 -9.875 C 4.894531 -8.945312 5.351562 -7.921875 5.34375 -6.796875 C 5.332031 -5.671875 4.851562 -4.632812 3.90625 -3.6875 C 2.957031 -2.738281 1.910156 -2.257812 0.765625 -2.25 C -0.367188 -2.25 -1.425781 -2.738281 -2.40625 -3.71875 L -0.9375 -5.1875 C -0.363281 -4.65625 0.234375 -4.351562 0.859375 -4.28125 C 1.484375 -4.207031 2.066406 -4.441406 2.609375 -4.984375 C 3.160156 -5.535156 3.40625 -6.113281 3.34375 -6.71875 C 3.28125 -7.320312 2.992188 -7.878906 2.484375 -8.390625 L -5.84375 -16.71875 Z M -4.359375 -18.203125 "/></g></g></g><g fill="#252525" fill-opacity="1"><g transform="translate(201.824621, 418.959759)"><g><path d="M -3.765625 -5.171875 C -4.671875 -6.078125 -5.28125 -7.050781 -5.59375 -8.09375 C -5.914062 -9.144531 -5.945312 -10.179688 -5.6875 -11.203125 C -5.425781 -12.222656 -4.898438 -13.128906 -4.109375 -13.921875 C -3.335938 -14.691406 -2.492188 -15.195312 -1.578125 -15.4375 C -0.671875 -15.6875 0.171875 -15.691406 0.953125 -15.453125 L -0.671875 -17.078125 L 0.828125 -18.578125 L 9.703125 -9.703125 L 8.203125 -8.203125 L 6.5625 -9.84375 C 6.78125 -9.039062 6.769531 -8.179688 6.53125 -7.265625 C 6.289062 -6.347656 5.789062 -5.507812 5.03125 -4.75 C 4.238281 -3.957031 3.332031 -3.4375 2.3125 -3.1875 C 1.289062 -2.9375 0.25 -2.976562 -0.8125 -3.3125 C -1.882812 -3.65625 -2.867188 -4.273438 -3.765625 -5.171875 Z M 3.75 -12.65625 C 3.082031 -13.320312 2.367188 -13.769531 1.609375 -14 C 0.847656 -14.226562 0.101562 -14.242188 -0.625 -14.046875 C -1.351562 -13.847656 -1.992188 -13.472656 -2.546875 -12.921875 C -3.085938 -12.378906 -3.457031 -11.75 -3.65625 -11.03125 C -3.851562 -10.3125 -3.835938 -9.570312 -3.609375 -8.8125 C -3.378906 -8.050781 -2.929688 -7.335938 -2.265625 -6.671875 C -1.585938 -5.992188 -0.863281 -5.535156 -0.09375 -5.296875 C 0.675781 -5.054688 1.421875 -5.035156 2.140625 -5.234375 C 2.859375 -5.429688 3.488281 -5.800781 4.03125 -6.34375 C 4.582031 -6.894531 4.957031 -7.53125 5.15625 -8.25 C 5.363281 -8.976562 5.347656 -9.726562 5.109375 -10.5 C 4.867188 -11.269531 4.414062 -11.988281 3.75 -12.65625 Z M 3.75 -12.65625 "/></g></g></g><g fill="#252525" fill-opacity="1"><g transform="translate(212.759397, 408.024983)"><g><path d="M -3.46875 -14.59375 C -2.382812 -15.675781 -1.1875 -16.222656 0.125 -16.234375 C 1.445312 -16.253906 2.726562 -15.644531 3.96875 -14.40625 L 9.1875 -9.1875 L 7.734375 -7.734375 L 2.71875 -12.75 C 1.832031 -13.632812 0.929688 -14.085938 0.015625 -14.109375 C -0.890625 -14.140625 -1.722656 -13.773438 -2.484375 -13.015625 C -3.265625 -12.234375 -3.640625 -11.367188 -3.609375 -10.421875 C -3.585938 -9.484375 -3.113281 -8.550781 -2.1875 -7.625 L 2.71875 -2.71875 L 1.25 -1.25 L -7.625 -10.125 L -6.15625 -11.59375 L -4.890625 -10.328125 C -5.046875 -11.066406 -5 -11.8125 -4.75 -12.5625 C -4.5 -13.3125 -4.070312 -13.988281 -3.46875 -14.59375 Z M -3.46875 -14.59375 "/></g></g></g><g fill="#252525" fill-opacity="1"><g transform="translate(240.409677, 426.793389)"><g><path d="M -3.65625 -18.90625 L -2.46875 -17.71875 L -7.375 -12.8125 L -3.5625 -9 L 0.421875 -12.984375 L 1.625 -11.78125 L -2.359375 -7.796875 L 2.71875 -2.71875 L 1.25 -1.25 L -10.03125 -12.53125 Z M -3.65625 -18.90625 "/></g></g></g><g fill="#252525" fill-opacity="1"><g transform="translate(248.562233, 418.640834)"><g><path d="M 4.5625 -14.09375 C 4.832031 -13.820312 5.113281 -13.519531 5.40625 -13.1875 L -1.6875 -6.09375 C -0.757812 -5.269531 0.21875 -4.882812 1.25 -4.9375 C 2.289062 -5 3.195312 -5.414062 3.96875 -6.1875 C 4.601562 -6.820312 4.988281 -7.5 5.125 -8.21875 C 5.257812 -8.9375 5.164062 -9.632812 4.84375 -10.3125 L 6.421875 -11.890625 C 7.046875 -10.804688 7.265625 -9.640625 7.078125 -8.390625 C 6.898438 -7.148438 6.28125 -6 5.21875 -4.9375 C 4.382812 -4.101562 3.445312 -3.539062 2.40625 -3.25 C 1.363281 -2.957031 0.304688 -2.972656 -0.765625 -3.296875 C -1.835938 -3.617188 -2.832031 -4.238281 -3.75 -5.15625 C -4.664062 -6.070312 -5.285156 -7.054688 -5.609375 -8.109375 C -5.941406 -9.171875 -5.957031 -10.21875 -5.65625 -11.25 C -5.363281 -12.289062 -4.789062 -13.238281 -3.9375 -14.09375 C -3.09375 -14.9375 -2.160156 -15.492188 -1.140625 -15.765625 C -0.128906 -16.046875 0.867188 -16.039062 1.859375 -15.75 C 2.847656 -15.457031 3.75 -14.90625 4.5625 -14.09375 Z M 2.75 -12.90625 C 2.1875 -13.46875 1.578125 -13.828125 0.921875 -13.984375 C 0.265625 -14.140625 -0.378906 -14.109375 -1.015625 -13.890625 C -1.648438 -13.671875 -2.226562 -13.300781 -2.75 -12.78125 C -3.488281 -12.039062 -3.882812 -11.171875 -3.9375 -10.171875 C -3.988281 -9.171875 -3.628906 -8.210938 -2.859375 -7.296875 Z M 2.75 -12.90625 "/></g></g></g><g fill="#252525" fill-opacity="1"><g transform="translate(258.591171, 408.611895)"><g><path d="M -4.5 -9.9375 C -4.726562 -10.769531 -4.71875 -11.644531 -4.46875 -12.5625 C -4.21875 -13.476562 -3.722656 -14.304688 -2.984375 -15.046875 C -2.179688 -15.847656 -1.269531 -16.375 -0.25 -16.625 C 0.757812 -16.882812 1.785156 -16.851562 2.828125 -16.53125 C 3.878906 -16.21875 4.859375 -15.609375 5.765625 -14.703125 C 6.660156 -13.804688 7.273438 -12.820312 7.609375 -11.75 C 7.953125 -10.6875 7.992188 -9.640625 7.734375 -8.609375 C 7.484375 -7.585938 6.960938 -6.679688 6.171875 -5.890625 C 5.410156 -5.128906 4.570312 -4.625 3.65625 -4.375 C 2.75 -4.132812 1.890625 -4.128906 1.078125 -4.359375 L 2.71875 -2.71875 L 1.25 -1.25 L -10.71875 -13.21875 L -9.25 -14.6875 Z M 4.265625 -13.203125 C 3.597656 -13.867188 2.882812 -14.316406 2.125 -14.546875 C 1.363281 -14.773438 0.625 -14.785156 -0.09375 -14.578125 C -0.820312 -14.378906 -1.457031 -14.007812 -2 -13.46875 C -2.539062 -12.925781 -2.90625 -12.289062 -3.09375 -11.5625 C -3.289062 -10.84375 -3.273438 -10.09375 -3.046875 -9.3125 C -2.828125 -8.539062 -2.390625 -7.828125 -1.734375 -7.171875 C -1.066406 -6.503906 -0.34375 -6.054688 0.4375 -5.828125 C 1.21875 -5.597656 1.96875 -5.582031 2.6875 -5.78125 C 3.40625 -5.976562 4.035156 -6.347656 4.578125 -6.890625 C 5.117188 -7.429688 5.488281 -8.0625 5.6875 -8.78125 C 5.894531 -9.507812 5.878906 -10.257812 5.640625 -11.03125 C 5.398438 -11.800781 4.941406 -12.523438 4.265625 -13.203125 Z M 4.265625 -13.203125 "/></g></g></g><g fill="#252525" fill-opacity="1"><g transform="translate(282.611141, 428.792265)"><g><path d="M 1.484375 -23.890625 L 12.6875 -12.6875 L 11.21875 -11.21875 L 2.859375 -19.578125 L 7.484375 -7.484375 L 6.46875 -6.46875 L -5.640625 -11.078125 L 2.71875 -2.71875 L 1.25 -1.25 L -9.953125 -12.453125 L -8.375 -14.03125 L 5.03125 -8.90625 L -0.09375 -22.3125 Z M 1.484375 -23.890625 "/></g></g></g><g fill="#252525" fill-opacity="1"><g transform="translate(296.538426, 414.864981)"><g><path d="M -3.765625 -5.171875 C -4.671875 -6.078125 -5.28125 -7.050781 -5.59375 -8.09375 C -5.914062 -9.144531 -5.945312 -10.179688 -5.6875 -11.203125 C -5.425781 -12.222656 -4.898438 -13.128906 -4.109375 -13.921875 C -3.335938 -14.691406 -2.492188 -15.195312 -1.578125 -15.4375 C -0.671875 -15.6875 0.171875 -15.691406 0.953125 -15.453125 L -0.671875 -17.078125 L 0.828125 -18.578125 L 9.703125 -9.703125 L 8.203125 -8.203125 L 6.5625 -9.84375 C 6.78125 -9.039062 6.769531 -8.179688 6.53125 -7.265625 C 6.289062 -6.347656 5.789062 -5.507812 5.03125 -4.75 C 4.238281 -3.957031 3.332031 -3.4375 2.3125 -3.1875 C 1.289062 -2.9375 0.25 -2.976562 -0.8125 -3.3125 C -1.882812 -3.65625 -2.867188 -4.273438 -3.765625 -5.171875 Z M 3.75 -12.65625 C 3.082031 -13.320312 2.367188 -13.769531 1.609375 -14 C 0.847656 -14.226562 0.101562 -14.242188 -0.625 -14.046875 C -1.351562 -13.847656 -1.992188 -13.472656 -2.546875 -12.921875 C -3.085938 -12.378906 -3.457031 -11.75 -3.65625 -11.03125 C -3.851562 -10.3125 -3.835938 -9.570312 -3.609375 -8.8125 C -3.378906 -8.050781 -2.929688 -7.335938 -2.265625 -6.671875 C -1.585938 -5.992188 -0.863281 -5.535156 -0.09375 -5.296875 C 0.675781 -5.054688 1.421875 -5.035156 2.140625 -5.234375 C 2.859375 -5.429688 3.488281 -5.800781 4.03125 -6.34375 C 4.582031 -6.894531 4.957031 -7.53125 5.15625 -8.25 C 5.363281 -8.976562 5.347656 -9.726562 5.109375 -10.5 C 4.867188 -11.269531 4.414062 -11.988281 3.75 -12.65625 Z M 3.75 -12.65625 "/></g></g></g><g fill="#252525" fill-opacity="1"><g transform="translate(307.473201, 403.930205)"><g><path d="M -4.703125 -10.140625 C -4.953125 -10.910156 -4.976562 -11.675781 -4.78125 -12.4375 C -4.582031 -13.195312 -4.140625 -13.921875 -3.453125 -14.609375 L -1.9375 -13.09375 L -2.328125 -12.703125 C -3.972656 -11.054688 -3.898438 -9.335938 -2.109375 -7.546875 L 2.71875 -2.71875 L 1.25 -1.25 L -7.625 -10.125 L -6.15625 -11.59375 Z M -4.703125 -10.140625 "/></g></g></g><g fill="#252525" fill-opacity="1"><g transform="translate(330.913157, 423.951074)"><g><path d="M 5.390625 -10.421875 L 0.484375 -5.515625 L 2.09375 -2.09375 L 0.53125 -0.53125 L -6.59375 -15.84375 L -4.90625 -17.53125 L 10.375 -10.375 L 8.8125 -8.8125 Z M 3.78125 -11.1875 L -3.953125 -14.859375 L -0.296875 -7.109375 Z M 3.78125 -11.1875 "/></g></g></g><g fill="#252525" fill-opacity="1"><g transform="translate(341.815584, 413.048648)"><g><path d="M -4.515625 -9.953125 C -4.734375 -10.753906 -4.722656 -11.613281 -4.484375 -12.53125 C -4.242188 -13.445312 -3.742188 -14.285156 -2.984375 -15.046875 C -2.191406 -15.835938 -1.285156 -16.363281 -0.265625 -16.625 C 0.753906 -16.882812 1.785156 -16.851562 2.828125 -16.53125 C 3.878906 -16.21875 4.859375 -15.609375 5.765625 -14.703125 C 6.660156 -13.804688 7.273438 -12.820312 7.609375 -11.75 C 7.953125 -10.6875 7.992188 -9.640625 7.734375 -8.609375 C 7.484375 -7.585938 6.960938 -6.679688 6.171875 -5.890625 C 5.421875 -5.140625 4.585938 -4.644531 3.671875 -4.40625 C 2.753906 -4.164062 1.890625 -4.148438 1.078125 -4.359375 L 6.921875 1.484375 L 5.453125 2.953125 L -7.625 -10.125 L -6.15625 -11.59375 Z M 4.265625 -13.203125 C 3.597656 -13.867188 2.882812 -14.316406 2.125 -14.546875 C 1.363281 -14.773438 0.625 -14.785156 -0.09375 -14.578125 C -0.820312 -14.378906 -1.457031 -14.007812 -2 -13.46875 C -2.539062 -12.925781 -2.90625 -12.289062 -3.09375 -11.5625 C -3.289062 -10.84375 -3.273438 -10.09375 -3.046875 -9.3125 C -2.828125 -8.539062 -2.390625 -7.828125 -1.734375 -7.171875 C -1.066406 -6.503906 -0.34375 -6.054688 0.4375 -5.828125 C 1.21875 -5.597656 1.96875 -5.582031 2.6875 -5.78125 C 3.40625 -5.976562 4.035156 -6.347656 4.578125 -6.890625 C 5.117188 -7.429688 5.488281 -8.0625 5.6875 -8.78125 C 5.894531 -9.507812 5.878906 -10.257812 5.640625 -11.03125 C 5.398438 -11.800781 4.941406 -12.523438 4.265625 -13.203125 Z M 4.265625 -13.203125 "/></g></g></g><g fill="#252525" fill-opacity="1"><g transform="translate(352.75036, 402.113872)"><g><path d="M -4.703125 -10.140625 C -4.953125 -10.910156 -4.976562 -11.675781 -4.78125 -12.4375 C -4.582031 -13.195312 -4.140625 -13.921875 -3.453125 -14.609375 L -1.9375 -13.09375 L -2.328125 -12.703125 C -3.972656 -11.054688 -3.898438 -9.335938 -2.109375 -7.546875 L 2.71875 -2.71875 L 1.25 -1.25 L -7.625 -10.125 L -6.15625 -11.59375 Z M -4.703125 -10.140625 "/></g></g></g><g fill="#252525" fill-opacity="1"><g transform="translate(369.475064, 430.698684)"><g><path d="M 1.484375 -23.890625 L 12.6875 -12.6875 L 11.21875 -11.21875 L 2.859375 -19.578125 L 7.484375 -7.484375 L 6.46875 -6.46875 L -5.640625 -11.078125 L 2.71875 -2.71875 L 1.25 -1.25 L -9.953125 -12.453125 L -8.375 -14.03125 L 5.03125 -8.90625 L -0.09375 -22.3125 Z M 1.484375 -23.890625 "/></g></g></g><g fill="#252525" fill-opacity="1"><g transform="translate(383.402348, 416.7714)"><g><path d="M -3.765625 -5.171875 C -4.671875 -6.078125 -5.28125 -7.050781 -5.59375 -8.09375 C -5.914062 -9.144531 -5.945312 -10.179688 -5.6875 -11.203125 C -5.425781 -12.222656 -4.898438 -13.128906 -4.109375 -13.921875 C -3.335938 -14.691406 -2.492188 -15.195312 -1.578125 -15.4375 C -0.671875 -15.6875 0.171875 -15.691406 0.953125 -15.453125 L -0.671875 -17.078125 L 0.828125 -18.578125 L 9.703125 -9.703125 L 8.203125 -8.203125 L 6.5625 -9.84375 C 6.78125 -9.039062 6.769531 -8.179688 6.53125 -7.265625 C 6.289062 -6.347656 5.789062 -5.507812 5.03125 -4.75 C 4.238281 -3.957031 3.332031 -3.4375 2.3125 -3.1875 C 1.289062 -2.9375 0.25 -2.976562 -0.8125 -3.3125 C -1.882812 -3.65625 -2.867188 -4.273438 -3.765625 -5.171875 Z M 3.75 -12.65625 C 3.082031 -13.320312 2.367188 -13.769531 1.609375 -14 C 0.847656 -14.226562 0.101562 -14.242188 -0.625 -14.046875 C -1.351562 -13.847656 -1.992188 -13.472656 -2.546875 -12.921875 C -3.085938 -12.378906 -3.457031 -11.75 -3.65625 -11.03125 C -3.851562 -10.3125 -3.835938 -9.570312 -3.609375 -8.8125 C -3.378906 -8.050781 -2.929688 -7.335938 -2.265625 -6.671875 C -1.585938 -5.992188 -0.863281 -5.535156 -0.09375 -5.296875 C 0.675781 -5.054688 1.421875 -5.035156 2.140625 -5.234375 C 2.859375 -5.429688 3.488281 -5.800781 4.03125 -6.34375 C 4.582031 -6.894531 4.957031 -7.53125 5.15625 -8.25 C 5.363281 -8.976562 5.347656 -9.726562 5.109375 -10.5 C 4.867188 -11.269531 4.414062 -11.988281 3.75 -12.65625 Z M 3.75 -12.65625 "/></g></g></g><g fill="#252525" fill-opacity="1"><g transform="translate(394.337124, 405.836624)"><g><path d="M 0.015625 -17.765625 L 7.71875 0.625 L 6.1875 2.15625 L 3.671875 -3.859375 L -8.671875 -9.078125 L -7.046875 -10.703125 L 2.953125 -6.296875 L -1.5 -16.25 Z M 0.015625 -17.765625 "/></g></g></g><g fill="#252525" fill-opacity="1"><g transform="translate(420.827388, 426.504572)"><g><path d="M -4.359375 -18.203125 L 3.96875 -9.875 C 4.894531 -8.945312 5.351562 -7.921875 5.34375 -6.796875 C 5.332031 -5.671875 4.851562 -4.632812 3.90625 -3.6875 C 2.957031 -2.738281 1.910156 -2.257812 0.765625 -2.25 C -0.367188 -2.25 -1.425781 -2.738281 -2.40625 -3.71875 L -0.9375 -5.1875 C -0.363281 -4.65625 0.234375 -4.351562 0.859375 -4.28125 C 1.484375 -4.207031 2.066406 -4.441406 2.609375 -4.984375 C 3.160156 -5.535156 3.40625 -6.113281 3.34375 -6.71875 C 3.28125 -7.320312 2.992188 -7.878906 2.484375 -8.390625 L -5.84375 -16.71875 Z M -4.359375 -18.203125 "/></g></g></g><g fill="#252525" fill-opacity="1"><g transform="translate(429.400518, 417.931442)"><g><path d="M 0.234375 -17.984375 L 9.109375 -9.109375 L 7.640625 -7.640625 L 6.328125 -8.953125 C 6.503906 -8.210938 6.46875 -7.46875 6.21875 -6.71875 C 5.96875 -5.96875 5.539062 -5.289062 4.9375 -4.6875 C 4.238281 -3.988281 3.472656 -3.507812 2.640625 -3.25 C 1.804688 -2.988281 0.941406 -2.976562 0.046875 -3.21875 C -0.835938 -3.46875 -1.691406 -4.003906 -2.515625 -4.828125 L -7.71875 -10.03125 L -6.25 -11.5 L -1.234375 -6.484375 C -0.359375 -5.609375 0.523438 -5.15625 1.421875 -5.125 C 2.328125 -5.101562 3.164062 -5.476562 3.9375 -6.25 C 4.726562 -7.039062 5.109375 -7.90625 5.078125 -8.84375 C 5.046875 -9.78125 4.566406 -10.710938 3.640625 -11.640625 L -1.234375 -16.515625 Z M 0.234375 -17.984375 "/></g></g></g><g fill="#252525" fill-opacity="1"><g transform="translate(439.752973, 407.578988)"><g><path d="M -3.46875 -14.59375 C -2.382812 -15.675781 -1.1875 -16.222656 0.125 -16.234375 C 1.445312 -16.253906 2.726562 -15.644531 3.96875 -14.40625 L 9.1875 -9.1875 L 7.734375 -7.734375 L 2.71875 -12.75 C 1.832031 -13.632812 0.929688 -14.085938 0.015625 -14.109375 C -0.890625 -14.140625 -1.722656 -13.773438 -2.484375 -13.015625 C -3.265625 -12.234375 -3.640625 -11.367188 -3.609375 -10.421875 C -3.585938 -9.484375 -3.113281 -8.550781 -2.1875 -7.625 L 2.71875 -2.71875 L 1.25 -1.25 L -7.625 -10.125 L -6.15625 -11.59375 L -4.890625 -10.328125 C -5.046875 -11.066406 -5 -11.8125 -4.75 -12.5625 C -4.5 -13.3125 -4.070312 -13.988281 -3.46875 -14.59375 Z M -3.46875 -14.59375 "/></g></g></g><g fill="#252525" fill-opacity="1"><g transform="translate(473.02315, 420.727496)"><g><path d="M -4.359375 -18.203125 L 3.96875 -9.875 C 4.894531 -8.945312 5.351562 -7.921875 5.34375 -6.796875 C 5.332031 -5.671875 4.851562 -4.632812 3.90625 -3.6875 C 2.957031 -2.738281 1.910156 -2.257812 0.765625 -2.25 C -0.367188 -2.25 -1.425781 -2.738281 -2.40625 -3.71875 L -0.9375 -5.1875 C -0.363281 -4.65625 0.234375 -4.351562 0.859375 -4.28125 C 1.484375 -4.207031 2.066406 -4.441406 2.609375 -4.984375 C 3.160156 -5.535156 3.40625 -6.113281 3.34375 -6.71875 C 3.28125 -7.320312 2.992188 -7.878906 2.484375 -8.390625 L -5.84375 -16.71875 Z M -4.359375 -18.203125 "/></g></g></g><g fill="#252525" fill-opacity="1"><g transform="translate(481.59628, 412.154367)"><g><path d="M 0.234375 -17.984375 L 9.109375 -9.109375 L 7.640625 -7.640625 L 6.328125 -8.953125 C 6.503906 -8.210938 6.46875 -7.46875 6.21875 -6.71875 C 5.96875 -5.96875 5.539062 -5.289062 4.9375 -4.6875 C 4.238281 -3.988281 3.472656 -3.507812 2.640625 -3.25 C 1.804688 -2.988281 0.941406 -2.976562 0.046875 -3.21875 C -0.835938 -3.46875 -1.691406 -4.003906 -2.515625 -4.828125 L -7.71875 -10.03125 L -6.25 -11.5 L -1.234375 -6.484375 C -0.359375 -5.609375 0.523438 -5.15625 1.421875 -5.125 C 2.328125 -5.101562 3.164062 -5.476562 3.9375 -6.25 C 4.726562 -7.039062 5.109375 -7.90625 5.078125 -8.84375 C 5.046875 -9.78125 4.566406 -10.710938 3.640625 -11.640625 L -1.234375 -16.515625 Z M 0.234375 -17.984375 "/></g></g></g><g fill="#252525" fill-opacity="1"><g transform="translate(491.948734, 401.801912)"><g><path d="M -9.25 -14.6875 L 2.71875 -2.71875 L 1.25 -1.25 L -10.71875 -13.21875 Z M -9.25 -14.6875 "/></g></g></g><g fill="#252525" fill-opacity="1"><g transform="translate(508.511668, 427.590648)"><g><path d="M 5.390625 -10.421875 L 0.484375 -5.515625 L 2.09375 -2.09375 L 0.53125 -0.53125 L -6.59375 -15.84375 L -4.90625 -17.53125 L 10.375 -10.375 L 8.8125 -8.8125 Z M 3.78125 -11.1875 L -3.953125 -14.859375 L -0.296875 -7.109375 Z M 3.78125 -11.1875 "/></g></g></g><g fill="#252525" fill-opacity="1"><g transform="translate(519.414095, 416.688222)"><g><path d="M 0.234375 -17.984375 L 9.109375 -9.109375 L 7.640625 -7.640625 L 6.328125 -8.953125 C 6.503906 -8.210938 6.46875 -7.46875 6.21875 -6.71875 C 5.96875 -5.96875 5.539062 -5.289062 4.9375 -4.6875 C 4.238281 -3.988281 3.472656 -3.507812 2.640625 -3.25 C 1.804688 -2.988281 0.941406 -2.976562 0.046875 -3.21875 C -0.835938 -3.46875 -1.691406 -4.003906 -2.515625 -4.828125 L -7.71875 -10.03125 L -6.25 -11.5 L -1.234375 -6.484375 C -0.359375 -5.609375 0.523438 -5.15625 1.421875 -5.125 C 2.328125 -5.101562 3.164062 -5.476562 3.9375 -6.25 C 4.726562 -7.039062 5.109375 -7.90625 5.078125 -8.84375 C 5.046875 -9.78125 4.566406 -10.710938 3.640625 -11.640625 L -1.234375 -16.515625 Z M 0.234375 -17.984375 "/></g></g></g><g fill="#252525" fill-opacity="1"><g transform="translate(529.766549, 406.335767)"><g><path d="M -4.109375 -13.921875 C -3.347656 -14.679688 -2.507812 -15.1875 -1.59375 -15.4375 C -0.675781 -15.6875 0.171875 -15.691406 0.953125 -15.453125 L -0.671875 -17.078125 L 0.828125 -18.578125 L 9.90625 -9.5 C 10.707031 -8.695312 11.25 -7.804688 11.53125 -6.828125 C 11.8125 -5.847656 11.8125 -4.859375 11.53125 -3.859375 C 11.25 -2.859375 10.679688 -1.929688 9.828125 -1.078125 C 8.660156 0.0859375 7.410156 0.78125 6.078125 1 C 4.753906 1.226562 3.546875 0.941406 2.453125 0.140625 L 3.921875 -1.328125 C 4.609375 -0.953125 5.375 -0.851562 6.21875 -1.03125 C 7.0625 -1.207031 7.835938 -1.648438 8.546875 -2.359375 C 9.359375 -3.171875 9.765625 -4.085938 9.765625 -5.109375 C 9.765625 -6.128906 9.3125 -7.09375 8.40625 -8 L 6.53125 -9.875 C 6.757812 -9.0625 6.757812 -8.195312 6.53125 -7.28125 C 6.300781 -6.363281 5.804688 -5.523438 5.046875 -4.765625 C 4.253906 -3.972656 3.34375 -3.445312 2.3125 -3.1875 C 1.289062 -2.9375 0.25 -2.976562 -0.8125 -3.3125 C -1.882812 -3.65625 -2.867188 -4.273438 -3.765625 -5.171875 C -4.671875 -6.078125 -5.28125 -7.050781 -5.59375 -8.09375 C -5.914062 -9.144531 -5.945312 -10.179688 -5.6875 -11.203125 C -5.425781 -12.222656 -4.898438 -13.128906 -4.109375 -13.921875 Z M 3.75 -12.65625 C 3.082031 -13.320312 2.367188 -13.769531 1.609375 -14 C 0.847656 -14.226562 0.101562 -14.242188 -0.625 -14.046875 C -1.351562 -13.847656 -1.992188 -13.472656 -2.546875 -12.921875 C -3.085938 -12.378906 -3.457031 -11.75 -3.65625 -11.03125 C -3.851562 -10.3125 -3.835938 -9.570312 -3.609375 -8.8125 C -3.378906 -8.050781 -2.929688 -7.335938 -2.265625 -6.671875 C -1.585938 -5.992188 -0.863281 -5.535156 -0.09375 -5.296875 C 0.675781 -5.054688 1.421875 -5.035156 2.140625 -5.234375 C 2.859375 -5.429688 3.488281 -5.800781 4.03125 -6.34375 C 4.582031 -6.894531 4.957031 -7.53125 5.15625 -8.25 C 5.363281 -8.976562 5.347656 -9.726562 5.109375 -10.5 C 4.867188 -11.269531 4.414062 -11.988281 3.75 -12.65625 Z M 3.75 -12.65625 "/></g></g></g><g fill="#252525" fill-opacity="1"><g transform="translate(555.42717, 425.984625)"><g><path d="M 4.9375 -4.71875 C 4.1875 -3.96875 3.382812 -3.429688 2.53125 -3.109375 C 1.675781 -2.785156 0.847656 -2.691406 0.046875 -2.828125 C -0.753906 -2.960938 -1.460938 -3.328125 -2.078125 -3.921875 L -0.5 -5.5 C 0.0703125 -5.03125 0.726562 -4.804688 1.46875 -4.828125 C 2.207031 -4.847656 2.945312 -5.226562 3.6875 -5.96875 C 4.382812 -6.664062 4.757812 -7.390625 4.8125 -8.140625 C 4.875 -8.898438 4.632812 -9.550781 4.09375 -10.09375 C 3.65625 -10.53125 3.179688 -10.765625 2.671875 -10.796875 C 2.160156 -10.828125 1.65625 -10.734375 1.15625 -10.515625 C 0.664062 -10.304688 0.0351562 -9.972656 -0.734375 -9.515625 C -1.671875 -8.972656 -2.460938 -8.578125 -3.109375 -8.328125 C -3.753906 -8.078125 -4.441406 -8 -5.171875 -8.09375 C -5.898438 -8.1875 -6.617188 -8.585938 -7.328125 -9.296875 C -7.929688 -9.898438 -8.316406 -10.597656 -8.484375 -11.390625 C -8.648438 -12.179688 -8.578125 -12.988281 -8.265625 -13.8125 C -7.953125 -14.632812 -7.425781 -15.414062 -6.6875 -16.15625 C -5.632812 -17.207031 -4.507812 -17.804688 -3.3125 -17.953125 C -2.113281 -18.097656 -1.03125 -17.78125 -0.0625 -17 L -1.6875 -15.375 C -2.175781 -15.757812 -2.785156 -15.914062 -3.515625 -15.84375 C -4.242188 -15.769531 -4.9375 -15.40625 -5.59375 -14.75 C -6.207031 -14.132812 -6.546875 -13.472656 -6.609375 -12.765625 C -6.679688 -12.066406 -6.429688 -11.429688 -5.859375 -10.859375 C -5.441406 -10.441406 -4.988281 -10.21875 -4.5 -10.1875 C -4.007812 -10.15625 -3.523438 -10.238281 -3.046875 -10.4375 C -2.578125 -10.644531 -1.953125 -10.972656 -1.171875 -11.421875 C -0.210938 -11.960938 0.585938 -12.359375 1.234375 -12.609375 C 1.890625 -12.867188 2.585938 -12.953125 3.328125 -12.859375 C 4.066406 -12.765625 4.789062 -12.363281 5.5 -11.65625 C 6.050781 -11.101562 6.421875 -10.4375 6.609375 -9.65625 C 6.804688 -8.882812 6.769531 -8.0625 6.5 -7.1875 C 6.226562 -6.3125 5.707031 -5.488281 4.9375 -4.71875 Z M 4.9375 -4.71875 "/></g></g></g><g fill="#252525" fill-opacity="1"><g transform="translate(564.922317, 416.489477)"><g><path d="M 4.5625 -14.09375 C 4.832031 -13.820312 5.113281 -13.519531 5.40625 -13.1875 L -1.6875 -6.09375 C -0.757812 -5.269531 0.21875 -4.882812 1.25 -4.9375 C 2.289062 -5 3.195312 -5.414062 3.96875 -6.1875 C 4.601562 -6.820312 4.988281 -7.5 5.125 -8.21875 C 5.257812 -8.9375 5.164062 -9.632812 4.84375 -10.3125 L 6.421875 -11.890625 C 7.046875 -10.804688 7.265625 -9.640625 7.078125 -8.390625 C 6.898438 -7.148438 6.28125 -6 5.21875 -4.9375 C 4.382812 -4.101562 3.445312 -3.539062 2.40625 -3.25 C 1.363281 -2.957031 0.304688 -2.972656 -0.765625 -3.296875 C -1.835938 -3.617188 -2.832031 -4.238281 -3.75 -5.15625 C -4.664062 -6.070312 -5.285156 -7.054688 -5.609375 -8.109375 C -5.941406 -9.171875 -5.957031 -10.21875 -5.65625 -11.25 C -5.363281 -12.289062 -4.789062 -13.238281 -3.9375 -14.09375 C -3.09375 -14.9375 -2.160156 -15.492188 -1.140625 -15.765625 C -0.128906 -16.046875 0.867188 -16.039062 1.859375 -15.75 C 2.847656 -15.457031 3.75 -14.90625 4.5625 -14.09375 Z M 2.75 -12.90625 C 2.1875 -13.46875 1.578125 -13.828125 0.921875 -13.984375 C 0.265625 -14.140625 -0.378906 -14.109375 -1.015625 -13.890625 C -1.648438 -13.671875 -2.226562 -13.300781 -2.75 -12.78125 C -3.488281 -12.039062 -3.882812 -11.171875 -3.9375 -10.171875 C -3.988281 -9.171875 -3.628906 -8.210938 -2.859375 -7.296875 Z M 2.75 -12.90625 "/></g></g></g><g fill="#252525" fill-opacity="1"><g transform="translate(574.951256, 406.460539)"><g><path d="M -4.515625 -9.953125 C -4.734375 -10.753906 -4.722656 -11.613281 -4.484375 -12.53125 C -4.242188 -13.445312 -3.742188 -14.285156 -2.984375 -15.046875 C -2.191406 -15.835938 -1.285156 -16.363281 -0.265625 -16.625 C 0.753906 -16.882812 1.785156 -16.851562 2.828125 -16.53125 C 3.878906 -16.21875 4.859375 -15.609375 5.765625 -14.703125 C 6.660156 -13.804688 7.273438 -12.820312 7.609375 -11.75 C 7.953125 -10.6875 7.992188 -9.640625 7.734375 -8.609375 C 7.484375 -7.585938 6.960938 -6.679688 6.171875 -5.890625 C 5.421875 -5.140625 4.585938 -4.644531 3.671875 -4.40625 C 2.753906 -4.164062 1.890625 -4.148438 1.078125 -4.359375 L 6.921875 1.484375 L 5.453125 2.953125 L -7.625 -10.125 L -6.15625 -11.59375 Z M 4.265625 -13.203125 C 3.597656 -13.867188 2.882812 -14.316406 2.125 -14.546875 C 1.363281 -14.773438 0.625 -14.785156 -0.09375 -14.578125 C -0.820312 -14.378906 -1.457031 -14.007812 -2 -13.46875 C -2.539062 -12.925781 -2.90625 -12.289062 -3.09375 -11.5625 C -3.289062 -10.84375 -3.273438 -10.09375 -3.046875 -9.3125 C -2.828125 -8.539062 -2.390625 -7.828125 -1.734375 -7.171875 C -1.066406 -6.503906 -0.34375 -6.054688 0.4375 -5.828125 C 1.21875 -5.597656 1.96875 -5.582031 2.6875 -5.78125 C 3.40625 -5.976562 4.035156 -6.347656 4.578125 -6.890625 C 5.117188 -7.429688 5.488281 -8.0625 5.6875 -8.78125 C 5.894531 -9.507812 5.878906 -10.257812 5.640625 -11.03125 C 5.398438 -11.800781 4.941406 -12.523438 4.265625 -13.203125 Z M 4.265625 -13.203125 "/></g></g></g><g fill="#252525" fill-opacity="1"><g transform="translate(601.753436, 426.816533)"><g><path d="M 6.46875 -6.25 C 5.425781 -5.207031 4.226562 -4.5 2.875 -4.125 C 1.519531 -3.75 0.15625 -3.75 -1.21875 -4.125 C -2.601562 -4.507812 -3.84375 -5.25 -4.9375 -6.34375 C -6.039062 -7.445312 -6.78125 -8.6875 -7.15625 -10.0625 C -7.539062 -11.445312 -7.546875 -12.816406 -7.171875 -14.171875 C -6.796875 -15.523438 -6.085938 -16.722656 -5.046875 -17.765625 C -3.992188 -18.816406 -2.785156 -19.53125 -1.421875 -19.90625 C -0.0664062 -20.289062 1.289062 -20.289062 2.65625 -19.90625 C 4.019531 -19.519531 5.257812 -18.769531 6.375 -17.65625 C 7.476562 -16.550781 8.222656 -15.316406 8.609375 -13.953125 C 8.992188 -12.585938 8.992188 -11.222656 8.609375 -9.859375 C 8.234375 -8.503906 7.519531 -7.300781 6.46875 -6.25 Z M 5.203125 -7.515625 C 5.992188 -8.304688 6.519531 -9.203125 6.78125 -10.203125 C 7.039062 -11.203125 7.007812 -12.222656 6.6875 -13.265625 C 6.363281 -14.304688 5.757812 -15.269531 4.875 -16.15625 C 3.96875 -17.0625 2.992188 -17.671875 1.953125 -17.984375 C 0.921875 -18.304688 -0.0859375 -18.335938 -1.078125 -18.078125 C -2.066406 -17.816406 -2.960938 -17.285156 -3.765625 -16.484375 C -4.566406 -15.679688 -5.097656 -14.785156 -5.359375 -13.796875 C -5.617188 -12.804688 -5.585938 -11.789062 -5.265625 -10.75 C -4.953125 -9.71875 -4.34375 -8.75 -3.4375 -7.84375 C -2.550781 -6.957031 -1.585938 -6.351562 -0.546875 -6.03125 C 0.492188 -5.707031 1.515625 -5.675781 2.515625 -5.9375 C 3.523438 -6.207031 4.421875 -6.734375 5.203125 -7.515625 Z M 5.203125 -7.515625 "/></g></g></g><g fill="#252525" fill-opacity="1"><g transform="translate(614.467547, 414.102421)"><g><path d="M -3.75 -5.15625 C -4.664062 -6.070312 -5.28125 -7.050781 -5.59375 -8.09375 C -5.914062 -9.144531 -5.941406 -10.1875 -5.671875 -11.21875 C -5.398438 -12.25 -4.84375 -13.1875 -4 -14.03125 C -2.90625 -15.125 -1.738281 -15.753906 -0.5 -15.921875 C 0.726562 -16.097656 1.925781 -15.832031 3.09375 -15.125 L 1.515625 -13.546875 C 0.816406 -13.929688 0.09375 -14.0625 -0.65625 -13.9375 C -1.40625 -13.8125 -2.101562 -13.425781 -2.75 -12.78125 C -3.59375 -11.9375 -3.984375 -10.96875 -3.921875 -9.875 C -3.859375 -8.78125 -3.300781 -7.707031 -2.25 -6.65625 C -1.175781 -5.582031 -0.09375 -5.015625 1 -4.953125 C 2.09375 -4.890625 3.0625 -5.28125 3.90625 -6.125 C 4.550781 -6.769531 4.9375 -7.457031 5.0625 -8.1875 C 5.195312 -8.925781 5.070312 -9.65625 4.6875 -10.375 L 6.265625 -11.953125 C 6.941406 -10.816406 7.191406 -9.617188 7.015625 -8.359375 C 6.847656 -7.109375 6.226562 -5.945312 5.15625 -4.875 C 4.3125 -4.03125 3.375 -3.46875 2.34375 -3.1875 C 1.320312 -2.914062 0.285156 -2.941406 -0.765625 -3.265625 C -1.828125 -3.597656 -2.820312 -4.226562 -3.75 -5.15625 Z M -3.75 -5.15625 "/></g></g></g><g fill="#252525" fill-opacity="1"><g transform="translate(624.286199, 404.28377)"><g><path d="M -4.625 -10.6875 L 0.59375 -5.46875 C 1.03125 -5.03125 1.429688 -4.816406 1.796875 -4.828125 C 2.160156 -4.835938 2.570312 -5.070312 3.03125 -5.53125 L 4.109375 -6.609375 L 5.359375 -5.359375 L 4.03125 -4.03125 C 3.207031 -3.207031 2.398438 -2.78125 1.609375 -2.75 C 0.816406 -2.71875 -0.0078125 -3.132812 -0.875 -4 L -6.09375 -9.21875 L -7.234375 -8.078125 L -8.453125 -9.296875 L -7.3125 -10.4375 L -9.546875 -12.671875 L -8.078125 -14.140625 L -5.84375 -11.90625 L -3.515625 -14.234375 L -2.296875 -13.015625 Z M -4.625 -10.6875 "/></g></g></g><g fill="#252525" fill-opacity="1"><g transform="translate(645.133398, 428.746048)"><g><path d="M 10.125 -10.125 L 8.640625 -8.640625 L -6.265625 -11.703125 L 2.71875 -2.71875 L 1.25 -1.25 L -10.046875 -12.546875 L -8.578125 -14.015625 L 6.3125 -10.96875 L -2.65625 -19.9375 L -1.171875 -21.421875 Z M 10.125 -10.125 "/></g></g></g><g fill="#252525" fill-opacity="1"><g transform="translate(656.504918, 417.374529)"><g><path d="M 5.25 -4.96875 C 4.414062 -4.132812 3.472656 -3.566406 2.421875 -3.265625 C 1.378906 -2.972656 0.320312 -2.984375 -0.75 -3.296875 C -1.832031 -3.617188 -2.832031 -4.238281 -3.75 -5.15625 C -4.65625 -6.0625 -5.257812 -7.054688 -5.5625 -8.140625 C -5.875 -9.234375 -5.875 -10.304688 -5.5625 -11.359375 C -5.25 -12.410156 -4.671875 -13.359375 -3.828125 -14.203125 C -2.992188 -15.035156 -2.050781 -15.609375 -1 -15.921875 C 0.0507812 -16.234375 1.117188 -16.238281 2.203125 -15.9375 C 3.296875 -15.644531 4.300781 -15.039062 5.21875 -14.125 C 6.132812 -13.207031 6.738281 -12.195312 7.03125 -11.09375 C 7.320312 -9.988281 7.304688 -8.898438 6.984375 -7.828125 C 6.671875 -6.765625 6.09375 -5.8125 5.25 -4.96875 Z M 3.953125 -6.265625 C 4.484375 -6.796875 4.859375 -7.414062 5.078125 -8.125 C 5.296875 -8.832031 5.300781 -9.578125 5.09375 -10.359375 C 4.882812 -11.140625 4.421875 -11.890625 3.703125 -12.609375 C 2.984375 -13.328125 2.238281 -13.789062 1.46875 -14 C 0.695312 -14.207031 -0.0351562 -14.207031 -0.734375 -14 C -1.429688 -13.789062 -2.046875 -13.421875 -2.578125 -12.890625 C -3.109375 -12.359375 -3.476562 -11.742188 -3.6875 -11.046875 C -3.894531 -10.347656 -3.882812 -9.617188 -3.65625 -8.859375 C -3.4375 -8.109375 -2.96875 -7.375 -2.25 -6.65625 C -1.53125 -5.9375 -0.785156 -5.457031 -0.015625 -5.21875 C 0.742188 -4.988281 1.460938 -4.972656 2.140625 -5.171875 C 2.816406 -5.367188 3.421875 -5.734375 3.953125 -6.265625 Z M 3.953125 -6.265625 "/></g></g></g><g fill="#252525" fill-opacity="1"><g transform="translate(666.857372, 407.022074)"><g><path d="M 3.1875 -5.90625 L -1.578125 -16.171875 L 0 -17.75 L 5.390625 -5.390625 L 3.671875 -3.671875 L -8.671875 -9.078125 L -7.09375 -10.65625 Z M 3.1875 -5.90625 "/></g></g></g><g fill="#252525" fill-opacity="1"><g transform="translate(690.20036, 428.988685)"><g><path d="M -6.515625 -16.046875 C -5.285156 -17.273438 -3.992188 -18.109375 -2.640625 -18.546875 C -1.285156 -18.984375 0.0546875 -19.015625 1.390625 -18.640625 C 2.734375 -18.273438 3.984375 -17.515625 5.140625 -16.359375 C 6.285156 -15.210938 7.039062 -13.972656 7.40625 -12.640625 C 7.769531 -11.304688 7.726562 -9.96875 7.28125 -8.625 C 6.832031 -7.28125 5.992188 -5.992188 4.765625 -4.765625 L 1.25 -1.25 L -10.03125 -12.53125 Z M 3.546875 -5.984375 C 4.992188 -7.429688 5.71875 -8.925781 5.71875 -10.46875 C 5.71875 -12.007812 5.023438 -13.472656 3.640625 -14.859375 C 2.234375 -16.265625 0.75 -16.972656 -0.8125 -16.984375 C -2.382812 -17.003906 -3.890625 -16.296875 -5.328125 -14.859375 L -7.375 -12.8125 L 1.5 -3.9375 Z M 3.546875 -5.984375 "/></g></g></g><g fill="#252525" fill-opacity="1"><g transform="translate(701.636589, 417.552456)"><g><path d="M 4.5625 -14.09375 C 4.832031 -13.820312 5.113281 -13.519531 5.40625 -13.1875 L -1.6875 -6.09375 C -0.757812 -5.269531 0.21875 -4.882812 1.25 -4.9375 C 2.289062 -5 3.195312 -5.414062 3.96875 -6.1875 C 4.601562 -6.820312 4.988281 -7.5 5.125 -8.21875 C 5.257812 -8.9375 5.164062 -9.632812 4.84375 -10.3125 L 6.421875 -11.890625 C 7.046875 -10.804688 7.265625 -9.640625 7.078125 -8.390625 C 6.898438 -7.148438 6.28125 -6 5.21875 -4.9375 C 4.382812 -4.101562 3.445312 -3.539062 2.40625 -3.25 C 1.363281 -2.957031 0.304688 -2.972656 -0.765625 -3.296875 C -1.835938 -3.617188 -2.832031 -4.238281 -3.75 -5.15625 C -4.664062 -6.070312 -5.285156 -7.054688 -5.609375 -8.109375 C -5.941406 -9.171875 -5.957031 -10.21875 -5.65625 -11.25 C -5.363281 -12.289062 -4.789062 -13.238281 -3.9375 -14.09375 C -3.09375 -14.9375 -2.160156 -15.492188 -1.140625 -15.765625 C -0.128906 -16.046875 0.867188 -16.039062 1.859375 -15.75 C 2.847656 -15.457031 3.75 -14.90625 4.5625 -14.09375 Z M 2.75 -12.90625 C 2.1875 -13.46875 1.578125 -13.828125 0.921875 -13.984375 C 0.265625 -14.140625 -0.378906 -14.109375 -1.015625 -13.890625 C -1.648438 -13.671875 -2.226562 -13.300781 -2.75 -12.78125 C -3.488281 -12.039062 -3.882812 -11.171875 -3.9375 -10.171875 C -3.988281 -9.171875 -3.628906 -8.210938 -2.859375 -7.296875 Z M 2.75 -12.90625 "/></g></g></g><g fill="#252525" fill-opacity="1"><g transform="translate(711.665528, 407.523517)"><g><path d="M -3.75 -5.15625 C -4.664062 -6.070312 -5.28125 -7.050781 -5.59375 -8.09375 C -5.914062 -9.144531 -5.941406 -10.1875 -5.671875 -11.21875 C -5.398438 -12.25 -4.84375 -13.1875 -4 -14.03125 C -2.90625 -15.125 -1.738281 -15.753906 -0.5 -15.921875 C 0.726562 -16.097656 1.925781 -15.832031 3.09375 -15.125 L 1.515625 -13.546875 C 0.816406 -13.929688 0.09375 -14.0625 -0.65625 -13.9375 C -1.40625 -13.8125 -2.101562 -13.425781 -2.75 -12.78125 C -3.59375 -11.9375 -3.984375 -10.96875 -3.921875 -9.875 C -3.859375 -8.78125 -3.300781 -7.707031 -2.25 -6.65625 C -1.175781 -5.582031 -0.09375 -5.015625 1 -4.953125 C 2.09375 -4.890625 3.0625 -5.28125 3.90625 -6.125 C 4.550781 -6.769531 4.9375 -7.457031 5.0625 -8.1875 C 5.195312 -8.925781 5.070312 -9.65625 4.6875 -10.375 L 6.265625 -11.953125 C 6.941406 -10.816406 7.191406 -9.617188 7.015625 -8.359375 C 6.847656 -7.109375 6.226562 -5.945312 5.15625 -4.875 C 4.3125 -4.03125 3.375 -3.46875 2.34375 -3.1875 C 1.320312 -2.914062 0.285156 -2.941406 -0.765625 -3.265625 C -1.828125 -3.597656 -2.820312 -4.226562 -3.75 -5.15625 Z M -3.75 -5.15625 "/></g></g></g><g fill="#252525" fill-opacity="1"><g transform="translate(155.675265, 376.113755)"><g><path d="M 1.421875 -8.453125 C 1.421875 -11.078125 1.847656 -13.125 2.703125 -14.59375 C 3.554688 -16.0625 5.050781 -16.796875 7.1875 -16.796875 C 9.3125 -16.796875 10.800781 -16.0625 11.65625 -14.59375 C 12.507812 -13.125 12.9375 -11.078125 12.9375 -8.453125 C 12.9375 -5.773438 12.507812 -3.695312 11.65625 -2.21875 C 10.800781 -0.738281 9.3125 0 7.1875 0 C 5.050781 0 3.554688 -0.738281 2.703125 -2.21875 C 1.847656 -3.695312 1.421875 -5.773438 1.421875 -8.453125 Z M 10.875 -8.453125 C 10.875 -9.773438 10.785156 -10.894531 10.609375 -11.8125 C 10.429688 -12.738281 10.070312 -13.484375 9.53125 -14.046875 C 8.988281 -14.617188 8.207031 -14.90625 7.1875 -14.90625 C 6.144531 -14.90625 5.351562 -14.617188 4.8125 -14.046875 C 4.269531 -13.484375 3.910156 -12.738281 3.734375 -11.8125 C 3.566406 -10.894531 3.484375 -9.773438 3.484375 -8.453125 C 3.484375 -7.078125 3.566406 -5.921875 3.734375 -4.984375 C 3.910156 -4.054688 4.269531 -3.3125 4.8125 -2.75 C 5.351562 -2.1875 6.144531 -1.90625 7.1875 -1.90625 C 8.207031 -1.90625 8.988281 -2.1875 9.53125 -2.75 C 10.070312 -3.3125 10.429688 -4.054688 10.609375 -4.984375 C 10.785156 -5.921875 10.875 -7.078125 10.875 -8.453125 Z M 10.875 -8.453125 "/></g></g></g><g fill="#252525" fill-opacity="1"><g transform="translate(157.341951, 340.704351)"><g><path d="M 1.171875 -1.671875 C 3.109375 -3.222656 4.625 -4.5 5.71875 -5.5 C 6.820312 -6.5 7.75 -7.546875 8.5 -8.640625 C 9.257812 -9.734375 9.640625 -10.804688 9.640625 -11.859375 C 9.640625 -12.847656 9.394531 -13.628906 8.90625 -14.203125 C 8.425781 -14.773438 7.65625 -15.0625 6.59375 -15.0625 C 5.550781 -15.0625 4.742188 -14.734375 4.171875 -14.078125 C 3.597656 -13.429688 3.289062 -12.566406 3.25 -11.484375 L 1.234375 -11.484375 C 1.296875 -13.203125 1.8125 -14.523438 2.78125 -15.453125 C 3.757812 -16.378906 5.019531 -16.84375 6.5625 -16.84375 C 8.132812 -16.84375 9.382812 -16.40625 10.3125 -15.53125 C 11.238281 -14.664062 11.703125 -13.472656 11.703125 -11.953125 C 11.703125 -10.679688 11.320312 -9.445312 10.5625 -8.25 C 9.8125 -7.050781 8.953125 -6 7.984375 -5.09375 C 7.023438 -4.1875 5.796875 -3.128906 4.296875 -1.921875 L 12.171875 -1.921875 L 12.171875 -0.1875 L 1.171875 -0.1875 Z M 1.171875 -1.671875 "/></g></g></g><g fill="#252525" fill-opacity="1"><g transform="translate(154.629513, 305.294949)"><g><path d="M 0.921875 -3.6875 L 0.921875 -5.265625 L 8.953125 -16.390625 L 11.4375 -16.390625 L 11.4375 -5.5 L 13.734375 -5.5 L 13.734375 -3.6875 L 11.4375 -3.6875 L 11.4375 0 L 9.390625 0 L 9.390625 -3.6875 Z M 9.484375 -14.21875 L 3.3125 -5.5 L 9.484375 -5.5 Z M 9.484375 -14.21875 "/></g></g></g><g fill="#252525" fill-opacity="1"><g transform="translate(155.609904, 269.885574)"><g><path d="M 10.640625 -12.609375 C 10.304688 -14.304688 9.265625 -15.15625 7.515625 -15.15625 C 6.148438 -15.15625 5.128906 -14.628906 4.453125 -13.578125 C 3.785156 -12.535156 3.460938 -10.816406 3.484375 -8.421875 C 3.828125 -9.210938 4.40625 -9.832031 5.21875 -10.28125 C 6.039062 -10.738281 6.957031 -10.96875 7.96875 -10.96875 C 9.539062 -10.96875 10.796875 -10.476562 11.734375 -9.5 C 12.671875 -8.519531 13.140625 -7.171875 13.140625 -5.453125 C 13.140625 -4.410156 12.9375 -3.476562 12.53125 -2.65625 C 12.125 -1.832031 11.515625 -1.175781 10.703125 -0.6875 C 9.890625 -0.195312 8.898438 0.046875 7.734375 0.046875 C 6.160156 0.046875 4.929688 -0.300781 4.046875 -1 C 3.160156 -1.707031 2.539062 -2.675781 2.1875 -3.90625 C 1.84375 -5.144531 1.671875 -6.675781 1.671875 -8.5 C 1.671875 -14.09375 3.625 -16.890625 7.53125 -16.890625 C 9.03125 -16.890625 10.207031 -16.484375 11.0625 -15.671875 C 11.914062 -14.867188 12.414062 -13.847656 12.5625 -12.609375 Z M 7.53125 -9.203125 C 6.875 -9.203125 6.253906 -9.066406 5.671875 -8.796875 C 5.097656 -8.535156 4.628906 -8.132812 4.265625 -7.59375 C 3.910156 -7.050781 3.734375 -6.390625 3.734375 -5.609375 C 3.734375 -4.453125 4.066406 -3.507812 4.734375 -2.78125 C 5.410156 -2.050781 6.375 -1.6875 7.625 -1.6875 C 8.6875 -1.6875 9.535156 -2.019531 10.171875 -2.6875 C 10.804688 -3.351562 11.125 -4.25 11.125 -5.375 C 11.125 -6.570312 10.816406 -7.507812 10.203125 -8.1875 C 9.597656 -8.863281 8.707031 -9.203125 7.53125 -9.203125 Z M 7.53125 -9.203125 "/></g></g></g><g fill="#252525" fill-opacity="1"><g transform="translate(155.642585, 234.476172)"><g><path d="M 4.4375 -8.609375 C 3.582031 -8.941406 2.925781 -9.425781 2.46875 -10.0625 C 2.007812 -10.707031 1.78125 -11.488281 1.78125 -12.40625 C 1.78125 -13.226562 1.984375 -13.972656 2.390625 -14.640625 C 2.804688 -15.304688 3.421875 -15.832031 4.234375 -16.21875 C 5.054688 -16.601562 6.046875 -16.796875 7.203125 -16.796875 C 8.367188 -16.796875 9.359375 -16.601562 10.171875 -16.21875 C 10.992188 -15.832031 11.613281 -15.304688 12.03125 -14.640625 C 12.445312 -13.972656 12.65625 -13.226562 12.65625 -12.40625 C 12.65625 -11.519531 12.414062 -10.742188 11.9375 -10.078125 C 11.46875 -9.421875 10.820312 -8.929688 10 -8.609375 C 10.945312 -8.316406 11.695312 -7.804688 12.25 -7.078125 C 12.8125 -6.359375 13.09375 -5.488281 13.09375 -4.46875 C 13.09375 -3.46875 12.847656 -2.597656 12.359375 -1.859375 C 11.867188 -1.117188 11.175781 -0.546875 10.28125 -0.140625 C 9.394531 0.253906 8.367188 0.453125 7.203125 0.453125 C 6.046875 0.453125 5.03125 0.253906 4.15625 -0.140625 C 3.28125 -0.546875 2.597656 -1.117188 2.109375 -1.859375 C 1.617188 -2.597656 1.375 -3.46875 1.375 -4.46875 C 1.375 -5.488281 1.644531 -6.363281 2.1875 -7.09375 C 2.738281 -7.820312 3.488281 -8.328125 4.4375 -8.609375 Z M 10.640625 -12.15625 C 10.640625 -13.082031 10.332031 -13.796875 9.71875 -14.296875 C 9.113281 -14.804688 8.273438 -15.0625 7.203125 -15.0625 C 6.148438 -15.0625 5.316406 -14.804688 4.703125 -14.296875 C 4.097656 -13.796875 3.796875 -13.070312 3.796875 -12.125 C 3.796875 -11.269531 4.113281 -10.582031 4.75 -10.0625 C 5.382812 -9.550781 6.203125 -9.296875 7.203125 -9.296875 C 8.234375 -9.296875 9.0625 -9.554688 9.6875 -10.078125 C 10.320312 -10.609375 10.640625 -11.300781 10.640625 -12.15625 Z M 7.203125 -7.6875 C 6.078125 -7.6875 5.15625 -7.421875 4.4375 -6.890625 C 3.71875 -6.367188 3.359375 -5.582031 3.359375 -4.53125 C 3.359375 -3.550781 3.707031 -2.765625 4.40625 -2.171875 C 5.101562 -1.578125 6.035156 -1.28125 7.203125 -1.28125 C 8.378906 -1.28125 9.3125 -1.578125 10 -2.171875 C 10.6875 -2.765625 11.03125 -3.550781 11.03125 -4.53125 C 11.03125 -5.550781 10.675781 -6.332031 9.96875 -6.875 C 9.269531 -7.414062 8.347656 -7.6875 7.203125 -7.6875 Z M 7.203125 -7.6875 "/></g></g></g><g fill="#252525" fill-opacity="1"><g transform="translate(148.877819, 199.066768)"><g><path d="M 0.875 -14.65625 L 0.875 -16.546875 L 5.171875 -16.546875 L 5.171875 0 L 3.0625 0 L 3.0625 -14.65625 Z M 0.875 -14.65625 "/></g></g></g><g fill="#252525" fill-opacity="1"><g transform="translate(156.198109, 199.066768)"><g><path d="M 1.421875 -8.453125 C 1.421875 -11.078125 1.847656 -13.125 2.703125 -14.59375 C 3.554688 -16.0625 5.050781 -16.796875 7.1875 -16.796875 C 9.3125 -16.796875 10.800781 -16.0625 11.65625 -14.59375 C 12.507812 -13.125 12.9375 -11.078125 12.9375 -8.453125 C 12.9375 -5.773438 12.507812 -3.695312 11.65625 -2.21875 C 10.800781 -0.738281 9.3125 0 7.1875 0 C 5.050781 0 3.554688 -0.738281 2.703125 -2.21875 C 1.847656 -3.695312 1.421875 -5.773438 1.421875 -8.453125 Z M 10.875 -8.453125 C 10.875 -9.773438 10.785156 -10.894531 10.609375 -11.8125 C 10.429688 -12.738281 10.070312 -13.484375 9.53125 -14.046875 C 8.988281 -14.617188 8.207031 -14.90625 7.1875 -14.90625 C 6.144531 -14.90625 5.351562 -14.617188 4.8125 -14.046875 C 4.269531 -13.484375 3.910156 -12.738281 3.734375 -11.8125 C 3.566406 -10.894531 3.484375 -9.773438 3.484375 -8.453125 C 3.484375 -7.078125 3.566406 -5.921875 3.734375 -4.984375 C 3.910156 -4.054688 4.269531 -3.3125 4.8125 -2.75 C 5.351562 -2.1875 6.144531 -1.90625 7.1875 -1.90625 C 8.207031 -1.90625 8.988281 -2.1875 9.53125 -2.75 C 10.070312 -3.3125 10.429688 -4.054688 10.609375 -4.984375 C 10.785156 -5.921875 10.875 -7.078125 10.875 -8.453125 Z M 10.875 -8.453125 "/></g></g></g><g fill="#252525" fill-opacity="1"><g transform="translate(149.498739, 163.657367)"><g><path d="M 0.875 -14.65625 L 0.875 -16.546875 L 5.171875 -16.546875 L 5.171875 0 L 3.0625 0 L 3.0625 -14.65625 Z M 0.875 -14.65625 "/></g></g></g><g fill="#252525" fill-opacity="1"><g transform="translate(156.81903, 163.657367)"><g><path d="M 1.171875 -1.671875 C 3.109375 -3.222656 4.625 -4.5 5.71875 -5.5 C 6.820312 -6.5 7.75 -7.546875 8.5 -8.640625 C 9.257812 -9.734375 9.640625 -10.804688 9.640625 -11.859375 C 9.640625 -12.847656 9.394531 -13.628906 8.90625 -14.203125 C 8.425781 -14.773438 7.65625 -15.0625 6.59375 -15.0625 C 5.550781 -15.0625 4.742188 -14.734375 4.171875 -14.078125 C 3.597656 -13.429688 3.289062 -12.566406 3.25 -11.484375 L 1.234375 -11.484375 C 1.296875 -13.203125 1.8125 -14.523438 2.78125 -15.453125 C 3.757812 -16.378906 5.019531 -16.84375 6.5625 -16.84375 C 8.132812 -16.84375 9.382812 -16.40625 10.3125 -15.53125 C 11.238281 -14.664062 11.703125 -13.472656 11.703125 -11.953125 C 11.703125 -10.679688 11.320312 -9.445312 10.5625 -8.25 C 9.8125 -7.050781 8.953125 -6 7.984375 -5.09375 C 7.023438 -4.1875 5.796875 -3.128906 4.296875 -1.921875 L 12.171875 -1.921875 L 12.171875 -0.1875 L 1.171875 -0.1875 Z M 1.171875 -1.671875 "/></g></g></g><g clip-path="url(#d709ffe8c0)"><g mask="url(#9aa6172724)"><g transform="matrix(1, 0, 0, 1, 186, 154)"><g clip-path="url(#37deaa64e4)"><g clip-path="url(#5f9281a8e2)"><path stroke-linecap="butt" transform="matrix(1.04576, 0, 0, 1.04576, 1.743069, 1.291293)" fill="none" stroke-linejoin="miter" d="M -0.000842588 169.301261 L 519.922129 169.301261 " stroke="#252525" stroke-width="1" stroke-opacity="1" stroke-miterlimit="4"/></g><g clip-path="url(#a3768300da)"><path stroke-linecap="butt" transform="matrix(1.04576, 0, 0, 1.04576, 1.743069, 1.291293)" fill="none" stroke-linejoin="miter" d="M -0.000842588 135.440582 L 519.922129 135.440582 " stroke="#252525" stroke-width="1" stroke-opacity="1" stroke-miterlimit="4"/></g><g clip-path="url(#bb1f09efa3)"><path stroke-linecap="butt" transform="matrix(1.04576, 0, 0, 1.04576, 1.743069, 1.291293)" fill="none" stroke-linejoin="miter" d="M -0.000842588 101.579904 L 519.922129 101.579904 " stroke="#252525" stroke-width="1" stroke-opacity="1" stroke-miterlimit="4"/></g><g clip-path="url(#31969e31ef)"><path stroke-linecap="butt" transform="matrix(1.04576, 0, 0, 1.04576, 1.743069, 1.291293)" fill="none" stroke-linejoin="miter" d="M -0.000842588 67.719225 L 519.922129 67.719225 " stroke="#252525" stroke-width="1" stroke-opacity="1" stroke-miterlimit="4"/></g><g clip-path="url(#b3d4c91fbb)"><path stroke-linecap="butt" transform="matrix(1.04576, 0, 0, 1.04576, 1.743069, 1.291293)" fill="none" stroke-linejoin="miter" d="M -0.000842588 33.858546 L 519.922129 33.858546 " stroke="#252525" stroke-width="1" stroke-opacity="1" stroke-miterlimit="4"/></g><g clip-path="url(#fd19f4807c)"><path stroke-linecap="butt" transform="matrix(1.04576, 0, 0, 1.04576, 1.743069, 1.291293)" fill="none" stroke-linejoin="miter" d="M -0.000842588 0.00160273 L 519.922129 0.00160273 " stroke="#252525" stroke-width="1" stroke-opacity="1" stroke-miterlimit="4"/></g></g></g></g></g><g clip-path="url(#08edb63a4e)"><g mask="url(#3aeff18096)"><g transform="matrix(1, 0, 0, 1, 186, 366)"><g clip-path="url(#a61214fddc)"><g clip-path="url(#f3634af662)"><path stroke-linecap="butt" transform="matrix(1.04576, 0, 0, 1.04576, 1.743069, -210.708707)" fill="none" stroke-linejoin="miter" d="M -0.000842588 203.158204 L 519.922129 203.158204 " stroke="#252525" stroke-width="1" stroke-opacity="1" stroke-miterlimit="4"/></g></g></g></g></g><path stroke-linecap="round" transform="matrix(1.04576, 0, 0, 1.04576, 187.743069, 155.291293)" fill-opacity="1" fill="#000000" fill-rule="nonzero" stroke-linejoin="miter" d="M 21.664015 84.651431 L 64.989995 67.719224 " stroke="#e8e8e8" stroke-width="2" stroke-opacity="1" stroke-miterlimit="4"/><path stroke-linecap="round" transform="matrix(1.04576, 0, 0, 1.04576, 187.743069, 155.291293)" fill-opacity="1" fill="#000000" fill-rule="nonzero" stroke-linejoin="miter" d="M 64.989995 67.719224 L 108.315976 101.579903 " stroke="#e8e8e8" stroke-width="2" stroke-opacity="1" stroke-miterlimit="4"/><path stroke-linecap="round" transform="matrix(1.04576, 0, 0, 1.04576, 187.743069, 155.291293)" fill-opacity="1" fill="#000000" fill-rule="nonzero" stroke-linejoin="miter" d="M 108.315976 101.579903 L 151.645691 84.651431 " stroke="#e8e8e8" stroke-width="2" stroke-opacity="1" stroke-miterlimit="4"/><path stroke-linecap="round" transform="matrix(1.04576, 0, 0, 1.04576, 187.743069, 155.291293)" fill-opacity="1" fill="#000000" fill-rule="nonzero" stroke-linejoin="miter" d="M 151.645691 84.651431 L 194.971672 50.790753 " stroke="#e8e8e8" stroke-width="2" stroke-opacity="1" stroke-miterlimit="4"/><path stroke-linecap="round" transform="matrix(1.04576, 0, 0, 1.04576, 187.743069, 155.291293)" fill="none" stroke-linejoin="miter" d="M 194.971672 50.790753 L 238.297652 50.790753 " stroke="#e8e8e8" stroke-width="2" stroke-opacity="1" stroke-miterlimit="4"/><path stroke-linecap="round" transform="matrix(1.04576, 0, 0, 1.04576, 187.743069, 155.291293)" fill-opacity="1" fill="#000000" fill-rule="nonzero" stroke-linejoin="miter" d="M 238.297652 50.790753 L 281.623633 33.858545 " stroke="#e8e8e8" stroke-width="2" stroke-opacity="1" stroke-miterlimit="4"/><path stroke-linecap="round" transform="matrix(1.04576, 0, 0, 1.04576, 187.743069, 155.291293)" fill-opacity="1" fill="#000000" fill-rule="nonzero" stroke-linejoin="miter" d="M 281.623633 33.858545 L 324.949613 16.930074 " stroke="#e8e8e8" stroke-width="2" stroke-opacity="1" stroke-miterlimit="4"/><path stroke-linecap="round" transform="matrix(1.04576, 0, 0, 1.04576, 187.743069, 155.291293)" fill-opacity="1" fill="#000000" fill-rule="nonzero" stroke-linejoin="miter" d="M 324.949613 16.930074 L 368.279329 33.858545 " stroke="#e8e8e8" stroke-width="2" stroke-opacity="1" stroke-miterlimit="4"/><path stroke-linecap="round" transform="matrix(1.04576, 0, 0, 1.04576, 187.743069, 155.291293)" fill-opacity="1" fill="#000000" fill-rule="nonzero" stroke-linejoin="miter" d="M 368.279329 33.858545 L 411.605309 67.719224 " stroke="#e8e8e8" stroke-width="2" stroke-opacity="1" stroke-miterlimit="4"/><path stroke-linecap="round" transform="matrix(1.04576, 0, 0, 1.04576, 187.743069, 155.291293)" fill-opacity="1" fill="#000000" fill-rule="nonzero" stroke-linejoin="miter" d="M 411.605309 67.719224 L 454.93129 84.651431 " stroke="#e8e8e8" stroke-width="2" stroke-opacity="1" stroke-miterlimit="4"/><path stroke-linecap="round" transform="matrix(1.04576, 0, 0, 1.04576, 187.743069, 155.291293)" fill-opacity="1" fill="#000000" fill-rule="nonzero" stroke-linejoin="miter" d="M 454.93129 84.651431 L 498.25727 67.719224 " stroke="#e8e8e8" stroke-width="2" stroke-opacity="1" stroke-miterlimit="4"/><path stroke-linecap="round" transform="matrix(1.04576, 0, 0, 1.04576, 187.743069, 155.291293)" fill="none" stroke-linejoin="miter" d="M 21.664015 67.719224 L 64.989995 67.719224 " stroke="#5669cc" stroke-width="2" stroke-opacity="1" stroke-miterlimit="4"/><path stroke-linecap="round" transform="matrix(1.04576, 0, 0, 1.04576, 187.743069, 155.291293)" fill-opacity="1" fill="#000000" fill-rule="nonzero" stroke-linejoin="miter" d="M 64.989995 67.719224 L 108.315976 50.790753 " stroke="#5669cc" stroke-width="2" stroke-opacity="1" stroke-miterlimit="4"/><path stroke-linecap="round" transform="matrix(1.04576, 0, 0, 1.04576, 187.743069, 155.291293)" fill-opacity="1" fill="#000000" fill-rule="nonzero" stroke-linejoin="miter" d="M 108.315976 50.790753 L 151.645691 84.651431 " stroke="#5669cc" stroke-width="2" stroke-opacity="1" stroke-miterlimit="4"/><path stroke-linecap="round" transform="matrix(1.04576, 0, 0, 1.04576, 187.743069, 155.291293)" fill-opacity="1" fill="#000000" fill-rule="nonzero" stroke-linejoin="miter" d="M 151.645691 84.651431 L 194.971672 67.719224 " stroke="#5669cc" stroke-width="2" stroke-opacity="1" stroke-miterlimit="4"/><path stroke-linecap="round" transform="matrix(1.04576, 0, 0, 1.04576, 187.743069, 155.291293)" fill-opacity="1" fill="#000000" fill-rule="nonzero" stroke-linejoin="miter" d="M 194.971672 67.719224 L 238.297652 50.790753 " stroke="#5669cc" stroke-width="2" stroke-opacity="1" stroke-miterlimit="4"/><path stroke-linecap="round" transform="matrix(1.04576, 0, 0, 1.04576, 187.743069, 155.291293)" fill-opacity="1" fill="#000000" fill-rule="nonzero" stroke-linejoin="miter" d="M 238.297652 50.790753 L 281.623633 33.858545 " stroke="#5669cc" stroke-width="2" stroke-opacity="1" stroke-miterlimit="4"/><path stroke-linecap="round" transform="matrix(1.04576, 0, 0, 1.04576, 187.743069, 155.291293)" fill-opacity="1" fill="#000000" fill-rule="nonzero" stroke-linejoin="miter" d="M 281.623633 33.858545 L 324.949613 16.930074 " stroke="#5669cc" stroke-width="2" stroke-opacity="1" stroke-miterlimit="4"/><path fill="#000000" d="M 527.5625 172.996094 L 572.875 155.292969 " fill-opacity="1" fill-rule="nonzero"/><g clip-path="url(#160131dab5)"><path stroke-linecap="round" transform="matrix(1.04576, 0, 0, 1.04576, 187.743069, 155.291293)" fill="none" stroke-linejoin="miter" d="M 324.949613 16.930074 L 368.279329 0.00160206 " stroke="#5669cc" stroke-width="2" stroke-opacity="1" stroke-miterlimit="4"/></g><path fill="#000000" d="M 572.875 155.292969 L 618.183594 226.109375 " fill-opacity="1" fill-rule="nonzero"/><g clip-path="url(#6d6d7f5728)"><path stroke-linecap="round" transform="matrix(1.04576, 0, 0, 1.04576, 187.743069, 155.291293)" fill="none" stroke-linejoin="miter" d="M 368.279329 0.00160206 L 411.605309 67.719224 " stroke="#5669cc" stroke-width="2" stroke-opacity="1" stroke-miterlimit="4"/></g><path stroke-linecap="round" transform="matrix(1.04576, 0, 0, 1.04576, 187.743069, 155.291293)" fill-opacity="1" fill="#000000" fill-rule="nonzero" stroke-linejoin="miter" d="M 411.605309 67.719224 L 454.93129 50.790753 " stroke="#5669cc" stroke-width="2" stroke-opacity="1" stroke-miterlimit="4"/><path stroke-linecap="round" transform="matrix(1.04576, 0, 0, 1.04576, 187.743069, 155.291293)" fill-opacity="1" fill="#000000" fill-rule="nonzero" stroke-linejoin="miter" d="M 454.93129 50.790753 L 498.25727 118.508375 " stroke="#5669cc" stroke-width="2" stroke-opacity="1" stroke-miterlimit="4"/><g fill="#252525" fill-opacity="1"><g transform="translate(244.379786, 140.290884)"><g><path d="M 5.484375 0.09375 C 4.578125 0.09375 3.742188 -0.113281 2.984375 -0.53125 C 2.222656 -0.957031 1.617188 -1.550781 1.171875 -2.3125 C 0.734375 -3.070312 0.515625 -3.929688 0.515625 -4.890625 C 0.515625 -5.835938 0.734375 -6.6875 1.171875 -7.4375 C 1.617188 -8.195312 2.222656 -8.789062 2.984375 -9.21875 C 3.742188 -9.644531 4.578125 -9.859375 5.484375 -9.859375 C 6.398438 -9.859375 7.238281 -9.644531 8 -9.21875 C 8.757812 -8.789062 9.359375 -8.195312 9.796875 -7.4375 C 10.234375 -6.6875 10.453125 -5.835938 10.453125 -4.890625 C 10.453125 -3.929688 10.234375 -3.070312 9.796875 -2.3125 C 9.359375 -1.550781 8.757812 -0.957031 8 -0.53125 C 7.238281 -0.113281 6.398438 0.09375 5.484375 0.09375 Z M 5.484375 -1.28125 C 6.128906 -1.28125 6.703125 -1.425781 7.203125 -1.71875 C 7.710938 -2.019531 8.109375 -2.441406 8.390625 -2.984375 C 8.671875 -3.535156 8.8125 -4.171875 8.8125 -4.890625 C 8.8125 -5.609375 8.671875 -6.238281 8.390625 -6.78125 C 8.109375 -7.320312 7.710938 -7.734375 7.203125 -8.015625 C 6.703125 -8.304688 6.128906 -8.453125 5.484375 -8.453125 C 4.835938 -8.453125 4.265625 -8.304688 3.765625 -8.015625 C 3.265625 -7.734375 2.867188 -7.320312 2.578125 -6.78125 C 2.296875 -6.238281 2.15625 -5.609375 2.15625 -4.890625 C 2.15625 -4.171875 2.296875 -3.535156 2.578125 -2.984375 C 2.867188 -2.441406 3.265625 -2.019531 3.765625 -1.71875 C 4.265625 -1.425781 4.835938 -1.28125 5.484375 -1.28125 Z M 5.484375 -1.28125 "/></g></g></g><g fill="#252525" fill-opacity="1"><g transform="translate(255.349669, 140.290884)"><g><path d="M 4.03125 -1.421875 L 6.21875 -7.71875 L 7.90625 -7.71875 L 4.96875 0 L 3.0625 0 L 0.140625 -7.71875 L 1.84375 -7.71875 Z M 4.03125 -1.421875 "/></g></g></g><g fill="#252525" fill-opacity="1"><g transform="translate(263.40917, 140.290884)"><g><path d="M 8.125 -4.046875 C 8.125 -3.753906 8.101562 -3.492188 8.0625 -3.265625 L 2.171875 -3.265625 C 2.210938 -2.648438 2.4375 -2.15625 2.84375 -1.78125 C 3.257812 -1.40625 3.769531 -1.21875 4.375 -1.21875 C 5.226562 -1.21875 5.832031 -1.578125 6.1875 -2.296875 L 7.90625 -2.296875 C 7.675781 -1.585938 7.253906 -1.003906 6.640625 -0.546875 C 6.023438 -0.0976562 5.269531 0.125 4.375 0.125 C 3.632812 0.125 2.972656 -0.0390625 2.390625 -0.375 C 1.804688 -0.707031 1.347656 -1.171875 1.015625 -1.765625 C 0.679688 -2.367188 0.515625 -3.066406 0.515625 -3.859375 C 0.515625 -4.648438 0.675781 -5.347656 1 -5.953125 C 1.320312 -6.554688 1.773438 -7.019531 2.359375 -7.34375 C 2.941406 -7.675781 3.613281 -7.84375 4.375 -7.84375 C 5.09375 -7.84375 5.738281 -7.679688 6.3125 -7.359375 C 6.882812 -7.046875 7.328125 -6.601562 7.640625 -6.03125 C 7.960938 -5.457031 8.125 -4.796875 8.125 -4.046875 Z M 6.453125 -4.546875 C 6.441406 -5.140625 6.226562 -5.613281 5.8125 -5.96875 C 5.40625 -6.320312 4.898438 -6.5 4.296875 -6.5 C 3.742188 -6.5 3.269531 -6.320312 2.875 -5.96875 C 2.488281 -5.625 2.257812 -5.148438 2.1875 -4.546875 Z M 6.453125 -4.546875 "/></g></g></g><g fill="#252525" fill-opacity="1"><g transform="translate(272.042352, 140.290884)"><g><path d="M 2.640625 -6.59375 C 2.878906 -6.988281 3.191406 -7.296875 3.578125 -7.515625 C 3.960938 -7.734375 4.421875 -7.84375 4.953125 -7.84375 L 4.953125 -6.1875 L 4.546875 -6.1875 C 3.921875 -6.1875 3.445312 -6.023438 3.125 -5.703125 C 2.800781 -5.390625 2.640625 -4.84375 2.640625 -4.0625 L 2.640625 0 L 1.046875 0 L 1.046875 -7.71875 L 2.640625 -7.71875 Z M 2.640625 -6.59375 "/></g></g></g><g fill="#252525" fill-opacity="1"><g transform="translate(277.415353, 140.290884)"><g><path d="M 0.515625 -3.890625 C 0.515625 -4.660156 0.675781 -5.34375 1 -5.9375 C 1.320312 -6.539062 1.757812 -7.007812 2.3125 -7.34375 C 2.875 -7.675781 3.488281 -7.84375 4.15625 -7.84375 C 4.757812 -7.84375 5.285156 -7.722656 5.734375 -7.484375 C 6.191406 -7.242188 6.554688 -6.945312 6.828125 -6.59375 L 6.828125 -7.71875 L 8.4375 -7.71875 L 8.4375 0 L 6.828125 0 L 6.828125 -1.140625 C 6.554688 -0.785156 6.1875 -0.484375 5.71875 -0.234375 C 5.257812 0.00390625 4.726562 0.125 4.125 0.125 C 3.46875 0.125 2.863281 -0.0390625 2.3125 -0.375 C 1.757812 -0.71875 1.320312 -1.195312 1 -1.8125 C 0.675781 -2.425781 0.515625 -3.117188 0.515625 -3.890625 Z M 6.828125 -3.859375 C 6.828125 -4.390625 6.71875 -4.851562 6.5 -5.25 C 6.28125 -5.644531 5.992188 -5.941406 5.640625 -6.140625 C 5.285156 -6.347656 4.90625 -6.453125 4.5 -6.453125 C 4.082031 -6.453125 3.695312 -6.351562 3.34375 -6.15625 C 2.988281 -5.957031 2.703125 -5.660156 2.484375 -5.265625 C 2.265625 -4.878906 2.15625 -4.421875 2.15625 -3.890625 C 2.15625 -3.359375 2.265625 -2.890625 2.484375 -2.484375 C 2.703125 -2.085938 2.988281 -1.785156 3.34375 -1.578125 C 3.707031 -1.367188 4.09375 -1.265625 4.5 -1.265625 C 4.90625 -1.265625 5.285156 -1.363281 5.640625 -1.5625 C 5.992188 -1.769531 6.28125 -2.070312 6.5 -2.46875 C 6.71875 -2.863281 6.828125 -3.328125 6.828125 -3.859375 Z M 6.828125 -3.859375 "/></g></g></g><g fill="#252525" fill-opacity="1"><g transform="translate(286.902058, 140.290884)"><g><path d="M 2.640625 -10.359375 L 2.640625 0 L 1.046875 0 L 1.046875 -10.359375 Z M 2.640625 -10.359375 "/></g></g></g><g fill="#252525" fill-opacity="1"><g transform="translate(290.595993, 140.290884)"><g><path d="M 2.640625 -10.359375 L 2.640625 0 L 1.046875 0 L 1.046875 -10.359375 Z M 2.640625 -10.359375 "/></g></g></g><g fill="#252525" fill-opacity="1"><g transform="translate(424.595742, 138.790884)"><g><path d="M 5.0625 -6.96875 L 5.0625 -6.234375 L 3.15625 -6.234375 L 3.15625 0 L 2.25 0 L 2.25 -6.234375 L 0.34375 -6.234375 L 0.34375 -6.96875 Z M 5.0625 -6.96875 "/></g></g></g><g fill="#252525" fill-opacity="1"><g transform="translate(430.003613, 138.790884)"><g><path d="M 3.484375 -5.578125 C 3.898438 -5.578125 4.273438 -5.488281 4.609375 -5.3125 C 4.941406 -5.132812 5.203125 -4.867188 5.390625 -4.515625 C 5.585938 -4.160156 5.6875 -3.734375 5.6875 -3.234375 L 5.6875 0 L 4.78125 0 L 4.78125 -3.09375 C 4.78125 -3.644531 4.640625 -4.066406 4.359375 -4.359375 C 4.085938 -4.648438 3.71875 -4.796875 3.25 -4.796875 C 2.769531 -4.796875 2.390625 -4.644531 2.109375 -4.34375 C 1.828125 -4.039062 1.6875 -3.601562 1.6875 -3.03125 L 1.6875 0 L 0.765625 0 L 0.765625 -7.40625 L 1.6875 -7.40625 L 1.6875 -4.703125 C 1.863281 -4.984375 2.109375 -5.195312 2.421875 -5.34375 C 2.742188 -5.5 3.097656 -5.578125 3.484375 -5.578125 Z M 3.484375 -5.578125 "/></g></g></g><g fill="#252525" fill-opacity="1"><g transform="translate(436.401089, 138.790884)"><g><path d="M 1.234375 -6.375 C 1.066406 -6.375 0.921875 -6.429688 0.796875 -6.546875 C 0.679688 -6.671875 0.625 -6.816406 0.625 -6.984375 C 0.625 -7.160156 0.679688 -7.304688 0.796875 -7.421875 C 0.921875 -7.546875 1.066406 -7.609375 1.234375 -7.609375 C 1.398438 -7.609375 1.539062 -7.546875 1.65625 -7.421875 C 1.78125 -7.304688 1.84375 -7.160156 1.84375 -6.984375 C 1.84375 -6.816406 1.78125 -6.671875 1.65625 -6.546875 C 1.539062 -6.429688 1.398438 -6.375 1.234375 -6.375 Z M 1.6875 -5.484375 L 1.6875 0 L 0.765625 0 L 0.765625 -5.484375 Z M 1.6875 -5.484375 "/></g></g></g><g fill="#252525" fill-opacity="1"><g transform="translate(438.860116, 138.790884)"><g><path d="M 2.703125 0.09375 C 2.285156 0.09375 1.910156 0.0195312 1.578125 -0.125 C 1.242188 -0.269531 0.976562 -0.46875 0.78125 -0.71875 C 0.59375 -0.976562 0.488281 -1.273438 0.46875 -1.609375 L 1.40625 -1.609375 C 1.4375 -1.335938 1.566406 -1.113281 1.796875 -0.9375 C 2.023438 -0.769531 2.328125 -0.6875 2.703125 -0.6875 C 3.046875 -0.6875 3.316406 -0.757812 3.515625 -0.90625 C 3.710938 -1.0625 3.8125 -1.253906 3.8125 -1.484375 C 3.8125 -1.722656 3.707031 -1.898438 3.5 -2.015625 C 3.289062 -2.140625 2.960938 -2.257812 2.515625 -2.375 C 2.109375 -2.476562 1.773438 -2.582031 1.515625 -2.6875 C 1.253906 -2.800781 1.03125 -2.96875 0.84375 -3.1875 C 0.664062 -3.40625 0.578125 -3.691406 0.578125 -4.046875 C 0.578125 -4.316406 0.660156 -4.566406 0.828125 -4.796875 C 0.992188 -5.035156 1.226562 -5.222656 1.53125 -5.359375 C 1.84375 -5.492188 2.195312 -5.5625 2.59375 -5.5625 C 3.195312 -5.5625 3.6875 -5.410156 4.0625 -5.109375 C 4.4375 -4.804688 4.632812 -4.382812 4.65625 -3.84375 L 3.75 -3.84375 C 3.726562 -4.132812 3.613281 -4.363281 3.40625 -4.53125 C 3.195312 -4.707031 2.914062 -4.796875 2.5625 -4.796875 C 2.226562 -4.796875 1.960938 -4.722656 1.765625 -4.578125 C 1.578125 -4.441406 1.484375 -4.265625 1.484375 -4.046875 C 1.484375 -3.859375 1.539062 -3.707031 1.65625 -3.59375 C 1.78125 -3.476562 1.929688 -3.382812 2.109375 -3.3125 C 2.285156 -3.238281 2.53125 -3.160156 2.84375 -3.078125 C 3.238281 -2.972656 3.554688 -2.867188 3.796875 -2.765625 C 4.046875 -2.660156 4.257812 -2.503906 4.4375 -2.296875 C 4.613281 -2.085938 4.703125 -1.816406 4.703125 -1.484375 C 4.703125 -1.191406 4.617188 -0.921875 4.453125 -0.671875 C 4.285156 -0.429688 4.050781 -0.242188 3.75 -0.109375 C 3.445312 0.0234375 3.097656 0.09375 2.703125 0.09375 Z M 2.703125 0.09375 "/></g></g></g><g fill="#252525" fill-opacity="1"><g transform="translate(444.07806, 138.790884)"><g/></g></g><g fill="#252525" fill-opacity="1"><g transform="translate(446.747006, 138.790884)"><g><path d="M 5.65625 -6.96875 L 3.375 -2.625 L 3.375 0 L 2.46875 0 L 2.46875 -2.625 L 0.1875 -6.96875 L 1.203125 -6.96875 L 2.921875 -3.4375 L 4.640625 -6.96875 Z M 5.65625 -6.96875 "/></g></g></g><g fill="#252525" fill-opacity="1"><g transform="translate(452.584705, 138.790884)"><g><path d="M 5.765625 -2.953125 C 5.765625 -2.773438 5.753906 -2.59375 5.734375 -2.40625 L 1.359375 -2.40625 C 1.390625 -1.863281 1.570312 -1.441406 1.90625 -1.140625 C 2.25 -0.835938 2.660156 -0.6875 3.140625 -0.6875 C 3.535156 -0.6875 3.863281 -0.773438 4.125 -0.953125 C 4.382812 -1.140625 4.570312 -1.382812 4.6875 -1.6875 L 5.65625 -1.6875 C 5.507812 -1.164062 5.21875 -0.738281 4.78125 -0.40625 C 4.34375 -0.0703125 3.796875 0.09375 3.140625 0.09375 C 2.617188 0.09375 2.148438 -0.0195312 1.734375 -0.25 C 1.328125 -0.488281 1.007812 -0.820312 0.78125 -1.25 C 0.550781 -1.6875 0.4375 -2.1875 0.4375 -2.75 C 0.4375 -3.3125 0.546875 -3.804688 0.765625 -4.234375 C 0.992188 -4.660156 1.3125 -4.988281 1.71875 -5.21875 C 2.132812 -5.445312 2.609375 -5.5625 3.140625 -5.5625 C 3.660156 -5.5625 4.117188 -5.445312 4.515625 -5.21875 C 4.921875 -5 5.226562 -4.691406 5.4375 -4.296875 C 5.65625 -3.898438 5.765625 -3.453125 5.765625 -2.953125 Z M 4.828125 -3.140625 C 4.828125 -3.484375 4.75 -3.78125 4.59375 -4.03125 C 4.445312 -4.28125 4.238281 -4.46875 3.96875 -4.59375 C 3.707031 -4.726562 3.414062 -4.796875 3.09375 -4.796875 C 2.632812 -4.796875 2.242188 -4.648438 1.921875 -4.359375 C 1.597656 -4.066406 1.414062 -3.660156 1.375 -3.140625 Z M 4.828125 -3.140625 "/></g></g></g><g fill="#252525" fill-opacity="1"><g transform="translate(458.782264, 138.790884)"><g><path d="M 0.4375 -2.765625 C 0.4375 -3.316406 0.546875 -3.804688 0.765625 -4.234375 C 0.992188 -4.660156 1.304688 -4.988281 1.703125 -5.21875 C 2.097656 -5.445312 2.539062 -5.5625 3.03125 -5.5625 C 3.507812 -5.5625 3.925781 -5.457031 4.28125 -5.25 C 4.632812 -5.050781 4.894531 -4.796875 5.0625 -4.484375 L 5.0625 -5.484375 L 5.984375 -5.484375 L 5.984375 0 L 5.0625 0 L 5.0625 -1.015625 C 4.882812 -0.703125 4.617188 -0.4375 4.265625 -0.21875 C 3.910156 -0.0078125 3.492188 0.09375 3.015625 0.09375 C 2.535156 0.09375 2.097656 -0.0234375 1.703125 -0.265625 C 1.304688 -0.503906 0.992188 -0.84375 0.765625 -1.28125 C 0.546875 -1.71875 0.4375 -2.210938 0.4375 -2.765625 Z M 5.0625 -2.75 C 5.0625 -3.164062 4.976562 -3.523438 4.8125 -3.828125 C 4.644531 -4.140625 4.421875 -4.375 4.140625 -4.53125 C 3.859375 -4.695312 3.546875 -4.78125 3.203125 -4.78125 C 2.867188 -4.78125 2.5625 -4.695312 2.28125 -4.53125 C 2 -4.375 1.773438 -4.140625 1.609375 -3.828125 C 1.441406 -3.523438 1.359375 -3.171875 1.359375 -2.765625 C 1.359375 -2.335938 1.441406 -1.96875 1.609375 -1.65625 C 1.773438 -1.351562 2 -1.117188 2.28125 -0.953125 C 2.5625 -0.785156 2.867188 -0.703125 3.203125 -0.703125 C 3.546875 -0.703125 3.859375 -0.785156 4.140625 -0.953125 C 4.421875 -1.117188 4.644531 -1.351562 4.8125 -1.65625 C 4.976562 -1.96875 5.0625 -2.332031 5.0625 -2.75 Z M 5.0625 -2.75 "/></g></g></g><g fill="#252525" fill-opacity="1"><g transform="translate(465.5396, 138.790884)"><g><path d="M 1.6875 -4.59375 C 1.84375 -4.90625 2.066406 -5.144531 2.359375 -5.3125 C 2.660156 -5.488281 3.023438 -5.578125 3.453125 -5.578125 L 3.453125 -4.640625 L 3.203125 -4.640625 C 2.191406 -4.640625 1.6875 -4.085938 1.6875 -2.984375 L 1.6875 0 L 0.765625 0 L 0.765625 -5.484375 L 1.6875 -5.484375 Z M 1.6875 -4.59375 "/></g></g></g><g fill="#252525" fill-opacity="1"><g transform="translate(502.554483, 138.790884)"><g><path d="M 1.6875 -0.734375 L 4.125 -0.734375 L 4.125 0 L 0.765625 0 L 0.765625 -6.96875 L 1.6875 -6.96875 Z M 1.6875 -0.734375 "/></g></g></g><g fill="#252525" fill-opacity="1"><g transform="translate(506.872785, 138.790884)"><g><path d="M 0.4375 -2.765625 C 0.4375 -3.316406 0.546875 -3.804688 0.765625 -4.234375 C 0.992188 -4.660156 1.304688 -4.988281 1.703125 -5.21875 C 2.097656 -5.445312 2.539062 -5.5625 3.03125 -5.5625 C 3.507812 -5.5625 3.925781 -5.457031 4.28125 -5.25 C 4.632812 -5.050781 4.894531 -4.796875 5.0625 -4.484375 L 5.0625 -5.484375 L 5.984375 -5.484375 L 5.984375 0 L 5.0625 0 L 5.0625 -1.015625 C 4.882812 -0.703125 4.617188 -0.4375 4.265625 -0.21875 C 3.910156 -0.0078125 3.492188 0.09375 3.015625 0.09375 C 2.535156 0.09375 2.097656 -0.0234375 1.703125 -0.265625 C 1.304688 -0.503906 0.992188 -0.84375 0.765625 -1.28125 C 0.546875 -1.71875 0.4375 -2.210938 0.4375 -2.765625 Z M 5.0625 -2.75 C 5.0625 -3.164062 4.976562 -3.523438 4.8125 -3.828125 C 4.644531 -4.140625 4.421875 -4.375 4.140625 -4.53125 C 3.859375 -4.695312 3.546875 -4.78125 3.203125 -4.78125 C 2.867188 -4.78125 2.5625 -4.695312 2.28125 -4.53125 C 2 -4.375 1.773438 -4.140625 1.609375 -3.828125 C 1.441406 -3.523438 1.359375 -3.171875 1.359375 -2.765625 C 1.359375 -2.335938 1.441406 -1.96875 1.609375 -1.65625 C 1.773438 -1.351562 2 -1.117188 2.28125 -0.953125 C 2.5625 -0.785156 2.867188 -0.703125 3.203125 -0.703125 C 3.546875 -0.703125 3.859375 -0.785156 4.140625 -0.953125 C 4.421875 -1.117188 4.644531 -1.351562 4.8125 -1.65625 C 4.976562 -1.96875 5.0625 -2.332031 5.0625 -2.75 Z M 5.0625 -2.75 "/></g></g></g><g fill="#252525" fill-opacity="1"><g transform="translate(513.63012, 138.790884)"><g><path d="M 2.703125 0.09375 C 2.285156 0.09375 1.910156 0.0195312 1.578125 -0.125 C 1.242188 -0.269531 0.976562 -0.46875 0.78125 -0.71875 C 0.59375 -0.976562 0.488281 -1.273438 0.46875 -1.609375 L 1.40625 -1.609375 C 1.4375 -1.335938 1.566406 -1.113281 1.796875 -0.9375 C 2.023438 -0.769531 2.328125 -0.6875 2.703125 -0.6875 C 3.046875 -0.6875 3.316406 -0.757812 3.515625 -0.90625 C 3.710938 -1.0625 3.8125 -1.253906 3.8125 -1.484375 C 3.8125 -1.722656 3.707031 -1.898438 3.5 -2.015625 C 3.289062 -2.140625 2.960938 -2.257812 2.515625 -2.375 C 2.109375 -2.476562 1.773438 -2.582031 1.515625 -2.6875 C 1.253906 -2.800781 1.03125 -2.96875 0.84375 -3.1875 C 0.664062 -3.40625 0.578125 -3.691406 0.578125 -4.046875 C 0.578125 -4.316406 0.660156 -4.566406 0.828125 -4.796875 C 0.992188 -5.035156 1.226562 -5.222656 1.53125 -5.359375 C 1.84375 -5.492188 2.195312 -5.5625 2.59375 -5.5625 C 3.195312 -5.5625 3.6875 -5.410156 4.0625 -5.109375 C 4.4375 -4.804688 4.632812 -4.382812 4.65625 -3.84375 L 3.75 -3.84375 C 3.726562 -4.132812 3.613281 -4.363281 3.40625 -4.53125 C 3.195312 -4.707031 2.914062 -4.796875 2.5625 -4.796875 C 2.226562 -4.796875 1.960938 -4.722656 1.765625 -4.578125 C 1.578125 -4.441406 1.484375 -4.265625 1.484375 -4.046875 C 1.484375 -3.859375 1.539062 -3.707031 1.65625 -3.59375 C 1.78125 -3.476562 1.929688 -3.382812 2.109375 -3.3125 C 2.285156 -3.238281 2.53125 -3.160156 2.84375 -3.078125 C 3.238281 -2.972656 3.554688 -2.867188 3.796875 -2.765625 C 4.046875 -2.660156 4.257812 -2.503906 4.4375 -2.296875 C 4.613281 -2.085938 4.703125 -1.816406 4.703125 -1.484375 C 4.703125 -1.191406 4.617188 -0.921875 4.453125 -0.671875 C 4.285156 -0.429688 4.050781 -0.242188 3.75 -0.109375 C 3.445312 0.0234375 3.097656 0.09375 2.703125 0.09375 Z M 2.703125 0.09375 "/></g></g></g><g fill="#252525" fill-opacity="1"><g transform="translate(518.848065, 138.790884)"><g><path d="M 1.875 -4.734375 L 1.875 -1.5 C 1.875 -1.226562 1.929688 -1.035156 2.046875 -0.921875 C 2.160156 -0.816406 2.359375 -0.765625 2.640625 -0.765625 L 3.3125 -0.765625 L 3.3125 0 L 2.484375 0 C 1.984375 0 1.601562 -0.113281 1.34375 -0.34375 C 1.09375 -0.582031 0.96875 -0.96875 0.96875 -1.5 L 0.96875 -4.734375 L 0.265625 -4.734375 L 0.265625 -5.484375 L 0.96875 -5.484375 L 0.96875 -6.859375 L 1.875 -6.859375 L 1.875 -5.484375 L 3.3125 -5.484375 L 3.3125 -4.734375 Z M 1.875 -4.734375 "/></g></g></g><g fill="#252525" fill-opacity="1"><g transform="translate(522.486634, 138.790884)"><g/></g></g><g fill="#252525" fill-opacity="1"><g transform="translate(525.155579, 138.790884)"><g><path d="M 5.65625 -6.96875 L 3.375 -2.625 L 3.375 0 L 2.46875 0 L 2.46875 -2.625 L 0.1875 -6.96875 L 1.203125 -6.96875 L 2.921875 -3.4375 L 4.640625 -6.96875 Z M 5.65625 -6.96875 "/></g></g></g><g fill="#252525" fill-opacity="1"><g transform="translate(530.993279, 138.790884)"><g><path d="M 5.765625 -2.953125 C 5.765625 -2.773438 5.753906 -2.59375 5.734375 -2.40625 L 1.359375 -2.40625 C 1.390625 -1.863281 1.570312 -1.441406 1.90625 -1.140625 C 2.25 -0.835938 2.660156 -0.6875 3.140625 -0.6875 C 3.535156 -0.6875 3.863281 -0.773438 4.125 -0.953125 C 4.382812 -1.140625 4.570312 -1.382812 4.6875 -1.6875 L 5.65625 -1.6875 C 5.507812 -1.164062 5.21875 -0.738281 4.78125 -0.40625 C 4.34375 -0.0703125 3.796875 0.09375 3.140625 0.09375 C 2.617188 0.09375 2.148438 -0.0195312 1.734375 -0.25 C 1.328125 -0.488281 1.007812 -0.820312 0.78125 -1.25 C 0.550781 -1.6875 0.4375 -2.1875 0.4375 -2.75 C 0.4375 -3.3125 0.546875 -3.804688 0.765625 -4.234375 C 0.992188 -4.660156 1.3125 -4.988281 1.71875 -5.21875 C 2.132812 -5.445312 2.609375 -5.5625 3.140625 -5.5625 C 3.660156 -5.5625 4.117188 -5.445312 4.515625 -5.21875 C 4.921875 -5 5.226562 -4.691406 5.4375 -4.296875 C 5.65625 -3.898438 5.765625 -3.453125 5.765625 -2.953125 Z M 4.828125 -3.140625 C 4.828125 -3.484375 4.75 -3.78125 4.59375 -4.03125 C 4.445312 -4.28125 4.238281 -4.46875 3.96875 -4.59375 C 3.707031 -4.726562 3.414062 -4.796875 3.09375 -4.796875 C 2.632812 -4.796875 2.242188 -4.648438 1.921875 -4.359375 C 1.597656 -4.066406 1.414062 -3.660156 1.375 -3.140625 Z M 4.828125 -3.140625 "/></g></g></g><g fill="#252525" fill-opacity="1"><g transform="translate(537.190838, 138.790884)"><g><path d="M 0.4375 -2.765625 C 0.4375 -3.316406 0.546875 -3.804688 0.765625 -4.234375 C 0.992188 -4.660156 1.304688 -4.988281 1.703125 -5.21875 C 2.097656 -5.445312 2.539062 -5.5625 3.03125 -5.5625 C 3.507812 -5.5625 3.925781 -5.457031 4.28125 -5.25 C 4.632812 -5.050781 4.894531 -4.796875 5.0625 -4.484375 L 5.0625 -5.484375 L 5.984375 -5.484375 L 5.984375 0 L 5.0625 0 L 5.0625 -1.015625 C 4.882812 -0.703125 4.617188 -0.4375 4.265625 -0.21875 C 3.910156 -0.0078125 3.492188 0.09375 3.015625 0.09375 C 2.535156 0.09375 2.097656 -0.0234375 1.703125 -0.265625 C 1.304688 -0.503906 0.992188 -0.84375 0.765625 -1.28125 C 0.546875 -1.71875 0.4375 -2.210938 0.4375 -2.765625 Z M 5.0625 -2.75 C 5.0625 -3.164062 4.976562 -3.523438 4.8125 -3.828125 C 4.644531 -4.140625 4.421875 -4.375 4.140625 -4.53125 C 3.859375 -4.695312 3.546875 -4.78125 3.203125 -4.78125 C 2.867188 -4.78125 2.5625 -4.695312 2.28125 -4.53125 C 2 -4.375 1.773438 -4.140625 1.609375 -3.828125 C 1.441406 -3.523438 1.359375 -3.171875 1.359375 -2.765625 C 1.359375 -2.335938 1.441406 -1.96875 1.609375 -1.65625 C 1.773438 -1.351562 2 -1.117188 2.28125 -0.953125 C 2.5625 -0.785156 2.867188 -0.703125 3.203125 -0.703125 C 3.546875 -0.703125 3.859375 -0.785156 4.140625 -0.953125 C 4.421875 -1.117188 4.644531 -1.351562 4.8125 -1.65625 C 4.976562 -1.96875 5.0625 -2.332031 5.0625 -2.75 Z M 5.0625 -2.75 "/></g></g></g><g fill="#252525" fill-opacity="1"><g transform="translate(543.948173, 138.790884)"><g><path d="M 1.6875 -4.59375 C 1.84375 -4.90625 2.066406 -5.144531 2.359375 -5.3125 C 2.660156 -5.488281 3.023438 -5.578125 3.453125 -5.578125 L 3.453125 -4.640625 L 3.203125 -4.640625 C 2.191406 -4.640625 1.6875 -4.085938 1.6875 -2.984375 L 1.6875 0 L 0.765625 0 L 0.765625 -5.484375 L 1.6875 -5.484375 Z M 1.6875 -4.59375 "/></g></g></g></svg>