<svg xmlns="http://www.w3.org/2000/svg" xmlns:xlink="http://www.w3.org/1999/xlink" width="1280" zoomAndPan="magnify" viewBox="0 0 960 599.999999" height="800" preserveAspectRatio="xMidYMid meet" version="1.0"><defs><g/><clipPath id="bcd233eeaa"><path d="M 180.609375 37.636719 L 798.074219 37.636719 L 798.074219 564.453125 L 180.609375 564.453125 Z M 180.609375 37.636719 " clip-rule="nonzero"/></clipPath><clipPath id="c7099513bb"><path d="M 189.609375 37.636719 L 789.074219 37.636719 C 794.046875 37.636719 798.074219 41.667969 798.074219 46.636719 L 798.074219 555.453125 C 798.074219 560.421875 794.046875 564.453125 789.074219 564.453125 L 189.609375 564.453125 C 184.636719 564.453125 180.609375 560.421875 180.609375 555.453125 L 180.609375 46.636719 C 180.609375 41.667969 184.636719 37.636719 189.609375 37.636719 Z M 189.609375 37.636719 " clip-rule="nonzero"/></clipPath></defs><g clip-path="url(#bcd233eeaa)"><g clip-path="url(#c7099513bb)"><path fill="#e2ffed" d="M 180.609375 37.636719 L 798.074219 37.636719 L 798.074219 564.453125 L 180.609375 564.453125 Z M 180.609375 37.636719 " fill-opacity="1" fill-rule="nonzero"/></g></g><g fill="#000000" fill-opacity="1"><g transform="translate(319.061627, 155.392634)"><g><path d="M 3.609375 0 L 3.609375 -41.484375 L 19.96875 -41.484375 C 24.6875 -41.484375 28.34375 -40.253906 30.9375 -37.796875 C 33.539062 -35.335938 34.84375 -32.050781 34.84375 -27.9375 C 34.84375 -25.101562 34.210938 -22.675781 32.953125 -20.65625 C 31.691406 -18.644531 29.878906 -17.132812 27.515625 -16.125 L 36.328125 0 L 26.640625 0 L 18.78125 -14.703125 L 12.375 -14.703125 L 12.375 0 Z M 12.375 -21.75 L 18.328125 -21.75 C 23.316406 -21.75 25.8125 -23.8125 25.8125 -27.9375 C 25.8125 -32.1875 23.304688 -34.3125 18.296875 -34.3125 L 12.375 -34.3125 Z M 12.375 -21.75 "/></g></g></g><g fill="#000000" fill-opacity="1"><g transform="translate(356.498761, 155.392634)"><g><path d="M 17.625 0.609375 C 14.4375 0.609375 11.6875 -0.0390625 9.375 -1.34375 C 7.070312 -2.644531 5.296875 -4.492188 4.046875 -6.890625 C 2.804688 -9.296875 2.1875 -12.140625 2.1875 -15.421875 C 2.1875 -18.617188 2.804688 -21.425781 4.046875 -23.84375 C 5.296875 -26.257812 7.050781 -28.140625 9.3125 -29.484375 C 11.570312 -30.835938 14.226562 -31.515625 17.28125 -31.515625 C 20.019531 -31.515625 22.492188 -30.929688 24.703125 -29.765625 C 26.910156 -28.609375 28.660156 -26.859375 29.953125 -24.515625 C 31.253906 -22.171875 31.90625 -19.238281 31.90625 -15.71875 L 31.90625 -13.34375 L 10.71875 -13.34375 L 10.71875 -13.328125 C 10.71875 -11.003906 11.351562 -9.171875 12.625 -7.828125 C 13.894531 -6.492188 15.609375 -5.828125 17.765625 -5.828125 C 19.210938 -5.828125 20.460938 -6.128906 21.515625 -6.734375 C 22.566406 -7.347656 23.3125 -8.25 23.75 -9.4375 L 31.71875 -8.90625 C 31.113281 -6.019531 29.570312 -3.710938 27.09375 -1.984375 C 24.625 -0.253906 21.46875 0.609375 17.625 0.609375 Z M 10.71875 -18.703125 L 23.78125 -18.703125 C 23.769531 -20.546875 23.175781 -22.066406 22 -23.265625 C 20.820312 -24.472656 19.296875 -25.078125 17.421875 -25.078125 C 15.503906 -25.078125 13.929688 -24.457031 12.703125 -23.21875 C 11.472656 -21.976562 10.8125 -20.472656 10.71875 -18.703125 Z M 10.71875 -18.703125 "/></g></g></g><g fill="#000000" fill-opacity="1"><g transform="translate(390.593293, 155.392634)"><g><path d="M 17.46875 12.109375 C 13.28125 12.109375 9.988281 11.285156 7.59375 9.640625 C 5.207031 7.992188 3.753906 5.992188 3.234375 3.640625 L 11.21875 2.578125 C 11.570312 3.410156 12.257812 4.175781 13.28125 4.875 C 14.300781 5.570312 15.765625 5.921875 17.671875 5.921875 C 19.546875 5.921875 21.09375 5.472656 22.3125 4.578125 C 23.53125 3.679688 24.140625 2.21875 24.140625 0.1875 L 24.140625 -5.515625 L 23.78125 -5.515625 C 23.21875 -4.222656 22.21875 -3.054688 20.78125 -2.015625 C 19.351562 -0.972656 17.394531 -0.453125 14.90625 -0.453125 C 12.570312 -0.453125 10.445312 -1 8.53125 -2.09375 C 6.625 -3.1875 5.109375 -4.851562 3.984375 -7.09375 C 2.859375 -9.332031 2.296875 -12.175781 2.296875 -15.625 C 2.296875 -19.15625 2.867188 -22.09375 4.015625 -24.4375 C 5.171875 -26.789062 6.703125 -28.554688 8.609375 -29.734375 C 10.523438 -30.921875 12.617188 -31.515625 14.890625 -31.515625 C 16.628906 -31.515625 18.085938 -31.222656 19.265625 -30.640625 C 20.441406 -30.054688 21.394531 -29.332031 22.125 -28.46875 C 22.851562 -27.601562 23.40625 -26.742188 23.78125 -25.890625 L 24.109375 -25.890625 L 24.109375 -31.109375 L 32.671875 -31.109375 L 32.671875 0.296875 C 32.671875 2.878906 32.019531 5.046875 30.71875 6.796875 C 29.414062 8.554688 27.625 9.878906 25.34375 10.765625 C 23.0625 11.660156 20.4375 12.109375 17.46875 12.109375 Z M 17.640625 -6.921875 C 19.722656 -6.921875 21.332031 -7.691406 22.46875 -9.234375 C 23.613281 -10.773438 24.1875 -12.914062 24.1875 -15.65625 C 24.1875 -18.382812 23.617188 -20.566406 22.484375 -22.203125 C 21.347656 -23.835938 19.734375 -24.65625 17.640625 -24.65625 C 15.503906 -24.65625 13.878906 -23.816406 12.765625 -22.140625 C 11.648438 -20.460938 11.09375 -18.300781 11.09375 -15.65625 C 11.09375 -12.96875 11.65625 -10.835938 12.78125 -9.265625 C 13.90625 -7.703125 15.523438 -6.921875 17.640625 -6.921875 Z M 17.640625 -6.921875 "/></g></g></g><g fill="#000000" fill-opacity="1"><g transform="translate(426.713635, 155.392634)"><g><path d="M 3.4375 0 L 3.4375 -31.109375 L 12.078125 -31.109375 L 12.078125 0 Z M 7.78125 -35.125 C 6.507812 -35.125 5.410156 -35.550781 4.484375 -36.40625 C 3.566406 -37.269531 3.109375 -38.300781 3.109375 -39.5 C 3.109375 -40.707031 3.566406 -41.734375 4.484375 -42.578125 C 5.410156 -43.429688 6.507812 -43.859375 7.78125 -43.859375 C 9.0625 -43.859375 10.160156 -43.429688 11.078125 -42.578125 C 11.992188 -41.734375 12.453125 -40.707031 12.453125 -39.5 C 12.453125 -38.300781 11.992188 -37.269531 11.078125 -36.40625 C 10.160156 -35.550781 9.0625 -35.125 7.78125 -35.125 Z M 7.78125 -35.125 "/></g></g></g><g fill="#000000" fill-opacity="1"><g transform="translate(442.23141, 155.392634)"><g><path d="M 29.328125 -22.25 L 21.4375 -21.75 C 21.21875 -22.75 20.664062 -23.609375 19.78125 -24.328125 C 18.90625 -25.046875 17.722656 -25.40625 16.234375 -25.40625 C 14.890625 -25.40625 13.753906 -25.125 12.828125 -24.5625 C 11.910156 -24 11.457031 -23.253906 11.46875 -22.328125 C 11.457031 -21.578125 11.75 -20.945312 12.34375 -20.4375 C 12.945312 -19.925781 13.972656 -19.515625 15.421875 -19.203125 L 21.046875 -18.0625 C 27.023438 -16.84375 30.023438 -14.035156 30.046875 -9.640625 C 30.046875 -7.597656 29.445312 -5.804688 28.25 -4.265625 C 27.050781 -2.734375 25.410156 -1.535156 23.328125 -0.671875 C 21.253906 0.179688 18.875 0.609375 16.1875 0.609375 C 12.0625 0.609375 8.773438 -0.25 6.328125 -1.96875 C 3.890625 -3.695312 2.46875 -6.046875 2.0625 -9.015625 L 10.546875 -9.453125 C 10.816406 -8.191406 11.441406 -7.234375 12.421875 -6.578125 C 13.398438 -5.929688 14.660156 -5.609375 16.203125 -5.609375 C 17.710938 -5.609375 18.929688 -5.90625 19.859375 -6.5 C 20.785156 -7.09375 21.253906 -7.847656 21.265625 -8.765625 C 21.222656 -10.304688 19.894531 -11.34375 17.28125 -11.875 L 11.890625 -12.9375 C 5.867188 -14.144531 2.867188 -17.113281 2.890625 -21.84375 C 2.878906 -24.832031 4.078125 -27.191406 6.484375 -28.921875 C 8.898438 -30.648438 12.097656 -31.515625 16.078125 -31.515625 C 20.015625 -31.515625 23.113281 -30.679688 25.375 -29.015625 C 27.632812 -27.359375 28.953125 -25.101562 29.328125 -22.25 Z M 29.328125 -22.25 "/></g></g></g><g fill="#000000" fill-opacity="1"><g transform="translate(474.279864, 155.392634)"><g><path d="M 20 -31.109375 L 20 -24.640625 L 14.140625 -24.640625 L 14.140625 -9.5625 C 14.140625 -8.375 14.410156 -7.566406 14.953125 -7.140625 C 15.492188 -6.722656 16.195312 -6.515625 17.0625 -6.515625 C 17.46875 -6.515625 17.867188 -6.550781 18.265625 -6.625 C 18.671875 -6.707031 18.984375 -6.769531 19.203125 -6.8125 L 20.5625 -0.390625 C 20.125 -0.253906 19.515625 -0.0976562 18.734375 0.078125 C 17.953125 0.265625 17 0.378906 15.875 0.421875 C 12.75 0.554688 10.234375 -0.117188 8.328125 -1.609375 C 6.429688 -3.097656 5.492188 -5.367188 5.515625 -8.421875 L 5.515625 -24.640625 L 1.25 -24.640625 L 1.25 -31.109375 L 5.515625 -31.109375 L 5.515625 -38.578125 L 14.140625 -38.578125 L 14.140625 -31.109375 Z M 20 -31.109375 "/></g></g></g><g fill="#000000" fill-opacity="1"><g transform="translate(496.442318, 155.392634)"><g><path d="M 17.625 0.609375 C 14.4375 0.609375 11.6875 -0.0390625 9.375 -1.34375 C 7.070312 -2.644531 5.296875 -4.492188 4.046875 -6.890625 C 2.804688 -9.296875 2.1875 -12.140625 2.1875 -15.421875 C 2.1875 -18.617188 2.804688 -21.425781 4.046875 -23.84375 C 5.296875 -26.257812 7.050781 -28.140625 9.3125 -29.484375 C 11.570312 -30.835938 14.226562 -31.515625 17.28125 -31.515625 C 20.019531 -31.515625 22.492188 -30.929688 24.703125 -29.765625 C 26.910156 -28.609375 28.660156 -26.859375 29.953125 -24.515625 C 31.253906 -22.171875 31.90625 -19.238281 31.90625 -15.71875 L 31.90625 -13.34375 L 10.71875 -13.34375 L 10.71875 -13.328125 C 10.71875 -11.003906 11.351562 -9.171875 12.625 -7.828125 C 13.894531 -6.492188 15.609375 -5.828125 17.765625 -5.828125 C 19.210938 -5.828125 20.460938 -6.128906 21.515625 -6.734375 C 22.566406 -7.347656 23.3125 -8.25 23.75 -9.4375 L 31.71875 -8.90625 C 31.113281 -6.019531 29.570312 -3.710938 27.09375 -1.984375 C 24.625 -0.253906 21.46875 0.609375 17.625 0.609375 Z M 10.71875 -18.703125 L 23.78125 -18.703125 C 23.769531 -20.546875 23.175781 -22.066406 22 -23.265625 C 20.820312 -24.472656 19.296875 -25.078125 17.421875 -25.078125 C 15.503906 -25.078125 13.929688 -24.457031 12.703125 -23.21875 C 11.472656 -21.976562 10.8125 -20.472656 10.71875 -18.703125 Z M 10.71875 -18.703125 "/></g></g></g><g fill="#000000" fill-opacity="1"><g transform="translate(530.536839, 155.392634)"><g><path d="M 3.4375 0 L 3.4375 -31.109375 L 11.8125 -31.109375 L 11.8125 -25.6875 L 12.140625 -25.6875 C 12.703125 -27.613281 13.644531 -29.070312 14.96875 -30.0625 C 16.300781 -31.0625 17.847656 -31.5625 19.609375 -31.5625 C 20.441406 -31.5625 21.21875 -31.457031 21.9375 -31.25 C 22.65625 -31.050781 23.296875 -30.773438 23.859375 -30.421875 L 21.265625 -23.296875 C 20.859375 -23.492188 20.414062 -23.664062 19.9375 -23.8125 C 19.457031 -23.957031 18.921875 -24.03125 18.328125 -24.03125 C 16.585938 -24.03125 15.113281 -23.429688 13.90625 -22.234375 C 12.695312 -21.046875 12.085938 -19.503906 12.078125 -17.609375 L 12.078125 0 Z M 3.4375 0 "/></g></g></g><g fill="#000000" fill-opacity="1"><g transform="translate(554.988466, 155.392634)"><g><path d="M 17.625 0.609375 C 14.4375 0.609375 11.6875 -0.0390625 9.375 -1.34375 C 7.070312 -2.644531 5.296875 -4.492188 4.046875 -6.890625 C 2.804688 -9.296875 2.1875 -12.140625 2.1875 -15.421875 C 2.1875 -18.617188 2.804688 -21.425781 4.046875 -23.84375 C 5.296875 -26.257812 7.050781 -28.140625 9.3125 -29.484375 C 11.570312 -30.835938 14.226562 -31.515625 17.28125 -31.515625 C 20.019531 -31.515625 22.492188 -30.929688 24.703125 -29.765625 C 26.910156 -28.609375 28.660156 -26.859375 29.953125 -24.515625 C 31.253906 -22.171875 31.90625 -19.238281 31.90625 -15.71875 L 31.90625 -13.34375 L 10.71875 -13.34375 L 10.71875 -13.328125 C 10.71875 -11.003906 11.351562 -9.171875 12.625 -7.828125 C 13.894531 -6.492188 15.609375 -5.828125 17.765625 -5.828125 C 19.210938 -5.828125 20.460938 -6.128906 21.515625 -6.734375 C 22.566406 -7.347656 23.3125 -8.25 23.75 -9.4375 L 31.71875 -8.90625 C 31.113281 -6.019531 29.570312 -3.710938 27.09375 -1.984375 C 24.625 -0.253906 21.46875 0.609375 17.625 0.609375 Z M 10.71875 -18.703125 L 23.78125 -18.703125 C 23.769531 -20.546875 23.175781 -22.066406 22 -23.265625 C 20.820312 -24.472656 19.296875 -25.078125 17.421875 -25.078125 C 15.503906 -25.078125 13.929688 -24.457031 12.703125 -23.21875 C 11.472656 -21.976562 10.8125 -20.472656 10.71875 -18.703125 Z M 10.71875 -18.703125 "/></g></g></g><g fill="#000000" fill-opacity="1"><g transform="translate(589.082998, 155.392634)"><g><path d="M 14.90625 0.5 C 12.539062 0.5 10.40625 -0.109375 8.5 -1.328125 C 6.601562 -2.546875 5.09375 -4.347656 3.96875 -6.734375 C 2.851562 -9.117188 2.296875 -12.046875 2.296875 -15.515625 C 2.296875 -19.078125 2.867188 -22.039062 4.015625 -24.40625 C 5.171875 -26.78125 6.703125 -28.554688 8.609375 -29.734375 C 10.523438 -30.921875 12.617188 -31.515625 14.890625 -31.515625 C 16.628906 -31.515625 18.082031 -31.222656 19.25 -30.640625 C 20.414062 -30.054688 21.359375 -29.332031 22.078125 -28.46875 C 22.804688 -27.601562 23.363281 -26.742188 23.75 -25.890625 L 24 -25.890625 L 24 -41.484375 L 32.609375 -41.484375 L 32.609375 0 L 24.109375 0 L 24.109375 -4.984375 L 23.75 -4.984375 C 23.351562 -4.117188 22.78125 -3.265625 22.03125 -2.421875 C 21.289062 -1.578125 20.335938 -0.878906 19.171875 -0.328125 C 18.003906 0.222656 16.582031 0.5 14.90625 0.5 Z M 17.640625 -6.359375 C 19.722656 -6.359375 21.332031 -7.195312 22.46875 -8.875 C 23.613281 -10.5625 24.1875 -12.789062 24.1875 -15.5625 C 24.1875 -18.34375 23.617188 -20.550781 22.484375 -22.1875 C 21.347656 -23.832031 19.734375 -24.65625 17.640625 -24.65625 C 15.503906 -24.65625 13.878906 -23.8125 12.765625 -22.125 C 11.648438 -20.445312 11.09375 -18.257812 11.09375 -15.5625 C 11.09375 -12.84375 11.65625 -10.628906 12.78125 -8.921875 C 13.90625 -7.210938 15.523438 -6.359375 17.640625 -6.359375 Z M 17.640625 -6.359375 "/></g></g></g><g fill="#000000" fill-opacity="1"><g transform="translate(385.085058, 234.892626)"><g><path d="M 40.21875 -26.96875 L 31.34375 -26.96875 C 31 -29.25 30.023438 -31.039062 28.421875 -32.34375 C 26.816406 -33.644531 24.8125 -34.296875 22.40625 -34.296875 C 19.1875 -34.296875 16.609375 -33.117188 14.671875 -30.765625 C 12.734375 -28.410156 11.765625 -25.070312 11.765625 -20.75 C 11.765625 -16.3125 12.738281 -12.941406 14.6875 -10.640625 C 16.644531 -8.335938 19.195312 -7.1875 22.34375 -7.1875 C 24.675781 -7.1875 26.65625 -7.796875 28.28125 -9.015625 C 29.90625 -10.242188 30.925781 -11.96875 31.34375 -14.1875 L 40.21875 -14.140625 C 39.90625 -11.597656 39 -9.207031 37.5 -6.96875 C 36 -4.726562 33.960938 -2.910156 31.390625 -1.515625 C 28.816406 -0.128906 25.753906 0.5625 22.203125 0.5625 C 18.503906 0.5625 15.195312 -0.269531 12.28125 -1.9375 C 9.375 -3.613281 7.078125 -6.039062 5.390625 -9.21875 C 3.710938 -12.394531 2.875 -16.238281 2.875 -20.75 C 2.875 -25.269531 3.722656 -29.113281 5.421875 -32.28125 C 7.128906 -35.457031 9.441406 -37.878906 12.359375 -39.546875 C 15.273438 -41.222656 18.554688 -42.0625 22.203125 -42.0625 C 25.398438 -42.0625 28.285156 -41.46875 30.859375 -40.28125 C 33.429688 -39.101562 35.535156 -37.390625 37.171875 -35.140625 C 38.816406 -32.890625 39.832031 -30.164062 40.21875 -26.96875 Z M 40.21875 -26.96875 "/></g></g></g><g fill="#000000" fill-opacity="1"><g transform="translate(427.991895, 234.892626)"><g><path d="M 12.3125 0.59375 C 9.34375 0.59375 6.878906 -0.179688 4.921875 -1.734375 C 2.960938 -3.296875 1.984375 -5.613281 1.984375 -8.6875 C 1.984375 -11.007812 2.53125 -12.832031 3.625 -14.15625 C 4.71875 -15.476562 6.148438 -16.445312 7.921875 -17.0625 C 9.703125 -17.675781 11.617188 -18.078125 13.671875 -18.265625 C 16.367188 -18.535156 18.296875 -18.816406 19.453125 -19.109375 C 20.617188 -19.410156 21.203125 -20.0625 21.203125 -21.0625 L 21.203125 -21.1875 C 21.203125 -22.46875 20.800781 -23.457031 20 -24.15625 C 19.195312 -24.863281 18.0625 -25.21875 16.59375 -25.21875 C 15.039062 -25.21875 13.800781 -24.878906 12.875 -24.203125 C 11.957031 -23.535156 11.351562 -22.679688 11.0625 -21.640625 L 3.078125 -22.28125 C 3.671875 -25.113281 5.144531 -27.359375 7.5 -29.015625 C 9.863281 -30.679688 12.90625 -31.515625 16.625 -31.515625 C 18.9375 -31.515625 21.097656 -31.148438 23.109375 -30.421875 C 25.128906 -29.691406 26.753906 -28.550781 27.984375 -27 C 29.222656 -25.457031 29.84375 -23.453125 29.84375 -20.984375 L 29.84375 0 L 21.65625 0 L 21.65625 -4.3125 L 21.40625 -4.3125 C 20.65625 -2.863281 19.523438 -1.679688 18.015625 -0.765625 C 16.515625 0.140625 14.613281 0.59375 12.3125 0.59375 Z M 14.78125 -5.375 C 16.675781 -5.375 18.226562 -5.921875 19.4375 -7.015625 C 20.65625 -8.117188 21.265625 -9.488281 21.265625 -11.125 L 21.265625 -14.421875 C 20.929688 -14.191406 20.410156 -13.988281 19.703125 -13.8125 C 18.992188 -13.632812 18.238281 -13.484375 17.4375 -13.359375 C 16.632812 -13.234375 15.914062 -13.125 15.28125 -13.03125 C 13.757812 -12.8125 12.535156 -12.382812 11.609375 -11.75 C 10.691406 -11.113281 10.234375 -10.1875 10.234375 -8.96875 C 10.234375 -7.78125 10.660156 -6.882812 11.515625 -6.28125 C 12.367188 -5.675781 13.457031 -5.375 14.78125 -5.375 Z M 14.78125 -5.375 "/></g></g></g><g fill="#000000" fill-opacity="1"><g transform="translate(461.093767, 234.892626)"><g><path d="M 29.328125 -22.25 L 21.4375 -21.75 C 21.21875 -22.75 20.664062 -23.609375 19.78125 -24.328125 C 18.90625 -25.046875 17.722656 -25.40625 16.234375 -25.40625 C 14.890625 -25.40625 13.753906 -25.125 12.828125 -24.5625 C 11.910156 -24 11.457031 -23.253906 11.46875 -22.328125 C 11.457031 -21.578125 11.75 -20.945312 12.34375 -20.4375 C 12.945312 -19.925781 13.972656 -19.515625 15.421875 -19.203125 L 21.046875 -18.0625 C 27.023438 -16.84375 30.023438 -14.035156 30.046875 -9.640625 C 30.046875 -7.597656 29.445312 -5.804688 28.25 -4.265625 C 27.050781 -2.734375 25.410156 -1.535156 23.328125 -0.671875 C 21.253906 0.179688 18.875 0.609375 16.1875 0.609375 C 12.0625 0.609375 8.773438 -0.25 6.328125 -1.96875 C 3.890625 -3.695312 2.46875 -6.046875 2.0625 -9.015625 L 10.546875 -9.453125 C 10.816406 -8.191406 11.441406 -7.234375 12.421875 -6.578125 C 13.398438 -5.929688 14.660156 -5.609375 16.203125 -5.609375 C 17.710938 -5.609375 18.929688 -5.90625 19.859375 -6.5 C 20.785156 -7.09375 21.253906 -7.847656 21.265625 -8.765625 C 21.222656 -10.304688 19.894531 -11.34375 17.28125 -11.875 L 11.890625 -12.9375 C 5.867188 -14.144531 2.867188 -17.113281 2.890625 -21.84375 C 2.878906 -24.832031 4.078125 -27.191406 6.484375 -28.921875 C 8.898438 -30.648438 12.097656 -31.515625 16.078125 -31.515625 C 20.015625 -31.515625 23.113281 -30.679688 25.375 -29.015625 C 27.632812 -27.359375 28.953125 -25.101562 29.328125 -22.25 Z M 29.328125 -22.25 "/></g></g></g><g fill="#000000" fill-opacity="1"><g transform="translate(493.142221, 234.892626)"><g><path d="M 17.625 0.609375 C 14.4375 0.609375 11.6875 -0.0390625 9.375 -1.34375 C 7.070312 -2.644531 5.296875 -4.492188 4.046875 -6.890625 C 2.804688 -9.296875 2.1875 -12.140625 2.1875 -15.421875 C 2.1875 -18.617188 2.804688 -21.425781 4.046875 -23.84375 C 5.296875 -26.257812 7.050781 -28.140625 9.3125 -29.484375 C 11.570312 -30.835938 14.226562 -31.515625 17.28125 -31.515625 C 20.019531 -31.515625 22.492188 -30.929688 24.703125 -29.765625 C 26.910156 -28.609375 28.660156 -26.859375 29.953125 -24.515625 C 31.253906 -22.171875 31.90625 -19.238281 31.90625 -15.71875 L 31.90625 -13.34375 L 10.71875 -13.34375 L 10.71875 -13.328125 C 10.71875 -11.003906 11.351562 -9.171875 12.625 -7.828125 C 13.894531 -6.492188 15.609375 -5.828125 17.765625 -5.828125 C 19.210938 -5.828125 20.460938 -6.128906 21.515625 -6.734375 C 22.566406 -7.347656 23.3125 -8.25 23.75 -9.4375 L 31.71875 -8.90625 C 31.113281 -6.019531 29.570312 -3.710938 27.09375 -1.984375 C 24.625 -0.253906 21.46875 0.609375 17.625 0.609375 Z M 10.71875 -18.703125 L 23.78125 -18.703125 C 23.769531 -20.546875 23.175781 -22.066406 22 -23.265625 C 20.820312 -24.472656 19.296875 -25.078125 17.421875 -25.078125 C 15.503906 -25.078125 13.929688 -24.457031 12.703125 -23.21875 C 11.472656 -21.976562 10.8125 -20.472656 10.71875 -18.703125 Z M 10.71875 -18.703125 "/></g></g></g><g fill="#000000" fill-opacity="1"><g transform="translate(527.236753, 234.892626)"><g><path d="M 29.328125 -22.25 L 21.4375 -21.75 C 21.21875 -22.75 20.664062 -23.609375 19.78125 -24.328125 C 18.90625 -25.046875 17.722656 -25.40625 16.234375 -25.40625 C 14.890625 -25.40625 13.753906 -25.125 12.828125 -24.5625 C 11.910156 -24 11.457031 -23.253906 11.46875 -22.328125 C 11.457031 -21.578125 11.75 -20.945312 12.34375 -20.4375 C 12.945312 -19.925781 13.972656 -19.515625 15.421875 -19.203125 L 21.046875 -18.0625 C 27.023438 -16.84375 30.023438 -14.035156 30.046875 -9.640625 C 30.046875 -7.597656 29.445312 -5.804688 28.25 -4.265625 C 27.050781 -2.734375 25.410156 -1.535156 23.328125 -0.671875 C 21.253906 0.179688 18.875 0.609375 16.1875 0.609375 C 12.0625 0.609375 8.773438 -0.25 6.328125 -1.96875 C 3.890625 -3.695312 2.46875 -6.046875 2.0625 -9.015625 L 10.546875 -9.453125 C 10.816406 -8.191406 11.441406 -7.234375 12.421875 -6.578125 C 13.398438 -5.929688 14.660156 -5.609375 16.203125 -5.609375 C 17.710938 -5.609375 18.929688 -5.90625 19.859375 -6.5 C 20.785156 -7.09375 21.253906 -7.847656 21.265625 -8.765625 C 21.222656 -10.304688 19.894531 -11.34375 17.28125 -11.875 L 11.890625 -12.9375 C 5.867188 -14.144531 2.867188 -17.113281 2.890625 -21.84375 C 2.878906 -24.832031 4.078125 -27.191406 6.484375 -28.921875 C 8.898438 -30.648438 12.097656 -31.515625 16.078125 -31.515625 C 20.015625 -31.515625 23.113281 -30.679688 25.375 -29.015625 C 27.632812 -27.359375 28.953125 -25.101562 29.328125 -22.25 Z M 29.328125 -22.25 "/></g></g></g><g fill="#000000" fill-opacity="1"><g transform="translate(400.525707, 421.650577)"><g><path d="M 35.890625 1.265625 C 26.453125 1.265625 18.960938 -0.726562 13.421875 -4.71875 C 7.890625 -8.71875 4.378906 -14.375 2.890625 -21.6875 L 16.078125 -27.828125 L 17.46875 -27.578125 C 18.945312 -22.722656 21.0625 -19.179688 23.8125 -16.953125 C 26.5625 -14.722656 30.390625 -13.609375 35.296875 -13.609375 C 40.035156 -13.609375 43.648438 -14.710938 46.140625 -16.921875 C 48.628906 -19.128906 49.875 -22.34375 49.875 -26.5625 C 49.875 -30.695312 48.632812 -33.867188 46.15625 -36.078125 C 43.6875 -38.285156 40.066406 -39.390625 35.296875 -39.390625 L 22.046875 -39.390625 L 22.046875 -52.9375 L 33.609375 -52.9375 C 37.546875 -52.9375 40.675781 -53.921875 43 -55.890625 C 45.332031 -57.859375 46.5 -60.671875 46.5 -64.328125 C 46.5 -67.941406 45.40625 -70.660156 43.21875 -72.484375 C 41.03125 -74.304688 38.003906 -75.21875 34.140625 -75.21875 C 30.210938 -75.21875 26.734375 -74.296875 23.703125 -72.453125 C 20.671875 -70.609375 18.226562 -68.117188 16.375 -64.984375 L 15 -64.75 L 5.84375 -75.40625 C 8.9375 -79.582031 12.910156 -82.941406 17.765625 -85.484375 C 22.617188 -88.035156 28.398438 -89.3125 35.109375 -89.3125 C 44.347656 -89.3125 51.394531 -87.382812 56.25 -83.53125 C 61.101562 -79.675781 63.53125 -74.253906 63.53125 -67.265625 C 63.53125 -63.054688 62.546875 -59.453125 60.578125 -56.453125 C 58.617188 -53.460938 55.789062 -50.882812 52.09375 -48.71875 L 52.09375 -47.453125 C 62.25 -43.878906 67.328125 -36.65625 67.328125 -25.78125 C 67.328125 -20.320312 66.160156 -15.5625 63.828125 -11.5 C 61.503906 -7.445312 57.992188 -4.304688 53.296875 -2.078125 C 48.597656 0.148438 42.796875 1.265625 35.890625 1.265625 Z M 35.890625 1.265625 "/></g></g></g><g fill="#000000" fill-opacity="1"><g transform="translate(473.399645, 421.650577)"><g><path d="M 43 1.265625 C 35.8125 1.265625 29.554688 -0.328125 24.234375 -3.515625 C 18.921875 -6.710938 14.785156 -11.679688 11.828125 -18.421875 C 8.878906 -25.171875 7.40625 -33.707031 7.40625 -44.03125 C 7.40625 -54.34375 8.878906 -62.867188 11.828125 -69.609375 C 14.785156 -76.359375 18.921875 -81.328125 24.234375 -84.515625 C 29.554688 -87.710938 35.8125 -89.3125 43 -89.3125 C 50.226562 -89.3125 56.5 -87.710938 61.8125 -84.515625 C 67.132812 -81.328125 71.269531 -76.359375 74.21875 -69.609375 C 77.175781 -62.867188 78.65625 -54.34375 78.65625 -44.03125 C 78.65625 -33.707031 77.175781 -25.171875 74.21875 -18.421875 C 71.269531 -11.679688 67.132812 -6.710938 61.8125 -3.515625 C 56.5 -0.328125 50.226562 1.265625 43 1.265625 Z M 43 -13.484375 C 46.9375 -13.484375 50.226562 -14.4375 52.875 -16.34375 C 55.53125 -18.257812 57.566406 -21.460938 58.984375 -25.953125 C 60.410156 -30.453125 61.125 -36.476562 61.125 -44.03125 C 61.125 -51.570312 60.410156 -57.59375 58.984375 -62.09375 C 57.566406 -66.59375 55.53125 -69.796875 52.875 -71.703125 C 50.226562 -73.609375 46.9375 -74.5625 43 -74.5625 C 39.0625 -74.5625 35.769531 -73.609375 33.125 -71.703125 C 30.476562 -69.796875 28.441406 -66.59375 27.015625 -62.09375 C 25.585938 -57.59375 24.875 -51.570312 24.875 -44.03125 C 24.875 -36.476562 25.585938 -30.453125 27.015625 -25.953125 C 28.441406 -21.460938 30.476562 -18.257812 33.125 -16.34375 C 35.769531 -14.4375 39.0625 -13.484375 43 -13.484375 Z M 43 -13.484375 "/></g></g></g></svg>